<svg xmlns="http://www.w3.org/2000/svg" xmlns:svg="http://www.w3.org/2000/svg" xmlns:xlink="http://www.w3.org/1999/xlink" width="100%" height="100%" viewBox="0 4.90163e-14 1559 883" preserveAspectRatio="xMidYMid meet" zoomAndPan="disable" transform=""><defs id="svgEditorDefs"><path id="svgEditorClosePathDefs" style="stroke: rgb(0, 0, 0); fill: rgb(240, 230, 140); vector-effect: non-scaling-stroke; stroke-width: 1px;"/><line id="svgEditorLineDefs" style="stroke: rgb(0, 0, 0); fill: none; vector-effect: non-scaling-stroke; stroke-width: 1px;"/></defs><rect id="svgEditorBackground" x="0" y="0" width="1559" height="883" style="fill: none; stroke: none;"/><path stroke-width="3" id="e2_path" style="fill: none; stroke: rgb(0, 0, 0);" d="M 506 87 L 160 285 L 194 526 L 861 571 L 797 260 Z" transform=""/><path stroke-width="1px" id="e3_curveS2" style="fill: none; stroke: rgb(0, 0, 0); vector-effect: non-scaling-stroke;" d="M 700 382 q -30 91 -137 57 t 6 -113 t 68 5 Z" transform=""/><path stroke-width="1px" id="e5_curveS3" style="stroke: rgb(0, 0, 0); fill: none; vector-effect: non-scaling-stroke;" transform="" d="M 294 327 c 27.1611 59.8861 -33.8329 40.8951 -80 -18 s -16.5233 104.858 0 134 s 210.523 43.0221 241 -9 s 52.0392 -225.46 8 -186 s 43.5016 47.2466 -8 81 s -22.5013 -128.839 -79 -134 s -89.032 55.5003 -24 99 s 79.6143 35.2493 20 74 s -118.585 -206.074 -98 -78 Z"/></svg>