<svg xmlns="http://www.w3.org/2000/svg" xmlns:xlink="http://www.w3.org/1999/xlink" version="1.1" id="Your_Icon" x="0px" y="0px" width="100px" height="100px" viewBox="0 0 100 100" enable-background="new 0 0 100 100" xml:space="preserve">
<path d="M89.102,10.898C71.46,14.706,85.294,28.538,89.102,10.898L89.102,10.898z"/>
<path d="M89.102,9.101C85.294-8.539,71.46,5.294,89.102,9.101L89.102,9.101z"/>
<path d="M90.898,10.898C94.706,28.538,108.54,14.706,90.898,10.898L90.898,10.898z"/>
<path d="M98.944,9.999c-3.183,0-5.86-0.215-8.115-0.577c0.022-0.11,0.047-0.214,0.069-0.322c-0.107,0.023-0.212,0.047-0.321,0.069  C90.215,6.916,90,4.238,90,1.056c0,3.182-0.215,5.86-0.577,8.114c-0.109-0.022-0.214-0.046-0.321-0.069  c0.022,0.107,0.047,0.212,0.069,0.322c-2.255,0.362-4.933,0.577-8.115,0.577c3.183,0,5.86,0.215,8.115,0.577  c-0.022,0.11-0.047,0.214-0.069,0.322c0.107-0.023,0.212-0.047,0.321-0.07C89.785,13.083,90,15.761,90,18.943  c0-3.182,0.215-5.86,0.577-8.114c0.109,0.022,0.214,0.046,0.321,0.07c-0.022-0.108-0.047-0.212-0.069-0.322  C93.084,10.214,95.762,9.999,98.944,9.999z"/>
<path d="M90.898,9.101C108.54,5.294,94.706-8.539,90.898,9.101L90.898,9.101z"/>
<path d="M89.102,30.897C71.46,34.706,85.294,48.538,89.102,30.897L89.102,30.897z"/>
<path d="M89.102,29.1C85.294,11.46,71.46,25.293,89.102,29.1L89.102,29.1z"/>
<path d="M90.898,30.897C94.706,48.538,108.54,34.706,90.898,30.897L90.898,30.897z"/>
<path d="M90.898,29.1C108.54,25.293,94.706,11.46,90.898,29.1L90.898,29.1z"/>
<path d="M90.577,29.169C90.215,26.915,90,24.237,90,21.055c0,3.182-0.215,5.86-0.577,8.115c-0.109-0.022-0.214-0.046-0.321-0.07  c0.022,0.107,0.047,0.212,0.069,0.322c-2.255,0.361-4.933,0.576-8.115,0.576c3.183,0,5.86,0.215,8.115,0.577  c-0.022,0.11-0.047,0.215-0.069,0.322c0.107-0.023,0.212-0.047,0.321-0.07C89.785,33.082,90,35.76,90,38.942  c0-3.182,0.215-5.86,0.577-8.115c0.109,0.022,0.214,0.046,0.321,0.07c-0.022-0.107-0.047-0.212-0.069-0.322  c2.255-0.362,4.933-0.577,8.115-0.577c-3.183,0-5.86-0.215-8.115-0.576c0.022-0.11,0.047-0.215,0.069-0.322  C90.791,29.123,90.687,29.147,90.577,29.169z"/>
<path d="M89.102,50.897C71.46,54.704,85.294,68.538,89.102,50.897L89.102,50.897z"/>
<path d="M90.898,49.099C108.54,45.292,94.706,31.458,90.898,49.099L90.898,49.099z"/>
<path d="M90.898,50.897C94.706,68.538,108.54,54.704,90.898,50.897L90.898,50.897z"/>
<path d="M89.102,49.099C85.294,31.458,71.46,45.292,89.102,49.099L89.102,49.099z"/>
<path d="M90.577,49.169C90.215,46.914,90,44.236,90,41.054c0,3.182-0.215,5.86-0.577,8.115c-0.109-0.022-0.214-0.047-0.321-0.07  c0.022,0.107,0.047,0.212,0.069,0.322c-2.255,0.361-4.933,0.577-8.115,0.577c3.183,0,5.86,0.215,8.115,0.577  c-0.022,0.11-0.047,0.215-0.069,0.322c0.107-0.023,0.212-0.047,0.321-0.07C89.785,53.082,90,55.76,90,58.942  c0-3.183,0.215-5.86,0.577-8.115c0.109,0.022,0.214,0.047,0.321,0.07c-0.022-0.107-0.047-0.212-0.069-0.322  c2.255-0.361,4.933-0.577,8.115-0.577c-3.183,0-5.86-0.215-8.115-0.577c0.022-0.11,0.047-0.215,0.069-0.322  C90.791,49.122,90.687,49.146,90.577,49.169z"/>
<path d="M89.102,69.098C85.294,51.458,71.46,65.289,89.102,69.098L89.102,69.098z"/>
<path d="M90.898,70.896C94.706,88.535,108.54,74.702,90.898,70.896L90.898,70.896z"/>
<path d="M89.102,70.896C71.46,74.702,85.294,88.535,89.102,70.896L89.102,70.896z"/>
<path d="M90.577,69.167C90.215,66.913,90,64.234,90,61.053c0,3.182-0.215,5.86-0.577,8.114c-0.109-0.022-0.214-0.046-0.321-0.069  c0.022,0.107,0.047,0.212,0.069,0.322c-2.255,0.361-4.933,0.577-8.115,0.577c3.183,0,5.86,0.215,8.115,0.576  c-0.022,0.11-0.047,0.215-0.069,0.322c0.107-0.023,0.212-0.047,0.321-0.069C89.785,73.08,90,75.759,90,78.94  c0-3.182,0.215-5.86,0.577-8.114c0.109,0.022,0.214,0.046,0.321,0.069c-0.022-0.107-0.047-0.212-0.069-0.322  c2.255-0.361,4.933-0.576,8.115-0.576c-3.183,0-5.86-0.216-8.115-0.577c0.022-0.11,0.047-0.215,0.069-0.322  C90.791,69.121,90.687,69.145,90.577,69.167z"/>
<path d="M90.898,69.098C108.54,65.289,94.706,51.458,90.898,69.098L90.898,69.098z"/>
<path d="M90.898,90.895C94.706,108.536,108.54,94.702,90.898,90.895L90.898,90.895z"/>
<path d="M89.102,90.895C71.46,94.702,85.294,108.536,89.102,90.895L89.102,90.895z"/>
<path d="M90.898,89.098C108.54,85.29,94.706,71.456,90.898,89.098L90.898,89.098z"/>
<path d="M89.102,89.098C85.294,71.456,71.46,85.29,89.102,89.098L89.102,89.098z"/>
<path d="M90.577,89.167C90.215,86.912,90,84.234,90,81.052c0,3.183-0.215,5.86-0.577,8.115c-0.109-0.022-0.214-0.047-0.321-0.069  c0.022,0.107,0.047,0.212,0.069,0.321c-2.255,0.362-4.933,0.577-8.115,0.577c3.183,0,5.86,0.215,8.115,0.577  c-0.022,0.109-0.047,0.214-0.069,0.321c0.107-0.022,0.212-0.047,0.321-0.069C89.785,93.08,90,95.758,90,98.94  c0-3.183,0.215-5.86,0.577-8.115c0.109,0.022,0.214,0.047,0.321,0.069c-0.022-0.107-0.047-0.212-0.069-0.321  c2.255-0.362,4.933-0.577,8.115-0.577c-3.183,0-5.86-0.215-8.115-0.577c0.022-0.109,0.047-0.214,0.069-0.321  C90.791,89.12,90.687,89.145,90.577,89.167z"/>
<path d="M69.102,10.898C51.462,14.706,65.293,28.538,69.102,10.898L69.102,10.898z"/>
<path d="M69.102,9.101C65.293-8.539,51.462,5.294,69.102,9.101L69.102,9.101z"/>
<path d="M70.899,10.898C74.706,28.538,88.539,14.706,70.899,10.898L70.899,10.898z"/>
<path d="M70.899,9.101C88.539,5.294,74.706-8.539,70.899,9.101L70.899,9.101z"/>
<path d="M70.577,9.17c-0.361-2.254-0.576-4.932-0.576-8.114c0,3.182-0.216,5.86-0.577,8.114c-0.11-0.022-0.215-0.046-0.322-0.069  c0.023,0.107,0.047,0.212,0.069,0.322c-2.254,0.362-4.933,0.577-8.114,0.577c3.182,0,5.86,0.215,8.114,0.577  c-0.022,0.11-0.046,0.214-0.069,0.322c0.107-0.023,0.212-0.047,0.322-0.07c0.361,2.254,0.577,4.932,0.577,8.114  c0-3.182,0.215-5.86,0.576-8.114c0.11,0.022,0.215,0.046,0.322,0.07c-0.023-0.108-0.047-0.212-0.069-0.322  c2.254-0.362,4.933-0.577,8.114-0.577c-3.182,0-5.86-0.215-8.114-0.577c0.022-0.11,0.046-0.214,0.069-0.322  C70.792,9.124,70.688,9.147,70.577,9.17z"/>
<path d="M70.899,30.897C74.706,48.538,88.539,34.706,70.899,30.897L70.899,30.897z"/>
<path d="M69.102,30.897C51.462,34.706,65.293,48.538,69.102,30.897L69.102,30.897z"/>
<path d="M70.899,29.1C88.539,25.293,74.706,11.46,70.899,29.1L70.899,29.1z"/>
<path d="M70.577,29.169c-0.361-2.254-0.576-4.933-0.576-8.115c0,3.182-0.216,5.86-0.577,8.115c-0.11-0.022-0.215-0.046-0.322-0.07  c0.023,0.107,0.047,0.212,0.069,0.322c-2.254,0.361-4.933,0.576-8.114,0.576c3.182,0,5.86,0.215,8.114,0.577  c-0.022,0.11-0.046,0.215-0.069,0.322c0.107-0.023,0.212-0.047,0.322-0.07c0.361,2.254,0.577,4.933,0.577,8.115  c0-3.182,0.215-5.86,0.576-8.115c0.11,0.022,0.215,0.046,0.322,0.07c-0.023-0.107-0.047-0.212-0.069-0.322  c2.254-0.362,4.933-0.577,8.114-0.577c-3.182,0-5.86-0.215-8.114-0.576c0.022-0.11,0.046-0.215,0.069-0.322  C70.792,29.123,70.688,29.147,70.577,29.169z"/>
<path d="M69.102,29.1C65.293,11.46,51.462,25.293,69.102,29.1L69.102,29.1z"/>
<path d="M70.899,50.897C74.706,68.538,88.539,54.704,70.899,50.897L70.899,50.897z"/>
<path d="M69.102,49.099C65.293,31.458,51.462,45.292,69.102,49.099L69.102,49.099z"/>
<path d="M69.102,50.897C51.462,54.704,65.293,68.538,69.102,50.897L69.102,50.897z"/>
<path d="M70.899,49.099C88.539,45.292,74.706,31.458,70.899,49.099L70.899,49.099z"/>
<path d="M70.577,49.169c-0.361-2.255-0.576-4.933-0.576-8.115c0,3.182-0.216,5.86-0.577,8.115c-0.11-0.022-0.215-0.046-0.322-0.07  c0.023,0.107,0.047,0.212,0.069,0.322c-2.254,0.361-4.933,0.577-8.114,0.577c3.182,0,5.86,0.215,8.114,0.577  c-0.022,0.11-0.046,0.215-0.069,0.322c0.107-0.023,0.212-0.047,0.322-0.07c0.361,2.255,0.577,4.933,0.577,8.115  c0-3.183,0.215-5.86,0.576-8.115c0.11,0.022,0.215,0.047,0.322,0.07c-0.023-0.107-0.047-0.212-0.069-0.322  c2.254-0.361,4.933-0.577,8.114-0.577c-3.182,0-5.86-0.215-8.114-0.577c0.022-0.11,0.046-0.215,0.069-0.322  C70.792,49.122,70.688,49.146,70.577,49.169z"/>
<path d="M69.102,70.896C51.462,74.702,65.293,88.535,69.102,70.896L69.102,70.896z"/>
<path d="M70.899,70.896C74.706,88.535,88.539,74.702,70.899,70.896L70.899,70.896z"/>
<path d="M70.577,69.167c-0.361-2.254-0.576-4.933-0.576-8.114c0,3.182-0.216,5.86-0.577,8.114c-0.11-0.022-0.215-0.046-0.322-0.069  c0.023,0.107,0.047,0.212,0.069,0.322c-2.254,0.361-4.933,0.577-8.114,0.577c3.182,0,5.86,0.215,8.114,0.576  c-0.022,0.11-0.046,0.215-0.069,0.322c0.107-0.023,0.212-0.047,0.322-0.069c0.361,2.254,0.577,4.933,0.577,8.114  c0-3.182,0.215-5.86,0.576-8.114c0.11,0.022,0.215,0.046,0.322,0.069c-0.023-0.107-0.047-0.212-0.069-0.322  c2.254-0.361,4.933-0.576,8.114-0.576c-3.182,0-5.86-0.216-8.114-0.577c0.022-0.11,0.046-0.215,0.069-0.322  C70.792,69.121,70.688,69.145,70.577,69.167z"/>
<path d="M70.899,69.098C88.539,65.289,74.706,51.458,70.899,69.098L70.899,69.098z"/>
<path d="M69.102,69.098C65.293,51.458,51.462,65.289,69.102,69.098L69.102,69.098z"/>
<path d="M69.102,90.895C51.462,94.702,65.293,108.536,69.102,90.895L69.102,90.895z"/>
<path d="M70.899,90.895C74.706,108.536,88.539,94.702,70.899,90.895L70.899,90.895z"/>
<path d="M69.102,89.098C65.293,71.456,51.462,85.29,69.102,89.098L69.102,89.098z"/>
<path d="M70.577,89.167c-0.361-2.255-0.576-4.933-0.576-8.115c0,3.183-0.216,5.86-0.577,8.115c-0.11-0.022-0.215-0.047-0.322-0.069  c0.023,0.107,0.047,0.212,0.069,0.321c-2.254,0.362-4.933,0.577-8.114,0.577c3.182,0,5.86,0.215,8.114,0.577  c-0.022,0.109-0.046,0.214-0.069,0.321c0.107-0.022,0.212-0.047,0.322-0.069c0.361,2.255,0.577,4.933,0.577,8.115  c0-3.183,0.215-5.86,0.576-8.115c0.11,0.022,0.215,0.047,0.322,0.069c-0.023-0.107-0.047-0.212-0.069-0.321  c2.254-0.362,4.933-0.577,8.114-0.577c-3.182,0-5.86-0.215-8.114-0.577c0.022-0.109,0.046-0.214,0.069-0.321  C70.792,89.12,70.688,89.145,70.577,89.167z"/>
<path d="M70.899,89.098C88.539,85.29,74.706,71.456,70.899,89.098L70.899,89.098z"/>
<path d="M50.898,10.898C54.705,28.538,68.538,14.706,50.898,10.898L50.898,10.898z"/>
<path d="M49.101,10.898C31.46,14.706,45.292,28.538,49.101,10.898L49.101,10.898z"/>
<path d="M50.576,9.17C50.215,6.916,50,4.238,50,1.056c0,3.182-0.215,5.86-0.577,8.114c-0.11-0.022-0.215-0.046-0.322-0.069  c0.023,0.107,0.047,0.212,0.07,0.322c-2.254,0.362-4.933,0.577-8.115,0.577c3.182,0,5.86,0.215,8.115,0.577  c-0.022,0.11-0.046,0.214-0.07,0.322c0.107-0.023,0.212-0.047,0.322-0.07C49.785,13.083,50,15.761,50,18.943  c0-3.182,0.215-5.86,0.576-8.114c0.11,0.022,0.215,0.046,0.322,0.07c-0.023-0.108-0.047-0.212-0.07-0.322  c2.254-0.362,4.933-0.577,8.115-0.577c-3.182,0-5.86-0.215-8.115-0.577c0.022-0.11,0.046-0.214,0.07-0.322  C50.791,9.124,50.686,9.147,50.576,9.17z"/>
<path d="M49.101,9.101C45.292-8.539,31.46,5.294,49.101,9.101L49.101,9.101z"/>
<path d="M50.898,9.101C68.538,5.294,54.705-8.539,50.898,9.101L50.898,9.101z"/>
<path d="M49.101,29.1C45.292,11.46,31.46,25.293,49.101,29.1L49.101,29.1z"/>
<path d="M49.101,30.897C31.46,34.706,45.292,48.538,49.101,30.897L49.101,30.897z"/>
<path d="M50.898,30.897C54.705,48.538,68.538,34.706,50.898,30.897L50.898,30.897z"/>
<path d="M50.576,29.169C50.215,26.915,50,24.237,50,21.055c0,3.182-0.215,5.86-0.577,8.115c-0.11-0.022-0.215-0.046-0.322-0.07  c0.023,0.107,0.047,0.212,0.07,0.322c-2.254,0.361-4.933,0.576-8.115,0.576c3.182,0,5.86,0.215,8.115,0.577  c-0.022,0.11-0.046,0.215-0.07,0.322c0.107-0.023,0.212-0.047,0.322-0.07C49.785,33.082,50,35.76,50,38.942  c0-3.182,0.215-5.86,0.576-8.115c0.11,0.022,0.215,0.046,0.322,0.07c-0.023-0.107-0.047-0.212-0.07-0.322  c2.254-0.362,4.933-0.577,8.115-0.577c-3.182,0-5.86-0.215-8.115-0.576c0.022-0.11,0.046-0.215,0.07-0.322  C50.791,29.123,50.686,29.147,50.576,29.169z"/>
<path d="M50.898,29.1C68.538,25.293,54.705,11.46,50.898,29.1L50.898,29.1z"/>
<path d="M50.898,50.897C54.705,68.538,68.538,54.704,50.898,50.897L50.898,50.897z"/>
<path d="M49.101,49.099C45.292,31.458,31.46,45.292,49.101,49.099L49.101,49.099z"/>
<path d="M49.101,50.897C31.46,54.704,45.292,68.538,49.101,50.897L49.101,50.897z"/>
<path d="M50.898,49.099C68.538,45.292,54.705,31.458,50.898,49.099L50.898,49.099z"/>
<path d="M50.576,49.169C50.215,46.914,50,44.236,50,41.054c0,3.182-0.215,5.86-0.577,8.115c-0.11-0.022-0.215-0.046-0.322-0.07  c0.023,0.107,0.047,0.212,0.07,0.322c-2.254,0.361-4.933,0.577-8.115,0.577c3.182,0,5.86,0.215,8.115,0.577  c-0.022,0.11-0.046,0.215-0.07,0.322c0.107-0.023,0.212-0.047,0.322-0.07C49.785,53.082,50,55.76,50,58.942  c0-3.183,0.215-5.86,0.576-8.115c0.11,0.022,0.215,0.047,0.322,0.07c-0.023-0.107-0.047-0.212-0.07-0.322  c2.254-0.361,4.933-0.577,8.115-0.577c-3.182,0-5.86-0.215-8.115-0.577c0.022-0.11,0.046-0.215,0.07-0.322  C50.791,49.122,50.686,49.146,50.576,49.169z"/>
<path d="M50.898,70.896C54.705,88.535,68.538,74.702,50.898,70.896L50.898,70.896z"/>
<path d="M49.101,70.896C31.46,74.702,45.292,88.535,49.101,70.896L49.101,70.896z"/>
<path d="M49.101,69.098C45.292,51.458,31.46,65.289,49.101,69.098L49.101,69.098z"/>
<path d="M50.898,69.098C68.538,65.289,54.705,51.458,50.898,69.098L50.898,69.098z"/>
<path d="M50.576,69.167C50.215,66.913,50,64.234,50,61.053c0,3.182-0.215,5.86-0.577,8.114c-0.11-0.022-0.215-0.046-0.322-0.069  c0.023,0.107,0.047,0.212,0.07,0.322c-2.254,0.361-4.933,0.577-8.115,0.577c3.182,0,5.86,0.215,8.115,0.576  c-0.022,0.11-0.046,0.215-0.07,0.322c0.107-0.023,0.212-0.047,0.322-0.069C49.785,73.08,50,75.759,50,78.94  c0-3.182,0.215-5.86,0.576-8.114c0.11,0.022,0.215,0.046,0.322,0.069c-0.023-0.107-0.047-0.212-0.07-0.322  c2.254-0.361,4.933-0.576,8.115-0.576c-3.182,0-5.86-0.216-8.115-0.577c0.022-0.11,0.046-0.215,0.07-0.322  C50.791,69.121,50.686,69.145,50.576,69.167z"/>
<path d="M49.101,90.895C31.46,94.702,45.292,108.536,49.101,90.895L49.101,90.895z"/>
<path d="M50.898,90.895C54.705,108.536,68.538,94.702,50.898,90.895L50.898,90.895z"/>
<path d="M50.898,89.098C68.538,85.29,54.705,71.456,50.898,89.098L50.898,89.098z"/>
<path d="M50.576,89.167C50.215,86.912,50,84.234,50,81.052c0,3.183-0.215,5.86-0.577,8.115c-0.11-0.022-0.215-0.047-0.322-0.069  c0.023,0.107,0.047,0.212,0.07,0.321c-2.254,0.362-4.933,0.577-8.115,0.577c3.182,0,5.86,0.215,8.115,0.577  c-0.022,0.109-0.046,0.214-0.07,0.321c0.107-0.022,0.212-0.047,0.322-0.069C49.785,93.08,50,95.758,50,98.94  c0-3.183,0.215-5.86,0.576-8.115c0.11,0.022,0.215,0.047,0.322,0.069c-0.023-0.107-0.047-0.212-0.07-0.321  c2.254-0.362,4.933-0.577,8.115-0.577c-3.182,0-5.86-0.215-8.115-0.577c0.022-0.109,0.046-0.214,0.07-0.321  C50.791,89.12,50.686,89.145,50.576,89.167z"/>
<path d="M49.101,89.098C45.292,71.456,31.46,85.29,49.101,89.098L49.101,89.098z"/>
<path d="M30.899,10.898C34.706,28.538,48.538,14.706,30.899,10.898L30.899,10.898z"/>
<path d="M29.102,10.898C11.462,14.706,25.293,28.538,29.102,10.898L29.102,10.898z"/>
<path d="M30.577,9.17C30.216,6.916,30,4.238,30,1.056c0,3.182-0.215,5.86-0.577,8.114c-0.11-0.022-0.214-0.046-0.322-0.069  c0.023,0.107,0.047,0.212,0.069,0.322c-2.254,0.362-4.932,0.577-8.114,0.577c3.182,0,5.86,0.215,8.114,0.577  c-0.022,0.11-0.046,0.214-0.069,0.322c0.107-0.023,0.212-0.047,0.322-0.07C29.785,13.083,30,15.761,30,18.943  c0-3.182,0.215-5.86,0.577-8.114c0.11,0.022,0.214,0.046,0.322,0.07c-0.023-0.108-0.047-0.212-0.069-0.322  c2.254-0.362,4.932-0.577,8.114-0.577c-3.182,0-5.86-0.215-8.114-0.577c0.022-0.11,0.046-0.214,0.069-0.322  C30.792,9.124,30.687,9.147,30.577,9.17z"/>
<path d="M29.102,9.101C25.293-8.539,11.462,5.294,29.102,9.101L29.102,9.101z"/>
<path d="M30.899,9.101C48.538,5.294,34.706-8.539,30.899,9.101L30.899,9.101z"/>
<path d="M29.102,29.1C25.293,11.46,11.462,25.293,29.102,29.1L29.102,29.1z"/>
<path d="M30.899,30.897C34.706,48.538,48.538,34.706,30.899,30.897L30.899,30.897z"/>
<path d="M29.102,30.897C11.462,34.706,25.293,48.538,29.102,30.897L29.102,30.897z"/>
<path d="M30.899,29.1C48.538,25.293,34.706,11.46,30.899,29.1L30.899,29.1z"/>
<path d="M30.577,29.169C30.216,26.915,30,24.237,30,21.055c0,3.182-0.215,5.86-0.577,8.115c-0.11-0.022-0.214-0.046-0.322-0.07  c0.023,0.107,0.047,0.212,0.069,0.322c-2.254,0.361-4.932,0.576-8.114,0.576c3.182,0,5.86,0.215,8.114,0.577  c-0.022,0.11-0.046,0.215-0.069,0.322c0.107-0.023,0.212-0.047,0.322-0.07C29.785,33.082,30,35.76,30,38.942  c0-3.182,0.215-5.86,0.577-8.115c0.11,0.022,0.214,0.046,0.322,0.07c-0.023-0.107-0.047-0.212-0.069-0.322  c2.254-0.362,4.932-0.577,8.114-0.577c-3.182,0-5.86-0.215-8.114-0.576c0.022-0.11,0.046-0.215,0.069-0.322  C30.792,29.123,30.687,29.147,30.577,29.169z"/>
<path d="M30.899,50.897C34.706,68.538,48.538,54.704,30.899,50.897L30.899,50.897z"/>
<path d="M29.102,50.897C11.462,54.704,25.293,68.538,29.102,50.897L29.102,50.897z"/>
<path d="M30.899,49.099C48.538,45.292,34.706,31.458,30.899,49.099L30.899,49.099z"/>
<path d="M29.102,49.099C25.293,31.458,11.462,45.292,29.102,49.099L29.102,49.099z"/>
<path d="M30.577,49.169C30.216,46.914,30,44.236,30,41.054c0,3.182-0.215,5.86-0.577,8.115c-0.11-0.022-0.214-0.047-0.322-0.07  c0.023,0.107,0.047,0.212,0.069,0.322c-2.254,0.361-4.932,0.577-8.114,0.577c3.182,0,5.86,0.215,8.114,0.577  c-0.022,0.11-0.046,0.215-0.069,0.322c0.107-0.023,0.212-0.047,0.322-0.07C29.785,53.082,30,55.76,30,58.942  c0-3.183,0.215-5.86,0.577-8.115c0.11,0.022,0.214,0.047,0.322,0.07c-0.023-0.107-0.047-0.212-0.069-0.322  c2.254-0.361,4.932-0.577,8.114-0.577c-3.182,0-5.86-0.215-8.114-0.577c0.022-0.11,0.046-0.215,0.069-0.322  C30.792,49.122,30.687,49.146,30.577,49.169z"/>
<path d="M30.899,70.896C34.706,88.535,48.538,74.702,30.899,70.896L30.899,70.896z"/>
<path d="M29.102,69.098C25.293,51.458,11.462,65.289,29.102,69.098L29.102,69.098z"/>
<path d="M29.102,70.896C11.462,74.702,25.293,88.535,29.102,70.896L29.102,70.896z"/>
<path d="M30.577,69.167C30.216,66.913,30,64.234,30,61.053c0,3.182-0.215,5.86-0.577,8.114c-0.11-0.022-0.214-0.046-0.322-0.069  c0.023,0.107,0.047,0.212,0.069,0.322c-2.254,0.361-4.932,0.577-8.114,0.577c3.182,0,5.86,0.215,8.114,0.576  c-0.022,0.11-0.046,0.215-0.069,0.322c0.107-0.023,0.212-0.047,0.322-0.069C29.785,73.08,30,75.759,30,78.94  c0-3.182,0.215-5.86,0.577-8.114c0.11,0.022,0.214,0.046,0.322,0.069c-0.023-0.107-0.047-0.212-0.069-0.322  c2.254-0.361,4.932-0.576,8.114-0.576c-3.182,0-5.86-0.216-8.114-0.577c0.022-0.11,0.046-0.215,0.069-0.322  C30.792,69.121,30.687,69.145,30.577,69.167z"/>
<path d="M30.899,69.098C48.538,65.289,34.706,51.458,30.899,69.098L30.899,69.098z"/>
<path d="M29.102,89.098C25.293,71.456,11.462,85.29,29.102,89.098L29.102,89.098z"/>
<path d="M29.102,90.895C11.462,94.702,25.293,108.536,29.102,90.895L29.102,90.895z"/>
<path d="M30.899,90.895C34.706,108.536,48.538,94.702,30.899,90.895L30.899,90.895z"/>
<path d="M30.899,89.098C48.538,85.29,34.706,71.456,30.899,89.098L30.899,89.098z"/>
<path d="M30.577,89.167C30.216,86.912,30,84.234,30,81.052c0,3.183-0.215,5.86-0.577,8.115c-0.11-0.022-0.214-0.047-0.322-0.069  c0.023,0.107,0.047,0.212,0.069,0.321c-2.254,0.362-4.932,0.577-8.114,0.577c3.182,0,5.86,0.215,8.114,0.577  c-0.022,0.109-0.046,0.214-0.069,0.321c0.107-0.022,0.212-0.047,0.322-0.069C29.785,93.08,30,95.758,30,98.94  c0-3.183,0.215-5.86,0.577-8.115c0.11,0.022,0.214,0.047,0.322,0.069c-0.023-0.107-0.047-0.212-0.069-0.321  c2.254-0.362,4.932-0.577,8.114-0.577c-3.182,0-5.86-0.215-8.114-0.577c0.022-0.109,0.046-0.214,0.069-0.321  C30.792,89.12,30.687,89.145,30.577,89.167z"/>
<path d="M9.102,10.898C-8.539,14.706,5.293,28.538,9.102,10.898L9.102,10.898z"/>
<path d="M10.899,10.898C14.706,28.538,28.539,14.706,10.899,10.898L10.899,10.898z"/>
<path d="M10.577,9.17c-0.361-2.254-0.576-4.932-0.576-8.114c0,3.182-0.215,5.86-0.577,8.114c-0.11-0.022-0.215-0.046-0.322-0.069  c0.023,0.107,0.047,0.212,0.07,0.322C6.917,9.784,4.239,9.999,1.057,9.999c3.182,0,5.86,0.215,8.115,0.577  c-0.022,0.11-0.046,0.214-0.07,0.322c0.107-0.023,0.212-0.047,0.322-0.07c0.362,2.254,0.577,4.932,0.577,8.114  c0-3.182,0.215-5.86,0.576-8.114c0.11,0.022,0.215,0.046,0.322,0.07c-0.023-0.108-0.047-0.212-0.07-0.322  c2.254-0.362,4.933-0.577,8.115-0.577c-3.182,0-5.86-0.215-8.115-0.577c0.022-0.11,0.046-0.214,0.07-0.322  C10.792,9.124,10.687,9.147,10.577,9.17z"/>
<path d="M10.899,9.101C28.539,5.294,14.706-8.539,10.899,9.101L10.899,9.101z"/>
<path d="M9.102,9.101C5.293-8.539-8.539,5.294,9.102,9.101L9.102,9.101z"/>
<path d="M9.102,30.897C-8.539,34.706,5.293,48.538,9.102,30.897L9.102,30.897z"/>
<path d="M9.102,29.1C5.293,11.46-8.539,25.293,9.102,29.1L9.102,29.1z"/>
<path d="M10.899,30.897C14.706,48.538,28.539,34.706,10.899,30.897L10.899,30.897z"/>
<path d="M10.577,29.169c-0.361-2.254-0.576-4.933-0.576-8.115c0,3.182-0.215,5.86-0.577,8.115c-0.11-0.022-0.215-0.046-0.322-0.07  c0.023,0.107,0.047,0.212,0.07,0.322c-2.254,0.361-4.933,0.576-8.115,0.576c3.182,0,5.86,0.215,8.115,0.577  c-0.022,0.11-0.046,0.215-0.07,0.322c0.107-0.023,0.212-0.047,0.322-0.07c0.362,2.254,0.577,4.933,0.577,8.115  c0-3.182,0.215-5.86,0.576-8.115c0.11,0.022,0.215,0.046,0.322,0.07c-0.023-0.107-0.047-0.212-0.07-0.322  c2.254-0.362,4.933-0.577,8.115-0.577c-3.182,0-5.86-0.215-8.115-0.576c0.022-0.11,0.046-0.215,0.07-0.322  C10.792,29.123,10.687,29.147,10.577,29.169z"/>
<path d="M10.899,29.1C28.539,25.293,14.706,11.46,10.899,29.1L10.899,29.1z"/>
<path d="M9.102,50.897C-8.539,54.704,5.293,68.538,9.102,50.897L9.102,50.897z"/>
<path d="M10.899,50.897C14.706,68.538,28.539,54.704,10.899,50.897L10.899,50.897z"/>
<path d="M10.577,49.169c-0.361-2.255-0.576-4.933-0.576-8.115c0,3.182-0.215,5.86-0.577,8.115c-0.11-0.022-0.215-0.046-0.322-0.07  c0.023,0.107,0.047,0.212,0.07,0.322c-2.254,0.361-4.933,0.577-8.115,0.577c3.182,0,5.86,0.215,8.115,0.577  c-0.022,0.11-0.046,0.215-0.07,0.322c0.107-0.023,0.212-0.047,0.322-0.07c0.362,2.255,0.577,4.933,0.577,8.115  c0-3.183,0.215-5.86,0.576-8.115c0.11,0.022,0.215,0.047,0.322,0.07c-0.023-0.107-0.047-0.212-0.07-0.322  c2.254-0.361,4.933-0.577,8.115-0.577c-3.182,0-5.86-0.215-8.115-0.577c0.022-0.11,0.046-0.215,0.07-0.322  C10.792,49.122,10.687,49.146,10.577,49.169z"/>
<path d="M9.102,49.099C5.293,31.458-8.539,45.292,9.102,49.099L9.102,49.099z"/>
<path d="M10.899,49.099C28.539,45.292,14.706,31.458,10.899,49.099L10.899,49.099z"/>
<path d="M9.102,69.098C5.293,51.458-8.539,65.289,9.102,69.098L9.102,69.098z"/>
<path d="M10.899,70.896C14.706,88.535,28.539,74.702,10.899,70.896L10.899,70.896z"/>
<path d="M9.102,70.896C-8.539,74.702,5.293,88.535,9.102,70.896L9.102,70.896z"/>
<path d="M10.577,69.167c-0.361-2.254-0.576-4.933-0.576-8.114c0,3.182-0.215,5.86-0.577,8.114c-0.11-0.022-0.215-0.046-0.322-0.069  c0.023,0.107,0.047,0.212,0.07,0.322c-2.254,0.361-4.933,0.577-8.115,0.577c3.182,0,5.86,0.215,8.115,0.576  c-0.022,0.11-0.046,0.215-0.07,0.322c0.107-0.023,0.212-0.047,0.322-0.069c0.362,2.254,0.577,4.933,0.577,8.114  c0-3.182,0.215-5.86,0.576-8.114c0.11,0.022,0.215,0.046,0.322,0.069c-0.023-0.107-0.047-0.212-0.07-0.322  c2.254-0.361,4.933-0.576,8.115-0.576c-3.182,0-5.86-0.216-8.115-0.577c0.022-0.11,0.046-0.215,0.07-0.322  C10.792,69.121,10.687,69.145,10.577,69.167z"/>
<path d="M10.899,69.098C28.539,65.289,14.706,51.458,10.899,69.098L10.899,69.098z"/>
<path d="M10.899,89.098C28.539,85.29,14.706,71.456,10.899,89.098L10.899,89.098z"/>
<path d="M10.899,90.895C14.706,108.536,28.539,94.702,10.899,90.895L10.899,90.895z"/>
<path d="M9.102,90.895C-8.539,94.702,5.293,108.536,9.102,90.895L9.102,90.895z"/>
<path d="M10.577,89.167c-0.361-2.255-0.576-4.933-0.576-8.115c0,3.183-0.215,5.86-0.577,8.115c-0.11-0.022-0.215-0.047-0.322-0.069  c0.023,0.107,0.047,0.212,0.07,0.321c-2.254,0.362-4.933,0.577-8.115,0.577c3.182,0,5.86,0.215,8.115,0.577  c-0.022,0.109-0.046,0.214-0.07,0.321c0.107-0.022,0.212-0.047,0.322-0.069c0.362,2.255,0.577,4.933,0.577,8.115  c0-3.183,0.215-5.86,0.576-8.115c0.11,0.022,0.215,0.047,0.322,0.069c-0.023-0.107-0.047-0.212-0.07-0.321  c2.254-0.362,4.933-0.577,8.115-0.577c-3.182,0-5.86-0.215-8.115-0.577c0.022-0.109,0.046-0.214,0.07-0.321  C10.792,89.12,10.687,89.145,10.577,89.167z"/>
<path d="M9.102,89.098C5.293,71.456-8.539,85.29,9.102,89.098L9.102,89.098z"/>
</svg>