<?xml version="1.0" encoding="UTF-8" standalone="no"?>
<svg
   xmlns:dc="http://purl.org/dc/elements/1.1/"
   xmlns:cc="http://creativecommons.org/ns#"
   xmlns:rdf="http://www.w3.org/1999/02/22-rdf-syntax-ns#"
   xmlns:svg="http://www.w3.org/2000/svg"
   xmlns="http://www.w3.org/2000/svg"
   viewBox="0 0 480 480"
   height="480"
   width="480"
   version="1.1"
   id="svg4730">
  <metadata
     id="metadata4736">
    <rdf:RDF>
      <cc:Work
         rdf:about="">
        <dc:format>image/svg+xml</dc:format>
        <dc:type
           rdf:resource="http://purl.org/dc/dcmitype/StillImage" />
        <dc:title></dc:title>
      </cc:Work>
    </rdf:RDF>
  </metadata>
  <defs
     id="defs4734" />
  <path
     id="path5280"
     d="m 226.62871,376.2548 c -2.90637,-1.58136 -5.37674,-2.20148 -17.34375,-4.3537 -8.69193,-1.56321 -19.80674,-4.69279 -29.0625,-8.18307 -3.86719,-1.45829 -8.91074,-2.94846 -11.20789,-3.31147 -6.08182,-0.96109 -18.03512,-7.26249 -21.90783,-11.54912 -3.89615,-4.31256 -5.31356,-8.71167 -5.30543,-16.46602 0.009,-8.25733 2.39338,-16.00663 8.9435,-29.0625 3.53149,-7.03904 5.30465,-11.82753 6.42236,-17.34375 0.83087,-4.10063 8.92033,-11.86985 13.68029,-13.13873 4.80893,-1.28194 12.53751,-0.64861 17.52741,1.4363 5.4607,2.28162 8.93572,1.82732 10.77713,-1.40893 5.08369,-8.93452 19.63611,-8.81169 25.13802,0.21217 1.4374,2.3575 1.86373,4.72572 1.86643,10.36762 0.004,8.60715 -1.16962,11.38811 -6.63281,15.71504 -6.05249,4.79365 -12.5602,6.50403 -24.74683,6.50403 l -10.4671,0 -4.78226,9.62063 c -2.63025,5.29135 -5.06456,10.74537 -5.40958,12.12005 -0.5728,2.28221 -0.31445,2.58629 2.97301,3.49914 1.98018,0.54985 4.30367,1.00208 5.16331,1.00495 0.85964,0.003 5.28933,1.43118 9.84375,3.174 8.80882,3.37083 18.57316,6.09367 30.78077,8.58341 8.38702,1.71054 13.11474,2.80642 16.01984,3.7134 1.57905,0.49299 3.88918,-1.23336 11.95313,-8.93245 5.49767,-5.24895 9.99578,-10.04399 9.99578,-10.65565 0,-2.37063 8.15938,-9.10229 12.68297,-10.46368 8.20356,-2.46891 13.61451,-0.4569 20.71031,7.70095 3.81805,4.38949 6.05177,6.00819 11.2331,8.14023 3.55705,1.46369 8.99862,3.20785 12.09237,3.87594 3.09375,0.66808 7.69111,2.1545 10.21636,3.30315 3.64548,1.65821 6.93192,2.18955 15.95257,2.57912 10.85373,0.46874 11.57493,0.38236 16.14589,-1.93392 2.63158,-1.33353 5.9443,-3.81643 7.36162,-5.51756 1.41731,-1.70113 4.81824,-4.9914 7.55764,-7.31171 2.73939,-2.32031 7.50898,-6.38873 10.59908,-9.04095 l 5.61838,-4.82219 -9.43146,-9.70906 c -13.14317,-13.53002 -18.98332,-21.086 -20.9537,-27.10989 -0.91735,-2.80454 -2.30993,-6.57572 -3.09461,-8.38041 -0.92961,-2.13798 -1.44544,-6.3844 -1.48049,-12.1875 -0.0456,-7.55572 0.25917,-9.43576 2.00999,-12.39817 l 2.06378,-3.49193 -4.40753,-1.96128 c -4.69207,-2.0879 -13.61818,-4.64862 -16.20406,-4.64862 -0.85738,0 -3.40546,-0.81603 -5.66241,-1.81339 -2.25696,-0.99737 -7.90042,-2.47133 -12.54105,-3.27549 -4.64062,-0.80416 -11.60156,-2.14401 -15.46875,-2.97744 -3.86719,-0.83342 -14.02725,-1.78524 -22.57793,-2.11513 -15.16242,-0.58498 -15.63165,-0.66472 -18.98535,-3.22638 -6.28709,-4.8023 -6.74629,-6.56018 -6.49504,-24.864 0.18193,-13.25436 -0.0482,-16.76488 -1.25166,-19.09209 -2.26225,-4.37471 -3.10306,-2.63535 -5.98412,12.37927 -0.99841,5.20322 -6.34181,16.77318 -9.23785,20.00251 -2.88413,3.21605 -6.43525,4.27995 -16.20883,4.85605 -8.78893,0.51807 -10.02291,0.38675 -12.78341,-1.36043 -4.48507,-2.83868 -6.78067,-7.17895 -6.78481,-12.82797 -0.005,-6.3753 2.71286,-10.39206 9.28277,-13.7208 2.78605,-1.41159 5.27161,-2.7726 5.52346,-3.02445 0.25185,-0.25185 1.00919,-3.52659 1.68295,-7.27721 0.67377,-3.75062 1.89019,-9.56149 2.70315,-12.91305 0.81295,-3.35156 1.93512,-8.52563 2.49369,-11.49792 1.21163,-6.44731 3.85633,-10.6767 8.31367,-13.29514 6.75709,-3.96944 21.04068,-1.81157 29.19038,4.40988 10.94643,8.35646 16.52323,13.94614 19.41169,19.4565 2.91723,5.56525 3.09837,6.50731 3.62672,18.86101 l 0.55612,13.00317 5.36483,0 c 5.84094,0 45.93139,7.57593 52.00332,9.82711 2.0625,0.76468 5.92876,1.80176 8.59168,2.30463 2.66292,0.50287 9.8348,2.84014 15.9375,5.19393 11.92771,4.6005 15.91779,7.73596 22.02929,17.311 2.37713,3.7243 2.66028,5.0015 2.66028,11.99968 0,8.38267 -0.98173,11.35127 -4.99302,15.09802 -1.96364,1.83416 -2.26684,2.77623 -1.81034,5.625 1.08412,6.76549 3.29545,9.70429 19.31107,25.66395 8.93873,8.90748 17.79687,18.45762 19.68476,21.2225 3.00185,4.39632 3.43253,5.72549 3.43253,10.59343 0,3.0615 -0.61766,6.76078 -1.37258,8.22063 -1.78245,3.44687 -6.54022,7.41967 -9.7153,8.11238 -7.05091,1.5383 -13.98968,6.39636 -25.94337,18.16379 -11.31407,11.13777 -12.82049,12.28474 -21.02002,16.00436 l -8.8325,4.00677 -19.33003,-0.55512 c -17.91175,-0.5144 -19.80879,-0.73742 -25.85499,-3.03964 -3.58873,-1.36647 -9.05621,-3.01194 -12.14996,-3.65658 -3.09375,-0.64464 -7.3125,-2.02595 -9.375,-3.06959 -2.0625,-1.04363 -5.34275,-2.41274 -7.28944,-3.04245 -1.9467,-0.62971 -4.80091,-2.20638 -6.34268,-3.50371 l -2.80325,-2.35876 -3.80271,3.14246 c -5.24908,4.3377 -11.19784,10.29036 -13.91295,13.92206 -4.37801,5.85602 -6.61426,6.56096 -20.69272,6.52311 -9.88383,-0.0265 -13.27235,-0.36925 -15.46875,-1.56433 z m 29.13022,-2.03301 c 1.58414,-0.966 3.90445,-3.12635 5.15625,-4.80077 1.25182,-1.67441 4.03873,-4.78481 6.19313,-6.91199 10.13037,-10.00238 14.21259,-11.87957 17.62762,-8.10601 0.92349,1.02045 3.97636,2.71488 6.78416,3.76541 2.8078,1.05054 6.44182,2.60452 8.0756,3.4533 1.63379,0.84879 5.50177,2.06932 8.59552,2.7123 3.09375,0.64298 8.52281,2.27314 12.06459,3.62258 5.81592,2.2159 8.13826,2.51034 23.97881,3.04018 l 17.53921,0.58665 8.83369,-4.00732 c 8.20093,-3.72026 9.70671,-4.86672 21.0212,-16.0049 11.95369,-11.76743 18.89246,-16.62549 25.94337,-18.16379 3.17508,-0.69271 7.93285,-4.66551 9.71531,-8.11238 0.75491,-1.45985 1.37257,-4.31538 1.37257,-6.34563 0,-5.53745 -4.57912,-11.45544 -23.39198,-30.23148 -13.87072,-13.84353 -16.71101,-17.14938 -17.72045,-20.625 -0.66116,-2.27646 -1.63848,-5.55369 -2.1718,-7.28274 -0.89762,-2.91013 -0.727,-3.39773 2.29644,-6.5625 4.61152,-4.82709 5.36279,-6.71634 5.36279,-13.48611 0,-6.76402 -2.02546,-10.77748 -9.45715,-18.73939 -3.54843,-3.80159 -5.71428,-5.04023 -15.23242,-8.71136 -6.1027,-2.35379 -13.27458,-4.69106 -15.9375,-5.19393 -2.66292,-0.50287 -6.52918,-1.53995 -8.59168,-2.30463 -6.07193,-2.25118 -46.16238,-9.82711 -52.00332,-9.82711 l -5.36483,0 -0.55612,-13.00317 c -0.52835,-12.3537 -0.70949,-13.29576 -3.62672,-18.86101 -2.88846,-5.51036 -8.46526,-11.10004 -19.41169,-19.4565 -4.5992,-3.51102 -11.5386,-6.02396 -17.02106,-6.16378 -9.14157,-0.23315 -14.82095,4.87467 -16.73299,15.04904 -0.55857,2.97229 -1.68074,8.14636 -2.49369,11.49792 -0.81296,3.35156 -2.02938,9.16243 -2.70315,12.91305 -0.67376,3.75062 -1.4311,7.02536 -1.68295,7.27721 -0.25185,0.25185 -2.73741,1.61286 -5.52346,3.02445 -11.11177,5.62993 -12.31735,16.62437 -2.49796,22.78049 2.70237,1.69422 3.97627,1.84408 11.02419,1.29691 8.18864,-0.63573 11.49877,-1.74678 14.22381,-4.77425 2.99712,-3.32974 8.3247,-15.09507 9.32047,-20.5832 0.5517,-3.04062 1.66909,-7.97126 2.48307,-10.95698 1.71699,-6.29786 3.17152,-6.65747 6.56431,-1.62292 2.11767,3.14242 2.17972,3.78237 1.90796,19.68101 -0.31666,18.52699 0.12143,20.23227 6.4371,25.0564 3.3537,2.56166 3.82293,2.6414 18.98535,3.22638 8.55068,0.32989 18.71074,1.28171 22.57793,2.11513 3.86719,0.83343 10.82812,2.17328 15.46875,2.97744 4.64062,0.80416 10.14777,2.21782 12.23811,3.14149 2.09033,0.92366 5.88063,1.9913 8.42289,2.37254 5.3739,0.80586 20.09784,6.22966 20.11117,7.40826 0.005,0.4412 -1.03451,2.04241 -2.31001,3.55826 -4.39177,5.21931 -5.2713,15.79479 -1.97643,23.76458 0.6395,1.54688 1.91329,5.10712 2.83065,7.91166 1.98888,6.08042 7.7939,13.55457 21.49534,27.6759 5.48324,5.65127 9.96953,10.79828 9.96953,11.43779 0,0.6395 -0.63461,1.51788 -1.41024,1.95195 -2.44187,1.36653 -18.52274,15.52786 -22.46885,19.78678 -2.07744,2.24211 -5.8755,5.14473 -8.44014,6.45026 -4.48979,2.28552 -5.1517,2.3571 -17.82002,1.92702 -11.06303,-0.37558 -13.90187,-0.78529 -17.83701,-2.57433 -2.574,-1.17022 -7.21124,-2.67428 -10.30499,-3.34236 -3.09375,-0.66809 -8.53532,-2.41225 -12.09237,-3.87594 -5.18133,-2.13204 -7.41505,-3.75074 -11.2331,-8.14023 -2.62114,-3.01346 -5.91253,-6.07205 -7.31419,-6.79688 -3.02486,-1.56422 -8.05453,-1.70407 -11.72118,-0.32591 -3.01097,1.13171 -10.60791,8.21131 -10.60791,9.88552 0,0.61166 -4.50427,5.41258 -10.00948,10.66873 -11.01489,10.51653 -10.23078,10.22253 -20.45927,7.67103 -2.0625,-0.51449 -7.125,-1.62376 -11.25,-2.46506 -11.82588,-2.41188 -21.8086,-5.16842 -30.9375,-8.54279 -4.64063,-1.71534 -10.19156,-3.38063 -12.33541,-3.70064 -2.14385,-0.32002 -4.66844,-1.14527 -5.6102,-1.8339 -1.5553,-1.13726 -1.59482,-1.5823 -0.43104,-4.85407 0.70469,-1.98112 3.44022,-8.05398 6.07895,-13.49526 l 4.7977,-9.89323 9.84375,0.38673 c 11.83067,0.46478 18.37651,-1.12055 24.76365,-5.99749 5.50029,-4.19979 7.11219,-7.41223 7.10784,-14.1656 -0.007,-11.67179 -9.79836,-18.72892 -18.56695,-13.38286 -1.70594,1.04008 -3.81531,3.17031 -4.6875,4.73383 -1.54124,2.76291 -1.74382,2.83095 -7.21079,2.42208 -3.09375,-0.23138 -8.17967,-1.13591 -11.30204,-2.01007 -8.0972,-2.26694 -12.53743,-0.95563 -18.50378,5.46466 -2.47133,2.65935 -4.70703,5.88987 -4.96822,7.17893 -1.11771,5.51622 -2.89087,10.30471 -6.42236,17.34375 -10.67789,21.28343 -11.6868,32.86954 -3.63807,41.77852 3.87271,4.28663 15.82601,10.58803 21.90783,11.54912 2.29715,0.36301 7.3407,1.85318 11.20789,3.31147 9.25576,3.49028 20.37057,6.61986 29.0625,8.18307 11.96701,2.15222 14.43738,2.77234 17.34375,4.3537 4.32226,2.35177 23.32013,2.24162 27.25522,-0.15801 z"
     style="fill:#000000;stroke-width:17.71653543;stroke-miterlimit:4;stroke-dasharray:none" />
</svg>
