<?xml version="1.0" encoding="UTF-8" standalone="no"?>
<!-- Created with Inkscape (http://www.inkscape.org/) -->

<svg
   xmlns:dc="http://purl.org/dc/elements/1.1/"
   xmlns:cc="http://creativecommons.org/ns#"
   xmlns:rdf="http://www.w3.org/1999/02/22-rdf-syntax-ns#"
   xmlns:svg="http://www.w3.org/2000/svg"
   xmlns="http://www.w3.org/2000/svg"
   xmlns:sodipodi="http://sodipodi.sourceforge.net/DTD/sodipodi-0.dtd"
   xmlns:inkscape="http://www.inkscape.org/namespaces/inkscape"
   width="210mm"
   height="297mm"
   viewBox="0 0 210 297"
   version="1.1"
   id="svg5124"
   inkscape:version="0.92.3 (2405546, 2018-03-11)"
   sodipodi:docname="goat.svg">
  <defs
     id="defs5118" />
  <sodipodi:namedview
     id="base"
     pagecolor="#ffffff"
     bordercolor="#666666"
     borderopacity="1.0"
     inkscape:pageopacity="0.0"
     inkscape:pageshadow="2"
     inkscape:zoom="0.35"
     inkscape:cx="-70"
     inkscape:cy="560"
     inkscape:document-units="mm"
     inkscape:current-layer="layer1"
     showgrid="false"
     inkscape:window-width="1825"
     inkscape:window-height="1051"
     inkscape:window-x="2391"
     inkscape:window-y="-9"
     inkscape:window-maximized="1" />
  <metadata
     id="metadata5121">
    <rdf:RDF>
      <cc:Work
         rdf:about="">
        <dc:format>image/svg+xml</dc:format>
        <dc:type
           rdf:resource="http://purl.org/dc/dcmitype/StillImage" />
        <dc:title></dc:title>
      </cc:Work>
    </rdf:RDF>
  </metadata>
  <g
     inkscape:label="Layer 1"
     inkscape:groupmode="layer"
     id="layer1">
    <path
       inkscape:connector-curvature="0"
       d="m 135.7714,61.436337 c 3.37588,-0.614665 7.57904,-1.392168 10.98835,-1.871529 3.40931,-0.47936 6.02467,-0.659394 8.40643,-0.614664 2.38175,0.04595 4.52979,0.314329 6.42877,0.763753 1.89902,0.449529 3.55003,1.077943 4.68604,1.438047 1.13604,0.360068 1.75945,0.449529 2.53792,0.299361 0.77843,-0.150377 1.71177,-0.538989 2.53666,-1.077978 0.82496,-0.538989 1.54011,-1.228181 2.7132,-2.183456 1.17295,-0.956388 2.8025,-2.180009 4.22219,-3.262547 1.42095,-1.082538 2.6345,-2.025212 3.48914,-2.702951 0.85474,-0.677739 1.35068,-1.092842 1.8311,-1.32335 0.47915,-0.230438 0.94289,-0.278823 1.41498,-0.365812 0.47199,-0.08702 0.95125,-0.214426 1.04297,-0.119396 0.0908,0.09538 -0.20625,0.413988 -0.60315,0.668584 -0.39694,0.254457 -0.894,0.446083 -1.32434,0.621557 -0.43034,0.17544 -0.79396,0.334867 -1.09197,0.589428 -0.29816,0.254457 -0.52923,0.604361 -0.47209,0.795848 0.0583,0.191452 0.40537,0.222432 0.7773,0.183445 0.3731,-0.04003 0.77,-0.15142 0.97622,-0.143414 0.20733,0.007 0.22398,0.135408 0.0991,0.238444 -0.12411,0.103036 -0.38858,0.183446 -0.7117,0.262463 -0.32313,0.07902 -0.70328,0.159427 -0.91065,0.302842 -0.20625,0.143415 -0.23954,0.349765 -0.14908,0.461016 0.0919,0.11139 0.30648,0.127402 0.72839,0 0.42198,-0.127402 1.05021,-0.397941 1.32318,-0.461016 0.27283,-0.0644 0.19069,0.07902 0.0669,0.238445 -0.12411,0.159427 -0.28947,0.334866 -0.4971,0.469022 -0.20625,0.135408 -0.4553,0.23183 -0.65319,0.397941 -0.19793,0.166389 -0.3481,0.405947 -0.53767,0.549327 -0.1896,0.143415 -0.42201,0.191452 -0.73544,0.222432 -0.3148,0.03133 -0.71171,0.04804 -0.93583,0.191452 -0.2229,0.143415 -0.27283,0.413989 -0.28115,0.621522 -0.0109,0.20642 0.0253,0.349765 -0.0825,0.533246 -0.10747,0.183445 -0.35533,0.405982 -0.73671,0.636455 -0.38153,0.230438 -0.89408,0.469057 -1.2827,0.676591 -0.38858,0.20642 -0.65319,0.381894 -0.6127,0.501151 0.0402,0.119396 0.38858,0.183446 0.85235,0.159427 0.46363,-0.02437 1.04305,-0.135409 1.50555,-0.278475 0.46251,-0.143415 0.8106,-0.318855 1.01797,-0.326861 0.20734,-0.007 0.27319,0.151421 0.19902,0.326861 -0.0738,0.175439 -0.28984,0.365812 -0.41366,0.541286 -0.12411,0.17544 -0.1574,0.334867 -0.12411,0.470171 0.0326,0.135409 0.13243,0.246451 -0.0499,0.3899 -0.18237,0.143415 -0.64491,0.31781 -1.31602,0.444934 -0.66998,0.127403 -1.54615,0.207464 -2.19218,0.397941 -0.64614,0.190408 -1.05857,0.493111 -0.993,0.658246 0.0669,0.164997 0.6127,0.191452 1.17537,0.244362 0.56263,0.05291 1.14193,0.132972 1.57115,0.275343 0.43034,0.143415 0.7116,0.350914 0.7772,0.470171 0.0662,0.119396 -0.0821,0.151421 -0.45534,0.151421 -0.37194,0 -0.968,-0.03133 -1.51398,0.02437 -0.54591,0.055 -1.04182,0.198414 -1.25762,0.334867 -0.21566,0.135408 -0.14908,0.262463 0.12411,0.357806 0.27283,0.09503 0.75336,0.159427 1.18369,0.230438 0.43034,0.07101 0.8106,0.151421 0.98469,0.246451 0.17404,0.09503 0.14075,0.207464 -0.0253,0.262463 -0.16573,0.05604 -0.46378,0.05604 -0.85124,0.05604 -0.38974,0 -0.869,0 -1.05137,0.127402 -0.18128,0.127403 -0.0651,0.38186 0.0669,0.573381 0.13243,0.191452 0.28115,0.318854 0.23121,0.381894 -0.0499,0.0644 -0.29816,0.0644 -0.48758,0.127403 -0.19069,0.0644 -0.32312,0.191451 -0.14908,0.341828 0.17405,0.151421 0.6532,0.326861 1.05857,0.557334 0.40523,0.230438 0.73667,0.517163 0.90117,0.803854 0.16572,0.286829 0.16572,0.573415 0.0109,0.541286 -0.1574,-0.03133 -0.47198,-0.381859 -0.97625,-0.636455 -0.50422,-0.254457 -1.19918,-0.413989 -1.96816,-0.48507 -0.77,-0.0724 -1.61404,-0.05604 -2.17667,0.03133 -0.56266,0.08702 -0.84392,0.246451 -0.85112,0.381859 -0.0109,0.135409 0.25618,0.246451 0.81063,0.397941 0.55431,0.151421 1.39823,0.341829 1.89414,0.549293 0.4971,0.207464 0.64614,0.430035 0.57099,0.565374 -0.0745,0.135409 -0.3731,0.182402 -0.79385,0.135409 -0.42202,-0.04804 -0.96916,-0.191452 -1.68796,-0.254457 -0.72003,-0.06301 -1.61287,-0.04804 -2.12669,0.119397 -0.51258,0.167433 -0.64491,0.485069 -0.39694,0.787806 0.24786,0.302842 0.87732,0.588314 1.66296,1.197235 0.78552,0.61007 1.72844,1.541257 2.29943,2.397917 0.57106,0.856624 0.77011,1.636425 1.00133,2.319908 0.23121,0.683448 0.49713,1.272911 0.81059,1.743081 0.31481,0.469022 0.67831,0.819936 0.81893,1.010309 0.14075,0.191452 0.0583,0.222432 -0.0745,0.198413 -0.13244,-0.02437 -0.31481,-0.103383 -0.33977,0 -0.0253,0.103036 0.10746,0.389901 0.38026,0.88416 0.27319,0.49311 0.68663,1.193789 1.10864,1.933454 0.42202,0.740814 0.85236,1.520614 1.02517,1.981595 0.17405,0.462165 0.0919,0.60551 -0.13243,0.549328 -0.22398,-0.055 -0.58763,-0.310848 -1.00965,-0.884159 -0.42201,-0.573381 -0.90117,-1.464432 -1.25762,-2.124976 -0.35532,-0.660543 -0.58774,-1.090579 -0.73667,-1.146761 -0.14908,-0.05604 -0.21457,0.262463 -0.19901,0.692637 0.0181,0.430036 0.11579,0.971322 0.40533,1.963286 0.28984,0.991929 0.77,2.435719 1.21586,3.706333 0.4471,1.270648 0.86068,2.369233 1.20765,3.571063 0.34809,1.201795 0.62812,2.506835 0.97622,3.517143 0.34809,1.010309 0.76178,1.727035 1.22429,2.275178 0.46251,0.548179 0.97625,0.931187 1.23254,1.20183 0.25619,0.270469 0.25619,0.430036 0.0575,0.405948 -0.19901,-0.02437 -0.59606,-0.231831 -1.06805,-0.636456 -0.47209,-0.405947 -1.01807,-1.010308 -1.49726,-1.678858 -0.47926,-0.668584 -0.89408,-1.401357 -1.22426,-2.213287 -0.33036,-0.811895 -0.57819,-1.702946 -0.76055,-2.403625 -0.18237,-0.700678 -0.29816,-1.209836 -0.47916,-1.400208 -0.18236,-0.191452 -0.43033,-0.06405 -0.54601,0.293443 -0.11579,0.358955 -0.0988,0.947234 -0.0109,1.748825 0.093,0.801591 0.26089,1.815346 0.49594,2.60089 0.23375,0.785544 0.53039,1.341694 0.72951,1.852 0.19901,0.509192 0.29816,0.971322 0.41359,1.361222 0.11579,0.389935 0.24786,0.70872 0.51269,1.042438 0.26451,0.334866 0.66152,0.684631 0.99297,0.963281 0.33036,0.278823 0.59595,0.485069 0.71995,0.613516 0.12412,0.127402 0.10747,0.174395 -0.0181,0.174395 -0.12411,0 -0.35533,-0.04804 -0.45541,0.007 -0.0988,0.05604 -0.0669,0.21547 0.11579,0.502265 0.18237,0.286829 0.51255,0.69953 0.75219,1.11467 0.24063,0.41399 0.38985,0.82797 0.39691,1.01031 0.0109,0.1824 -0.12411,0.1354 -0.39213,-0.22487 -0.26812,-0.36007 -0.67111,-1.03325 -1.05741,-1.634132 -0.38735,-0.600914 -0.75813,-1.130714 -1.04775,-1.520614 -0.28875,-0.391049 -0.49478,-0.642199 -0.64021,-0.694935 -0.14437,-0.05291 -0.22651,0.09294 -0.31589,0.131928 -0.089,0.04003 -0.18598,-0.02785 -0.33723,-0.231831 -0.15125,-0.205376 -0.3575,-0.549328 -0.64614,-0.826828 -0.28839,-0.278476 -0.66037,-0.489699 -0.79146,-0.410542 -0.1299,0.07902 -0.0217,0.450677 0.21312,0.833685 0.23375,0.383043 0.59129,0.780949 0.8047,1.077978 0.21349,0.296924 0.2826,0.496521 0.48874,0.761456 0.20625,0.2649 0.54953,0.595171 0.77717,0.866928 0.22651,0.270467 0.33724,0.482807 0.3101,0.561927 -0.029,0.079 -0.19323,0.0279 -0.47445,-0.17196 -0.2826,-0.19841 -0.6807,-0.542397 -0.97636,-0.668546 -0.29562,-0.12601 -0.48874,-0.03481 -0.54348,0.138889 -0.0546,0.171959 0.0289,0.423147 0.27536,0.681187 0.24786,0.25794 0.66039,0.52291 0.90837,0.73392 0.24786,0.21234 0.33036,0.37041 0.26812,0.43693 -0.0622,0.0665 -0.26812,0.04 -0.6198,-0.13193 -0.35062,-0.17196 -0.84519,-0.4897 -1.03827,-0.48281 -0.19322,0.007 -0.0821,0.33731 0.11688,0.6617 0.19901,0.32442 0.48874,0.6422 0.9071,1.09172 0.41959,0.44953 0.96916,1.0321 1.41021,1.55501 0.43992,0.52294 0.7701,0.98507 0.89407,1.25686 0.12411,0.27047 0.042,0.35092 -0.13099,0.23845 -0.17151,-0.11244 -0.43272,-0.41629 -0.84515,-0.86697 -0.41243,-0.44952 -0.97632,-1.04584 -1.50671,-1.58828 -0.5305,-0.5424 -1.02401,-1.03206 -1.32091,-1.46899 -0.29562,-0.43693 -0.39212,-0.81994 -0.58408,-1.26376 -0.19178,-0.44378 -0.48154,-0.946082 -0.99651,-1.468989 -0.51614,-0.522942 -1.25885,-1.065343 -1.80248,-1.416256 -0.54349,-0.350914 -0.88804,-0.509158 -0.99058,-0.31781 -0.1024,0.191452 0.0362,0.73507 0.35062,1.383013 0.31589,0.647907 0.81176,1.403622 1.27199,1.972442 0.46008,0.56878 0.88691,0.95294 1.25164,1.21784 0.36478,0.2649 0.66749,0.41058 0.89285,0.52524 0.22543,0.11452 0.37309,0.19946 0.41963,0.27186 0.047,0.0721 -0.0109,0.13297 -0.18346,0.12497 -0.17658,-0.0104 -0.47321,-0.087 -0.72596,-0.16047 -0.25257,-0.0735 -0.46012,-0.14342 -0.52811,-0.078 -0.068,0.0654 0,0.2649 0.23484,0.46098 0.23121,0.19598 0.61867,0.38764 0.8893,0.52295 0.27065,0.1354 0.42317,0.21199 0.40526,0.26733 -0.0181,0.055 -0.20734,0.0905 -0.31589,0.165 -0.10855,0.0734 -0.13605,0.18693 -0.0727,0.35551 0.0633,0.16987 0.21711,0.39564 0.30141,0.60321 0.0861,0.20886 0.10385,0.39905 0.20264,0.58139 0.0991,0.1824 0.28006,0.3555 0.57221,0.69152 0.29201,0.33591 0.69496,0.83369 0.86904,1.17085 0.17405,0.3373 0.11905,0.51375 0.14293,0.72017 0.0217,0.20747 0.12411,0.44494 0.32891,0.70068 0.2048,0.25585 0.51725,0.5275 0.78665,0.74767 0.27065,0.22035 0.49833,0.3876 0.5818,0.52865 0.0821,0.14098 0.0181,0.25585 -0.13714,0.2294 -0.15486,-0.0279 -0.40294,-0.19389 -0.57221,-0.29936 -0.16935,-0.10548 -0.26125,-0.14899 -0.23846,0.0313 0.0217,0.18136 0.15958,0.58602 0.40288,1.10437 0.24316,0.51946 0.59125,1.1525 0.90605,1.70294 0.31589,0.5493 0.59961,1.01717 0.75451,1.40822 0.15632,0.3922 0.18346,0.70872 0.12882,0.87156 -0.0546,0.1629 -0.19322,0.17196 -0.3575,0.0745 -0.16464,-0.0975 -0.35641,-0.29936 -0.57576,-0.64335 -0.22073,-0.34287 -0.46732,-0.82794 -0.64614,-1.22358 -0.17875,-0.3968 -0.28839,-0.70413 -0.38508,-0.73511 -0.0966,-0.0313 -0.17766,0.21547 -0.13714,0.54588 0.042,0.33034 0.20625,0.74426 0.41247,1.19379 0.20625,0.44953 0.45302,0.93348 0.75936,1.4346 0.30648,0.5023 0.67227,1.02176 0.96199,1.64102 0.28839,0.62041 0.4983,1.33943 0.7141,2.03896 0.21566,0.69838 0.43504,1.37727 0.45773,1.71673 0.0217,0.33835 -0.15125,0.33835 -0.31589,0.20642 -0.16464,-0.13192 -0.32059,-0.39564 -0.46732,-0.81882 -0.14654,-0.42314 -0.28368,-1.00341 -0.42075,-1.55041 -0.13714,-0.54703 -0.27427,-1.05619 -0.38507,-1.30389 -0.10964,-0.24645 -0.19178,-0.2294 -0.24316,-0.11452 -0.0499,0.11452 -0.0687,0.32581 -0.14184,0.40942 -0.0738,0.0839 -0.20155,0.04 -0.27428,-0.10999 -0.0738,-0.15038 -0.0919,-0.40599 -0.15161,-0.76605 -0.0593,-0.36126 -0.15957,-0.82798 -0.28368,-1.15825 -0.12411,-0.33034 -0.27066,-0.52406 -0.39336,-0.5195 -0.12411,0.003 -0.22398,0.20747 -0.36716,0.2294 -0.14184,0.0209 -0.32421,-0.13646 -0.44109,-0.40021 -0.11579,-0.26246 -0.16572,-0.63071 -0.27319,-0.80733 -0.1071,-0.17544 -0.27283,-0.15699 -0.47322,-0.24993 -0.20154,-0.093 -0.43866,-0.29484 -0.51258,-0.26839 -0.0738,0.0279 0.0181,0.28196 0.18707,0.6296 0.16934,0.34862 0.41724,0.78899 0.72712,1.36578 0.31119,0.57683 0.68663,1.2913 0.90128,1.73738 0.21566,0.44493 0.27066,0.62155 0.21566,0.67889 -0.0546,0.0574 -0.21928,-0.003 -0.39807,-0.23845 -0.17875,-0.23392 -0.37078,-0.63875 -0.54486,-1 -0.17404,-0.36122 -0.32891,-0.67774 -0.48986,-0.797 -0.16102,-0.1194 -0.32421,-0.04 -0.46251,-0.071 -0.13822,-0.0313 -0.24786,-0.17196 -0.40776,-0.52865 -0.15957,-0.35666 -0.3707,-0.92889 -0.54475,-1.45754 -0.17404,-0.52869 -0.31118,-1.01261 -0.42553,-1.3119 -0.11434,-0.29936 -0.20625,-0.41399 -0.40298,-0.58602 -0.19648,-0.17195 -0.49822,-0.40135 -0.69495,-0.44033 -0.19648,-0.04 -0.28839,0.10999 -0.27066,0.35202 0.0181,0.24193 0.14655,0.57683 0.31118,0.96443 0.16573,0.38764 0.36593,0.82798 0.627,1.28095 0.26125,0.45413 0.58054,0.9197 0.8106,1.40021 0.22905,0.47936 0.3659,0.97362 0.38381,1.41741 0.0181,0.44497 -0.0825,0.84058 -0.26342,1.21902 -0.18129,0.37845 -0.44221,0.73622 -0.68182,1.23737 -0.24063,0.50112 -0.46012,1.14562 -0.63055,1.71099 -0.17043,0.56534 -0.29092,1.05041 -0.29671,1.43575 0,0.38531 0.10494,0.67085 0.0442,0.83483 -0.0604,0.16396 -0.29092,0.20642 -0.49945,0.22696 -0.20879,0.0209 -0.39579,0.0209 -0.48874,0.15247 -0.093,0.13192 -0.093,0.39564 0.0716,0.64449 0.16464,0.24889 0.49467,0.48048 0.62584,0.66626 0.13099,0.18449 0.0651,0.32233 -0.13098,0.40138 -0.19793,0.079 -0.52685,0.0999 -0.69145,0.24785 -0.16464,0.14794 -0.16464,0.42314 -0.12628,0.72476 0.0383,0.30145 0.11579,0.63071 0.0662,0.92774 -0.0499,0.29588 -0.22543,0.56075 -0.29201,0.93001 -0.0651,0.36925 -0.0217,0.84402 -0.0217,1.39906 0,0.55503 -0.0442,1.18804 -0.17043,1.89561 -0.1252,0.70757 -0.33506,1.48852 -0.51494,2.05731 -0.17983,0.56878 -0.33362,0.92429 -0.30973,1.26375 0.0217,0.33835 0.22181,0.66055 0.3635,1.02977 0.14293,0.36926 0.22905,0.78669 0.20517,1.28785 -0.0253,0.50111 -0.16102,1.08483 -0.19902,1.69264 -0.0384,0.60777 0.0253,1.24078 0.14908,1.83024 0.12412,0.59058 0.30974,1.13872 0.27898,1.43116 -0.0326,0.2924 -0.27898,0.3279 -0.65091,0.18449 -0.37194,-0.14342 -0.86777,-0.46443 -1.2827,-0.77521 -0.41481,-0.30945 -0.74973,-0.60781 -0.86057,-0.50689 -0.11217,0.10094 0,0.60206 0.22869,1.14794 0.22904,0.54585 0.57576,1.13642 0.81776,1.84859 0.24207,0.71328 0.37787,1.547 0.35895,2.50109 -0.0181,0.95413 -0.19178,2.02751 -0.52692,2.87265 -0.33362,0.84632 -0.82966,1.46673 -1.27668,1.74082 -0.44583,0.27395 -0.84277,0.20294 -1.13362,-0.054 -0.29092,-0.25689 -0.47687,-0.69723 -0.52102,-1.32909 -0.0431,-0.6319 0.0564,-1.45413 0.0326,-2.07454 -0.0253,-0.62041 -0.17405,-1.03781 -0.46489,-1.1502 -0.29093,-0.11244 -0.72474,0.0769 -1.32558,0.60206 -0.60073,0.5252 -1.36961,1.38301 -1.98836,1.96099 -0.6198,0.57794 -1.09073,0.87612 -1.48047,0.92429 -0.39101,0.048 -0.69977,-0.1549 -0.69977,-0.64335 0,-0.48851 0.30974,-1.26375 0.66872,-2.03896 0.36003,-0.7752 0.76888,-1.55044 1.15873,-2.05615 0.39097,-0.50572 0.76294,-0.74426 0.92979,-1.0665 0.16681,-0.32233 0.1299,-0.72706 0.0604,-1.11926 -0.0687,-0.39105 -0.17043,-0.76946 -0.15017,-1.06419 0.0217,-0.29484 0.16319,-0.50571 0.0919,-0.89791 -0.0717,-0.3922 -0.35533,-0.96213 -0.48404,-1.44724 -0.12881,-0.48392 -0.10385,-0.88186 0.0716,-1.18004 0.17404,-0.29831 0.49717,-0.49767 0.66517,-0.90135 0.16826,-0.40365 0.17984,-1.01257 0.33507,-1.60889 0.15487,-0.59632 0.45179,-1.18004 0.80709,-1.60548 0.35533,-0.42548 0.76884,-0.69267 0.90471,-0.97592 0.13605,-0.28335 -0.0109,-0.58027 -0.0449,-0.91625 -0.0394,-0.33487 0.0253,-0.70757 0.18707,-1.07453 0.16102,-0.36696 0.4196,-0.72707 0.6223,-1.52062 0.20263,-0.79358 0.34918,-2.02061 0.43034,-3.31761 0.0796,-1.297 0.0937,-2.66393 0.0181,-3.70863 -0.0745,-1.04589 -0.23954,-1.77062 -0.40414,-1.96903 -0.16464,-0.19842 -0.32892,0.13192 -0.43157,0.78439 -0.1024,0.6525 -0.14437,1.62842 -0.19178,2.54468 -0.0488,0.91628 -0.1024,1.77291 -0.17766,2.40021 -0.0745,0.62612 -0.17151,1.02176 -0.28839,1.21899 -0.11687,0.19737 -0.25256,0.19737 -0.34339,0.26942 -0.0879,0.0721 -0.1299,0.21791 -0.17766,0.5344 -0.0488,0.31642 -0.1024,0.80389 -0.21349,1.10092 -0.10964,0.29692 -0.27283,0.4025 -0.3838,0.38186 -0.10964,-0.0209 -0.16464,-0.165 -0.12991,-0.61352 0.0362,-0.44838 0.15741,-1.19953 0.16428,-2.28781 0.0109,-1.08829 -0.1024,-2.5114 -0.29454,-3.75107 -0.19177,-1.23967 -0.46605,-2.29355 -0.71996,-3.11119 -0.25401,-0.81764 -0.48635,-1.39791 -0.59012,-1.45754 -0.10385,-0.0595 -0.0745,0.4025 -0.0217,0.99537 0.0546,0.59291 0.13713,1.31764 0.21204,1.97819 0.0745,0.65939 0.14437,1.25227 0.12411,1.63531 -0.0217,0.38186 -0.1299,0.55389 -0.25402,0.57912 -0.12411,0.0279 -0.2598,-0.0919 -0.3148,-0.38875 -0.0546,-0.29692 -0.0289,-0.77179 -0.0687,-1.18693 -0.042,-0.41514 -0.15016,-0.77176 -0.37671,-1.22588 -0.22543,-0.45528 -0.5686,-1.00802 -0.92502,-1.4369 -0.35641,-0.42892 -0.72596,-0.73166 -0.993,-0.83717 -0.26704,-0.10547 -0.43157,-0.0139 -0.49352,0.19737 -0.0622,0.21095 -0.0217,0.54129 0.12991,0.92315 0.15016,0.38189 0.4113,0.81764 0.58169,1.12156 0.17152,0.30388 0.25402,0.47476 0.1849,0.56648 -0.068,0.093 -0.2873,0.10548 -0.45896,-0.039 -0.17151,-0.14446 -0.29562,-0.44838 -0.47321,-0.8899 -0.17767,-0.44149 -0.4112,-1.02177 -0.66521,-1.23278 -0.25402,-0.21095 -0.52685,-0.0529 -0.87016,0.29692 -0.34339,0.34977 -0.75336,0.88991 -1.07522,1.34403 -0.32312,0.45412 -0.55557,0.82338 -0.82966,1.06075 -0.27428,0.2374 -0.58886,0.34287 -0.91199,0.39564 -0.32168,0.0529 -0.65081,0.0529 -0.93811,0.27047 -0.28839,0.21686 -0.53527,0.6525 -0.91908,0.96213 -0.38384,0.30946 -0.90482,0.49426 -1.33632,0.92315 -0.4315,0.42889 -0.77365,1.10092 -1.07521,1.69494 -0.30142,0.59287 -0.56267,1.10777 -0.86423,1.52291 -0.30141,0.41514 -0.64491,0.73163 -0.94531,0.90365 -0.30141,0.17196 -0.56266,0.19842 -0.80228,0.422 -0.23954,0.22347 -0.45896,0.64564 -0.66875,1.00345 -0.20987,0.35777 -0.41004,0.64906 -0.51621,0.95983 -0.1071,0.31085 -0.12049,0.63991 -0.347,0.99656 -0.22543,0.35662 -0.66518,0.73852 -1.01443,1.19379 -0.34917,0.45409 -0.61032,0.98163 -0.95957,1.21899 -0.34917,0.2374 -0.78802,0.18449 -1.11823,-0.0724 -0.32892,-0.25794 -0.54714,-0.71902 -0.74022,-0.86352 -0.19323,-0.14446 -0.35642,0.0279 -0.49356,0.21791 -0.13713,0.19145 -0.24677,0.40253 -0.36357,0.61355 -0.11688,0.21094 -0.23954,0.42199 -0.4112,0.55389 -0.17152,0.13192 -0.39101,0.18449 -0.49355,0.35662 -0.10241,0.17091 -0.089,0.46101 -0.0756,0.80159 0.0145,0.34044 0.029,0.72936 -0.12882,1.01605 -0.15631,0.28683 -0.48403,0.47017 -1.10383,0.77865 -0.61991,0.30842 -1.53418,0.74082 -2.41996,0.97018 -0.88565,0.22939 -1.7451,0.25585 -2.48181,0.16395 -0.73551,-0.0915 -1.34942,-0.30145 -1.58903,-0.50456 -0.23954,-0.20294 -0.10131,-0.40024 0.30033,-0.64909 0.40172,-0.24889 1.07044,-0.55045 1.46496,-0.85318 0.39466,-0.30284 0.51862,-0.60322 0.32674,-0.70872 -0.19069,-0.10443 -0.69495,-0.0139 -1.27426,0.12496 -0.57939,0.1375 -1.23385,0.32095 -1.82742,0.45298 -0.59367,0.13193 -1.12529,0.2099 -1.54021,0.17091 -0.41601,-0.04 -0.71641,-0.19737 -0.62107,-0.44608 0.0959,-0.24889 0.58648,-0.59061 1.06335,-0.81308 0.4768,-0.22243 0.94176,-0.3279 1.35662,-0.58372 0.41597,-0.25585 0.78436,-0.6628 1.22063,-0.92429 0.43628,-0.26247 0.94054,-0.38071 1.4173,-0.62267 0.47688,-0.24193 0.92751,-0.61011 1.24698,-0.95068 0.31951,-0.34044 0.51132,-0.65595 0.66156,-0.96443 0.15016,-0.30841 0.25872,-0.61011 0.42918,-0.7798 0.17043,-0.17092 0.40172,-0.2099 0.74026,-0.48396 0.33723,-0.27534 0.78197,-0.78439 1.11215,-1.26257 0.33037,-0.47821 0.54841,-0.9243 1.01924,-1.24541 0.47083,-0.32129 1.19325,-0.51835 2.14931,-1.01257 0.95602,-0.4943 2.14688,-1.28785 3.02424,-1.9289 0.87732,-0.64101 1.44121,-1.12956 1.59739,-1.67886 0.15486,-0.54929 -0.0992,-1.16054 -0.37437,-2.04355 -0.27536,-0.88301 -0.57095,-2.03667 -0.80466,-2.93228 -0.2323,-0.89679 -0.40172,-1.5344 -0.5436,-1.77865 -0.14075,-0.24437 -0.25401,-0.095 -0.28947,0.27847 -0.0362,0.37271 0.0109,0.97017 0.14908,1.56075 0.14076,0.59061 0.38153,1.1743 0.48758,1.64906 0.10494,0.47477 0.0774,0.84173 -0.0919,1.33028 -0.16934,0.48851 -0.47915,1.09973 -0.71286,1.35778 -0.23375,0.25793 -0.38858,0.1629 -0.38142,-0.04 0.0109,-0.20398 0.17622,-0.51605 0.31697,-0.93003 0.14185,-0.41399 0.25402,-0.93004 0.21204,-1.44609 -0.0431,-0.51605 -0.23954,-1.0321 -0.44459,-1.30386 -0.20372,-0.27186 -0.41608,-0.29831 -0.57099,-0.42777 -0.15487,-0.12845 -0.25401,-0.35892 -0.35279,-0.82798 -0.0991,-0.46787 -0.19793,-1.17426 -0.33869,-1.69031 -0.14076,-0.51605 -0.32421,-0.84172 -0.62823,-1.16054 -0.30286,-0.31886 -0.72596,-0.63072 -0.91792,-0.66514 -0.19069,-0.0348 -0.14763,0.21094 0.0109,0.57912 0.15486,0.36815 0.42317,0.86122 0.66394,1.31764 0.24099,0.45642 0.45187,0.87731 0.57106,1.25112 0.11904,0.37386 0.14908,0.69953 0.0499,0.80048 -0.0991,0.10199 -0.32421,-0.0209 -0.51493,-0.31189 -0.1907,-0.2924 -0.34556,-0.75345 -0.58536,-1.24886 -0.23954,-0.49541 -0.56505,-1.02521 -1.00964,-1.75798 -0.44471,-0.73281 -1.00976,-1.6697 -1.3339,-2.33484 -0.32421,-0.6651 -0.40892,-1.05845 -0.52934,-1.21558 -0.12049,-0.15595 -0.27536,-0.0745 -0.43743,-0.15595 -0.1621,-0.0815 -0.33145,-0.32581 -0.52214,-0.74081 -0.19069,-0.41395 -0.40171,-0.99767 -0.62823,-1.29011 -0.22651,-0.2924 -0.46616,-0.29135 -0.66394,-0.21686 -0.19793,0.0745 -0.3528,0.22348 -0.44471,0.41399 -0.0919,0.19041 -0.12049,0.42084 0.0362,0.79355 0.15631,0.3727 0.49467,0.88875 0.67111,1.32338 0.17658,0.43463 0.19069,0.78784 0.12049,0.96443 -0.0698,0.17649 -0.22543,0.17649 -0.37422,0.0348 -0.14799,-0.14202 -0.28983,-0.42774 -0.43034,-0.7672 -0.14184,-0.33939 -0.28259,-0.73277 -0.46616,-1.07909 -0.18345,-0.34635 -0.40888,-0.64564 -0.6067,-0.66514 -0.19792,-0.0209 -0.36712,0.2374 -0.29671,0.67203 0.0698,0.43463 0.38153,1.04585 0.65562,1.62268 0.27537,0.57683 0.51498,1.12037 0.80467,1.56876 0.28983,0.44841 0.62823,0.80047 0.8965,1.37156 0.26812,0.56993 0.46605,1.35777 0.57099,1.90706 0.10493,0.5493 0.12049,0.86237 0.0108,0.97133 -0.11326,0.10895 -0.3528,0.0139 -0.58524,-0.29936 -0.23231,-0.3119 -0.459,-0.84173 -0.67715,-1.4392 -0.21819,-0.59747 -0.43034,-1.26261 -0.65563,-1.89332 -0.22542,-0.63186 -0.46605,-1.22818 -0.64248,-1.41166 -0.17658,-0.18345 -0.28984,0.048 -0.19793,0.55615 0.0919,0.50919 0.38858,1.297 0.58532,2.00342 0.19792,0.70642 0.29671,1.33024 0.34555,1.83944 0.0488,0.50915 0.0499,0.9025 -0.0362,1.10662 -0.0843,0.20398 -0.25401,0.21686 -0.39567,0.095 -0.14185,-0.12148 -0.25402,-0.38074 -0.34556,-0.88875 -0.0919,-0.50916 -0.16211,-1.26947 -0.33145,-2.15822 -0.16934,-0.8899 -0.43743,-1.90822 -0.77,-2.90593 -0.33145,-0.99767 -0.726,-1.97588 -1.01569,-2.54582 -0.28984,-0.57108 -0.4721,-0.73392 -0.53643,-0.64561 -0.0633,0.0884 -0.0109,0.42774 0.14184,0.9369 0.14799,0.50915 0.38862,1.18804 0.62107,1.9346 0.2323,0.74652 0.45896,1.56075 0.62823,2.31531 0.16934,0.7546 0.28259,1.44609 0.2323,1.8188 -0.0499,0.3727 -0.26125,0.42773 -0.39578,0.33939 -0.13352,-0.0884 -0.19069,-0.31886 -0.30395,-0.88991 -0.11326,-0.57108 -0.28369,-1.48162 -0.52102,-2.32105 -0.237,-0.83943 -0.53878,-1.60663 -0.81653,-2.19491 -0.2779,-0.58831 -0.53162,-0.99426 -0.67704,-1.04703 -0.14546,-0.0515 -0.18129,0.24993 -0.12629,0.68007 0.0536,0.43003 0.19902,0.98848 0.36235,1.56531 0.16319,0.57568 0.34448,1.16859 0.53173,1.69839 0.18707,0.52865 0.38026,0.99422 0.42911,1.2798 0.0488,0.28544 -0.0489,0.3899 -0.14546,0.40709 -0.0966,0.0174 -0.19323,-0.0515 -0.31481,-0.22695 -0.12157,-0.17544 -0.26595,-0.45413 -0.35641,-0.49426 -0.0908,-0.04 -0.12628,0.15699 -0.13931,0.45987 -0.0109,0.30284 0,0.70983 -0.0488,1.05845 -0.0489,0.34861 -0.1574,0.6399 -0.30177,0.75571 -0.14546,0.11696 -0.32639,0.0585 -0.3934,-0.0929 -0.0669,-0.15142 -0.0181,-0.39561 0.0253,-0.84288 0.0431,-0.44838 0.0785,-1.09858 -0.0727,-1.90822 -0.15016,-0.80848 -0.48997,-1.77402 -0.76772,-2.47129 -0.2779,-0.69838 -0.4959,-1.12842 -0.62219,-1.25686 -0.12773,-0.12845 -0.16319,0.047 -0.18707,0.26141 -0.0253,0.21547 -0.0373,0.47136 -0.13352,0.56423 -0.0966,0.0929 -0.27789,0.0244 -0.39339,-0.19145 -0.11579,-0.21547 -0.1632,-0.57568 -0.28839,-0.96443 -0.12411,-0.3876 -0.3253,-0.80389 -0.57099,-1.23852 -0.24569,-0.43463 -0.53527,-0.88872 -0.7772,-1.0573 -0.24207,-0.16848 -0.43512,-0.0529 -0.35641,0.2729 0.0785,0.32582 0.4291,0.86008 0.77958,1.54697 0.35027,0.68693 0.70093,1.52406 0.97991,2.28552 0.27898,0.76145 0.48393,1.44838 0.60438,1.95409 0.1205,0.50575 0.1574,0.83257 0.0362,0.98852 -0.12158,0.15595 -0.39933,0.1455 -0.62223,-0.22696 -0.22289,-0.3727 -0.39335,-1.10547 -0.6461,-1.83825 -0.25401,-0.73281 -0.59245,-1.46558 -0.86549,-1.94839 -0.27174,-0.48277 -0.47676,-0.71557 -0.64133,-0.74996 -0.16319,-0.0348 -0.28368,0.1274 -0.3148,0.31989 -0.0326,0.19285 0.0289,0.41284 0.16319,0.77406 0.13243,0.36011 0.33868,0.86007 0.44698,1.25572 0.10855,0.39564 0.12158,0.68693 0.0362,0.80274 -0.0843,0.11696 -0.26596,0.0585 -0.3862,-0.12845 -0.12158,-0.18588 -0.18128,-0.5 -0.27319,-0.63416 -0.0919,-0.13401 -0.21095,-0.087 -0.22868,0.19145 -0.0181,0.27883 0.0669,0.79126 0.0966,1.28896 0.029,0.49771 0,0.98051 -0.10132,1.2844 -0.10602,0.30284 -0.292,0.42544 -0.43034,0.44838 -0.13822,0.0244 -0.23121,-0.056 -0.27283,-0.36811 -0.042,-0.31189 -0.0289,-0.86007 -0.0289,-1.50687 0,-0.64679 -0.0109,-1.39561 -0.0756,-2.0871 -0.0633,-0.69267 -0.17983,-1.32798 -0.37664,-1.84173 -0.19793,-0.51375 -0.4756,-0.9048 -0.64965,-1.00456 -0.17405,-0.0999 -0.24316,0.0895 -0.27319,0.32338 -0.0289,0.23496 -0.0181,0.51375 -0.10494,0.64219 -0.0872,0.12845 -0.27319,0.10652 -0.38268,-0.0449 -0.11072,-0.15142 -0.14546,-0.43004 -0.17405,-0.75345 -0.0289,-0.32338 -0.0528,-0.69264 -0.11687,-0.94264 -0.0633,-0.25132 -0.16826,-0.3853 -0.44105,-0.56993 -0.27319,-0.18449 -0.7141,-0.41859 -0.95135,-0.4243 -0.23846,-0.007 -0.27283,0.21687 -0.0745,0.65825 0.19648,0.44034 0.62584,1.09859 1.0264,1.89673 0.39933,0.79818 0.77126,1.73622 0.93333,2.41167 0.16211,0.67544 0.11688,1.08828 0,1.2947 -0.11579,0.20642 -0.30141,0.20642 -0.45176,-0.062 -0.15016,-0.26838 -0.26704,-0.80389 -0.44108,-1.40136 -0.17405,-0.59747 -0.40534,-1.25571 -0.74742,-1.93575 -0.34231,-0.68004 -0.79508,-1.38416 -1.13724,-1.86923 -0.34194,-0.48622 -0.57453,-0.75342 -0.71402,-0.77065 -0.13931,-0.0174 -0.18599,0.21791 -0.0814,0.6422 0.10349,0.42433 0.36004,1.03784 0.52214,1.66396 0.16211,0.625 0.23122,1.26146 0.23122,1.68004 0,0.41855 -0.0688,0.61923 -0.17984,0.67544 -0.10963,0.055 -0.26125,-0.0348 -0.34809,-0.30145 -0.0872,-0.26838 -0.10964,-0.71446 -0.19793,-1.2947 -0.0872,-0.58027 -0.23736,-1.2947 -0.42918,-1.96443 -0.19177,-0.6697 -0.42317,-1.2947 -0.66756,-1.67426 -0.24424,-0.3796 -0.49822,-0.51376 -0.6854,-0.5023 -0.1849,0.0104 -0.30141,0.16743 -0.30757,0.41858 -0.0108,0.25097 0.0992,0.59747 0.28477,0.98737 0.18599,0.39105 0.4518,0.82564 0.54599,1.12267 0.093,0.29588 0.0109,0.45183 -0.0872,0.45183 -0.0988,0 -0.21457,-0.15595 -0.39451,-0.41859 -0.1802,-0.26246 -0.42325,-0.63071 -0.63189,-0.71902 -0.20878,-0.0895 -0.38265,0.0999 -0.45292,0.39564 -0.0687,0.29588 -0.0362,0.69724 0.11688,1.1617 0.15016,0.46328 0.41836,0.98737 0.4518,1.26142 0.0362,0.27395 -0.16211,0.29588 -0.36004,0.10652 -0.19792,-0.19041 -0.39462,-0.59173 -0.55079,-0.75342 -0.15632,-0.16186 -0.27283,-0.0839 -0.34194,0.0839 -0.0687,0.16743 -0.093,0.42432 0.0109,0.72476 0.10494,0.30145 0.33615,0.6468 0.57464,0.99882 0.23846,0.35207 0.48154,0.70872 0.53401,0.93808 0.0525,0.22835 -0.0872,0.32895 -0.26125,0.27848 -0.17405,-0.0505 -0.38265,-0.25133 -0.5686,-0.45757 -0.18599,-0.20642 -0.34809,-0.41855 -0.4756,-0.44149 -0.12773,-0.0244 -0.22073,0.14446 -0.17405,0.39676 0.046,0.25097 0.2323,0.58601 0.40765,0.92548 0.17405,0.33939 0.33868,0.68344 0.40295,0.93459 0.064,0.25237 0.0289,0.41169 -0.0575,0.44953 -0.0872,0.0379 -0.22652,-0.0459 -0.36717,-0.19737 -0.13931,-0.15142 -0.27898,-0.36926 -0.37899,-0.3853 -0.10023,-0.0174 -0.1621,0.16743 -0.17875,0.41969 -0.0181,0.25098 0.0109,0.57112 0.0575,0.93234 0.0478,0.36122 0.11688,0.7649 0.10856,1.01261 -0.0109,0.24645 -0.0977,0.3373 -0.20517,0.34861 -0.10855,0.0104 -0.23737,-0.056 -0.32204,0 -0.0843,0.056 -0.1252,0.23636 -0.12049,0.44723 0,0.21095 0.0583,0.45298 0.0108,0.59862 -0.0499,0.1455 -0.20154,0.19598 -0.32674,0.41054 -0.1252,0.21339 -0.22543,0.59058 -0.52572,1.88758 -0.30033,1.297 -0.8034,3.51714 -1.06805,4.88411 -0.26487,1.36693 -0.28839,1.88298 -0.4375,2.45751 -0.14908,0.57453 -0.42318,1.20757 -0.63782,1.51605 -0.21457,0.30841 -0.36713,0.2924 -0.52442,0.44379 -0.1574,0.15142 -0.31951,0.47132 -0.46971,0.83598 -0.14908,0.3647 -0.28477,0.77409 -0.33615,1.20528 -0.0517,0.43003 -0.0181,0.88071 -0.0727,1.19608 -0.0546,0.31538 -0.20046,0.49656 -0.3969,0.56534 -0.19684,0.0689 -0.44348,0.0279 -0.63898,0.24541 -0.19539,0.21686 -0.34085,0.69267 -0.55192,1.47017 -0.21095,0.77751 -0.48997,1.85663 -0.63655,2.89674 -0.14763,1.04011 -0.16572,2.04126 -0.23484,2.89214 -0.0687,0.85092 -0.19069,1.55274 -0.19901,2.14447 -0.0108,0.59287 0.0959,1.07683 0.0253,1.57224 -0.0698,0.49655 -0.31372,1.00456 -0.46251,1.59284 -0.14908,0.58831 -0.20009,1.25571 -0.29924,2.11234 -0.0977,0.85781 -0.24207,1.90366 -0.48404,2.76028 -0.24315,0.85666 -0.58285,1.52521 -0.83914,1.8016 -0.2551,0.27743 -0.42557,0.16395 -0.5305,-0.16987 -0.10493,-0.33382 -0.14438,-0.88761 -0.18345,-1.32339 -0.0395,-0.43463 -0.0785,-0.74997 -0.32783,-0.95182 -0.24787,-0.2019 -0.70683,-0.28997 -0.96319,-0.21443 -0.2551,0.0755 -0.30757,0.31433 -0.34701,0.80619 -0.0394,0.49081 -0.0662,1.23507 -0.44108,2.11693 -0.37549,0.88186 -1.10145,1.90136 -1.99907,2.61464 -0.89766,0.71328 -1.9681,1.12041 -2.87292,1.33024 -0.90471,0.2099 -1.644934,0.22243 -2.173042,0.165 -0.528073,-0.0574 -0.845155,-0.18449 -0.871388,-0.38186 -0.02533,-0.19737 0.237006,-0.46331 0.541207,-0.76261 0.303947,-0.29831 0.647263,-0.62845 0.660398,-0.79358 0.01447,-0.165 -0.303947,-0.165 -0.785632,-0.0379 -0.482806,0.1274 -1.130069,0.38189 -1.763003,0.5023 -0.634273,0.12044 -1.255302,0.10791 -1.552085,-0.0209 -0.296711,-0.1274 -0.270658,-0.36811 0.106019,-0.68578 0.376714,-0.31781 1.102714,-0.71213 1.710645,-1.24538 0.607931,-0.53439 1.096671,-1.20753 1.578211,-1.95754 0.481648,-0.75 0.957289,-1.57565 1.53179,-2.12268 0.57464,-0.54699 1.24813,-0.81304 1.71784,-1.36007 0.46844,-0.547 0.73306,-1.37267 0.89158,-2.10889 0.15849,-0.73737 0.21095,-1.38531 0.48165,-1.9564 0.27066,-0.57223 0.75932,-1.06764 1.18257,-1.4048 0.42191,-0.3373 0.77959,-0.5149 1.23489,-1.43575 0.45546,-0.92085 1.01092,-2.58481 1.51276,-4.14326 0.50187,-1.55849 0.95009,-3.01258 1.13604,-4.18458 0.1849,-1.172 0.10602,-2.0619 -0.0326,-2.4816 -0.13967,-0.41973 -0.33723,-0.36811 -0.60087,-0.0379 -0.26342,0.33034 -0.5948,0.94034 -0.89752,1.45524 -0.30286,0.5149 -0.5818,0.93349 -0.81302,1.25802 -0.23122,0.32442 -0.41605,0.55273 -0.5949,0.61006 -0.17875,0.0574 -0.35027,-0.0574 -0.32313,-0.30493 0.0253,-0.24784 0.2504,-0.62841 0.5686,-1.10547 0.31697,-0.47707 0.72596,-1.0493 1.05618,-1.62612 0.33036,-0.57798 0.58177,-1.16281 0.62707,-1.45525 0.0449,-0.2924 -0.11217,-0.2924 -0.33723,-0.1274 -0.22398,0.165 -0.51498,0.49541 -0.75224,0.8899 -0.23845,0.39446 -0.42198,0.85203 -0.57449,1.03551 -0.1527,0.18345 -0.27175,0.095 -0.28369,-0.12044 -0.0145,-0.21547 0.0785,-0.55959 0.27066,-0.96558 0.19178,-0.40594 0.48154,-0.87726 0.75929,-1.25801 0.27645,-0.38071 0.54121,-0.67314 0.6735,-1.02291 0.13243,-0.34976 0.13243,-0.75571 0.347,-1.37267 0.21349,-0.61696 0.64126,-1.44494 0.80825,-2.03667 0.16789,-0.59172 0.0745,-0.94723 -0.089,-1.01145 -0.16573,-0.063 -0.40299,0.16499 -0.62711,0.33034 -0.22398,0.165 -0.43628,0.26733 -0.52807,0.19145 -0.093,-0.0769 -0.067,-0.33034 0.15848,-0.77521 0.22398,-0.44496 0.64727,-1.08027 1.10384,-1.95065 0.45545,-0.87155 0.94531,-1.97818 1.23022,-2.75339 0.28477,-0.77524 0.36362,-1.22017 0.31843,-1.38531 -0.047,-0.16499 -0.2182,-0.0505 -0.35642,-0.07 -0.13822,-0.0209 -0.24424,-0.17196 -0.22398,-0.41973 0.0217,-0.24785 0.16572,-0.59173 0.31697,-1.07454 0.15125,-0.48392 0.30974,-1.10777 0.40892,-1.72473 0.0988,-0.61697 0.13931,-1.22704 0.0988,-1.70295 -0.0394,-0.47706 -0.15848,-0.81994 -0.14546,-1.26487 0.0145,-0.44497 0.15849,-0.99081 0.11218,-1.51832 -0.047,-0.52638 -0.28369,-1.03554 -0.62708,-1.65365 -0.34339,-0.61811 -0.79272,-1.34748 -1.19567,-1.81994 -0.40287,-0.47247 -0.75929,-0.68919 -0.91785,-0.64446 -0.15848,0.0449 -0.11904,0.34976 0.16464,0.81993 0.28369,0.47017 0.81299,1.10548 1.19567,1.73504 0.38265,0.6296 0.62103,1.25227 0.66757,1.59518 0.0459,0.34287 -0.0992,0.40709 -0.25764,0.27987 -0.15848,-0.12741 -0.33036,-0.44494 -0.52807,-0.80045 -0.19793,-0.35665 -0.42202,-0.75 -0.5686,-0.87041 -0.14546,-0.12044 -0.21095,0.0313 -0.24424,0.21547 -0.0326,0.18449 -0.0326,0.40024 -0.1252,0.47707 -0.093,0.0769 -0.27789,0.0139 -0.44937,-0.25446 -0.17151,-0.26594 -0.33036,-0.73737 -0.50904,-1.22588 -0.17766,-0.48967 -0.37548,-0.99771 -0.51497,-1.34058 -0.13823,-0.34288 -0.21819,-0.5218 -0.35642,-0.55274 -0.13822,-0.0313 -0.33615,0.0825 -0.33036,0.43804 0.0109,0.35551 0.21819,0.95298 0.31697,1.44838 0.0991,0.49541 0.0861,0.88876 0.14546,1.27636 0.0593,0.3876 0.19178,0.76946 0.13244,0.97247 -0.0593,0.20294 -0.30974,0.22835 -0.50188,0.0139 -0.19177,-0.21547 -0.32312,-0.67318 -0.54232,-0.98508 -0.2182,-0.31084 -0.52218,-0.47591 -0.76649,-0.88875 -0.24461,-0.41284 -0.42919,-1.07453 -0.62103,-1.27065 -0.19214,-0.19597 -0.38985,0.07 -0.46971,0.34977 -0.0785,0.27986 -0.0394,0.57226 -0.11217,0.88304 -0.0727,0.31085 -0.25727,0.64217 -0.34701,1.10088 -0.0879,0.45872 -0.0796,1.04815 -0.0575,1.5768 0.0217,0.52869 0.0583,0.99771 0,1.2844 -0.0604,0.28787 -0.21928,0.39335 -0.34809,0.34044 -0.12882,-0.0529 -0.22543,-0.26386 -0.32892,-0.48626 -0.10385,-0.22243 -0.21349,-0.45753 -0.31118,-0.49311 -0.0977,-0.0355 -0.18237,0.12949 -0.17658,0.43348 0.0108,0.30493 0.10385,0.75001 0.0669,1.05504 -0.0362,0.30493 -0.20734,0.46903 -0.37194,0.4048 -0.16464,-0.064 -0.32312,-0.35777 -0.53046,-0.58598 -0.20733,-0.22835 -0.46377,-0.3922 -0.59129,-0.28683 -0.127364,0.10547 -0.127364,0.48051 -0.07273,0.92085 0.05464,0.43922 0.16464,0.94379 0.21928,1.34288 0.0546,0.39909 0.0546,0.69149 -0.0489,0.79128 -0.103489,0.0999 -0.311186,0.007 -0.487512,-0.19945 -0.176579,-0.20538 -0.323125,-0.5218 -0.493516,-0.52754 -0.170428,-0.007 -0.366004,0.29936 -0.791566,0.91514 -0.425526,0.61696 -1.083536,1.54355 -1.747589,2.50569 -0.663944,0.96213 -1.333895,1.95869 -1.937049,2.79122 -0.603227,0.83257 -1.139658,1.50112 -1.390017,2.01717 -0.248947,0.51605 -0.213125,0.87957 -0.255098,1.22474 -0.04306,0.34635 -0.164638,0.67433 -0.401717,0.94953 -0.238454,0.27534 -0.59125,0.49885 -0.939379,0.82683 -0.348092,0.3279 -0.689019,0.7626 -1.046592,1.39331 -0.357861,0.63075 -0.733164,1.45873 -1.15746,1.94954 -0.424405,0.49081 -0.90001,0.64331 -1.192125,1.02406 -0.293092,0.38186 -0.401717,0.99081 -0.512586,1.50112 -0.109638,0.51031 -0.219276,0.92085 -0.280065,1.25457 -0.06043,0.33382 -0.07382,0.59172 -0.207336,0.89676 -0.13352,0.30493 -0.38974,0.65594 -0.532776,1.05963 -0.144375,0.40365 -0.174046,0.85777 -0.330362,1.27291 -0.156316,0.41399 -0.436345,0.78896 -0.692638,1.32338 -0.256184,0.53321 -0.48751,1.22589 -0.597221,1.91167 -0.109638,0.68574 -0.0977,1.36578 -0.127368,1.89903 -0.03257,0.53324 -0.103849,0.92084 -0.280066,1.31304 -0.176579,0.39335 -0.456572,0.79129 -0.610319,1.34173 -0.153783,0.54929 -0.179835,1.25227 -0.254013,1.95754 -0.07382,0.70642 -0.195395,1.41511 -0.363615,1.8394 -0.169342,0.42433 -0.387461,0.56423 -0.513743,0.55278 -0.126283,-0.0104 -0.163191,-0.1744 -0.145461,-0.4943 0.01809,-0.3199 0.09082,-0.79699 0.06115,-1.047 -0.02895,-0.24993 -0.16319,-0.2729 -0.38026,-0.1274 -0.21819,0.14446 -0.520907,0.45872 -0.708052,0.51149 -0.187073,0.0529 -0.259803,-0.15699 -0.41724,-0.43003 -0.157402,-0.27291 -0.398063,-0.61011 -0.592408,-0.6571 -0.193224,-0.047 -0.338684,0.19737 -0.464895,0.68574 -0.126283,0.48855 -0.235921,1.22133 -0.653233,1.94606 -0.417241,0.72591 -1.142046,1.44379 -1.993171,1.94264 -0.851089,0.49886 -1.826181,0.77865 -2.789405,0.92889 -0.963187,0.15038 -1.916822,0.17335 -2.485421,0.12845 -0.569829,-0.0449 -0.754622,-0.15699 -0.685474,-0.33487 0.06875,-0.17892 0.394625,-0.42429 0.748652,-0.72017 0.353881,-0.29588 0.737868,-0.6422 0.772424,-0.83254 0.03618,-0.1904 -0.277895,-0.22243 -0.691408,-0.0999 -0.412464,0.12288 -0.922625,0.4025 -1.53298,0.50801 -0.609161,0.10547 -1.31725,0.039 -1.759457,-0.15142 -0.44228,-0.19041 -0.616362,-0.50227 -0.353882,-0.77636 0.262336,-0.27395 0.958339,-0.50804 1.701056,-0.93808 0.743803,-0.43003 1.532944,-1.05615 2.131395,-1.77058 0.598378,-0.71561 1.004871,-1.5195 1.585411,-2.00227 0.580576,-0.48281 1.335161,-0.6445 2.00627,-1.03669 0.669878,-0.39335 1.25523,-1.01947 1.622391,-1.49423 0.368283,-0.47477 0.51975,-0.79815 0.472059,-1.08369 -0.04704,-0.28544 -0.289835,-0.53098 -0.26125,-0.82108 0.02895,-0.28997 0.331448,-0.62501 0.731934,-1.21217 0.40056,-0.58598 0.90001,-1.42426 1.592576,-2.74076 0.692566,-1.31649 1.577089,-3.11119 2.071835,-4.22701 0.494711,-1.11581 0.598379,-1.55156 0.523333,-1.87497 -0.07562,-0.32443 -0.331448,-0.53666 -0.377872,-0.81534 -0.04704,-0.27883 0.116875,-0.62501 0.365895,-1.11697 0.248947,-0.49196 0.586473,-1.12841 0.696184,-1.53551 0.109638,-0.40824 -0.01085,-0.58713 -0.197928,-0.55848 -0.192138,0.0279 -0.45896,0.26246 -0.795075,0.63645 -0.337237,0.37501 -0.743875,0.88876 -1.195671,1.39106 -0.452954,0.50226 -0.952514,0.99422 -1.265941,1.17885 -0.313717,0.18449 -0.441049,0.062 -0.331448,-0.20642 0.110724,-0.26733 0.458961,-0.68115 0.911987,-1.15591 0.452954,-0.47477 1.010806,-1.01146 1.480477,-1.50802 0.470865,-0.4977 0.853513,-0.95527 0.900046,-1.18463 0.04595,-0.22939 -0.244243,-0.22939 -0.382648,-0.30737 -0.139309,-0.0769 -0.127368,-0.23287 0.08142,-0.48851 0.208421,-0.2569 0.616253,-0.61352 1.010769,-1.01602 0.394625,-0.40254 0.778468,-0.84862 0.847579,-1.05044 0.06875,-0.20051 -0.174046,-0.15595 -0.505421,0.056 -0.331447,0.21199 -0.748542,0.59172 -0.98099,0.70409 -0.232302,0.11139 -0.27898,-0.0449 -0.05355,-0.34287 0.225427,-0.29832 0.721187,-0.73967 1.132457,-1.05386 0.411306,-0.31433 0.73671,-0.50574 0.82851,-0.65598 0.09299,-0.15038 -0.04704,-0.26247 -0.388583,-0.12845 -0.343388,0.13437 -0.889299,0.51379 -1.266049,0.69267 -0.376605,0.17892 -0.586474,0.15595 -0.563786,0.007 0.02533,-0.15143 0.27898,-0.43004 0.743803,-0.77065 0.464894,-0.34044 1.138391,-0.74308 1.823865,-1.11122 0.685401,-0.36926 1.381585,-0.70409 2.056348,-1.22588 0.674655,-0.52176 1.327888,-1.23048 1.875102,-2.0768 0.547142,-0.84518 0.988227,-1.8291 1.3255,-2.68917 0.337237,-0.86007 0.569829,-1.59744 0.592517,-1.95525 0.02533,-0.3578 -0.162106,-0.33486 -0.388583,-0.15037 -0.226513,0.18449 -0.493552,0.5298 -0.726,0.77064 -0.232302,0.24088 -0.429181,0.37497 -0.557852,0.37497 -0.12773,0 -0.185986,-0.13402 0.07743,-0.60662 0.263421,-0.47362 0.847542,-1.2844 1.332773,-2.03092 0.483927,-0.74656 0.867733,-1.4289 1.076371,-2.03211 0.208421,-0.60432 0.244244,-1.13186 0.174046,-1.45179 -0.06983,-0.3199 -0.244243,-0.43119 -0.400559,-0.35896 -0.157401,0.0721 -0.29671,0.32895 -0.365931,0.69842 -0.06983,0.36811 -0.06983,0.84858 -0.13352,1.09973 -0.06405,0.25098 -0.191776,0.27395 -0.313355,0.10547 -0.122664,-0.16743 -0.238454,-0.52524 -0.272829,-1.0275 -0.03618,-0.5023 0.01086,-1.15021 -0.244243,-1.97818 -0.255099,-0.82683 -0.812987,-1.83255 -1.344714,-2.66167 -0.532776,-0.82909 -1.039428,-1.48274 -1.618737,-2.08366 -0.578151,-0.59976 -1.229069,-1.14791 -1.617687,-1.8073 -0.388582,-0.659398 -0.517362,-1.430044 -0.604385,-2.128425 -0.0872,-0.698381 -0.13352,-1.324498 -0.365895,-1.659365 -0.232302,-0.334866 -0.649687,-0.380745 -0.952513,-0.234963 -0.301414,0.144459 -0.487582,0.480474 -0.592408,1.050443 -0.103848,0.569935 -0.12773,1.374972 -0.238454,2.155921 -0.109638,0.782099 -0.307565,1.542409 -0.760519,2.083689 -0.452954,0.5424 -1.161007,0.86582 -1.97403,0.922 -0.81277,0.055 -1.730582,-0.15699 -2.861918,-0.49764 -1.132493,-0.34043 -2.479486,-0.81078 -3.379424,-1.21787 -0.900046,-0.4071 -1.353072,-0.754566 -1.451964,-1.173149 -0.09914,-0.418549 0.156316,-0.910545 0.690178,-1.972441 0.532885,-1.061896 1.343483,-2.69491 1.97526,-3.931132 0.631776,-1.235073 1.084802,-2.073353 1.608098,-2.682274 0.522139,-0.608956 1.114583,-0.988518 1.608099,-1.206425 0.493516,-0.217907 0.888069,-0.27395 1.184924,-0.458683 0.296711,-0.18449 0.493444,-0.496557 0.592444,-0.77639 0.09878,-0.279867 0.09878,-0.525204 -0.08141,-0.743076 -0.179836,-0.217907 -0.539977,-0.40828 -0.829668,-0.615848 -0.290921,-0.207465 -0.511427,-0.433447 -0.49945,-0.753415 0.01085,-0.319899 0.255098,-0.732773 0.494674,-0.983923 0.237368,-0.250976 0.470829,-0.340436 0.609161,-0.497705 0.139309,-0.155947 0.185987,-0.379562 0.226513,-0.741963 0.04017,-0.363515 0.07454,-0.865815 -0.01086,-1.212134 -0.08141,-0.346353 -0.27898,-0.536691 -0.474375,-0.683448 -0.195395,-0.145503 -0.389849,-0.248887 -0.51975,-0.239488 -0.129901,0.01044 -0.197928,0.131927 -0.283684,0.167433 -0.08612,0.0369 -0.190691,-0.01392 -0.262336,-0.176484 -0.07164,-0.161864 -0.108552,-0.435779 -0.202631,-0.597469 -0.09299,-0.161515 -0.243158,-0.211989 -0.358586,-0.136453 -0.116875,0.07554 -0.199013,0.277431 -0.314802,0.4174 -0.115428,0.140978 -0.265593,0.220344 -0.381418,0.191452 -0.11579,-0.02785 -0.199013,-0.166389 -0.235921,-0.385306 -0.03727,-0.220343 -0.02895,-0.522907 -0.120494,-0.662806 -0.08901,-0.140978 -0.276447,-0.119396 -0.415973,0.0034 -0.138224,0.122529 -0.227961,0.346354 -0.351711,0.388786 -0.124112,0.04351 -0.280066,-0.09399 -0.332533,-0.294835 -0.05247,-0.201895 0,-0.469057 0.01086,-0.709869 0.01086,-0.240881 -0.01809,-0.457535 -0.08612,-0.543549 -0.06694,-0.08598 -0.17296,-0.04351 -0.28477,0.06544 -0.112171,0.108953 -0.232302,0.280912 -0.332533,0.312936 -0.101315,0.03133 -0.183453,-0.07554 -0.250394,-0.18797 -0.06694,-0.112435 -0.120494,-0.226958 -0.247862,-0.287874 -0.12773,-0.06092 -0.328915,-0.06892 -0.426793,-0.143415 -0.0977,-0.07449 -0.09082,-0.218951 -0.01809,-0.393346 0.06984,-0.174396 0.203717,-0.378448 0.23954,-0.618111 0.03618,-0.240881 -0.02895,-0.518347 -0.117961,-0.599766 -0.08901,-0.0825 -0.207335,0.03133 -0.311184,0.143414 -0.103487,0.113479 -0.194309,0.225913 -0.346645,0.230439 -0.152697,0.0034 -0.369549,-0.0999 -0.423283,-0.268381 -0.05355,-0.168478 0.05355,-0.403685 0.116875,-0.680037 0.06332,-0.277431 0.08142,-0.597468 0.01447,-0.866963 -0.06803,-0.269425 -0.220724,-0.485069 -0.342303,-0.5023 -0.121579,-0.01741 -0.210954,0.164997 -0.225427,0.39909 -0.01447,0.233919 0.04993,0.520645 -0.01447,0.662841 -0.06332,0.143415 -0.25148,0.143415 -0.373168,0.03133 -0.121579,-0.112434 -0.175131,-0.337303 -0.252566,-0.653686 -0.07671,-0.316417 -0.175131,-0.723583 -0.215657,-1.052741 -0.04017,-0.328949 -0.02171,-0.580238 -0.144375,-0.715577 -0.121579,-0.134016 -0.38254,-0.151421 -0.544718,-0.26838 -0.162105,-0.11696 -0.225427,-0.333823 -0.16319,-0.56534 0.06224,-0.231831 0.247862,-0.477063 0.313355,-0.766051 0.06405,-0.287874 0.01086,-0.620408 -0.09299,-0.75801 -0.100231,-0.138889 -0.244244,-0.0825 -0.363616,0.132972 -0.120493,0.21547 -0.215657,0.592874 -0.382648,0.782098 -0.167894,0.189363 -0.406493,0.189363 -0.541207,0.109998 -0.13352,-0.07797 -0.162105,-0.233919 -0.08612,-0.546995 0.07671,-0.312937 0.258717,-0.782098 0.349177,-1.315344 0.09082,-0.533245 0.09082,-1.131863 0.01447,-1.518317 -0.07671,-0.386489 -0.230132,-0.560779 -0.44948,-0.607807 -0.220362,-0.04595 -0.506543,0.03655 -0.612744,0.230438 -0.106019,0.193889 -0.02895,0.496557 0,0.795848 0.02895,0.299361 0.01086,0.594023 -0.185986,0.846321 -0.195395,0.252369 -0.569829,0.464462 -0.922625,0.537841 -0.352796,0.07345 -0.68902,0.01044 -0.860678,-0.143415 -0.172961,-0.151421 -0.181283,-0.391049 -0.287303,-0.579124 -0.106019,-0.187971 -0.30648,-0.326861 -0.435115,-0.537841 -0.128816,-0.211989 -0.185987,-0.496556 -0.124112,-0.731624 0.06224,-0.234964 0.244244,-0.418583 0.300329,-0.658246 0.05753,-0.238445 -0.01085,-0.533245 0.01086,-0.830274 0.02171,-0.296925 0.125197,-0.595172 0.262335,-0.856625 0.137138,-0.261419 0.30648,-0.483921 0.280066,-0.642199 -0.02533,-0.158383 -0.247862,-0.248887 -0.506651,-0.167433 -0.258717,0.08145 -0.554306,0.334866 -0.765333,0.477063 -0.210954,0.14237 -0.338684,0.171958 -0.480417,0.127402 -0.141842,-0.04595 -0.300329,-0.167433 -0.417204,-0.146896 -0.115428,0.02089 -0.189606,0.182402 -0.217106,0.447232 -0.02533,0.263855 0,0.629598 -0.08901,0.84747 -0.08431,0.217907 -0.273914,0.288918 -0.522065,0.187971 -0.247862,-0.101992 -0.554306,-0.376116 -0.770109,-0.431185 -0.215658,-0.055 -0.343388,0.106517 -0.322039,0.324424 0.02171,0.217907 0.189605,0.49311 0.232302,0.731659 0.04306,0.238445 -0.04306,0.441488 -0.152335,0.478177 -0.110724,0.03551 -0.247862,-0.09642 -0.41724,-0.325816 -0.169343,-0.22835 -0.36955,-0.552739 -0.654464,-0.665103 -0.28477,-0.11139 -0.654464,-0.01044 -0.839221,0.167433 -0.184901,0.177876 -0.184901,0.431184 -0.169342,0.746557 0.01447,0.314329 0.04776,0.690341 -0.04197,0.872673 -0.09082,0.183445 -0.300329,0.173002 -0.570987,0.02089 -0.269573,-0.152465 -0.596063,-0.447231 -0.886911,-0.502265 -0.290921,-0.05604 -0.543596,0.127403 -0.812987,0.345309 -0.269573,0.217907 -0.554342,0.472469 -0.622188,0.756862 -0.06803,0.284393 0.07852,0.598617 0.269211,1.163957 0.190691,0.565374 0.421908,1.379567 0.754513,2.112374 0.332533,0.731625 0.765332,1.38183 1.055023,2.113489 0.290921,0.731624 0.438661,1.543554 0.643717,2.487341 0.204803,0.944937 0.468477,2.020617 0.756901,2.817614 0.289836,0.796996 0.606809,1.315343 0.722454,1.629568 0.116875,0.314329 0.03257,0.426589 -0.147631,0.355474 -0.179112,-0.07101 -0.454365,-0.324424 -0.750027,-0.771795 -0.295625,-0.447231 -0.612707,-1.087133 -0.865454,-1.411661 -0.252927,-0.325816 -0.443473,-0.334866 -0.586509,-0.482806 -0.141843,-0.146896 -0.237369,-0.431185 -0.389741,-0.583685 -0.152697,-0.152465 -0.364845,-0.171958 -0.438769,0.0035 -0.07382,0.177876 -0.01086,0.553888 0.05283,0.990781 0.06332,0.435779 0.126283,0.933484 0.226513,1.324533 0.10023,0.391049 0.238454,0.675442 0.327829,1.076829 0.08901,0.401353 0.130987,0.918551 0.352796,1.467843 0.221809,0.548179 0.623418,1.127269 1.060848,1.639907 0.43877,0.512603 0.913145,0.959835 1.398339,1.315343 0.486352,0.355474 0.982257,0.619225 1.140816,0.782098 0.158487,0.162908 -0.02171,0.223477 -0.332533,0.173351 -0.311184,-0.05047 -0.754585,-0.213382 -1.294562,-0.555071 -0.538783,-0.341828 -1.174214,-0.862368 -1.713033,-1.397911 -0.539941,-0.535543 -0.982257,-1.085984 -1.306503,-1.613486 -0.323125,-0.527502 -0.525721,-1.030951 -0.692566,-1.370377 -0.165724,-0.339392 -0.29454,-0.514901 -0.41724,-0.540138 -0.122665,-0.02437 -0.240625,0.09747 -0.219277,0.421994 0.02171,0.324424 0.181283,0.848619 0.486316,1.404804 0.303948,0.556185 0.753464,1.142167 1.268438,1.707541 0.514973,0.56534 1.09544,1.110072 1.552013,1.475885 0.456572,0.364663 0.788019,0.550441 0.829631,0.647942 0.04197,0.09747 -0.207335,0.106517 -0.603118,-0.07101 -0.395783,-0.177528 -0.939378,-0.540068 -1.413753,-0.948313 -0.474484,-0.407096 -0.878589,-0.858922 -1.196829,-1.239668 -0.318421,-0.38071 -0.547214,-0.691489 -0.727231,-0.71328 -0.17875,-0.02437 -0.307565,0.24297 -0.193223,0.70872 0.115789,0.465576 0.474483,1.129566 0.87971,1.762575 0.405372,0.633009 0.855902,1.236221 1.325609,1.682304 0.469671,0.447232 0.957253,0.739665 1.386362,0.930038 0.42795,0.190408 0.796342,0.278475 0.892845,0.363515 0.09661,0.08389 -0.07852,0.163952 -0.395783,0.123921 -0.318059,-0.04003 -0.778358,-0.199458 -1.206381,-0.420845 -0.427951,-0.221388 -0.823625,-0.504598 -1.219408,-0.885308 -0.395783,-0.380746 -0.791566,-0.858923 -1.040658,-1.155951 -0.249309,-0.296925 -0.34954,-0.411691 -0.423283,-0.371556 -0.07382,0.04003 -0.119046,0.234963 0.03257,0.682334 0.15125,0.447231 0.501875,1.146761 0.855901,1.819906 0.355329,0.673179 0.714023,1.319938 1.172984,1.971292 0.460118,0.651389 1.0192,1.308486 1.585411,1.858927 0.566283,0.550476 1.139658,0.993113 1.599776,1.309635 0.460118,0.316417 0.80821,0.505711 0.892845,0.619224 0.08431,0.113479 -0.09372,0.148985 -0.497062,0.01044 -0.404245,-0.13958 -1.033705,-0.455093 -1.615402,-0.862189 C 61.918165,96.03251 61.383,95.535953 60.922882,95.016458 60.462691,94.496962 60.077727,93.954562 59.721277,93.435066 59.364862,92.91557 59.035803,92.419014 58.791487,92.156412 58.547244,91.893949 58.387382,91.867494 58.33126,91.957998 c -0.05536,0.0905 -0.01085,0.297969 0.08431,0.501151 0.09372,0.202939 0.234836,0.402501 0.404106,0.605475 0.169342,0.202939 0.366003,0.411691 0.35171,0.488516 -0.01447,0.07693 -0.239539,0.02437 -0.517362,-0.162909 -0.276447,-0.184489 -0.605651,-0.501116 -0.872654,-0.885273 -0.26704,-0.384191 -0.474375,-0.836017 -0.610319,-1.241965 -0.136053,-0.405982 -0.201546,-0.768348 -0.268125,-0.862368 -0.06694,-0.09399 -0.130987,0.07693 -0.126283,0.365812 0,0.288918 0.07961,0.694935 0.188158,1.043551 0.107467,0.348617 0.247862,0.637604 0.385072,0.872707 0.135691,0.234964 0.26704,0.415137 0.290921,0.542401 0.02533,0.12601 -0.06043,0.198413 -0.187072,0.154901 -0.126283,-0.04351 -0.294178,-0.202938 -0.461349,-0.451826 -0.166809,-0.248887 -0.332533,-0.58713 -0.479151,-0.886421 -0.146546,-0.300406 -0.272829,-0.563078 -0.356415,-0.599767 -0.08322,-0.03655 -0.121579,0.150377 -0.112171,0.552739 0.01086,0.40365 0.06875,1.022909 0.277895,1.824501 0.209868,0.80274 0.570987,1.787811 0.921503,2.549267 0.350263,0.761456 0.69253,1.299296 1.121638,1.799299 0.429181,0.498819 0.945313,0.958686 1.224293,1.259126 0.27898,0.300405 0.316974,0.441523 0.195395,0.487402 -0.121579,0.04699 -0.404105,0 -0.839257,-0.333823 -0.433885,-0.33243 -1.0192,-0.951828 -1.536562,-1.552709 -0.51729,-0.599766 -0.965503,-1.182336 -1.461444,-2.068793 -0.495905,-0.886456 -1.03827,-2.077948 -1.31602,-3.072174 -0.277895,-0.99541 -0.292006,-1.792407 -0.257631,-2.460991 0.03256,-0.66855 0.113256,-1.209836 0.06622,-1.790109 -0.04776,-0.580238 -0.223981,-1.198349 -0.295625,-1.645615 -0.07165,-0.447232 -0.03619,-0.720172 -0.110724,-0.883011 -0.07454,-0.162908 -0.262336,-0.214426 -0.377908,-0.338347 -0.115789,-0.123922 -0.159572,-0.320943 -0.195395,-0.624969 -0.03618,-0.303886 -0.06224,-0.715577 -0.161019,-0.822233 -0.0977,-0.106517 -0.26704,0.08946 -0.40056,0.436928 -0.133519,0.346354 -0.231217,0.84284 -0.257269,1.545817 -0.02533,0.702976 0.01809,1.610074 0.09299,2.295855 0.07563,0.684596 0.182369,1.146761 0.174046,1.395613 -0.01086,0.248888 -0.13352,0.283349 -0.275362,0.142371 -0.142927,-0.142371 -0.302861,-0.45757 -0.449371,-0.993113 -0.146546,-0.535542 -0.280066,-1.288957 -0.343388,-2.128387 -0.06332,-0.839429 -0.05355,-1.764872 0.0977,-2.743086 0.15125,-0.979328 0.444631,-2.011427 0.73671,-2.912782 0.292007,-0.901355 0.584086,-1.667406 0.72951,-2.300415 0.146546,-0.633009 0.146546,-1.133012 0.102402,-1.520615 -0.04415,-0.387603 -0.130987,-0.663989 -0.374326,-0.815375 -0.243158,-0.152466 -0.642487,-0.179965 -1.062115,-0.194933 -0.419628,-0.01392 -0.85952,-0.01392 -1.319638,0.01044 -0.461385,0.02437 -0.941767,0.07693 -1.412632,-0.05744 -0.470829,-0.134016 -0.929789,-0.452975 -1.138391,-0.66855 -0.208783,-0.21547 -0.165724,-0.328949 0.03257,-0.545881 0.197927,-0.216862 0.550759,-0.534394 0.759398,-0.811895 0.208782,-0.277431 0.272828,-0.5149 0.11796,-0.560779 -0.154868,-0.04699 -0.529339,0.09747 -0.892954,0.308411 -0.363506,0.210945 -0.716411,0.488515 -0.989349,0.740814 -0.27319,0.252368 -0.464894,0.478212 -0.716411,0.462165 -0.25148,-0.01392 -0.561506,-0.272906 -1.021625,-0.66298 -0.460118,-0.389901 -1.072825,-0.911694 -1.518687,-1.427743 -0.445826,-0.516015 -0.728352,-1.025207 -0.778431,-1.322201 -0.04993,-0.296925 0.129901,-0.384192 0.315888,-0.519496 0.185987,-0.135409 0.376642,-0.319898 0.360033,-0.541286 -0.01809,-0.222433 -0.242072,-0.481623 -0.557888,-0.622706 -0.314803,-0.140978 -0.72003,-0.162908 -0.928632,-0.254457 -0.208421,-0.0919 -0.220361,-0.254457 -0.05645,-0.557299 0.163191,-0.302841 0.500609,-0.746557 0.816533,-1.04014 0.315888,-0.292399 0.607931,-0.432333 0.765332,-0.633009 0.157401,-0.200502 0.179836,-0.459867 0.210954,-1.014903 0.02895,-0.553888 0.06875,-1.40362 0.331447,-2.532037 0.262336,-1.128452 0.75104,-2.537815 1.40905,-3.824476 0.65801,-1.287844 1.486519,-2.454098 2.118296,-3.290116 0.632898,-0.835983 1.069279,-1.34058 1.28975,-1.766021 0.221809,-0.425441 0.226513,-0.768313 0.203717,-1.142167 -0.02171,-0.373853 -0.07273,-0.77524 -0.08141,-1.137606 -0.01085,-0.361217 0.02533,-0.683448 -0.116875,-0.764867 -0.141842,-0.08041 -0.460118,0.08041 -0.745033,0.09642 -0.283684,0.0174 -0.535164,-0.113479 -0.610319,-0.265944 -0.07454,-0.152465 0.02533,-0.330342 0.301415,-0.474766 0.275362,-0.144459 0.72723,-0.257938 0.969158,-0.458718 0.243158,-0.201895 0.276447,-0.490813 0.435115,-0.708685 0.158487,-0.217907 0.443473,-0.361252 0.551917,-0.530948 0.108553,-0.16987 0.04197,-0.362401 -0.116875,-0.522942 -0.158486,-0.160471 -0.410039,-0.288918 -0.485194,-0.43463 -0.07454,-0.14446 0.02533,-0.306323 0.108553,-0.442637 0.08322,-0.137497 0.150165,-0.249932 0.158487,-0.426589 0.01085,-0.176484 -0.04197,-0.418584 0.05826,-0.498854 0.100231,-0.08041 0.350625,0 0.568672,0.137497 0.217105,0.136453 0.40045,0.330341 0.618641,0.361252 0.218191,0.03133 0.468441,-0.09642 0.908368,-0.467908 0.439819,-0.371556 1.06928,-0.985072 1.439987,-1.229329 0.370707,-0.244362 0.482806,-0.118004 0.781977,-0.288918 0.299243,-0.170915 0.786753,-0.639902 1.52824,-1.630717 0.742645,-0.99078 1.739194,-2.505686 2.237487,-3.487312 0.497062,-0.981625 0.497062,-1.431189 0.785631,-1.869231 0.289474,-0.438076 0.869,-0.865814 1.022747,-1.394465 0.153783,-0.527536 -0.119046,-1.1571 -0.01085,-1.766021 0.109638,-0.607807 0.603154,-1.194937 0.648421,-1.769467 0.04487,-0.574529 -0.358947,-1.135309 -0.347007,-1.709838 0.01447,-0.57453 0.442208,-1.165141 0.411306,-1.658251 -0.02895,-0.49311 -0.523404,-0.891017 -0.683085,-1.419702 -0.159934,-0.528651 0.01085,-1.190343 -0.208783,-1.653621 -0.220724,-0.463314 -0.833286,-0.728213 -1.162237,-1.219026 -0.328914,-0.490813 -0.373095,-1.20639 -0.692566,-1.628419 -0.318421,-0.421995 -0.911987,-0.550442 -1.304151,-0.942639 -0.393359,-0.391049 -0.585316,-1.046998 -1.007332,-1.426595 -0.421908,-0.38071 -1.071596,-0.486218 -1.563954,-0.774057 -0.492286,-0.288918 -0.826122,-0.760307 -1.341095,-0.980476 -0.514974,-0.220344 -1.20754,-0.191452 -1.772592,-0.366961 -0.565017,-0.17544 -1.001326,-0.557334 -1.52701,-0.747707 -0.525684,-0.190407 -1.13955,-0.189363 -1.776102,-0.301449 -0.636661,-0.112434 -1.295829,-0.339392 -1.390017,-0.565375 -0.09372,-0.226957 0.376714,-0.452975 0.948859,-0.516049 0.572217,-0.06301 1.24698,0.03899 1.944322,0.03899 0.696112,0 1.416142,-0.0999 2.078928,0.08145 0.661556,0.182402 1.264783,0.646794 2.000263,0.860106 0.735552,0.21199 1.603286,0.16987 2.267339,0.473617 0.663944,0.303886 1.124062,0.950645 1.78569,1.360039 0.661556,0.409428 1.523464,0.580273 2.024073,0.946085 0.500717,0.365847 0.640207,0.926592 1.028789,1.362371 0.388619,0.435779 1.025171,0.748855 1.333931,1.243114 0.308651,0.494259 0.290921,1.170849 0.573375,1.682304 0.282599,0.511455 0.869,0.860071 1.097901,1.395614 0.228684,0.534394 0.100231,1.254566 0.290921,1.825649 0.190691,0.571084 0.697342,0.991964 0.801046,1.506865 0.102402,0.513752 -0.197927,1.121559 -0.133519,1.700649 0.06405,0.580273 0.493444,1.133012 0.562664,1.727034 0.06875,0.594023 -0.222895,1.228216 -0.247862,1.799299 -0.02533,0.571083 0.213487,1.08024 0.04595,1.598587 -0.167895,0.517199 -0.742608,1.043552 -0.954793,1.557304 -0.213486,0.514901 -0.06405,1.017201 -0.09589,1.514906 -0.02895,0.49767 -0.242072,0.993078 -0.26125,1.315343 -0.02171,0.32338 0.15125,0.477028 0.365931,0.432333 0.214573,-0.04456 0.468513,-0.285437 0.613938,-0.503448 0.14546,-0.217907 0.179835,-0.41284 0.393394,-0.571084 0.213487,-0.158382 0.604385,-0.280912 0.772425,-0.638752 0.168256,-0.356658 0.113256,-0.948383 0.29671,-1.358925 0.183454,-0.411691 0.606701,-0.643348 0.785559,-1.159397 0.17875,-0.516015 0.113257,-1.316493 0.449372,-1.786663 0.336151,-0.470171 1.075214,-0.61007 1.440095,-1.091728 0.365895,-0.481623 0.3575,-1.306154 0.693688,-1.721291 0.336151,-0.413988 1.015691,-0.418583 1.409085,-0.887605 0.393395,-0.470171 0.500609,-1.404769 0.938112,-1.917407 0.43754,-0.513752 1.203994,-0.605475 1.73326,-1.090544 0.529303,-0.485104 0.821309,-1.362371 1.393526,-1.792407 0.572217,-0.43007 1.422076,-0.412839 2.055119,-0.823382 0.633006,-0.410542 1.04898,-1.250006 1.643884,-1.624973 0.594833,-0.375002 1.369645,-0.287874 1.957349,-0.557333 0.587632,-0.269425 0.986961,-0.895612 1.52578,-1.154803 0.538819,-0.258982 1.217092,-0.151421 1.794121,-0.291354 0.575763,-0.140979 1.050138,-0.530948 1.616421,-0.683483 0.566211,-0.152466 1.223063,-0.06753 1.83577,-0.183446 0.612707,-0.115915 1.180148,-0.430035 1.840546,-0.450677 0.660398,-0.02089 1.413753,0.256893 2.123072,0.238444 0.709247,-0.01741 1.375652,-0.327905 2.016908,-0.247843 0.641329,0.08041 1.258849,0.55159 1.929957,0.736219 0.671145,0.18449 1.395951,0.08041 1.996717,0.28683 0.600839,0.205375 1.078869,0.719023 1.631944,0.997672 0.553148,0.278824 1.183694,0.321291 1.596123,0.573416 0.41253,0.252368 0.60565,0.714428 0.91792,1.069937 0.31227,0.356622 0.74503,0.605475 0.99539,0.966727 0.25039,0.361217 0.32312,0.832537 0.33615,1.261424 0.0145,0.430035 -0.0289,0.817638 -0.16789,0.938079 -0.13931,0.12044 -0.3756,-0.02785 -0.6735,-0.307368 -0.29816,-0.279867 -0.65689,-0.692637 -1.09316,-0.957537 -0.436381,-0.2649 -0.950125,-0.385305 -1.407819,-0.658246 -0.457839,-0.27395 -0.859556,-0.700679 -1.345908,-0.863517 -0.486315,-0.161864 -1.058569,-0.05848 -1.579477,-0.261419 -0.520907,-0.202939 -0.990578,-0.713314 -1.524585,-0.809632 -0.534151,-0.09642 -1.133724,0.218951 -1.748855,0.233919 -0.615023,0.01392 -1.244484,-0.270469 -1.761846,-0.203983 -0.517361,0.06649 -0.919079,0.486218 -1.426888,0.621522 -0.509039,0.135409 -1.122904,-0.01392 -1.670046,0.07797 -0.547141,0.0919 -1.025135,0.42659 -1.529398,0.536657 -0.504227,0.109998 -1.034723,-0.0023 -1.524694,0.204331 -0.489898,0.20642 -0.939306,0.731624 -1.442375,0.962132 -0.504263,0.230439 -1.063273,0.166389 -1.487677,0.36811 -0.424405,0.201895 -0.714096,0.671996 -1.181306,0.960984 -0.468549,0.288918 -1.113424,0.396792 -1.554474,0.716725 -0.441085,0.319899 -0.675921,0.853214 -1.08596,1.229365 -0.41004,0.376115 -0.994234,0.597468 -1.301727,1.03551 -0.307566,0.438077 -0.33977,1.095174 -0.621066,1.559601 -0.280066,0.464462 -0.810599,0.738551 -1.071668,1.185783 -0.26125,0.44838 -0.252566,1.069937 -0.52572,1.587135 -0.272829,0.517198 -0.82851,0.930003 -1.046592,1.377269 -0.218191,0.448381 -0.0977,0.932301 -0.274276,1.356628 -0.176579,0.424292 -0.648494,0.788955 -0.863066,1.259126 -0.213487,0.471354 -0.169342,1.046998 -0.345559,1.495412 -0.176579,0.448381 -0.574533,0.769463 -0.873777,1.099734 -0.300329,0.330342 -0.501875,0.669733 -0.425562,0.97362 0.07671,0.303886 0.42795,0.569934 0.857131,0.872672 0.429109,0.302842 0.933336,0.643347 1.462566,0.752301 0.529339,0.108953 1.083681,-0.01392 2.017016,-0.315373 0.932178,-0.303887 2.243494,-0.788956 3.276987,-0.994262 1.033494,-0.20642 1.789237,-0.132972 2.59629,0.09642 0.807088,0.230439 1.664111,0.61926 2.43299,0.824531 0.768878,0.205375 1.449575,0.230438 2.105161,0.108953 0.655694,-0.12044 1.28624,-0.387602 1.953802,-0.763718 0.668721,-0.376151 1.37453,-0.86122 1.814349,-0.957572 0.441049,-0.09642 0.617484,0.193888 0.445826,0.68578 -0.171514,0.491961 -0.692566,1.18345 -1.097902,1.857778 -0.406493,0.674294 -0.697342,1.329093 -1.46499,2.007981 -0.766562,0.678889 -2.0075,1.380716 -3.381921,1.791258 -1.375651,0.409394 -2.883592,0.526353 -4.380858,0.339392 -1.495964,-0.186927 -2.980095,-0.678888 -3.771661,-0.737368 -0.7903,-0.05848 -0.888069,0.316418 -0.811757,0.738517 0.07671,0.422029 0.327829,0.8922 0.600767,1.316492 0.27319,0.424327 0.56744,0.80274 0.818921,1.322235 0.250394,0.520645 0.45896,1.182337 0.649687,1.47129 0.190691,0.288918 0.366003,0.205376 0.556694,0.120441 0.191777,-0.08354 0.398171,-0.167434 0.568599,-0.05744 0.170428,0.109998 0.300329,0.415137 0.38746,0.756896 0.0872,0.341828 0.130987,0.719023 0.229046,0.897909 0.0977,0.17892 0.251481,0.158383 0.425563,0.06892 0.174046,-0.08946 0.371937,-0.246451 0.556694,-0.236356 0.184901,0.01044 0.360033,0.189363 0.486352,0.409393 0.126283,0.219996 0.201546,0.482772 0.25148,0.761456 0.04885,0.278824 0.06984,0.573381 0.141842,0.704125 0.07165,0.130883 0.190691,0.0999 0.344474,0.03133 0.152697,-0.06892 0.338684,-0.173002 0.486352,-0.12601 0.147632,0.04699 0.256184,0.246451 0.343388,0.505712 0.0872,0.257937 0.151612,0.575678 0.194309,0.856624 0.04306,0.280912 0.06224,0.524091 0.129902,0.678888 0.06803,0.154902 0.184901,0.220344 0.366003,0.183446 0.179835,-0.03794 0.423138,-0.177876 0.632898,-0.187971 0.208783,-0.01044 0.385072,0.112435 0.497171,0.352063 0.112171,0.238444 0.16102,0.595171 0.214572,0.912842 0.05355,0.31781 0.112171,0.599731 0.200099,0.749969 0.0872,0.150376 0.203717,0.168477 0.360033,0.09851 0.154868,-0.07101 0.350625,-0.229394 0.539977,-0.220343 0.190691,0.01044 0.375556,0.186926 0.525756,0.431184 0.15125,0.24297 0.268125,0.552739 0.388619,0.869261 0.120493,0.316417 0.243158,0.64105 0.393395,0.79355 0.149078,0.152465 0.32421,0.134016 0.510161,0.07797 0.185987,-0.05604 0.379029,-0.150377 0.579309,-0.02785 0.200099,0.121485 0.404105,0.458719 0.574605,0.730511 0.170428,0.271861 0.30648,0.478212 0.438698,0.684631 0.132434,0.20642 0.257269,0.411691 0.350624,0.599732 0.09299,0.187971 0.150165,0.356657 0.287303,0.285437 0.136053,-0.06997 0.350625,-0.379562 0.555536,-0.557334 0.204803,-0.177876 0.399329,-0.224868 0.696112,-0.210945 0.297072,0.01392 0.69622,0.08946 1.125293,0.257938 0.42795,0.168478 0.886911,0.431184 1.422184,0.576862 0.536431,0.144459 1.149138,0.173003 1.592612,0.285437 0.443437,0.112434 0.716375,0.309804 0.932177,0.454124 0.217106,0.145503 0.376642,0.239488 0.612744,0.238444 0.235921,-0.0011 0.548263,-0.09851 0.967891,-0.388786 0.418471,-0.291355 0.942925,-0.776355 1.400727,-1.091693 0.45773,-0.315373 0.852247,-0.461016 1.860773,-0.592909 1.00849,-0.131928 2.63207,-0.250976 3.93384,-0.467873 1.30288,-0.216863 2.28398,-0.530948 3.42002,-0.600915 1.136,-0.06997 2.42579,0.104428 3.85152,0.314329 1.42685,0.209901 2.98968,0.454124 4.26163,0.586016 1.27187,0.130884 2.25417,0.148985 4.18297,-0.214426 1.92988,-0.362366 4.80754,-1.104328 7.52067,-1.700648 2.731,-0.613516 5.2796,-1.061931 8.65559,-1.675447 z"
       id="path520"
       style="fill:#000000;fill-opacity:1;stroke:#000000;stroke-width:0.292299;stroke-linecap:round;stroke-linejoin:round" />
  </g>
</svg>
