  0
SECTION
  2
HEADER
  9
$ACADVER
  1
AC1009
  9
$DWGCODEPAGE
  3
ansi_1252
  9
$INSBASE
 10
0.0
 20
0.0
 30
0.0
  9
$EXTMIN
 10
0.4172423762807336
 20
0.2296179938575147
 30
0.0
  9
$EXTMAX
 10
95.58275762371926
 20
47.77038200614248
 30
0.0
  9
$LIMMIN
 10
0.0
 20
0.0
  9
$LIMMAX
 10
12.0
 20
9.0
  9
$ORTHOMODE
 70
     0
  9
$REGENMODE
 70
     1
  9
$FILLMODE
 70
     1
  9
$QTEXTMODE
 70
     0
  9
$MIRRTEXT
 70
     1
  9
$DRAGMODE
 70
     2
  9
$LTSCALE
 40
1.0
  9
$OSMODE
 70
    37
  9
$ATTMODE
 70
     1
  9
$TEXTSIZE
 40
0.2
  9
$TRACEWID
 40
0.05
  9
$TEXTSTYLE
  7
STANDARD
  9
$CLAYER
  8
0
  9
$CELTYPE
  6
BYLAYER
  9
$CECOLOR
 62
   256
  9
$DIMSCALE
 40
1.0
  9
$DIMASZ
 40
0.18
  9
$DIMEXO
 40
0.0625
  9
$DIMDLI
 40
0.38
  9
$DIMRND
 40
0.0
  9
$DIMDLE
 40
0.0
  9
$DIMEXE
 40
0.18
  9
$DIMTP
 40
0.0
  9
$DIMTM
 40
0.0
  9
$DIMTXT
 40
0.18
  9
$DIMCEN
 40
0.09
  9
$DIMTSZ
 40
0.0
  9
$DIMTOL
 70
     0
  9
$DIMLIM
 70
     0
  9
$DIMTIH
 70
     1
  9
$DIMTOH
 70
     1
  9
$DIMSE1
 70
     0
  9
$DIMSE2
 70
     0
  9
$DIMTAD
 70
     0
  9
$DIMZIN
 70
     0
  9
$DIMBLK
  1

  9
$DIMASO
 70
     1
  9
$DIMSHO
 70
     1
  9
$DIMPOST
  1

  9
$DIMAPOST
  1

  9
$DIMALT
 70
     0
  9
$DIMALTD
 70
     2
  9
$DIMALTF
 40
25.4
  9
$DIMLFAC
 40
1.0
  9
$DIMTOFL
 70
     0
  9
$DIMTVP
 40
0.0
  9
$DIMTIX
 70
     0
  9
$DIMSOXD
 70
     0
  9
$DIMSAH
 70
     0
  9
$DIMBLK1
  1

  9
$DIMBLK2
  1

  9
$DIMSTYLE
  2
STANDARD
  9
$DIMCLRD
 70
     0
  9
$DIMCLRE
 70
     0
  9
$DIMCLRT
 70
     0
  9
$DIMTFAC
 40
1.0
  9
$DIMGAP
 40
0.09
  9
$LUNITS
 70
     2
  9
$LUPREC
 70
     4
  9
$SKETCHINC
 40
0.1
  9
$FILLETRAD
 40
0.5
  9
$AUNITS
 70
     0
  9
$AUPREC
 70
     0
  9
$MENU
  1
.
  9
$ELEVATION
 40
0.0
  9
$PELEVATION
 40
0.0
  9
$THICKNESS
 40
0.0
  9
$LIMCHECK
 70
     0
  9
$CHAMFERA
 40
0.0
  9
$CHAMFERB
 40
0.0
  9
$SKPOLY
 70
     0
  9
$TDCREATE
 40
2454910.5
  9
$TDUPDATE
 40
2458067.374518067
  9
$TDINDWG
 40
0.0000000116
  9
$TDUSRTIMER
 40
0.0000000116
  9
$USRTIMER
 70
     1
  9
$ANGBASE
 50
0.0
  9
$ANGDIR
 70
     0
  9
$PDMODE
 70
     0
  9
$PDSIZE
 40
0.0
  9
$PLINEWID
 40
0.0
  9
$COORDS
 70
     1
  9
$SPLFRAME
 70
     0
  9
$SPLINETYPE
 70
     6
  9
$SPLINESEGS
 70
     8
  9
$ATTDIA
 70
     0
  9
$ATTREQ
 70
     1
  9
$HANDLING
 70
     1
  9
$HANDSEED
  5
88B
  9
$SURFTAB1
 70
     6
  9
$SURFTAB2
 70
     6
  9
$SURFTYPE
 70
     6
  9
$SURFU
 70
     6
  9
$SURFV
 70
     6
  9
$UCSNAME
  2

  9
$UCSORG
 10
0.0
 20
0.0
 30
0.0
  9
$UCSXDIR
 10
1.0
 20
0.0
 30
0.0
  9
$UCSYDIR
 10
0.0
 20
1.0
 30
0.0
  9
$PUCSNAME
  2

  9
$PUCSORG
 10
0.0
 20
0.0
 30
0.0
  9
$PUCSXDIR
 10
1.0
 20
0.0
 30
0.0
  9
$PUCSYDIR
 10
0.0
 20
1.0
 30
0.0
  9
$USERI1
 70
     0
  9
$USERI2
 70
     0
  9
$USERI3
 70
     0
  9
$USERI4
 70
     0
  9
$USERI5
 70
     0
  9
$USERR1
 40
0.0
  9
$USERR2
 40
0.0
  9
$USERR3
 40
0.0
  9
$USERR4
 40
0.0
  9
$USERR5
 40
0.0
  9
$WORLDVIEW
 70
     1
  9
$SHADEDGE
 70
     3
  9
$SHADEDIF
 70
    70
  9
$TILEMODE
 70
     1
  9
$MAXACTVP
 70
    64
  9
$PLIMCHECK
 70
     0
  9
$PEXTMIN
 10
1.000000000000000E+20
 20
1.000000000000000E+20
 30
1.000000000000000E+20
  9
$PEXTMAX
 10
-1.000000000000000E+20
 20
-1.000000000000000E+20
 30
-1.000000000000000E+20
  9
$PLIMMIN
 10
0.0
 20
0.0
  9
$PLIMMAX
 10
12.0
 20
9.0
  9
$UNITMODE
 70
     0
  9
$VISRETAIN
 70
     1
  9
$PLINEGEN
 70
     0
  9
$PSLTSCALE
 70
     1
  0
ENDSEC
  0
SECTION
  2
TABLES
  0
TABLE
  2
VPORT
 70
     1
  0
VPORT
  2
*ACTIVE
 70
     0
 10
0.0
 20
0.0
 11
1.0
 21
1.0
 12
10.42990654205607
 22
4.5
 13
0.0
 23
0.0
 14
0.5
 24
0.5
 15
0.5
 25
0.5
 16
0.0
 26
0.0
 36
1.0
 17
0.0
 27
0.0
 37
0.0
 40
9.0
 41
1.972972972850329
 42
50.0
 43
0.0
 44
0.0
 50
0.0
 51
0.0
 71
     0
 72
   100
 73
     1
 74
     3
 75
     0
 76
     0
 77
     0
 78
     0
  0
ENDTAB
  0
TABLE
  2
LTYPE
 70
     2
  0
LTYPE
  2
CONTINUOUS
 70
     0
  3
Solid line
 72
    65
 73
     0
 40
0.0
  0
LTYPE
  2
CONTINUOUS2
 70
     0
  3
Solid Line
 72
    65
 73
     0
 40
0.0
  0
ENDTAB
  0
TABLE
  2
LAYER
 70
    10
  0
LAYER
  2
0
 70
     0
 62
     7
  6
CONTINUOUS
  0
LAYER
  2
POCKET__27
 70
     0
 62
     4
  6
CONTINUOUS
  0
LAYER
  2
DRILL__6_SHELF_HOLES
 70
     0
 62
   251
  6
CONTINUOUS
  0
LAYER
  2
OUTSIDE__725
 70
     0
 62
   216
  6
CONTINUOUS
  0
LAYER
  2
POCKET__52_HINGE_CUP
 70
     0
 62
    44
  6
CONTINUOUS
  0
LAYER
  2
DRILL__1_HINGE_MARK
 70
     0
 62
    40
  6
CONTINUOUS
  0
LAYER
  2
INSIDE_LEG_HOLES__725
 70
     0
 62
   253
  6
CONTINUOUS
  0
LAYER
  2
PS_PROFILE
 70
     0
 62
   144
  6
CONTINUOUS
  0
LAYER
  2
FLUTE__4
 70
     0
 62
   144
  6
CONTINUOUS
  0
LAYER
  2
DRILL_DRAWER_SLIDE_MARKER
 70
     0
 62
   144
  6
CONTINUOUS
  0
ENDTAB
  0
TABLE
  2
STYLE
 70
     1
  0
STYLE
  2
STANDARD
 70
     0
 40
0.0
 41
1.0
 50
0.0
 71
     0
 42
0.2
  3
txt
  4

  0
ENDTAB
  0
TABLE
  2
VIEW
 70
     0
  0
ENDTAB
  0
TABLE
  2
UCS
 70
     0
  0
ENDTAB
  0
TABLE
  2
APPID
 70
     1
  0
APPID
  2
ACAD
 70
     0
  0
ENDTAB
  0
TABLE
  2
DIMSTYLE
 70
     1
  0
DIMSTYLE
  2
STANDARD
 70
     0
  3

  4

  5

  6

  7

 40
1.0
 41
0.18
 42
0.0625
 43
0.38
 44
0.18
 45
0.0
 46
0.0
 47
0.0
 48
0.0
140
0.18
141
0.09
142
0.0
143
25.4
144
1.0
145
0.0
146
1.0
147
0.09
 71
     0
 72
     0
 73
     1
 74
     1
 75
     0
 76
     0
 77
     0
 78
     0
170
     0
171
     2
172
     0
173
     0
174
     0
175
     0
176
     0
177
     0
178
     0
  0
ENDTAB
  0
ENDSEC
  0
SECTION
  2
BLOCKS
  0
BLOCK
  8
0
  2
$MODEL_SPACE
 70
     0
 10
0.0
 20
0.0
 30
0.0
  3
$MODEL_SPACE
  1

  0
ENDBLK
  5
21
  8
0
  0
BLOCK
 67
     1
  8
0
  2
$PAPER_SPACE
 70
     0
 10
0.0
 20
0.0
 30
0.0
  3
$PAPER_SPACE
  1

  0
ENDBLK
  5
1D
 67
     1
  8
0
  0
ENDSEC
  0
SECTION
  2
ENTITIES
  0
POLYLINE
  5
70
  8
POCKET__27
 66
     1
 10
0.0
 20
0.0
 30
0.0
 70
     1
  0
VERTEX
  5
1AA
  8
POCKET__27
 10
57.90780042574383
 20
38.68227590991798
 30
0.0
 42
-0.4142135623734298
  0
VERTEX
  5
1AB
  8
POCKET__27
 10
57.78280042574389
 20
38.80727590991815
 30
0.0
 42
-0.4142135623734297
  0
VERTEX
  5
1AC
  8
POCKET__27
 10
57.90780042574417
 20
38.93227590991798
 30
0.0
  0
VERTEX
  5
1AD
  8
POCKET__27
 10
58.40780042574417
 20
38.93227590991798
 30
0.0
 42
-0.4142135623736393
  0
VERTEX
  5
1AE
  8
POCKET__27
 10
58.53280042574423
 20
38.80727590991781
 30
0.0
 42
-0.4142135623736392
  0
VERTEX
  5
1AF
  8
POCKET__27
 10
58.40780042574383
 20
38.68227590991798
 30
0.0
  0
SEQEND
  5
760
  8
POCKET__27
  0
POLYLINE
  5
71
  8
POCKET__27
 66
     1
 10
0.0
 20
0.0
 30
0.0
 70
     1
  0
VERTEX
  5
1B0
  8
POCKET__27
 10
57.90780042574416
 20
26.49495966311495
 30
0.0
  0
VERTEX
  5
1B1
  8
POCKET__27
 10
58.40780042574416
 20
26.49495966311495
 30
0.0
 42
0.4142135623736393
  0
VERTEX
  5
1B2
  8
POCKET__27
 10
58.53280042574421
 20
26.61995966311512
 30
0.0
 42
0.4142135623736392
  0
VERTEX
  5
1B3
  8
POCKET__27
 10
58.40780042574382
 20
26.74495966311495
 30
0.0
  0
VERTEX
  5
1B4
  8
POCKET__27
 10
57.90780042574382
 20
26.74495966311495
 30
0.0
 42
0.4142135623734298
  0
VERTEX
  5
1B5
  8
POCKET__27
 10
57.78280042574387
 20
26.61995966311478
 30
0.0
 42
0.4142135623734297
  0
SEQEND
  5
761
  8
POCKET__27
  0
POLYLINE
  5
72
  8
POCKET__27
 66
     1
 10
0.0
 20
0.0
 30
0.0
 70
     1
  0
VERTEX
  5
1B6
  8
POCKET__27
 10
93.34150762371908
 20
29.09957558538037
 30
0.0
 42
-0.9999999999998295
  0
VERTEX
  5
1B7
  8
POCKET__27
 10
93.3415076237191
 20
29.34957558538035
 30
0.0
  0
VERTEX
  5
1B8
  8
POCKET__27
 10
94.59150762371908
 20
29.34957558538033
 30
0.0
 42
-1.0
  0
VERTEX
  5
1B9
  8
POCKET__27
 10
94.59150762371908
 20
29.09957558538035
 30
0.0
  0
SEQEND
  5
762
  8
POCKET__27
  0
POLYLINE
  5
73
  8
POCKET__27
 66
     1
 10
0.0
 20
0.0
 30
0.0
 70
     1
  0
VERTEX
  5
1BA
  8
POCKET__27
 10
29.9703201242853
 20
38.68227590991772
 30
0.0
 42
-0.4142135623736392
  0
VERTEX
  5
1BB
  8
POCKET__27
 10
29.8453201242849
 20
38.80727590991755
 30
0.0
 42
-0.4142135623736393
  0
VERTEX
  5
1BC
  8
POCKET__27
 10
29.97032012428496
 20
38.93227590991772
 30
0.0
  0
VERTEX
  5
1BD
  8
POCKET__27
 10
30.47032012428496
 20
38.93227590991772
 30
0.0
 42
-0.4142135623734297
  0
VERTEX
  5
1BE
  8
POCKET__27
 10
30.59532012428524
 20
38.80727590991789
 30
0.0
 42
-0.4142135623734298
  0
VERTEX
  5
1BF
  8
POCKET__27
 10
30.4703201242853
 20
38.68227590991772
 30
0.0
  0
SEQEND
  5
763
  8
POCKET__27
  0
POLYLINE
  5
74
  8
POCKET__27
 66
     1
 10
0.0
 20
0.0
 30
0.0
 70
     1
  0
VERTEX
  5
1C0
  8
POCKET__27
 10
58.81077318695509
 20
43.03922191451424
 30
0.0
  0
VERTEX
  5
1C1
  8
POCKET__27
 10
58.81077318695506
 20
44.28922191451424
 30
0.0
 42
-1.0
  0
VERTEX
  5
1C2
  8
POCKET__27
 10
59.06077318695506
 20
44.28922191451424
 30
0.0
  0
VERTEX
  5
1C3
  8
POCKET__27
 10
59.06077318695509
 20
43.03922191451426
 30
0.0
 42
-0.9999999999998295
  0
SEQEND
  5
764
  8
POCKET__27
  0
POLYLINE
  5
75
  8
POCKET__27
 66
     1
 10
0.0
 20
0.0
 30
0.0
 70
     1
  0
VERTEX
  5
1C4
  8
POCKET__27
 10
29.97032012428493
 20
26.49495966311505
 30
0.0
 42
-0.4142135623736393
  0
VERTEX
  5
1C5
  8
POCKET__27
 10
29.84532012428487
 20
26.61995966311522
 30
0.0
 42
-0.4142135623736392
  0
VERTEX
  5
1C6
  8
POCKET__27
 10
29.97032012428527
 20
26.74495966311505
 30
0.0
  0
VERTEX
  5
1C7
  8
POCKET__27
 10
30.47032012428527
 20
26.74495966311505
 30
0.0
 42
-0.4142135623734298
  0
VERTEX
  5
1C8
  8
POCKET__27
 10
30.59532012428521
 20
26.61995966311488
 30
0.0
 42
-0.4142135623734297
  0
VERTEX
  5
1C9
  8
POCKET__27
 10
30.47032012428493
 20
26.49495966311505
 30
0.0
  0
SEQEND
  5
765
  8
POCKET__27
  0
POLYLINE
  5
76
  8
POCKET__27
 66
     1
 10
0.0
 20
0.0
 30
0.0
 70
     1
  0
VERTEX
  5
1CA
  8
POCKET__27
 10
61.54183709899517
 20
21.22089159865559
 30
0.0
 42
-0.9999999999996874
  0
VERTEX
  5
1CB
  8
POCKET__27
 10
61.54205053508879
 20
21.47089150754562
 30
0.0
  0
VERTEX
  5
1CC
  8
POCKET__27
 10
61.54269084298132
 20
22.22089077866618
 30
0.0
 42
-0.4142135623734514
  0
VERTEX
  5
1CD
  8
POCKET__27
 10
61.41779760658288
 20
22.34599745115801
 30
0.0
 42
-0.4142135623735081
  0
VERTEX
  5
1CE
  8
POCKET__27
 10
61.54290427907488
 20
22.47089068755629
 30
0.0
  0
VERTEX
  5
1CF
  8
POCKET__27
 10
61.81165625479025
 20
22.47066124198522
 30
0.0
  0
VERTEX
  5
1D0
  8
POCKET__27
 10
61.98667326590268
 20
22.49051182943066
 30
0.0
 42
-0.4142135623730753
  0
VERTEX
  5
1D1
  8
POCKET__27
 10
62.11156650230083
 20
22.36540515693869
 30
0.0
 42
-0.4142135623731036
  0
VERTEX
  5
1D2
  8
POCKET__27
 10
61.98645982980892
 20
22.24051192054062
 30
0.0
  0
VERTEX
  5
1D3
  8
POCKET__27
 10
61.98578537214149
 20
21.4505126639977
 30
0.0
 42
-0.4142135623741313
  0
VERTEX
  5
1D4
  8
POCKET__27
 10
62.11067860854006
 20
21.32540599150578
 30
0.0
 42
-0.4142135623740459
  0
VERTEX
  5
1D5
  8
POCKET__27
 10
61.98557193604772
 20
21.20051275510763
 30
0.0
  0
VERTEX
  5
1D6
  8
POCKET__27
 10
61.81058907471254
 20
21.22066215308441
 30
0.0
  0
SEQEND
  5
766
  8
POCKET__27
  0
POLYLINE
  5
77
  8
POCKET__27
 66
     1
 10
0.0
 20
0.0
 30
0.0
 70
     1
  0
VERTEX
  5
1D7
  8
POCKET__27
 10
93.34150762371927
 20
0.299575585380456
 30
0.0
  0
VERTEX
  5
1D8
  8
POCKET__27
 10
94.59150762371925
 20
0.2995755853804987
 30
0.0
 42
1.0
  0
VERTEX
  5
1D9
  8
POCKET__27
 10
94.59150762371925
 20
0.5495755853804845
 30
0.0
  0
VERTEX
  5
1DA
  8
POCKET__27
 10
93.34150762371925
 20
0.5495755853804489
 30
0.0
 42
0.9999999999998295
  0
SEQEND
  5
767
  8
POCKET__27
  0
POLYLINE
  5
78
  8
POCKET__27
 66
     1
 10
0.0
 20
0.0
 30
0.0
 70
     1
  0
VERTEX
  5
1DB
  8
POCKET__27
 10
91.81525762371926
 20
0.5495755853804205
 30
0.0
  0
VERTEX
  5
1DC
  8
POCKET__27
 10
91.81525762371925
 20
2.799575585380857
 30
0.0
  0
VERTEX
  5
1DD
  8
POCKET__27
 10
91.8152576237191
 20
26.84957558538038
 30
0.0
  0
VERTEX
  5
1DE
  8
POCKET__27
 10
91.81525762371909
 20
29.09957558538038
 30
0.0
 42
-1.0
  0
VERTEX
  5
1DF
  8
POCKET__27
 10
92.3502576237191
 20
29.09957558538038
 30
0.0
  0
VERTEX
  5
1E0
  8
POCKET__27
 10
92.35025762371909
 20
26.84957558538038
 30
0.0
  0
VERTEX
  5
1E1
  8
POCKET__27
 10
92.35025762371923
 20
2.799575585380859
 30
0.0
  0
VERTEX
  5
1E2
  8
POCKET__27
 10
92.35025762371927
 20
0.5495755853804205
 30
0.0
 42
-1.0
  0
SEQEND
  5
768
  8
POCKET__27
  0
POLYLINE
  5
79
  8
POCKET__27
 66
     1
 10
0.0
 20
0.0
 30
0.0
 70
     1
  0
VERTEX
  5
1E3
  8
POCKET__27
 10
30.01077318695518
 20
43.03922191451426
 30
0.0
  0
VERTEX
  5
1E4
  8
POCKET__27
 10
30.01077318695522
 20
44.28922191451424
 30
0.0
 42
-1.0
  0
VERTEX
  5
1E5
  8
POCKET__27
 10
30.26077318695521
 20
44.28922191451424
 30
0.0
  0
VERTEX
  5
1E6
  8
POCKET__27
 10
30.26077318695518
 20
43.03922191451424
 30
0.0
 42
-0.9999999999998295
  0
SEQEND
  5
769
  8
POCKET__27
  0
POLYLINE
  5
7A
  8
POCKET__27
 66
     1
 10
0.0
 20
0.0
 30
0.0
 70
     1
  0
VERTEX
  5
1E7
  8
POCKET__27
 10
30.26077318695516
 20
41.51297191451425
 30
0.0
  0
VERTEX
  5
1E8
  8
POCKET__27
 10
32.51077318695516
 20
41.51297191451427
 30
0.0
  0
VERTEX
  5
1E9
  8
POCKET__27
 10
56.56077318695468
 20
41.51297191451427
 30
0.0
  0
VERTEX
  5
1EA
  8
POCKET__27
 10
58.81077318695512
 20
41.51297191451425
 30
0.0
 42
1.0
  0
VERTEX
  5
1EB
  8
POCKET__27
 10
58.81077318695512
 20
42.04797191451425
 30
0.0
  0
VERTEX
  5
1EC
  8
POCKET__27
 10
56.56077318695468
 20
42.04797191451424
 30
0.0
  0
VERTEX
  5
1ED
  8
POCKET__27
 10
32.51077318695516
 20
42.04797191451424
 30
0.0
  0
VERTEX
  5
1EE
  8
POCKET__27
 10
30.26077318695516
 20
42.04797191451425
 30
0.0
 42
1.0
  0
SEQEND
  5
76A
  8
POCKET__27
  0
POLYLINE
  5
7B
  8
POCKET__27
 66
     1
 10
0.0
 20
0.0
 30
0.0
 70
     1
  0
VERTEX
  5
1EF
  8
POCKET__27
 10
61.53044936957971
 20
1.945902339135262
 30
0.0
 42
-0.4142135623735492
  0
VERTEX
  5
1F0
  8
POCKET__27
 10
61.40555613318128
 20
2.071009011627108
 30
0.0
 42
-0.4142135623736222
  0
VERTEX
  5
1F1
  8
POCKET__27
 10
61.53066280567336
 20
2.195902248025314
 30
0.0
  0
VERTEX
  5
1F2
  8
POCKET__27
 10
61.53130311356568
 20
2.945901519145826
 30
0.0
 42
-0.9999999999990052
  0
VERTEX
  5
1F3
  8
POCKET__27
 10
61.53151654965924
 20
3.195901428035876
 30
0.0
  0
VERTEX
  5
1F4
  8
POCKET__27
 10
61.81151644761434
 20
3.195662379610894
 30
0.0
  0
VERTEX
  5
1F5
  8
POCKET__27
 10
61.98653345872694
 20
3.215512967056563
 30
0.0
 42
-0.9999999999995737
  0
VERTEX
  5
1F6
  8
POCKET__27
 10
61.98632002263318
 20
2.965513058166499
 30
0.0
  0
VERTEX
  5
1F7
  8
POCKET__27
 10
61.98564556496572
 20
2.175513801623588
 30
0.0
 42
-0.4142135623733701
  0
VERTEX
  5
1F8
  8
POCKET__27
 10
62.11053880136402
 20
2.050407129131735
 30
0.0
 42
-0.4142135623733154
  0
VERTEX
  5
1F9
  8
POCKET__27
 10
61.98543212887202
 20
1.925513892733509
 30
0.0
  0
VERTEX
  5
1FA
  8
POCKET__27
 10
61.81044926753665
 20
1.945663290710211
 30
0.0
  0
SEQEND
  5
76B
  8
POCKET__27
  0
POLYLINE
  5
7C
  8
POCKET__27
 66
     1
 10
0.0
 20
0.0
 30
0.0
 70
     1
  0
VERTEX
  5
1FB
  8
POCKET__27
 10
29.46077318695523
 20
26.99538212032789
 30
0.0
  0
VERTEX
  5
1FC
  8
POCKET__27
 10
29.46077318549769
 20
44.77038212097759
 30
0.0
 42
-1.0
  0
VERTEX
  5
1FD
  8
POCKET__27
 10
29.71077318841276
 20
44.77038212097757
 30
0.0
  0
VERTEX
  5
1FE
  8
POCKET__27
 10
29.71077318695534
 20
44.75038212097763
 30
0.0
  0
VERTEX
  5
1FF
  8
POCKET__27
 10
29.71077318695512
 20
27.01538212032799
 30
0.0
  0
VERTEX
  5
200
  8
POCKET__27
 10
29.7107731869548
 20
26.9953821203279
 30
0.0
 42
-0.9999999999999716
  0
SEQEND
  5
76C
  8
POCKET__27
  0
POLYLINE
  5
7D
  8
POCKET__27
 66
     1
 10
0.0
 20
0.0
 30
0.0
 70
     1
  0
VERTEX
  5
201
  8
POCKET__27
 10
32.13728078406924
 20
23.46276226909881
 30
0.0
 42
-0.9999999999987943
  0
VERTEX
  5
202
  8
POCKET__27
 10
31.96050408877223
 20
23.63953896439524
 30
0.0
  0
VERTEX
  5
203
  8
POCKET__27
 10
31.96050408877234
 20
23.8209855738021
 30
0.0
 42
-0.999999999999377
  0
VERTEX
  5
204
  8
POCKET__27
 10
32.13728078406916
 20
23.99776226909873
 30
0.0
  0
VERTEX
  5
205
  8
POCKET__27
 10
61.41160964275849
 20
23.99773884367221
 30
0.0
  0
VERTEX
  5
206
  8
POCKET__27
 10
61.98651958705938
 20
23.99724801735683
 30
0.0
 42
-0.4142135623731295
  0
VERTEX
  5
207
  8
POCKET__27
 10
62.25366410705941
 20
23.7296469611629
 30
0.0
 42
-0.4142135623731428
  0
VERTEX
  5
208
  8
POCKET__27
 10
61.98606305086545
 20
23.46250244116289
 30
0.0
  0
SEQEND
  5
76D
  8
POCKET__27
  0
POLYLINE
  5
7E
  8
POCKET__27
 66
     1
 10
0.0
 20
0.0
 30
0.0
 70
     1
  0
VERTEX
  5
209
  8
POCKET__27
 10
31.91216976508981
 20
3.454228183043082
 30
0.0
 42
-0.4142135623737799
  0
VERTEX
  5
20A
  8
POCKET__27
 10
31.73539306979296
 20
3.45422818304295
 30
0.0
 42
-0.4142135623737498
  0
VERTEX
  5
20B
  8
POCKET__27
 10
31.73539306979336
 20
3.631004878339683
 30
0.0
  0
VERTEX
  5
20C
  8
POCKET__27
 10
31.73544416213404
 20
21.05344934321372
 30
0.0
 42
-0.4142135623733981
  0
VERTEX
  5
20D
  8
POCKET__27
 10
31.73544416213406
 20
21.23022603851043
 30
0.0
 42
-0.4142135623733932
  0
VERTEX
  5
20E
  8
POCKET__27
 10
31.91222085743087
 20
21.23022603851028
 30
0.0
  0
VERTEX
  5
20F
  8
POCKET__27
 10
32.0736727227233
 20
21.23024310891691
 30
0.0
 42
-0.4142135623731141
  0
VERTEX
  5
210
  8
POCKET__27
 10
32.25044941801995
 20
21.23024310891692
 30
0.0
 42
-0.4142135623731224
  0
VERTEX
  5
211
  8
POCKET__27
 10
32.25044941801996
 20
21.05346641362025
 30
0.0
  0
VERTEX
  5
212
  8
POCKET__27
 10
32.25039832567897
 20
3.631021948746119
 30
0.0
 42
-0.9999999999991358
  0
VERTEX
  5
213
  8
POCKET__27
 10
32.07362163038256
 20
3.454245253449404
 30
0.0
  0
SEQEND
  5
76E
  8
POCKET__27
  0
POLYLINE
  5
7F
  8
POCKET__27
 66
     1
 10
0.0
 20
0.0
 30
0.0
 70
     1
  0
VERTEX
  5
214
  8
POCKET__27
 10
30.59728485295753
 20
3.454245253449475
 30
0.0
  0
VERTEX
  5
215
  8
POCKET__27
 10
30.75873671825025
 20
3.454228183042998
 30
0.0
 42
0.4142135623737664
  0
VERTEX
  5
216
  8
POCKET__27
 10
30.93551341354718
 20
3.454228183042961
 30
0.0
 42
0.4142135623736418
  0
VERTEX
  5
217
  8
POCKET__27
 10
30.93551341354679
 20
3.631004878339688
 30
0.0
  0
VERTEX
  5
218
  8
POCKET__27
 10
30.93546232120612
 20
21.05344934321372
 30
0.0
 42
0.4142135623734216
  0
VERTEX
  5
219
  8
POCKET__27
 10
30.93546232120609
 20
21.23022603851044
 30
0.0
 42
0.41421356237345
  0
VERTEX
  5
21A
  8
POCKET__27
 10
30.75868562590928
 20
21.23022603851029
 30
0.0
  0
VERTEX
  5
21B
  8
POCKET__27
 10
30.59723376061686
 20
21.23024310891691
 30
0.0
 42
0.4142135623731307
  0
VERTEX
  5
21C
  8
POCKET__27
 10
30.42045706532021
 20
21.23024310891692
 30
0.0
 42
0.4142135623730184
  0
VERTEX
  5
21D
  8
POCKET__27
 10
30.42045706532019
 20
21.05346641362025
 30
0.0
  0
VERTEX
  5
21E
  8
POCKET__27
 10
30.42050815766119
 20
3.631021948746122
 30
0.0
 42
0.9999999999991358
  0
SEQEND
  5
76F
  8
POCKET__27
  0
POLYLINE
  5
80
  8
POCKET__27
 66
     1
 10
0.0
 20
0.0
 30
0.0
 70
     1
  0
VERTEX
  5
21F
  8
POCKET__27
 10
0.6607731762377327
 20
26.99538211852091
 30
0.0
  0
VERTEX
  5
220
  8
POCKET__27
 10
0.6607731762377043
 20
27.01538211852093
 30
0.0
  0
VERTEX
  5
221
  8
POCKET__27
 10
0.6607731762379601
 20
44.75038211929567
 30
0.0
  0
VERTEX
  5
222
  8
POCKET__27
 10
0.6607731762379601
 20
44.77038211929565
 30
0.0
  0
VERTEX
  5
223
  8
POCKET__27
 10
0.6650324479518233
 20
44.80273449993278
 30
0.0
  0
VERTEX
  5
224
  8
POCKET__27
 10
0.6775200007649218
 20
44.83288211929434
 30
0.0
  0
VERTEX
  5
225
  8
POCKET__27
 10
0.6973848285896551
 20
44.85877046694212
 30
0.0
  0
VERTEX
  5
226
  8
POCKET__27
 10
0.7232731762379601
 20
44.87863529476644
 30
0.0
  0
VERTEX
  5
227
  8
POCKET__27
 10
0.7534207956001566
 20
44.89112284757925
 30
0.0
  0
VERTEX
  5
228
  8
POCKET__27
 10
0.7857731762379601
 20
44.89538211929302
 30
0.0
  0
VERTEX
  5
229
  8
POCKET__27
 10
0.8181255568757919
 20
44.89112284757925
 30
0.0
  0
VERTEX
  5
22A
  8
POCKET__27
 10
0.8482731762379601
 20
44.87863529476644
 30
0.0
  0
VERTEX
  5
22B
  8
POCKET__27
 10
0.8741615238862934
 20
44.85877046694212
 30
0.0
  0
VERTEX
  5
22C
  8
POCKET__27
 10
0.8940263517110267
 20
44.83288211929434
 30
0.0
  0
VERTEX
  5
22D
  8
POCKET__27
 10
0.9065139045240969
 20
44.80273449993278
 30
0.0
  0
VERTEX
  5
22E
  8
POCKET__27
 10
0.9107731762379601
 20
44.77038211929565
 30
0.0
  0
VERTEX
  5
22F
  8
POCKET__27
 10
0.9107731762377327
 20
26.9953821185209
 30
0.0
  0
VERTEX
  5
230
  8
POCKET__27
 10
0.9065139045238695
 20
26.96302973788377
 30
0.0
  0
VERTEX
  5
231
  8
POCKET__27
 10
0.8940263517107709
 20
26.93288211852221
 30
0.0
  0
VERTEX
  5
232
  8
POCKET__27
 10
0.8741615238860376
 20
26.90699377087444
 30
0.0
  0
VERTEX
  5
233
  8
POCKET__27
 10
0.8482731762377043
 20
26.88712894305013
 30
0.0
  0
VERTEX
  5
234
  8
POCKET__27
 10
0.8181255568755077
 20
26.87464139023731
 30
0.0
  0
VERTEX
  5
235
  8
POCKET__27
 10
0.7857731762377043
 20
26.87038211852353
 30
0.0
  0
VERTEX
  5
236
  8
POCKET__27
 10
0.7534207955999008
 20
26.87464139023731
 30
0.0
  0
VERTEX
  5
237
  8
POCKET__27
 10
0.7232731762377043
 20
26.88712894305012
 30
0.0
  0
VERTEX
  5
238
  8
POCKET__27
 10
0.6973848285893709
 20
26.90699377087444
 30
0.0
  0
VERTEX
  5
239
  8
POCKET__27
 10
0.6775200007646376
 20
26.93288211852222
 30
0.0
  0
VERTEX
  5
23A
  8
POCKET__27
 10
0.6650324479515959
 20
26.96302973788378
 30
0.0
  0
SEQEND
  5
770
  8
POCKET__27
  0
POLYLINE
  5
81
  8
POCKET__27
 66
     1
 10
0.0
 20
0.0
 30
0.0
 70
     1
  0
VERTEX
  5
23B
  8
POCKET__27
 10
0.6848434324746968
 20
23.46250244116287
 30
0.0
  0
VERTEX
  5
23C
  8
POCKET__27
 10
30.53362569927091
 20
23.46276226909882
 30
0.0
 42
0.9999999999987943
  0
VERTEX
  5
23D
  8
POCKET__27
 10
30.71040239456792
 20
23.63953896439525
 30
0.0
  0
VERTEX
  5
23E
  8
POCKET__27
 10
30.71040239456781
 20
23.82098557380211
 30
0.0
 42
0.999999999999377
  0
VERTEX
  5
23F
  8
POCKET__27
 10
30.53362569927099
 20
23.99776226909873
 30
0.0
  0
VERTEX
  5
240
  8
POCKET__27
 10
1.259296840581666
 20
23.99773884367222
 30
0.0
  0
VERTEX
  5
241
  8
POCKET__27
 10
0.6843868962807704
 20
23.99724801735683
 30
0.0
 42
0.4142135623731685
  0
VERTEX
  5
242
  8
POCKET__27
 10
0.4172423762807336
 20
23.7296469611629
 30
0.0
 42
0.4142135623731672
  0
SEQEND
  5
771
  8
POCKET__27
  0
POLYLINE
  5
82
  8
POCKET__27
 66
     1
 10
0.0
 20
0.0
 30
0.0
 70
     1
  0
VERTEX
  5
243
  8
POCKET__27
 10
0.685334547292431
 20
21.20051275510763
 30
0.0
  0
VERTEX
  5
244
  8
POCKET__27
 10
0.860317408627612
 20
21.22066215308442
 30
0.0
  0
VERTEX
  5
245
  8
POCKET__27
 10
1.129069384344977
 20
21.22089159865559
 30
0.0
 42
0.9999999999996589
  0
VERTEX
  5
246
  8
POCKET__27
 10
1.12885594825136
 20
21.47089150754563
 30
0.0
  0
VERTEX
  5
247
  8
POCKET__27
 10
1.128215640358835
 20
22.22089077866619
 30
0.0
 42
0.4142135623735284
  0
VERTEX
  5
248
  8
POCKET__27
 10
1.253108876757267
 20
22.34599745115802
 30
0.0
 42
0.4142135623735425
  0
VERTEX
  5
249
  8
POCKET__27
 10
1.128002204265275
 20
22.4708906875563
 30
0.0
  0
VERTEX
  5
24A
  8
POCKET__27
 10
0.8592502285499002
 20
22.47066124198523
 30
0.0
  0
VERTEX
  5
24B
  8
POCKET__27
 10
0.6842332174374786
 20
22.49051182943067
 30
0.0
 42
1.0
  0
VERTEX
  5
24C
  8
POCKET__27
 10
0.6844466535312392
 20
22.24051192054063
 30
0.0
  0
VERTEX
  5
24D
  8
POCKET__27
 10
0.6851211111986686
 20
21.45051266399771
 30
0.0
 42
0.4142135623740874
  0
VERTEX
  5
24E
  8
POCKET__27
 10
0.5602278748000948
 20
21.32540599150579
 30
0.0
 42
0.4142135623741016
  0
SEQEND
  5
772
  8
POCKET__27
  0
POLYLINE
  5
83
  8
POCKET__27
 66
     1
 10
0.0
 20
0.0
 30
0.0
 70
     1
  0
VERTEX
  5
24F
  8
POCKET__27
 10
0.6854743544681412
 20
1.925513892733463
 30
0.0
  0
VERTEX
  5
250
  8
POCKET__27
 10
0.8604572158034962
 20
1.945663290710218
 30
0.0
  0
VERTEX
  5
251
  8
POCKET__27
 10
1.140457113760441
 20
1.94590233913528
 30
0.0
 42
0.4142135623736353
  0
VERTEX
  5
252
  8
POCKET__27
 10
1.265350350158872
 20
2.071009011627115
 30
0.0
 42
0.4142135623736332
  0
VERTEX
  5
253
  8
POCKET__27
 10
1.140243677666795
 20
2.195902248025318
 30
0.0
  0
VERTEX
  5
254
  8
POCKET__27
 10
1.139603369774468
 20
2.94590151914583
 30
0.0
 42
0.9999999999989768
  0
VERTEX
  5
255
  8
POCKET__27
 10
1.139389933680906
 20
3.19590142803588
 30
0.0
  0
VERTEX
  5
256
  8
POCKET__27
 10
0.8593900357258093
 20
3.195662379610898
 30
0.0
  0
VERTEX
  5
257
  8
POCKET__27
 10
0.6843730246132189
 20
3.215512967056569
 30
0.0
 42
0.9999999999995453
  0
VERTEX
  5
258
  8
POCKET__27
 10
0.6845864607069778
 20
2.965513058166504
 30
0.0
  0
VERTEX
  5
259
  8
POCKET__27
 10
0.6852609183744391
 20
2.175513801623589
 30
0.0
 42
0.4142135623733497
  0
VERTEX
  5
25A
  8
POCKET__27
 10
0.5603676819761496
 20
2.050407129131738
 30
0.0
 42
0.4142135623733547
  0
SEQEND
  5
773
  8
POCKET__27
  0
POLYLINE
  5
85
  8
DRILL__6_SHELF_HOLES
 66
     1
 10
0.0
 20
0.0
 30
0.0
 70
     1
  0
VERTEX
  5
25B
  8
DRILL__6_SHELF_HOLES
 10
38.73550433401105
 20
21.392762276749
 30
0.0
 42
0.4142135623730951
  0
VERTEX
  5
25C
  8
DRILL__6_SHELF_HOLES
 10
38.61050433401105
 20
21.267762276749
 30
0.0
 42
0.4142135623730951
  0
VERTEX
  5
25D
  8
DRILL__6_SHELF_HOLES
 10
38.73550433401105
 20
21.142762276749
 30
0.0
 42
0.4142135623730951
  0
VERTEX
  5
25E
  8
DRILL__6_SHELF_HOLES
 10
38.86050433401105
 20
21.267762276749
 30
0.0
 42
0.4142135623730951
  0
SEQEND
  5
774
  8
DRILL__6_SHELF_HOLES
  0
POLYLINE
  5
86
  8
DRILL__6_SHELF_HOLES
 66
     1
 10
0.0
 20
0.0
 30
0.0
 70
     1
  0
VERTEX
  5
25F
  8
DRILL__6_SHELF_HOLES
 10
40.73550433401105
 20
21.392762276749
 30
0.0
 42
0.4142135623730951
  0
VERTEX
  5
260
  8
DRILL__6_SHELF_HOLES
 10
40.61050433401105
 20
21.267762276749
 30
0.0
 42
0.4142135623730951
  0
VERTEX
  5
261
  8
DRILL__6_SHELF_HOLES
 10
40.73550433401105
 20
21.142762276749
 30
0.0
 42
0.4142135623730951
  0
VERTEX
  5
262
  8
DRILL__6_SHELF_HOLES
 10
40.86050433401105
 20
21.267762276749
 30
0.0
 42
0.4142135623730951
  0
SEQEND
  5
775
  8
DRILL__6_SHELF_HOLES
  0
POLYLINE
  5
87
  8
DRILL__6_SHELF_HOLES
 66
     1
 10
0.0
 20
0.0
 30
0.0
 70
     1
  0
VERTEX
  5
263
  8
DRILL__6_SHELF_HOLES
 10
42.73550433401105
 20
21.39276227674898
 30
0.0
 42
0.4142135623730951
  0
VERTEX
  5
264
  8
DRILL__6_SHELF_HOLES
 10
42.61050433401105
 20
21.26776227674898
 30
0.0
 42
0.4142135623730951
  0
VERTEX
  5
265
  8
DRILL__6_SHELF_HOLES
 10
42.73550433401105
 20
21.14276227674898
 30
0.0
 42
0.4142135623730951
  0
VERTEX
  5
266
  8
DRILL__6_SHELF_HOLES
 10
42.86050433401105
 20
21.26776227674898
 30
0.0
 42
0.4142135623730951
  0
SEQEND
  5
776
  8
DRILL__6_SHELF_HOLES
  0
POLYLINE
  5
88
  8
DRILL__6_SHELF_HOLES
 66
     1
 10
0.0
 20
0.0
 30
0.0
 70
     1
  0
VERTEX
  5
267
  8
DRILL__6_SHELF_HOLES
 10
44.73550433401105
 20
21.392762276749
 30
0.0
 42
0.4142135623730951
  0
VERTEX
  5
268
  8
DRILL__6_SHELF_HOLES
 10
44.61050433401105
 20
21.267762276749
 30
0.0
 42
0.4142135623730951
  0
VERTEX
  5
269
  8
DRILL__6_SHELF_HOLES
 10
44.73550433401105
 20
21.142762276749
 30
0.0
 42
0.4142135623730951
  0
VERTEX
  5
26A
  8
DRILL__6_SHELF_HOLES
 10
44.86050433401105
 20
21.267762276749
 30
0.0
 42
0.4142135623730951
  0
SEQEND
  5
777
  8
DRILL__6_SHELF_HOLES
  0
POLYLINE
  5
89
  8
DRILL__6_SHELF_HOLES
 66
     1
 10
0.0
 20
0.0
 30
0.0
 70
     1
  0
VERTEX
  5
26B
  8
DRILL__6_SHELF_HOLES
 10
46.73550433401105
 20
21.392762276749
 30
0.0
 42
0.4142135623730951
  0
VERTEX
  5
26C
  8
DRILL__6_SHELF_HOLES
 10
46.61050433401105
 20
21.267762276749
 30
0.0
 42
0.4142135623730951
  0
VERTEX
  5
26D
  8
DRILL__6_SHELF_HOLES
 10
46.73550433401105
 20
21.142762276749
 30
0.0
 42
0.4142135623730951
  0
VERTEX
  5
26E
  8
DRILL__6_SHELF_HOLES
 10
46.86050433401105
 20
21.267762276749
 30
0.0
 42
0.4142135623730951
  0
SEQEND
  5
778
  8
DRILL__6_SHELF_HOLES
  0
POLYLINE
  5
8A
  8
DRILL__6_SHELF_HOLES
 66
     1
 10
0.0
 20
0.0
 30
0.0
 70
     1
  0
VERTEX
  5
26F
  8
DRILL__6_SHELF_HOLES
 10
48.73550433401105
 20
21.392762276749
 30
0.0
 42
0.4142135623730951
  0
VERTEX
  5
270
  8
DRILL__6_SHELF_HOLES
 10
48.61050433401105
 20
21.267762276749
 30
0.0
 42
0.4142135623730951
  0
VERTEX
  5
271
  8
DRILL__6_SHELF_HOLES
 10
48.73550433401105
 20
21.142762276749
 30
0.0
 42
0.4142135623730951
  0
VERTEX
  5
272
  8
DRILL__6_SHELF_HOLES
 10
48.86050433401105
 20
21.267762276749
 30
0.0
 42
0.4142135623730951
  0
SEQEND
  5
779
  8
DRILL__6_SHELF_HOLES
  0
POLYLINE
  5
8B
  8
DRILL__6_SHELF_HOLES
 66
     1
 10
0.0
 20
0.0
 30
0.0
 70
     1
  0
VERTEX
  5
273
  8
DRILL__6_SHELF_HOLES
 10
38.74057570791865
 20
9.204262234642918
 30
0.0
 42
0.4142135623730951
  0
VERTEX
  5
274
  8
DRILL__6_SHELF_HOLES
 10
38.61557570791865
 20
9.079262234642918
 30
0.0
 42
0.4142135623730951
  0
VERTEX
  5
275
  8
DRILL__6_SHELF_HOLES
 10
38.74057570791865
 20
8.954262234642918
 30
0.0
 42
0.4142135623730951
  0
VERTEX
  5
276
  8
DRILL__6_SHELF_HOLES
 10
38.86557570791865
 20
9.079262234642918
 30
0.0
 42
0.4142135623730951
  0
SEQEND
  5
77A
  8
DRILL__6_SHELF_HOLES
  0
POLYLINE
  5
8C
  8
DRILL__6_SHELF_HOLES
 66
     1
 10
0.0
 20
0.0
 30
0.0
 70
     1
  0
VERTEX
  5
277
  8
DRILL__6_SHELF_HOLES
 10
40.74057570791865
 20
9.204262234642918
 30
0.0
 42
0.4142135623730951
  0
VERTEX
  5
278
  8
DRILL__6_SHELF_HOLES
 10
40.61557570791865
 20
9.079262234642918
 30
0.0
 42
0.4142135623730951
  0
VERTEX
  5
279
  8
DRILL__6_SHELF_HOLES
 10
40.74057570791865
 20
8.954262234642918
 30
0.0
 42
0.4142135623730951
  0
VERTEX
  5
27A
  8
DRILL__6_SHELF_HOLES
 10
40.86557570791865
 20
9.079262234642918
 30
0.0
 42
0.4142135623730951
  0
SEQEND
  5
77B
  8
DRILL__6_SHELF_HOLES
  0
POLYLINE
  5
8D
  8
DRILL__6_SHELF_HOLES
 66
     1
 10
0.0
 20
0.0
 30
0.0
 70
     1
  0
VERTEX
  5
27B
  8
DRILL__6_SHELF_HOLES
 10
42.74057570791865
 20
9.204262234642947
 30
0.0
 42
0.4142135623730951
  0
VERTEX
  5
27C
  8
DRILL__6_SHELF_HOLES
 10
42.61557570791865
 20
9.079262234642947
 30
0.0
 42
0.4142135623730951
  0
VERTEX
  5
27D
  8
DRILL__6_SHELF_HOLES
 10
42.74057570791865
 20
8.954262234642947
 30
0.0
 42
0.4142135623730951
  0
VERTEX
  5
27E
  8
DRILL__6_SHELF_HOLES
 10
42.86557570791865
 20
9.079262234642947
 30
0.0
 42
0.4142135623730951
  0
SEQEND
  5
77C
  8
DRILL__6_SHELF_HOLES
  0
POLYLINE
  5
8E
  8
DRILL__6_SHELF_HOLES
 66
     1
 10
0.0
 20
0.0
 30
0.0
 70
     1
  0
VERTEX
  5
27F
  8
DRILL__6_SHELF_HOLES
 10
44.74057570791865
 20
9.204262234642918
 30
0.0
 42
0.4142135623730951
  0
VERTEX
  5
280
  8
DRILL__6_SHELF_HOLES
 10
44.61557570791865
 20
9.079262234642918
 30
0.0
 42
0.4142135623730951
  0
VERTEX
  5
281
  8
DRILL__6_SHELF_HOLES
 10
44.74057570791865
 20
8.954262234642918
 30
0.0
 42
0.4142135623730951
  0
VERTEX
  5
282
  8
DRILL__6_SHELF_HOLES
 10
44.86557570791865
 20
9.079262234642918
 30
0.0
 42
0.4142135623730951
  0
SEQEND
  5
77D
  8
DRILL__6_SHELF_HOLES
  0
POLYLINE
  5
8F
  8
DRILL__6_SHELF_HOLES
 66
     1
 10
0.0
 20
0.0
 30
0.0
 70
     1
  0
VERTEX
  5
283
  8
DRILL__6_SHELF_HOLES
 10
46.74057570791865
 20
9.204262234642918
 30
0.0
 42
0.4142135623730951
  0
VERTEX
  5
284
  8
DRILL__6_SHELF_HOLES
 10
46.61557570791865
 20
9.079262234642918
 30
0.0
 42
0.4142135623730951
  0
VERTEX
  5
285
  8
DRILL__6_SHELF_HOLES
 10
46.74057570791865
 20
8.954262234642918
 30
0.0
 42
0.4142135623730951
  0
VERTEX
  5
286
  8
DRILL__6_SHELF_HOLES
 10
46.86557570791865
 20
9.079262234642918
 30
0.0
 42
0.4142135623730951
  0
SEQEND
  5
77E
  8
DRILL__6_SHELF_HOLES
  0
POLYLINE
  5
90
  8
DRILL__6_SHELF_HOLES
 66
     1
 10
0.0
 20
0.0
 30
0.0
 70
     1
  0
VERTEX
  5
287
  8
DRILL__6_SHELF_HOLES
 10
48.74057570791865
 20
9.204262234642918
 30
0.0
 42
0.4142135623730951
  0
VERTEX
  5
288
  8
DRILL__6_SHELF_HOLES
 10
48.61557570791865
 20
9.079262234642918
 30
0.0
 42
0.4142135623730951
  0
VERTEX
  5
289
  8
DRILL__6_SHELF_HOLES
 10
48.74057570791865
 20
8.954262234642918
 30
0.0
 42
0.4142135623730951
  0
VERTEX
  5
28A
  8
DRILL__6_SHELF_HOLES
 10
48.86557570791865
 20
9.079262234642918
 30
0.0
 42
0.4142135623730951
  0
SEQEND
  5
77F
  8
DRILL__6_SHELF_HOLES
  0
POLYLINE
  5
91
  8
DRILL__6_SHELF_HOLES
 66
     1
 10
0.0
 20
0.0
 30
0.0
 70
     1
  0
VERTEX
  5
28B
  8
DRILL__6_SHELF_HOLES
 10
23.93540214932911
 20
21.392762276749
 30
0.0
 42
0.4142135623730951
  0
VERTEX
  5
28C
  8
DRILL__6_SHELF_HOLES
 10
23.81040214932911
 20
21.267762276749
 30
0.0
 42
0.4142135623730951
  0
VERTEX
  5
28D
  8
DRILL__6_SHELF_HOLES
 10
23.93540214932911
 20
21.142762276749
 30
0.0
 42
0.4142135623730951
  0
VERTEX
  5
28E
  8
DRILL__6_SHELF_HOLES
 10
24.06040214932911
 20
21.267762276749
 30
0.0
 42
0.4142135623730951
  0
SEQEND
  5
780
  8
DRILL__6_SHELF_HOLES
  0
POLYLINE
  5
92
  8
DRILL__6_SHELF_HOLES
 66
     1
 10
0.0
 20
0.0
 30
0.0
 70
     1
  0
VERTEX
  5
28F
  8
DRILL__6_SHELF_HOLES
 10
21.93540214932911
 20
21.392762276749
 30
0.0
 42
0.4142135623730951
  0
VERTEX
  5
290
  8
DRILL__6_SHELF_HOLES
 10
21.81040214932911
 20
21.267762276749
 30
0.0
 42
0.4142135623730951
  0
VERTEX
  5
291
  8
DRILL__6_SHELF_HOLES
 10
21.93540214932911
 20
21.142762276749
 30
0.0
 42
0.4142135623730951
  0
VERTEX
  5
292
  8
DRILL__6_SHELF_HOLES
 10
22.06040214932911
 20
21.267762276749
 30
0.0
 42
0.4142135623730951
  0
SEQEND
  5
781
  8
DRILL__6_SHELF_HOLES
  0
POLYLINE
  5
93
  8
DRILL__6_SHELF_HOLES
 66
     1
 10
0.0
 20
0.0
 30
0.0
 70
     1
  0
VERTEX
  5
293
  8
DRILL__6_SHELF_HOLES
 10
19.93540214932911
 20
21.39276227674898
 30
0.0
 42
0.4142135623730951
  0
VERTEX
  5
294
  8
DRILL__6_SHELF_HOLES
 10
19.81040214932911
 20
21.26776227674898
 30
0.0
 42
0.4142135623730951
  0
VERTEX
  5
295
  8
DRILL__6_SHELF_HOLES
 10
19.93540214932911
 20
21.14276227674898
 30
0.0
 42
0.4142135623730951
  0
VERTEX
  5
296
  8
DRILL__6_SHELF_HOLES
 10
20.06040214932911
 20
21.26776227674898
 30
0.0
 42
0.4142135623730951
  0
SEQEND
  5
782
  8
DRILL__6_SHELF_HOLES
  0
POLYLINE
  5
94
  8
DRILL__6_SHELF_HOLES
 66
     1
 10
0.0
 20
0.0
 30
0.0
 70
     1
  0
VERTEX
  5
297
  8
DRILL__6_SHELF_HOLES
 10
17.93540214932911
 20
21.392762276749
 30
0.0
 42
0.4142135623730951
  0
VERTEX
  5
298
  8
DRILL__6_SHELF_HOLES
 10
17.81040214932911
 20
21.267762276749
 30
0.0
 42
0.4142135623730951
  0
VERTEX
  5
299
  8
DRILL__6_SHELF_HOLES
 10
17.93540214932911
 20
21.142762276749
 30
0.0
 42
0.4142135623730951
  0
VERTEX
  5
29A
  8
DRILL__6_SHELF_HOLES
 10
18.06040214932911
 20
21.267762276749
 30
0.0
 42
0.4142135623730951
  0
SEQEND
  5
783
  8
DRILL__6_SHELF_HOLES
  0
POLYLINE
  5
95
  8
DRILL__6_SHELF_HOLES
 66
     1
 10
0.0
 20
0.0
 30
0.0
 70
     1
  0
VERTEX
  5
29B
  8
DRILL__6_SHELF_HOLES
 10
15.93540214932911
 20
21.392762276749
 30
0.0
 42
0.4142135623730951
  0
VERTEX
  5
29C
  8
DRILL__6_SHELF_HOLES
 10
15.81040214932911
 20
21.267762276749
 30
0.0
 42
0.4142135623730951
  0
VERTEX
  5
29D
  8
DRILL__6_SHELF_HOLES
 10
15.93540214932911
 20
21.142762276749
 30
0.0
 42
0.4142135623730951
  0
VERTEX
  5
29E
  8
DRILL__6_SHELF_HOLES
 10
16.06040214932911
 20
21.267762276749
 30
0.0
 42
0.4142135623730951
  0
SEQEND
  5
784
  8
DRILL__6_SHELF_HOLES
  0
POLYLINE
  5
96
  8
DRILL__6_SHELF_HOLES
 66
     1
 10
0.0
 20
0.0
 30
0.0
 70
     1
  0
VERTEX
  5
29F
  8
DRILL__6_SHELF_HOLES
 10
13.93540214932911
 20
21.392762276749
 30
0.0
 42
0.4142135623730951
  0
VERTEX
  5
2A0
  8
DRILL__6_SHELF_HOLES
 10
13.81040214932911
 20
21.267762276749
 30
0.0
 42
0.4142135623730951
  0
VERTEX
  5
2A1
  8
DRILL__6_SHELF_HOLES
 10
13.93540214932911
 20
21.142762276749
 30
0.0
 42
0.4142135623730951
  0
VERTEX
  5
2A2
  8
DRILL__6_SHELF_HOLES
 10
14.06040214932911
 20
21.267762276749
 30
0.0
 42
0.4142135623730951
  0
SEQEND
  5
785
  8
DRILL__6_SHELF_HOLES
  0
POLYLINE
  5
97
  8
DRILL__6_SHELF_HOLES
 66
     1
 10
0.0
 20
0.0
 30
0.0
 70
     1
  0
VERTEX
  5
2A3
  8
DRILL__6_SHELF_HOLES
 10
23.93033077542152
 20
9.204262234642918
 30
0.0
 42
0.4142135623730951
  0
VERTEX
  5
2A4
  8
DRILL__6_SHELF_HOLES
 10
23.80533077542152
 20
9.079262234642918
 30
0.0
 42
0.4142135623730951
  0
VERTEX
  5
2A5
  8
DRILL__6_SHELF_HOLES
 10
23.93033077542152
 20
8.954262234642918
 30
0.0
 42
0.4142135623730951
  0
VERTEX
  5
2A6
  8
DRILL__6_SHELF_HOLES
 10
24.05533077542152
 20
9.079262234642918
 30
0.0
 42
0.4142135623730951
  0
SEQEND
  5
786
  8
DRILL__6_SHELF_HOLES
  0
POLYLINE
  5
98
  8
DRILL__6_SHELF_HOLES
 66
     1
 10
0.0
 20
0.0
 30
0.0
 70
     1
  0
VERTEX
  5
2A7
  8
DRILL__6_SHELF_HOLES
 10
21.93033077542152
 20
9.204262234642918
 30
0.0
 42
0.4142135623730951
  0
VERTEX
  5
2A8
  8
DRILL__6_SHELF_HOLES
 10
21.80533077542152
 20
9.079262234642918
 30
0.0
 42
0.4142135623730951
  0
VERTEX
  5
2A9
  8
DRILL__6_SHELF_HOLES
 10
21.93033077542152
 20
8.954262234642918
 30
0.0
 42
0.4142135623730951
  0
VERTEX
  5
2AA
  8
DRILL__6_SHELF_HOLES
 10
22.05533077542152
 20
9.079262234642918
 30
0.0
 42
0.4142135623730951
  0
SEQEND
  5
787
  8
DRILL__6_SHELF_HOLES
  0
POLYLINE
  5
99
  8
DRILL__6_SHELF_HOLES
 66
     1
 10
0.0
 20
0.0
 30
0.0
 70
     1
  0
VERTEX
  5
2AB
  8
DRILL__6_SHELF_HOLES
 10
19.93033077542152
 20
9.204262234642947
 30
0.0
 42
0.4142135623730951
  0
VERTEX
  5
2AC
  8
DRILL__6_SHELF_HOLES
 10
19.80533077542152
 20
9.079262234642947
 30
0.0
 42
0.4142135623730951
  0
VERTEX
  5
2AD
  8
DRILL__6_SHELF_HOLES
 10
19.93033077542152
 20
8.954262234642947
 30
0.0
 42
0.4142135623730951
  0
VERTEX
  5
2AE
  8
DRILL__6_SHELF_HOLES
 10
20.05533077542152
 20
9.079262234642947
 30
0.0
 42
0.4142135623730951
  0
SEQEND
  5
788
  8
DRILL__6_SHELF_HOLES
  0
POLYLINE
  5
9A
  8
DRILL__6_SHELF_HOLES
 66
     1
 10
0.0
 20
0.0
 30
0.0
 70
     1
  0
VERTEX
  5
2AF
  8
DRILL__6_SHELF_HOLES
 10
17.93033077542152
 20
9.204262234642918
 30
0.0
 42
0.4142135623730951
  0
VERTEX
  5
2B0
  8
DRILL__6_SHELF_HOLES
 10
17.80533077542152
 20
9.079262234642918
 30
0.0
 42
0.4142135623730951
  0
VERTEX
  5
2B1
  8
DRILL__6_SHELF_HOLES
 10
17.93033077542152
 20
8.954262234642918
 30
0.0
 42
0.4142135623730951
  0
VERTEX
  5
2B2
  8
DRILL__6_SHELF_HOLES
 10
18.05533077542152
 20
9.079262234642918
 30
0.0
 42
0.4142135623730951
  0
SEQEND
  5
789
  8
DRILL__6_SHELF_HOLES
  0
POLYLINE
  5
9B
  8
DRILL__6_SHELF_HOLES
 66
     1
 10
0.0
 20
0.0
 30
0.0
 70
     1
  0
VERTEX
  5
2B3
  8
DRILL__6_SHELF_HOLES
 10
15.93033077542152
 20
9.204262234642918
 30
0.0
 42
0.4142135623730951
  0
VERTEX
  5
2B4
  8
DRILL__6_SHELF_HOLES
 10
15.80533077542152
 20
9.079262234642918
 30
0.0
 42
0.4142135623730951
  0
VERTEX
  5
2B5
  8
DRILL__6_SHELF_HOLES
 10
15.93033077542152
 20
8.954262234642918
 30
0.0
 42
0.4142135623730951
  0
VERTEX
  5
2B6
  8
DRILL__6_SHELF_HOLES
 10
16.05533077542152
 20
9.079262234642918
 30
0.0
 42
0.4142135623730951
  0
SEQEND
  5
78A
  8
DRILL__6_SHELF_HOLES
  0
POLYLINE
  5
9C
  8
DRILL__6_SHELF_HOLES
 66
     1
 10
0.0
 20
0.0
 30
0.0
 70
     1
  0
VERTEX
  5
2B7
  8
DRILL__6_SHELF_HOLES
 10
13.93033077542152
 20
9.204262234642918
 30
0.0
 42
0.4142135623730951
  0
VERTEX
  5
2B8
  8
DRILL__6_SHELF_HOLES
 10
13.80533077542152
 20
9.079262234642918
 30
0.0
 42
0.4142135623730951
  0
VERTEX
  5
2B9
  8
DRILL__6_SHELF_HOLES
 10
13.93033077542152
 20
8.954262234642918
 30
0.0
 42
0.4142135623730951
  0
VERTEX
  5
2BA
  8
DRILL__6_SHELF_HOLES
 10
14.05533077542152
 20
9.079262234642918
 30
0.0
 42
0.4142135623730951
  0
SEQEND
  5
78B
  8
DRILL__6_SHELF_HOLES
  0
POLYLINE
  5
9D
  8
DRILL__6_SHELF_HOLES
 66
     1
 10
0.0
 20
0.0
 30
0.0
 70
     1
  0
VERTEX
  5
2BB
  8
DRILL__6_SHELF_HOLES
 10
67.13526918620343
 20
26.43554179416942
 30
0.0
 42
0.4142135623730951
  0
VERTEX
  5
2BC
  8
DRILL__6_SHELF_HOLES
 10
67.01026918620343
 20
26.31054179416942
 30
0.0
 42
0.4142135623730951
  0
VERTEX
  5
2BD
  8
DRILL__6_SHELF_HOLES
 10
67.13526918620343
 20
26.18554179416942
 30
0.0
 42
0.4142135623730951
  0
VERTEX
  5
2BE
  8
DRILL__6_SHELF_HOLES
 10
67.26026918620343
 20
26.31054179416942
 30
0.0
 42
0.4142135623730951
  0
SEQEND
  5
78C
  8
DRILL__6_SHELF_HOLES
  0
POLYLINE
  5
9E
  8
DRILL__6_SHELF_HOLES
 66
     1
 10
0.0
 20
0.0
 30
0.0
 70
     1
  0
VERTEX
  5
2BF
  8
DRILL__6_SHELF_HOLES
 10
86.08526918620639
 20
26.4355417941579
 30
0.0
 42
0.4142135623730951
  0
VERTEX
  5
2C0
  8
DRILL__6_SHELF_HOLES
 10
85.96026918620639
 20
26.3105417941579
 30
0.0
 42
0.4142135623730951
  0
VERTEX
  5
2C1
  8
DRILL__6_SHELF_HOLES
 10
86.08526918620639
 20
26.1855417941579
 30
0.0
 42
0.4142135623730951
  0
VERTEX
  5
2C2
  8
DRILL__6_SHELF_HOLES
 10
86.21026918620639
 20
26.3105417941579
 30
0.0
 42
0.4142135623730951
  0
SEQEND
  5
78D
  8
DRILL__6_SHELF_HOLES
  0
POLYLINE
  5
A0
  8
OUTSIDE__725
 66
     1
 10
0.0
 20
0.0
 30
0.0
 70
     1
  0
VERTEX
  5
2C3
  8
OUTSIDE__725
 10
30.08442567059757
 20
24.49543532585349
 30
0.0
 42
-0.3639702342662556
  0
VERTEX
  5
2C4
  8
OUTSIDE__725
 10
29.97079580117954
 20
24.60906519527156
 30
0.0
  0
VERTEX
  5
2C5
  8
OUTSIDE__725
 10
29.97031029198435
 20
32.71361778651639
 30
0.0
  0
VERTEX
  5
2C6
  8
OUTSIDE__725
 10
29.97079580117955
 20
40.81817037776121
 30
0.0
 42
-0.3639702342662556
  0
VERTEX
  5
2C7
  8
OUTSIDE__725
 10
30.08442567059759
 20
40.9318002471793
 30
0.0
  0
VERTEX
  5
2C8
  8
OUTSIDE__725
 10
44.18906028917065
 20
40.93236778577125
 30
0.0
  0
VERTEX
  5
2C9
  8
OUTSIDE__725
 10
58.29369490774371
 20
40.93180024717955
 30
0.0
 42
-0.3639702342662556
  0
VERTEX
  5
2CA
  8
OUTSIDE__725
 10
58.40732477716175
 20
40.81817037776146
 30
0.0
  0
VERTEX
  5
2CB
  8
OUTSIDE__725
 10
58.40781028635696
 20
32.71361778651647
 30
0.0
  0
VERTEX
  5
2CC
  8
OUTSIDE__725
 10
58.40732477716175
 20
24.60906519527146
 30
0.0
 42
-0.3639702342662556
  0
VERTEX
  5
2CD
  8
OUTSIDE__725
 10
58.29369490774371
 20
24.49543532585337
 30
0.0
  0
VERTEX
  5
2CE
  8
OUTSIDE__725
 10
44.18906028917065
 20
24.49486778726159
 30
0.0
  0
SEQEND
  5
78E
  8
OUTSIDE__725
  0
POLYLINE
  5
A1
  8
OUTSIDE__725
 66
     1
 10
0.0
 20
0.0
 30
0.0
 70
     1
  0
VERTEX
  5
2CF
  8
OUTSIDE__725
 10
62.54337471836021
 20
24.26672608929866
 30
0.0
 42
-0.3639702342662529
  0
VERTEX
  5
2D0
  8
OUTSIDE__725
 10
62.42974484894226
 20
24.38035595871675
 30
0.0
  0
VERTEX
  5
2D1
  8
OUTSIDE__725
 10
62.42975411995518
 20
30.65213539013366
 30
0.0
  0
VERTEX
  5
2D2
  8
OUTSIDE__725
 10
62.42975411995519
 20
30.65213539032416
 30
0.0
 42
-0.3639905721308341
  0
VERTEX
  5
2D3
  8
OUTSIDE__725
 10
62.54338426145094
 20
30.7657747149078
 30
0.0
  0
VERTEX
  5
2D4
  8
OUTSIDE__725
 10
67.92926920725486
 20
30.76650170664587
 30
0.0
  0
VERTEX
  5
2D5
  8
OUTSIDE__725
 10
74.9852692072363
 20
30.76650159585025
 30
0.0
  0
VERTEX
  5
2D6
  8
OUTSIDE__725
 10
74.99616367507979
 20
30.76602593311171
 30
0.0
  0
VERTEX
  5
2D7
  8
OUTSIDE__725
 10
74.99616367507979
 20
30.76602593330222
 30
0.0
  0
VERTEX
  5
2D8
  8
OUTSIDE__725
 10
75.00697522944469
 20
30.76460256497676
 30
0.0
  0
VERTEX
  5
2D9
  8
OUTSIDE__725
 10
75.01762158787412
 20
30.76224232413636
 30
0.0
  0
VERTEX
  5
2DA
  8
OUTSIDE__725
 10
75.02802172515206
 20
30.75896317344846
 30
0.0
  0
VERTEX
  5
2DB
  8
OUTSIDE__725
 10
75.03809648995392
 20
30.7547900692298
 30
0.0
  0
VERTEX
  5
2DC
  8
OUTSIDE__725
 10
75.04776920723629
 20
30.74975477132326
 30
0.0
  0
VERTEX
  5
2DD
  8
OUTSIDE__725
 10
75.05696626178018
 20
30.74389560138633
 30
0.0
  0
VERTEX
  5
2DE
  8
OUTSIDE__725
 10
75.06561765844717
 20
30.73725715124007
 30
0.0
  0
VERTEX
  5
2DF
  8
OUTSIDE__725
 10
75.07365755488458
 20
30.72988994349851
 30
0.0
  0
VERTEX
  5
2E0
  8
OUTSIDE__725
 10
75.08102476262619
 20
30.72185004706101
 30
0.0
  0
VERTEX
  5
2E1
  8
OUTSIDE__725
 10
75.0876632127724
 20
30.71319865039407
 30
0.0
  0
VERTEX
  5
2E2
  8
OUTSIDE__725
 10
75.09352238270932
 20
30.70400159585018
 30
0.0
  0
VERTEX
  5
2E3
  8
OUTSIDE__725
 10
75.09855768061583
 20
30.69432887856776
 30
0.0
  0
VERTEX
  5
2E4
  8
OUTSIDE__725
 10
75.10273078483449
 20
30.68425411376588
 30
0.0
  0
VERTEX
  5
2E5
  8
OUTSIDE__725
 10
75.10600993552241
 20
30.67385397648799
 30
0.0
  0
VERTEX
  5
2E6
  8
OUTSIDE__725
 10
75.1083701763628
 20
30.66320761805853
 30
0.0
  0
VERTEX
  5
2E7
  8
OUTSIDE__725
 10
75.10979354449769
 20
30.65239606369363
 30
0.0
  0
VERTEX
  5
2E8
  8
OUTSIDE__725
 10
75.11026920723621
 20
30.64150159585017
 30
0.0
  0
VERTEX
  5
2E9
  8
OUTSIDE__725
 10
75.11026920723569
 20
29.76650159585017
 30
0.0
  0
VERTEX
  5
2EA
  8
OUTSIDE__725
 10
75.11217185818984
 20
29.72292372447634
 30
0.0
  0
VERTEX
  5
2EB
  8
OUTSIDE__725
 10
75.11786533072959
 20
29.6796775070167
 30
0.0
  0
VERTEX
  5
2EC
  8
OUTSIDE__725
 10
75.12730629409106
 20
29.6370920732989
 30
0.0
  0
VERTEX
  5
2ED
  8
OUTSIDE__725
 10
75.14042289684261
 20
29.59549152418732
 30
0.0
  0
VERTEX
  5
2EE
  8
OUTSIDE__725
 10
75.15711531371724
 20
29.55519246497979
 30
0.0
  0
VERTEX
  5
2EF
  8
OUTSIDE__725
 10
75.17725650534331
 20
29.51650159585013
 30
0.0
  0
VERTEX
  5
2F0
  8
OUTSIDE__725
 10
75.20069318509107
 20
29.47971337767459
 30
0.0
  0
VERTEX
  5
2F1
  8
OUTSIDE__725
 10
75.22724698567606
 20
29.44510779100683
 30
0.0
  0
VERTEX
  5
2F2
  8
OUTSIDE__725
 10
75.25671581664223
 20
29.41294820525681
 30
0.0
  0
VERTEX
  5
2F3
  8
OUTSIDE__725
 10
75.28887540239218
 20
29.38347937429058
 30
0.0
  0
VERTEX
  5
2F4
  8
OUTSIDE__725
 10
75.3234809890599
 20
29.35692557370554
 30
0.0
  0
VERTEX
  5
2F5
  8
OUTSIDE__725
 10
75.36026920723542
 20
29.3334888939578
 30
0.0
  0
VERTEX
  5
2F6
  8
OUTSIDE__725
 10
75.3989600763651
 20
29.31334770233167
 30
0.0
  0
VERTEX
  5
2F7
  8
OUTSIDE__725
 10
75.4392591355726
 20
29.29665528545702
 30
0.0
  0
VERTEX
  5
2F8
  8
OUTSIDE__725
 10
75.48085968468415
 20
29.28353868270541
 30
0.0
  0
VERTEX
  5
2F9
  8
OUTSIDE__725
 10
75.52344511840192
 20
29.27409771934382
 30
0.0
  0
VERTEX
  5
2FA
  8
OUTSIDE__725
 10
75.56669133586155
 20
29.26840424680402
 30
0.0
  0
VERTEX
  5
2FB
  8
OUTSIDE__725
 10
75.6102692072354
 20
29.26650159584986
 30
0.0
  0
VERTEX
  5
2FC
  8
OUTSIDE__725
 10
77.61026920723543
 20
29.26650159584865
 30
0.0
  0
VERTEX
  5
2FD
  8
OUTSIDE__725
 10
77.6538470786092
 20
29.26840424680276
 30
0.0
  0
VERTEX
  5
2FE
  8
OUTSIDE__725
 10
77.69709329606884
 20
29.2740977193425
 30
0.0
  0
VERTEX
  5
2FF
  8
OUTSIDE__725
 10
77.73967872978666
 20
29.28353868270404
 30
0.0
  0
VERTEX
  5
300
  8
OUTSIDE__725
 10
77.78127927889823
 20
29.2966552854556
 30
0.0
  0
VERTEX
  5
301
  8
OUTSIDE__725
 10
77.82157833810575
 20
29.31334770233019
 30
0.0
  0
VERTEX
  5
302
  8
OUTSIDE__725
 10
77.86026920723542
 20
29.33348889395628
 30
0.0
  0
VERTEX
  5
303
  8
OUTSIDE__725
 10
77.89705742541099
 20
29.35692557370398
 30
0.0
  0
VERTEX
  5
304
  8
OUTSIDE__725
 10
77.93166301207876
 20
29.38347937428897
 30
0.0
  0
VERTEX
  5
305
  8
OUTSIDE__725
 10
77.96382259782874
 20
29.41294820525516
 30
0.0
  0
VERTEX
  5
306
  8
OUTSIDE__725
 10
77.993291428795
 20
29.44510779100515
 30
0.0
  0
VERTEX
  5
307
  8
OUTSIDE__725
 10
78.01984522938004
 20
29.47971337767288
 30
0.0
  0
VERTEX
  5
308
  8
OUTSIDE__725
 10
78.04328190912777
 20
29.51650159584839
 30
0.0
  0
VERTEX
  5
309
  8
OUTSIDE__725
 10
78.06342310075395
 20
29.55519246497803
 30
0.0
  0
VERTEX
  5
30A
  8
OUTSIDE__725
 10
78.08011551762858
 20
29.59549152418553
 30
0.0
  0
VERTEX
  5
30B
  8
OUTSIDE__725
 10
78.09323212038016
 20
29.63709207329709
 30
0.0
  0
VERTEX
  5
30C
  8
OUTSIDE__725
 10
78.10267308374176
 20
29.67967750701488
 30
0.0
  0
VERTEX
  5
30D
  8
OUTSIDE__725
 10
78.10836655628157
 20
29.72292372447452
 30
0.0
  0
VERTEX
  5
30E
  8
OUTSIDE__725
 10
78.11026920723569
 20
29.76650159584835
 30
0.0
  0
VERTEX
  5
30F
  8
OUTSIDE__725
 10
78.11074486997474
 20
30.65239606369181
 30
0.0
  0
VERTEX
  5
310
  8
OUTSIDE__725
 10
78.11216823810969
 20
30.66320761805671
 30
0.0
  0
VERTEX
  5
311
  8
OUTSIDE__725
 10
78.11452847895009
 20
30.67385397648616
 30
0.0
  0
VERTEX
  5
312
  8
OUTSIDE__725
 10
78.117807629638
 20
30.68425411376405
 30
0.0
  0
VERTEX
  5
313
  8
OUTSIDE__725
 10
78.12198073385667
 20
30.69432887856593
 30
0.0
  0
VERTEX
  5
314
  8
OUTSIDE__725
 10
78.12701603176322
 20
30.70400159584834
 30
0.0
  0
VERTEX
  5
315
  8
OUTSIDE__725
 10
78.13287520170013
 20
30.71319865039222
 30
0.0
  0
VERTEX
  5
316
  8
OUTSIDE__725
 10
78.13951365184641
 20
30.72185004705915
 30
0.0
  0
VERTEX
  5
317
  8
OUTSIDE__725
 10
78.14688085958797
 20
30.72988994349664
 30
0.0
  0
VERTEX
  5
318
  8
OUTSIDE__725
 10
78.15492075602548
 20
30.73725715123819
 30
0.0
  0
VERTEX
  5
319
  8
OUTSIDE__725
 10
78.16357215269247
 20
30.74389560138444
 30
0.0
  0
VERTEX
  5
31A
  8
OUTSIDE__725
 10
78.17276920723629
 20
30.74975477132136
 30
0.0
  0
VERTEX
  5
31B
  8
OUTSIDE__725
 10
78.18244192451874
 20
30.75479006922788
 30
0.0
  0
VERTEX
  5
31C
  8
OUTSIDE__725
 10
78.1925166893206
 20
30.75896317344654
 30
0.0
  0
VERTEX
  5
31D
  8
OUTSIDE__725
 10
78.20291682659854
 20
30.76224232413443
 30
0.0
  0
VERTEX
  5
31E
  8
OUTSIDE__725
 10
78.21356318502797
 20
30.76460256497481
 30
0.0
  0
VERTEX
  5
31F
  8
OUTSIDE__725
 10
78.22437473939283
 20
30.76602593330026
 30
0.0
  0
VERTEX
  5
320
  8
OUTSIDE__725
 10
78.22437473939283
 20
30.76602593310975
 30
0.0
  0
VERTEX
  5
321
  8
OUTSIDE__725
 10
85.29126918620763
 20
30.7662504265463
 30
0.0
  0
VERTEX
  5
322
  8
OUTSIDE__725
 10
90.6771541109643
 20
30.76577471489069
 30
0.0
 42
-0.3639905721308114
  0
VERTEX
  5
323
  8
OUTSIDE__725
 10
90.79078425245991
 20
30.65213539030691
 30
0.0
  0
VERTEX
  5
324
  8
OUTSIDE__725
 10
90.79078425245991
 20
30.65213539011641
 30
0.0
  0
VERTEX
  5
325
  8
OUTSIDE__725
 10
90.7907935234652
 20
24.3803559586995
 30
0.0
 42
-0.3639702342661606
  0
VERTEX
  5
326
  8
OUTSIDE__725
 10
90.67716365404712
 20
24.26672608928156
 30
0.0
  0
VERTEX
  5
327
  8
OUTSIDE__725
 10
90.67716365404712
 20
24.26672608947206
 30
0.0
  0
VERTEX
  5
328
  8
OUTSIDE__725
 10
85.29126918620368
 20
24.2662504265463
 30
0.0
  0
VERTEX
  5
329
  8
OUTSIDE__725
 10
67.92926920725091
 20
24.26650170664588
 30
0.0
  0
SEQEND
  5
78F
  8
OUTSIDE__725
  0
POLYLINE
  5
A2
  8
OUTSIDE__725
 66
     1
 10
0.0
 20
0.0
 30
0.0
 70
     1
  0
VERTEX
  5
32A
  8
OUTSIDE__725
 10
91.58275762371923
 20
0.549575585380417
 30
0.0
  0
VERTEX
  5
32B
  8
OUTSIDE__725
 10
93.09150762371925
 20
0.549575585380456
 30
0.0
 42
-0.9999999999998863
  0
VERTEX
  5
32C
  8
OUTSIDE__725
 10
93.34150762371925
 20
0.5495755853804845
 30
0.0
  0
VERTEX
  5
32D
  8
OUTSIDE__725
 10
93.34150762371925
 20
0.299575585380456
 30
0.0
  0
VERTEX
  5
32E
  8
OUTSIDE__725
 10
94.59150762371925
 20
0.2995755853804916
 30
0.0
  0
VERTEX
  5
32F
  8
OUTSIDE__725
 10
94.59150762371925
 20
0.5495755853804916
 30
0.0
 42
-1.0
  0
VERTEX
  5
330
  8
OUTSIDE__725
 10
94.84150762371925
 20
0.5495755853804916
 30
0.0
  0
VERTEX
  5
331
  8
OUTSIDE__725
 10
95.58275762371926
 20
0.5495755853804987
 30
0.0
  0
VERTEX
  5
332
  8
OUTSIDE__725
 10
95.58275762371923
 20
2.799575585380433
 30
0.0
  0
VERTEX
  5
333
  8
OUTSIDE__725
 10
95.58275762371909
 20
26.84957558537998
 30
0.0
  0
VERTEX
  5
334
  8
OUTSIDE__725
 10
95.58275762371909
 20
29.09957558538034
 30
0.0
  0
VERTEX
  5
335
  8
OUTSIDE__725
 10
94.84150762371908
 20
29.09957558538034
 30
0.0
 42
-1.0
  0
VERTEX
  5
336
  8
OUTSIDE__725
 10
94.59150762371908
 20
29.09957558538034
 30
0.0
  0
VERTEX
  5
337
  8
OUTSIDE__725
 10
94.59150762371908
 20
29.34957558538034
 30
0.0
  0
VERTEX
  5
338
  8
OUTSIDE__725
 10
93.34150762371908
 20
29.34957558538035
 30
0.0
  0
VERTEX
  5
339
  8
OUTSIDE__725
 10
93.34150762371908
 20
29.09957558538033
 30
0.0
 42
-0.9999999999998863
  0
VERTEX
  5
33A
  8
OUTSIDE__725
 10
93.09150762371908
 20
29.09957558538035
 30
0.0
  0
VERTEX
  5
33B
  8
OUTSIDE__725
 10
91.58275762371906
 20
29.09957558538038
 30
0.0
  0
VERTEX
  5
33C
  8
OUTSIDE__725
 10
91.58275762371909
 20
26.84957558537996
 30
0.0
  0
VERTEX
  5
33D
  8
OUTSIDE__725
 10
91.58275762371923
 20
2.799575585380408
 30
0.0
  0
SEQEND
  5
790
  8
OUTSIDE__725
  0
POLYLINE
  5
A3
  8
OUTSIDE__725
 66
     1
 10
0.0
 20
0.0
 30
0.0
 70
     1
  0
VERTEX
  5
33E
  8
OUTSIDE__725
 10
30.26077318695516
 20
41.28047191451422
 30
0.0
  0
VERTEX
  5
33F
  8
OUTSIDE__725
 10
32.51077318695557
 20
41.28047191451424
 30
0.0
  0
VERTEX
  5
340
  8
OUTSIDE__725
 10
56.56077318695512
 20
41.28047191451424
 30
0.0
  0
VERTEX
  5
341
  8
OUTSIDE__725
 10
58.81077318695512
 20
41.28047191451422
 30
0.0
  0
VERTEX
  5
342
  8
OUTSIDE__725
 10
58.81077318695509
 20
42.78922191451423
 30
0.0
 42
-0.9999999999998863
  0
VERTEX
  5
343
  8
OUTSIDE__725
 10
58.81077318695506
 20
43.03922191451424
 30
0.0
  0
VERTEX
  5
344
  8
OUTSIDE__725
 10
59.06077318695509
 20
43.03922191451424
 30
0.0
  0
VERTEX
  5
345
  8
OUTSIDE__725
 10
59.06077318695506
 20
44.28922191451424
 30
0.0
  0
VERTEX
  5
346
  8
OUTSIDE__725
 10
58.81077318695506
 20
44.28922191451424
 30
0.0
 42
-1.0
  0
VERTEX
  5
347
  8
OUTSIDE__725
 10
58.81077318695506
 20
44.53922191451424
 30
0.0
  0
VERTEX
  5
348
  8
OUTSIDE__725
 10
58.81077318695506
 20
45.28047191451425
 30
0.0
  0
VERTEX
  5
349
  8
OUTSIDE__725
 10
56.56077318695512
 20
45.28047191451425
 30
0.0
  0
VERTEX
  5
34A
  8
OUTSIDE__725
 10
32.51077318695557
 20
45.28047191451425
 30
0.0
  0
VERTEX
  5
34B
  8
OUTSIDE__725
 10
30.26077318695521
 20
45.28047191451425
 30
0.0
  0
VERTEX
  5
34C
  8
OUTSIDE__725
 10
30.26077318695521
 20
44.53922191451424
 30
0.0
 42
-1.0
  0
VERTEX
  5
34D
  8
OUTSIDE__725
 10
30.26077318695521
 20
44.28922191451424
 30
0.0
  0
VERTEX
  5
34E
  8
OUTSIDE__725
 10
30.01077318695521
 20
44.28922191451424
 30
0.0
  0
VERTEX
  5
34F
  8
OUTSIDE__725
 10
30.01077318695518
 20
43.03922191451424
 30
0.0
  0
VERTEX
  5
350
  8
OUTSIDE__725
 10
30.26077318695521
 20
43.03922191451424
 30
0.0
 42
-0.9999999999998863
  0
VERTEX
  5
351
  8
OUTSIDE__725
 10
30.26077318695518
 20
42.78922191451423
 30
0.0
  0
SEQEND
  5
791
  8
OUTSIDE__725
  0
POLYLINE
  5
A4
  8
OUTSIDE__725
 66
     1
 10
0.0
 20
0.0
 30
0.0
 70
     1
  0
VERTEX
  5
352
  8
OUTSIDE__725
 10
76.94351767201667
 20
0.2567929273869716
 30
0.0
 42
0.0218206748470436
  0
VERTEX
  5
353
  8
OUTSIDE__725
 10
76.9544124576154
 20
0.2563177065643583
 30
0.0
  0
VERTEX
  5
354
  8
OUTSIDE__725
 10
90.86530154948187
 20
0.25688994403205
 30
0.0
 42
0.3639702342656894
  0
VERTEX
  5
355
  8
OUTSIDE__725
 10
90.97893142228622
 20
0.3705198100635556
 30
0.0
  0
VERTEX
  5
356
  8
OUTSIDE__725
 10
90.97940315392947
 20
23.86885146807894
 30
0.0
 42
0.0218200776213127
  0
VERTEX
  5
357
  8
OUTSIDE__725
 10
90.97892749151566
 20
23.87974593593612
 30
0.0
 42
0.363970234267967
  0
VERTEX
  5
358
  8
OUTSIDE__725
 10
90.86529762548382
 20
23.99337580874111
 30
0.0
  0
VERTEX
  5
359
  8
OUTSIDE__725
 10
76.95440316118109
 20
23.99374952405474
 30
0.0
 42
0.0218200776221406
  0
VERTEX
  5
35A
  8
OUTSIDE__725
 10
76.94350869332351
 20
23.99327386164089
 30
0.0
 42
0.3639702342649577
  0
VERTEX
  5
35B
  8
OUTSIDE__725
 10
76.82987882051911
 20
23.87964399560985
 30
0.0
 42
0.0218200776229205
  0
VERTEX
  5
35C
  8
OUTSIDE__725
 10
76.82940315745586
 20
23.86874952778018
 30
0.0
  0
VERTEX
  5
35D
  8
OUTSIDE__725
 10
76.82987876339465
 20
21.9628550599229
 30
0.0
 42
0.3639702342671532
  0
VERTEX
  5
35E
  8
OUTSIDE__725
 10
76.94350862942618
 20
21.84922518711798
 30
0.0
 42
0.0218200776222467
  0
VERTEX
  5
35F
  8
OUTSIDE__725
 10
76.95440309725556
 20
21.84874952405476
 30
0.0
  0
VERTEX
  5
360
  8
OUTSIDE__725
 10
77.32940309725556
 20
21.84874951287925
 30
0.0
 42
-0.4142135623731522
  0
VERTEX
  5
361
  8
OUTSIDE__725
 10
77.82940308235459
 20
21.3487494979782
 30
0.0
  0
VERTEX
  5
362
  8
OUTSIDE__725
 10
77.82940302275031
 20
19.3487494979782
 30
0.0
 42
-0.4142135623731131
  0
VERTEX
  5
363
  8
OUTSIDE__725
 10
77.32940300784922
 20
18.84874951287925
 30
0.0
  0
VERTEX
  5
364
  8
OUTSIDE__725
 10
76.9435085399916
 20
18.84827386164104
 30
0.0
 42
0.3639702342650755
  0
VERTEX
  5
365
  8
OUTSIDE__725
 10
76.82987866718722
 20
18.73464399560982
 30
0.0
 42
0.0218200776230128
  0
VERTEX
  5
366
  8
OUTSIDE__725
 10
76.82940300412396
 20
18.7237495277802
 30
0.0
  0
VERTEX
  5
367
  8
OUTSIDE__725
 10
76.82940708887602
 20
0.3813177101744998
 30
0.0
 42
0.0218206748467076
  0
VERTEX
  5
368
  8
OUTSIDE__725
 10
76.82988277730357
 20
0.3704229449828951
 30
0.0
 42
0.3639810506221227
  0
SEQEND
  5
792
  8
OUTSIDE__725
  0
POLYLINE
  5
A5
  8
OUTSIDE__725
 66
     1
 10
0.0
 20
0.0
 30
0.0
 70
     1
  0
VERTEX
  5
369
  8
OUTSIDE__725
 10
62.49365743937358
 20
0.2301904386119169
 30
0.0
 42
-0.3639702342656017
  0
VERTEX
  5
36A
  8
OUTSIDE__725
 10
62.38002756826242
 20
0.3438203063365481
 30
0.0
  0
VERTEX
  5
36B
  8
OUTSIDE__725
 10
62.37955618676862
 20
23.84215196435896
 30
0.0
 42
-0.0218200776224322
  0
VERTEX
  5
36C
  8
OUTSIDE__725
 10
62.38003184934477
 20
23.85304643220906
 30
0.0
 42
-0.363970234267906
  0
VERTEX
  5
36D
  8
OUTSIDE__725
 10
62.49366171706981
 20
23.96667630332083
 30
0.0
  0
VERTEX
  5
36E
  8
OUTSIDE__725
 10
76.40455618137811
 20
23.96704981134776
 30
0.0
 42
-0.0218200776219802
  0
VERTEX
  5
36F
  8
OUTSIDE__725
 10
76.4154506492286
 20
23.96657414877157
 30
0.0
 42
-0.3639702342650002
  0
VERTEX
  5
370
  8
OUTSIDE__725
 10
76.52908052033979
 20
23.85294428104732
 30
0.0
 42
-0.0218200776230518
  0
VERTEX
  5
371
  8
OUTSIDE__725
 10
76.52955618324071
 20
23.84204981321056
 30
0.0
  0
VERTEX
  5
372
  8
OUTSIDE__725
 10
76.52908054890213
 20
21.93615534536037
 30
0.0
 42
-0.3639702342671648
  0
VERTEX
  5
373
  8
OUTSIDE__725
 10
76.4154506811774
 20
21.82252547424865
 30
0.0
 42
-0.0218200776219682
  0
VERTEX
  5
374
  8
OUTSIDE__725
 10
76.40455621334092
 20
21.82204981134777
 30
0.0
  0
VERTEX
  5
375
  8
OUTSIDE__725
 10
76.02955621334092
 20
21.82204980576015
 30
0.0
 42
0.4142135623731422
  0
VERTEX
  5
376
  8
OUTSIDE__725
 10
75.52955622079138
 20
21.32204979830961
 30
0.0
  0
VERTEX
  5
377
  8
OUTSIDE__725
 10
75.52955625059359
 20
19.32204979830961
 30
0.0
 42
0.4142135623731231
  0
VERTEX
  5
378
  8
OUTSIDE__725
 10
76.02955625804415
 20
18.82204980576015
 30
0.0
  0
VERTEX
  5
379
  8
OUTSIDE__725
 10
76.41545072589469
 20
18.82157414877171
 30
0.0
 42
-0.3639702342650429
  0
VERTEX
  5
37A
  8
OUTSIDE__725
 10
76.52908059700587
 20
18.70794428104729
 30
0.0
 42
-0.0218200776218932
  0
VERTEX
  5
37B
  8
OUTSIDE__725
 10
76.52955625990678
 20
18.69704981321058
 30
0.0
  0
VERTEX
  5
37C
  8
OUTSIDE__725
 10
76.52955190183353
 20
0.3546179956049471
 30
0.0
 42
-0.0218206748452518
  0
VERTEX
  5
37D
  8
OUTSIDE__725
 10
76.52907621324364
 20
0.3437232304204265
 30
0.0
 42
-0.3639810506221235
  0
VERTEX
  5
37E
  8
OUTSIDE__725
 10
76.41544131683735
 20
0.2300932145177867
 30
0.0
 42
-0.0218206748471232
  0
VERTEX
  5
37F
  8
OUTSIDE__725
 10
76.40454653123152
 20
0.2296179938575147
 30
0.0
  0
SEQEND
  5
793
  8
OUTSIDE__725
  0
POLYLINE
  5
A6
  8
OUTSIDE__725
 66
     1
 10
0.0
 20
0.0
 30
0.0
 70
     1
  0
VERTEX
  5
380
  8
OUTSIDE__725
 10
31.59956191417776
 20
0.2297400924774102
 30
0.0
 42
-0.3639769270260511
  0
VERTEX
  5
381
  8
OUTSIDE__725
 10
31.48593195514464
 20
0.3433730734595368
 30
0.0
  0
VERTEX
  5
382
  8
OUTSIDE__725
 10
31.48597999674944
 20
24.1161567369536
 30
0.0
 42
-0.3639702342657629
  0
VERTEX
  5
383
  8
OUTSIDE__725
 10
31.59960986616743
 20
24.22978660637142
 30
0.0
  0
VERTEX
  5
384
  8
OUTSIDE__725
 10
61.86145870149642
 20
24.23026145326774
 30
0.0
  0
VERTEX
  5
385
  8
OUTSIDE__725
 10
61.87235316933993
 20
24.22978579052898
 30
0.0
 42
-0.3639702342657486
  0
VERTEX
  5
386
  8
OUTSIDE__725
 10
61.98598303875808
 20
24.11615592111116
 30
0.0
  0
VERTEX
  5
387
  8
OUTSIDE__725
 10
61.98593194641677
 20
0.3433691299566046
 30
0.0
 42
-0.3639702342653375
  0
VERTEX
  5
388
  8
OUTSIDE__725
 10
61.87230207699902
 20
0.2297392605386523
 30
0.0
  0
SEQEND
  5
794
  8
OUTSIDE__725
  0
POLYLINE
  5
A7
  8
OUTSIDE__725
 66
     1
 10
0.0
 20
0.0
 30
0.0
 70
     1
  0
VERTEX
  5
389
  8
OUTSIDE__725
 10
0.9107731869557583
 20
24.49538200525355
 30
0.0
  0
VERTEX
  5
38A
  8
OUTSIDE__725
 10
6.089353793848307
 20
24.49576446478708
 30
0.0
 42
0.3236219542886229
  0
VERTEX
  5
38B
  8
OUTSIDE__725
 10
6.200518299841075
 20
24.59068502031163
 30
0.0
 42
-0.3296098274456083
  0
VERTEX
  5
38C
  8
OUTSIDE__725
 10
7.185773186955362
 20
25.49538200525409
 30
0.0
  0
VERTEX
  5
38D
  8
OUTSIDE__725
 10
9.185773186955291
 20
25.49538200525408
 30
0.0
 42
-0.3296098274456944
  0
VERTEX
  5
38E
  8
OUTSIDE__725
 10
10.17102807406876
 20
24.59068502031154
 30
0.0
 42
0.3236219542887639
  0
VERTEX
  5
38F
  8
OUTSIDE__725
 10
10.28219258006173
 20
24.49576446478734
 30
0.0
 42
0.0195640579537839
  0
VERTEX
  5
390
  8
OUTSIDE__725
 10
10.29196338391653
 20
24.49538200525391
 30
0.0
  0
VERTEX
  5
391
  8
OUTSIDE__725
 10
20.07958298999332
 20
24.49538200552469
 30
0.0
 42
0.0195640579534495
  0
VERTEX
  5
392
  8
OUTSIDE__725
 10
20.08935379384711
 20
24.49576446505792
 30
0.0
 42
0.3236219542886495
  0
VERTEX
  5
393
  8
OUTSIDE__725
 10
20.20051829984045
 20
24.59068502058198
 30
0.0
 42
-0.3296098274455883
  0
VERTEX
  5
394
  8
OUTSIDE__725
 10
21.18577318695474
 20
25.49538200552472
 30
0.0
  0
VERTEX
  5
395
  8
OUTSIDE__725
 10
23.18577318695473
 20
25.49538200552471
 30
0.0
 42
-0.3296098274457043
  0
VERTEX
  5
396
  8
OUTSIDE__725
 10
24.17102807406815
 20
24.59068502058188
 30
0.0
 42
0.3236219542886356
  0
VERTEX
  5
397
  8
OUTSIDE__725
 10
24.28219258006153
 20
24.49576446505763
 30
0.0
  0
VERTEX
  5
398
  8
OUTSIDE__725
 10
29.460773186955
 20
24.49538200552441
 30
0.0
  0
VERTEX
  5
399
  8
OUTSIDE__725
 10
29.46077318695479
 20
26.74538200549287
 30
0.0
 42
-0.4142135623742102
  0
VERTEX
  5
39A
  8
OUTSIDE__725
 10
29.33577318695387
 20
26.8703820054929
 30
0.0
 42
-0.414213562374267
  0
VERTEX
  5
39B
  8
OUTSIDE__725
 10
29.4607731869548
 20
26.99538200549287
 30
0.0
  0
VERTEX
  5
39C
  8
OUTSIDE__725
 10
29.71077318695512
 20
27.01538200549296
 30
0.0
  0
VERTEX
  5
39D
  8
OUTSIDE__725
 10
29.71077318695534
 20
44.7503820061425
 30
0.0
  0
VERTEX
  5
39E
  8
OUTSIDE__725
 10
29.46077318695528
 20
44.77038200614243
 30
0.0
 42
-0.9999999999988631
  0
VERTEX
  5
39F
  8
OUTSIDE__725
 10
29.46077318695512
 20
45.02038200614243
 30
0.0
  0
VERTEX
  5
3A0
  8
OUTSIDE__725
 10
29.46077318695523
 20
47.77038200614247
 30
0.0
  0
VERTEX
  5
3A1
  8
OUTSIDE__725
 10
24.1857731869552
 20
47.77038200614248
 30
0.0
  0
VERTEX
  5
3A2
  8
OUTSIDE__725
 10
24.18577318695501
 20
47.00038201377326
 30
0.0
 42
-1.0
  0
VERTEX
  5
3A3
  8
OUTSIDE__725
 10
23.93577318695501
 20
47.00038201377328
 30
0.0
  0
VERTEX
  5
3A4
  8
OUTSIDE__725
 10
6.43577318695572
 20
47.0003820135027
 30
0.0
 42
-0.999999999999801
  0
VERTEX
  5
3A5
  8
OUTSIDE__725
 10
6.18577318695572
 20
47.00038201350267
 30
0.0
  0
VERTEX
  5
3A6
  8
OUTSIDE__725
 10
6.185773186955736
 20
47.77038200587153
 30
0.0
  0
VERTEX
  5
3A7
  8
OUTSIDE__725
 10
0.9107731869557583
 20
47.77038200587157
 30
0.0
  0
VERTEX
  5
3A8
  8
OUTSIDE__725
 10
0.9107731869557005
 20
45.02038200587216
 30
0.0
 42
-0.4142135623731417
  0
VERTEX
  5
3A9
  8
OUTSIDE__725
 10
1.035773186955808
 20
44.89538200587292
 30
0.0
 42
-0.4142135623731476
  0
VERTEX
  5
3AA
  8
OUTSIDE__725
 10
0.9107731869559794
 20
44.77038200587216
 30
0.0
  0
VERTEX
  5
3AB
  8
OUTSIDE__725
 10
0.6607731869560425
 20
44.75038200587157
 30
0.0
  0
VERTEX
  5
3AC
  8
OUTSIDE__725
 10
0.6607731869557867
 20
27.01538200509695
 30
0.0
  0
VERTEX
  5
3AD
  8
OUTSIDE__725
 10
0.9107731869553808
 20
26.99538200509756
 30
0.0
 42
-0.9999999999992042
  0
VERTEX
  5
3AE
  8
OUTSIDE__725
 10
0.910773186955347
 20
26.74538200509756
 30
0.0
  0
SEQEND
  5
795
  8
OUTSIDE__725
  0
POLYLINE
  5
A8
  8
OUTSIDE__725
 66
     1
 10
0.0
 20
0.0
 30
0.0
 70
     1
  0
VERTEX
  5
3AF
  8
OUTSIDE__725
 10
0.7986044063410844
 20
0.2297392605386896
 30
0.0
  0
VERTEX
  5
3B0
  8
OUTSIDE__725
 10
31.07134456916234
 20
0.2297400924774138
 30
0.0
 42
0.3639769270260511
  0
VERTEX
  5
3B1
  8
OUTSIDE__725
 10
31.18497452819546
 20
0.3433730734595404
 30
0.0
  0
VERTEX
  5
3B2
  8
OUTSIDE__725
 10
31.18492648659067
 20
24.11615673695361
 30
0.0
 42
0.3639702342657629
  0
VERTEX
  5
3B3
  8
OUTSIDE__725
 10
31.07129661717268
 20
24.22978660637143
 30
0.0
  0
VERTEX
  5
3B4
  8
OUTSIDE__725
 10
0.8094477818436907
 20
24.23026145326774
 30
0.0
  0
VERTEX
  5
3B5
  8
OUTSIDE__725
 10
0.7985533140001699
 20
24.22978579052899
 30
0.0
 42
0.3639702342658059
  0
VERTEX
  5
3B6
  8
OUTSIDE__725
 10
0.6849234445820294
 20
24.11615592111117
 30
0.0
  0
VERTEX
  5
3B7
  8
OUTSIDE__725
 10
0.6849745369233418
 20
0.3433691299566082
 30
0.0
 42
0.3639702342653692
  0
SEQEND
  5
796
  8
OUTSIDE__725
  0
POLYLINE
  5
AA
  8
POCKET__52_HINGE_CUP
 66
     1
 10
0.0
 20
0.0
 30
0.0
 70
     1
  0
VERTEX
  5
3B8
  8
POCKET__52_HINGE_CUP
 10
90.1243547664095
 20
4.94559477060902
 30
0.0
 42
0.4142135623730951
  0
VERTEX
  5
3B9
  8
POCKET__52_HINGE_CUP
 10
89.43537838845674
 20
4.256618392656264
 30
0.0
 42
0.4142135623730951
  0
VERTEX
  5
3BA
  8
POCKET__52_HINGE_CUP
 10
90.1243547664095
 20
3.567642014703509
 30
0.0
 42
0.4142135623730951
  0
VERTEX
  5
3BB
  8
POCKET__52_HINGE_CUP
 10
90.81333114436225
 20
4.256618392656264
 30
0.0
 42
0.4142135623730951
  0
SEQEND
  5
797
  8
POCKET__52_HINGE_CUP
  0
POLYLINE
  5
AB
  8
POCKET__52_HINGE_CUP
 66
     1
 10
0.0
 20
0.0
 30
0.0
 70
     1
  0
VERTEX
  5
3BC
  8
POCKET__52_HINGE_CUP
 10
90.12467117531276
 20
22.95594600654581
 30
0.0
 42
0.4142135623730951
  0
VERTEX
  5
3BD
  8
POCKET__52_HINGE_CUP
 10
89.43569479735999
 20
22.26696962859304
 30
0.0
 42
0.4142135623730951
  0
VERTEX
  5
3BE
  8
POCKET__52_HINGE_CUP
 10
90.12467117531276
 20
21.57799325064027
 30
0.0
 42
0.4142135623730951
  0
VERTEX
  5
3BF
  8
POCKET__52_HINGE_CUP
 10
90.81364755326553
 20
22.26696962859304
 30
0.0
 42
0.4142135623730951
  0
SEQEND
  5
798
  8
POCKET__52_HINGE_CUP
  0
POLYLINE
  5
AC
  8
POCKET__52_HINGE_CUP
 66
     1
 10
0.0
 20
0.0
 30
0.0
 70
     1
  0
VERTEX
  5
3C0
  8
POCKET__52_HINGE_CUP
 10
63.23460428204604
 20
4.91889525414793
 30
0.0
 42
0.4142135623730951
  0
VERTEX
  5
3C1
  8
POCKET__52_HINGE_CUP
 10
62.54562790409328
 20
4.229918876195175
 30
0.0
 42
0.4142135623730951
  0
VERTEX
  5
3C2
  8
POCKET__52_HINGE_CUP
 10
63.23460428204604
 20
3.540942498242419
 30
0.0
 42
0.4142135623730951
  0
VERTEX
  5
3C3
  8
POCKET__52_HINGE_CUP
 10
63.92358065999879
 20
4.229918876195175
 30
0.0
 42
0.4142135623730951
  0
SEQEND
  5
799
  8
POCKET__52_HINGE_CUP
  0
POLYLINE
  5
AD
  8
POCKET__52_HINGE_CUP
 66
     1
 10
0.0
 20
0.0
 30
0.0
 70
     1
  0
VERTEX
  5
3C4
  8
POCKET__52_HINGE_CUP
 10
63.23428814151563
 20
22.92924649008943
 30
0.0
 42
0.4142135623730951
  0
VERTEX
  5
3C5
  8
POCKET__52_HINGE_CUP
 10
62.54531176356286
 20
22.24027011213666
 30
0.0
 42
0.4142135623730951
  0
VERTEX
  5
3C6
  8
POCKET__52_HINGE_CUP
 10
63.23428814151563
 20
21.55129373418389
 30
0.0
 42
0.4142135623730951
  0
VERTEX
  5
3C7
  8
POCKET__52_HINGE_CUP
 10
63.9232645194684
 20
22.24027011213666
 30
0.0
 42
0.4142135623730951
  0
SEQEND
  5
79A
  8
POCKET__52_HINGE_CUP
  0
POLYLINE
  5
AF
  8
DRILL__1_HINGE_MARK
 66
     1
 10
0.0
 20
0.0
 30
0.0
 70
     1
  0
VERTEX
  5
3C8
  8
DRILL__1_HINGE_MARK
 10
34.85778269715696
 20
2.551089743264424
 30
0.0
  0
VERTEX
  5
3C9
  8
DRILL__1_HINGE_MARK
 10
34.86402647356344
 20
2.566163547070612
 30
0.0
  0
VERTEX
  5
3CA
  8
DRILL__1_HINGE_MARK
 10
34.87395888747579
 20
2.579107715850252
 30
0.0
  0
VERTEX
  5
3CB
  8
DRILL__1_HINGE_MARK
 10
34.88690306129998
 20
2.589040125891355
 30
0.0
  0
VERTEX
  5
3CC
  8
DRILL__1_HINGE_MARK
 10
34.9019768709806
 20
2.595283899864643
 30
0.0
  0
VERTEX
  5
3CD
  8
DRILL__1_HINGE_MARK
 10
34.91815306129993
 20
2.59741353489153
 30
0.0
  0
VERTEX
  5
3CE
  8
DRILL__1_HINGE_MARK
 10
34.93432925161861
 20
2.595283899864647
 30
0.0
  0
VERTEX
  5
3CF
  8
DRILL__1_HINGE_MARK
 10
34.94940306130045
 20
2.589040125891351
 30
0.0
  0
VERTEX
  5
3D0
  8
DRILL__1_HINGE_MARK
 10
34.96234723512409
 20
2.579107715850164
 30
0.0
  0
VERTEX
  5
3D1
  8
DRILL__1_HINGE_MARK
 10
34.97227964903655
 20
2.566163547070655
 30
0.0
  0
VERTEX
  5
3D2
  8
DRILL__1_HINGE_MARK
 10
34.97852342544304
 20
2.551089743264281
 30
0.0
  0
VERTEX
  5
3D3
  8
DRILL__1_HINGE_MARK
 10
34.98065306130012
 20
2.534913559249777
 30
0.0
  0
VERTEX
  5
3D4
  8
DRILL__1_HINGE_MARK
 10
34.97852342544302
 20
2.518737375235258
 30
0.0
  0
VERTEX
  5
3D5
  8
DRILL__1_HINGE_MARK
 10
34.97227964903696
 20
2.503663571428948
 30
0.0
  0
VERTEX
  5
3D6
  8
DRILL__1_HINGE_MARK
 10
34.96234723512377
 20
2.490719402649777
 30
0.0
  0
VERTEX
  5
3D7
  8
DRILL__1_HINGE_MARK
 10
34.9494030612999
 20
2.480786992608333
 30
0.0
  0
VERTEX
  5
3D8
  8
DRILL__1_HINGE_MARK
 10
34.93432925161883
 20
2.474543218635258
 30
0.0
  0
VERTEX
  5
3D9
  8
DRILL__1_HINGE_MARK
 10
34.91815306129996
 20
2.472413583608269
 30
0.0
  0
VERTEX
  5
3DA
  8
DRILL__1_HINGE_MARK
 10
34.90197687098104
 20
2.474543218635244
 30
0.0
  0
VERTEX
  5
3DB
  8
DRILL__1_HINGE_MARK
 10
34.88690306129998
 20
2.480786992608355
 30
0.0
  0
VERTEX
  5
3DC
  8
DRILL__1_HINGE_MARK
 10
34.87395888747537
 20
2.490719402649784
 30
0.0
  0
VERTEX
  5
3DD
  8
DRILL__1_HINGE_MARK
 10
34.86402647356345
 20
2.503663571428962
 30
0.0
  0
VERTEX
  5
3DE
  8
DRILL__1_HINGE_MARK
 10
34.85778269715735
 20
2.518737375235382
 30
0.0
  0
VERTEX
  5
3DF
  8
DRILL__1_HINGE_MARK
 10
34.85565306130005
 20
2.534913559249784
 30
0.0
  0
SEQEND
  5
79B
  8
DRILL__1_HINGE_MARK
  0
POLYLINE
  5
B0
  8
DRILL__1_HINGE_MARK
 66
     1
 10
0.0
 20
0.0
 30
0.0
 70
     1
  0
VERTEX
  5
3E0
  8
DRILL__1_HINGE_MARK
 10
36.11762521685362
 20
2.551087410813672
 30
0.0
  0
VERTEX
  5
3E1
  8
DRILL__1_HINGE_MARK
 10
36.12386899326056
 20
2.566161214619854
 30
0.0
  0
VERTEX
  5
3E2
  8
DRILL__1_HINGE_MARK
 10
36.13380140717276
 20
2.579105383399241
 30
0.0
  0
VERTEX
  5
3E3
  8
DRILL__1_HINGE_MARK
 10
36.1467455809969
 20
2.589037793440617
 30
0.0
  0
VERTEX
  5
3E4
  8
DRILL__1_HINGE_MARK
 10
36.16181939067803
 20
2.595281567413736
 30
0.0
  0
VERTEX
  5
3E5
  8
DRILL__1_HINGE_MARK
 10
36.17799558099696
 20
2.597411202440661
 30
0.0
  0
VERTEX
  5
3E6
  8
DRILL__1_HINGE_MARK
 10
36.19417177131636
 20
2.595281567413796
 30
0.0
  0
VERTEX
  5
3E7
  8
DRILL__1_HINGE_MARK
 10
36.20924558099691
 20
2.58903779344061
 30
0.0
  0
VERTEX
  5
3E8
  8
DRILL__1_HINGE_MARK
 10
36.22218975482127
 20
2.579105383399273
 30
0.0
  0
VERTEX
  5
3E9
  8
DRILL__1_HINGE_MARK
 10
36.23212216873299
 20
2.566161214619935
 30
0.0
  0
VERTEX
  5
3EA
  8
DRILL__1_HINGE_MARK
 10
36.23836594513996
 20
2.551087410813505
 30
0.0
  0
VERTEX
  5
3EB
  8
DRILL__1_HINGE_MARK
 10
36.24049558099695
 20
2.534911226799053
 30
0.0
  0
VERTEX
  5
3EC
  8
DRILL__1_HINGE_MARK
 10
36.23836594513996
 20
2.518735042784524
 30
0.0
  0
VERTEX
  5
3ED
  8
DRILL__1_HINGE_MARK
 10
36.23212216873342
 20
2.503661238978232
 30
0.0
  0
VERTEX
  5
3EE
  8
DRILL__1_HINGE_MARK
 10
36.22218975482111
 20
2.490717070198702
 30
0.0
  0
VERTEX
  5
3EF
  8
DRILL__1_HINGE_MARK
 10
36.20924558099652
 20
2.480784660157529
 30
0.0
  0
VERTEX
  5
3F0
  8
DRILL__1_HINGE_MARK
 10
36.19417177131583
 20
2.474540886184357
 30
0.0
  0
VERTEX
  5
3F1
  8
DRILL__1_HINGE_MARK
 10
36.17799558099659
 20
2.472411251157457
 30
0.0
  0
VERTEX
  5
3F2
  8
DRILL__1_HINGE_MARK
 10
36.16181939067816
 20
2.474540886184212
 30
0.0
  0
VERTEX
  5
3F3
  8
DRILL__1_HINGE_MARK
 10
36.14674558099709
 20
2.480784660157536
 30
0.0
  0
VERTEX
  5
3F4
  8
DRILL__1_HINGE_MARK
 10
36.13380140717274
 20
2.490717070198702
 30
0.0
  0
VERTEX
  5
3F5
  8
DRILL__1_HINGE_MARK
 10
36.12386899326037
 20
2.503661238978214
 30
0.0
  0
VERTEX
  5
3F6
  8
DRILL__1_HINGE_MARK
 10
36.11762521685382
 20
2.518735042784563
 30
0.0
  0
VERTEX
  5
3F7
  8
DRILL__1_HINGE_MARK
 10
36.11549558099709
 20
2.534911226799032
 30
0.0
  0
SEQEND
  5
79C
  8
DRILL__1_HINGE_MARK
  0
POLYLINE
  5
B1
  8
DRILL__1_HINGE_MARK
 66
     1
 10
0.0
 20
0.0
 30
0.0
 70
     1
  0
VERTEX
  5
3F8
  8
DRILL__1_HINGE_MARK
 10
52.89724117011295
 20
2.573663895438841
 30
0.0
  0
VERTEX
  5
3F9
  8
DRILL__1_HINGE_MARK
 10
52.9123149797936
 20
2.579907669412155
 30
0.0
  0
VERTEX
  5
3FA
  8
DRILL__1_HINGE_MARK
 10
52.92849117011286
 20
2.582037304438995
 30
0.0
  0
VERTEX
  5
3FB
  8
DRILL__1_HINGE_MARK
 10
52.94466736043161
 20
2.579907669412108
 30
0.0
  0
VERTEX
  5
3FC
  8
DRILL__1_HINGE_MARK
 10
52.95974117011319
 20
2.573663895438855
 30
0.0
  0
VERTEX
  5
3FD
  8
DRILL__1_HINGE_MARK
 10
52.97268534393686
 20
2.563731485397636
 30
0.0
  0
VERTEX
  5
3FE
  8
DRILL__1_HINGE_MARK
 10
52.98261775784941
 20
2.550787316618138
 30
0.0
  0
VERTEX
  5
3FF
  8
DRILL__1_HINGE_MARK
 10
52.98886153425595
 20
2.53571351281181
 30
0.0
  0
VERTEX
  5
400
  8
DRILL__1_HINGE_MARK
 10
52.99099117011308
 20
2.519537328797316
 30
0.0
  0
VERTEX
  5
401
  8
DRILL__1_HINGE_MARK
 10
52.98886153425593
 20
2.503361144782787
 30
0.0
  0
VERTEX
  5
402
  8
DRILL__1_HINGE_MARK
 10
52.9826177578497
 20
2.48828734097647
 30
0.0
  0
VERTEX
  5
403
  8
DRILL__1_HINGE_MARK
 10
52.97268534393682
 20
2.475343172197228
 30
0.0
  0
VERTEX
  5
404
  8
DRILL__1_HINGE_MARK
 10
52.95974117011279
 20
2.465410762155823
 30
0.0
  0
VERTEX
  5
405
  8
DRILL__1_HINGE_MARK
 10
52.94466736043157
 20
2.459166988182687
 30
0.0
  0
VERTEX
  5
406
  8
DRILL__1_HINGE_MARK
 10
52.92849117011288
 20
2.457037353155776
 30
0.0
  0
VERTEX
  5
407
  8
DRILL__1_HINGE_MARK
 10
52.91231497979378
 20
2.459166988182716
 30
0.0
  0
VERTEX
  5
408
  8
DRILL__1_HINGE_MARK
 10
52.89724117011288
 20
2.465410762155841
 30
0.0
  0
VERTEX
  5
409
  8
DRILL__1_HINGE_MARK
 10
52.88429699628839
 20
2.475343172197235
 30
0.0
  0
VERTEX
  5
40A
  8
DRILL__1_HINGE_MARK
 10
52.87436458237642
 20
2.488287340976505
 30
0.0
  0
VERTEX
  5
40B
  8
DRILL__1_HINGE_MARK
 10
52.86812080597009
 20
2.503361144782868
 30
0.0
  0
VERTEX
  5
40C
  8
DRILL__1_HINGE_MARK
 10
52.86599117011296
 20
2.519537328797302
 30
0.0
  0
VERTEX
  5
40D
  8
DRILL__1_HINGE_MARK
 10
52.86812080596978
 20
2.535713512811885
 30
0.0
  0
VERTEX
  5
40E
  8
DRILL__1_HINGE_MARK
 10
52.87436458237635
 20
2.550787316618152
 30
0.0
  0
VERTEX
  5
40F
  8
DRILL__1_HINGE_MARK
 10
52.88429699628852
 20
2.563731485397707
 30
0.0
  0
SEQEND
  5
79D
  8
DRILL__1_HINGE_MARK
  0
POLYLINE
  5
B2
  8
DRILL__1_HINGE_MARK
 66
     1
 10
0.0
 20
0.0
 30
0.0
 70
     1
  0
VERTEX
  5
410
  8
DRILL__1_HINGE_MARK
 10
54.1883336898098
 20
2.457035020704911
 30
0.0
  0
VERTEX
  5
411
  8
DRILL__1_HINGE_MARK
 10
54.17215749949107
 20
2.459164655731751
 30
0.0
  0
VERTEX
  5
412
  8
DRILL__1_HINGE_MARK
 10
54.15708368980983
 20
2.46540842970499
 30
0.0
  0
VERTEX
  5
413
  8
DRILL__1_HINGE_MARK
 10
54.14413951598554
 20
2.475340839746242
 30
0.0
  0
VERTEX
  5
414
  8
DRILL__1_HINGE_MARK
 10
54.13420710207316
 20
2.48828500852569
 30
0.0
  0
VERTEX
  5
415
  8
DRILL__1_HINGE_MARK
 10
54.12796332566673
 20
2.503358812332024
 30
0.0
  0
VERTEX
  5
416
  8
DRILL__1_HINGE_MARK
 10
54.12583368980999
 20
2.519534996346504
 30
0.0
  0
VERTEX
  5
417
  8
DRILL__1_HINGE_MARK
 10
54.12796332566653
 20
2.53571118036113
 30
0.0
  0
VERTEX
  5
418
  8
DRILL__1_HINGE_MARK
 10
54.13420710207347
 20
2.550784984167326
 30
0.0
  0
VERTEX
  5
419
  8
DRILL__1_HINGE_MARK
 10
54.14413951598567
 20
2.563729152946731
 30
0.0
  0
VERTEX
  5
41A
  8
DRILL__1_HINGE_MARK
 10
54.1570836898097
 20
2.573661562988089
 30
0.0
  0
VERTEX
  5
41B
  8
DRILL__1_HINGE_MARK
 10
54.17215749949086
 20
2.579905336961222
 30
0.0
  0
VERTEX
  5
41C
  8
DRILL__1_HINGE_MARK
 10
54.18833368980995
 20
2.582034971988133
 30
0.0
  0
VERTEX
  5
41D
  8
DRILL__1_HINGE_MARK
 10
54.20450988012909
 20
2.579905336961247
 30
0.0
  0
VERTEX
  5
41E
  8
DRILL__1_HINGE_MARK
 10
54.21958368980982
 20
2.573661562988082
 30
0.0
  0
VERTEX
  5
41F
  8
DRILL__1_HINGE_MARK
 10
54.23252786363417
 20
2.563729152946735
 30
0.0
  0
VERTEX
  5
420
  8
DRILL__1_HINGE_MARK
 10
54.24246027754621
 20
2.550784984167382
 30
0.0
  0
VERTEX
  5
421
  8
DRILL__1_HINGE_MARK
 10
54.24870405395287
 20
2.535711180360977
 30
0.0
  0
VERTEX
  5
422
  8
DRILL__1_HINGE_MARK
 10
54.25083368980986
 20
2.519534996346525
 30
0.0
  0
VERTEX
  5
423
  8
DRILL__1_HINGE_MARK
 10
54.24870405395288
 20
2.503358812331999
 30
0.0
  0
VERTEX
  5
424
  8
DRILL__1_HINGE_MARK
 10
54.24246027754633
 20
2.488285008525704
 30
0.0
  0
VERTEX
  5
425
  8
DRILL__1_HINGE_MARK
 10
54.23252786363396
 20
2.475340839746224
 30
0.0
  0
VERTEX
  5
426
  8
DRILL__1_HINGE_MARK
 10
54.21958368980957
 20
2.465408429704983
 30
0.0
  0
VERTEX
  5
427
  8
DRILL__1_HINGE_MARK
 10
54.2045098801288
 20
2.459164655731822
 30
0.0
  0
SEQEND
  5
79E
  8
DRILL__1_HINGE_MARK
  0
POLYLINE
  5
B3
  8
DRILL__1_HINGE_MARK
 66
     1
 10
0.0
 20
0.0
 30
0.0
 70
     1
  0
VERTEX
  5
428
  8
DRILL__1_HINGE_MARK
 10
27.81312378618323
 20
2.551089743264427
 30
0.0
  0
VERTEX
  5
429
  8
DRILL__1_HINGE_MARK
 10
27.80688000977674
 20
2.566163547070616
 30
0.0
  0
VERTEX
  5
42A
  8
DRILL__1_HINGE_MARK
 10
27.7969475958644
 20
2.579107715850256
 30
0.0
  0
VERTEX
  5
42B
  8
DRILL__1_HINGE_MARK
 10
27.7840034220402
 20
2.589040125891358
 30
0.0
  0
VERTEX
  5
42C
  8
DRILL__1_HINGE_MARK
 10
27.76892961235958
 20
2.595283899864651
 30
0.0
  0
VERTEX
  5
42D
  8
DRILL__1_HINGE_MARK
 10
27.75275342204026
 20
2.597413534891533
 30
0.0
  0
VERTEX
  5
42E
  8
DRILL__1_HINGE_MARK
 10
27.73657723172157
 20
2.595283899864651
 30
0.0
  0
VERTEX
  5
42F
  8
DRILL__1_HINGE_MARK
 10
27.72150342203973
 20
2.589040125891355
 30
0.0
  0
VERTEX
  5
430
  8
DRILL__1_HINGE_MARK
 10
27.70855924821609
 20
2.579107715850167
 30
0.0
  0
VERTEX
  5
431
  8
DRILL__1_HINGE_MARK
 10
27.69862683430363
 20
2.566163547070659
 30
0.0
  0
VERTEX
  5
432
  8
DRILL__1_HINGE_MARK
 10
27.69238305789714
 20
2.551089743264289
 30
0.0
  0
VERTEX
  5
433
  8
DRILL__1_HINGE_MARK
 10
27.69025342204007
 20
2.53491355924978
 30
0.0
  0
VERTEX
  5
434
  8
DRILL__1_HINGE_MARK
 10
27.69238305789717
 20
2.518737375235265
 30
0.0
  0
VERTEX
  5
435
  8
DRILL__1_HINGE_MARK
 10
27.69862683430323
 20
2.503663571428955
 30
0.0
  0
VERTEX
  5
436
  8
DRILL__1_HINGE_MARK
 10
27.70855924821642
 20
2.490719402649781
 30
0.0
  0
VERTEX
  5
437
  8
DRILL__1_HINGE_MARK
 10
27.72150342204028
 20
2.480786992608341
 30
0.0
  0
VERTEX
  5
438
  8
DRILL__1_HINGE_MARK
 10
27.73657723172136
 20
2.474543218635258
 30
0.0
  0
VERTEX
  5
439
  8
DRILL__1_HINGE_MARK
 10
27.75275342204022
 20
2.472413583608272
 30
0.0
  0
VERTEX
  5
43A
  8
DRILL__1_HINGE_MARK
 10
27.76892961235914
 20
2.474543218635251
 30
0.0
  0
VERTEX
  5
43B
  8
DRILL__1_HINGE_MARK
 10
27.78400342204021
 20
2.480786992608358
 30
0.0
  0
VERTEX
  5
43C
  8
DRILL__1_HINGE_MARK
 10
27.79694759586481
 20
2.490719402649788
 30
0.0
  0
VERTEX
  5
43D
  8
DRILL__1_HINGE_MARK
 10
27.80688000977673
 20
2.503663571428969
 30
0.0
  0
VERTEX
  5
43E
  8
DRILL__1_HINGE_MARK
 10
27.81312378618283
 20
2.518737375235386
 30
0.0
  0
VERTEX
  5
43F
  8
DRILL__1_HINGE_MARK
 10
27.81525342204013
 20
2.534913559249787
 30
0.0
  0
SEQEND
  5
79F
  8
DRILL__1_HINGE_MARK
  0
POLYLINE
  5
B4
  8
DRILL__1_HINGE_MARK
 66
     1
 10
0.0
 20
0.0
 30
0.0
 70
     1
  0
VERTEX
  5
440
  8
DRILL__1_HINGE_MARK
 10
26.55328126648656
 20
2.551087410813675
 30
0.0
  0
VERTEX
  5
441
  8
DRILL__1_HINGE_MARK
 10
26.54703749007962
 20
2.566161214619857
 30
0.0
  0
VERTEX
  5
442
  8
DRILL__1_HINGE_MARK
 10
26.53710507616742
 20
2.579105383399245
 30
0.0
  0
VERTEX
  5
443
  8
DRILL__1_HINGE_MARK
 10
26.52416090234328
 20
2.589037793440621
 30
0.0
  0
VERTEX
  5
444
  8
DRILL__1_HINGE_MARK
 10
26.50908709266215
 20
2.595281567413739
 30
0.0
  0
VERTEX
  5
445
  8
DRILL__1_HINGE_MARK
 10
26.49291090234323
 20
2.597411202440664
 30
0.0
  0
VERTEX
  5
446
  8
DRILL__1_HINGE_MARK
 10
26.47673471202383
 20
2.595281567413799
 30
0.0
  0
VERTEX
  5
447
  8
DRILL__1_HINGE_MARK
 10
26.46166090234327
 20
2.589037793440614
 30
0.0
  0
VERTEX
  5
448
  8
DRILL__1_HINGE_MARK
 10
26.44871672851892
 20
2.579105383399277
 30
0.0
  0
VERTEX
  5
449
  8
DRILL__1_HINGE_MARK
 10
26.4387843146072
 20
2.566161214619939
 30
0.0
  0
VERTEX
  5
44A
  8
DRILL__1_HINGE_MARK
 10
26.43254053820022
 20
2.551087410813512
 30
0.0
  0
VERTEX
  5
44B
  8
DRILL__1_HINGE_MARK
 10
26.43041090234323
 20
2.534911226799057
 30
0.0
  0
VERTEX
  5
44C
  8
DRILL__1_HINGE_MARK
 10
26.43254053820022
 20
2.518735042784531
 30
0.0
  0
VERTEX
  5
44D
  8
DRILL__1_HINGE_MARK
 10
26.43878431460676
 20
2.503661238978236
 30
0.0
  0
VERTEX
  5
44E
  8
DRILL__1_HINGE_MARK
 10
26.44871672851907
 20
2.490717070198709
 30
0.0
  0
VERTEX
  5
44F
  8
DRILL__1_HINGE_MARK
 10
26.46166090234367
 20
2.480784660157536
 30
0.0
  0
VERTEX
  5
450
  8
DRILL__1_HINGE_MARK
 10
26.47673471202435
 20
2.474540886184361
 30
0.0
  0
VERTEX
  5
451
  8
DRILL__1_HINGE_MARK
 10
26.49291090234359
 20
2.472411251157464
 30
0.0
  0
VERTEX
  5
452
  8
DRILL__1_HINGE_MARK
 10
26.50908709266202
 20
2.474540886184215
 30
0.0
  0
VERTEX
  5
453
  8
DRILL__1_HINGE_MARK
 10
26.52416090234309
 20
2.480784660157543
 30
0.0
  0
VERTEX
  5
454
  8
DRILL__1_HINGE_MARK
 10
26.53710507616744
 20
2.490717070198706
 30
0.0
  0
VERTEX
  5
455
  8
DRILL__1_HINGE_MARK
 10
26.54703749007982
 20
2.503661238978221
 30
0.0
  0
VERTEX
  5
456
  8
DRILL__1_HINGE_MARK
 10
26.55328126648637
 20
2.518735042784567
 30
0.0
  0
VERTEX
  5
457
  8
DRILL__1_HINGE_MARK
 10
26.5554109023431
 20
2.534911226799036
 30
0.0
  0
SEQEND
  5
7A0
  8
DRILL__1_HINGE_MARK
  0
POLYLINE
  5
B5
  8
DRILL__1_HINGE_MARK
 66
     1
 10
0.0
 20
0.0
 30
0.0
 70
     1
  0
VERTEX
  5
458
  8
DRILL__1_HINGE_MARK
 10
9.773665313227234
 20
2.573663895438845
 30
0.0
  0
VERTEX
  5
459
  8
DRILL__1_HINGE_MARK
 10
9.758591503546583
 20
2.579907669412158
 30
0.0
  0
VERTEX
  5
45A
  8
DRILL__1_HINGE_MARK
 10
9.742415313227319
 20
2.582037304439002
 30
0.0
  0
VERTEX
  5
45B
  8
DRILL__1_HINGE_MARK
 10
9.726239122908574
 20
2.579907669412112
 30
0.0
  0
VERTEX
  5
45C
  8
DRILL__1_HINGE_MARK
 10
9.711165313226992
 20
2.573663895438859
 30
0.0
  0
VERTEX
  5
45D
  8
DRILL__1_HINGE_MARK
 10
9.698221139403323
 20
2.563731485397636
 30
0.0
  0
VERTEX
  5
45E
  8
DRILL__1_HINGE_MARK
 10
9.688288725490775
 20
2.550787316618145
 30
0.0
  0
VERTEX
  5
45F
  8
DRILL__1_HINGE_MARK
 10
9.68204494908423
 20
2.535713512811814
 30
0.0
  0
VERTEX
  5
460
  8
DRILL__1_HINGE_MARK
 10
9.679915313227099
 20
2.51953732879732
 30
0.0
  0
VERTEX
  5
461
  8
DRILL__1_HINGE_MARK
 10
9.682044949084254
 20
2.50336114478279
 30
0.0
  0
VERTEX
  5
462
  8
DRILL__1_HINGE_MARK
 10
9.688288725490487
 20
2.488287340976473
 30
0.0
  0
VERTEX
  5
463
  8
DRILL__1_HINGE_MARK
 10
9.698221139403369
 20
2.475343172197231
 30
0.0
  0
VERTEX
  5
464
  8
DRILL__1_HINGE_MARK
 10
9.711165313227394
 20
2.465410762155827
 30
0.0
  0
VERTEX
  5
465
  8
DRILL__1_HINGE_MARK
 10
9.72623912290862
 20
2.459166988182691
 30
0.0
  0
VERTEX
  5
466
  8
DRILL__1_HINGE_MARK
 10
9.742415313227308
 20
2.45703735315578
 30
0.0
  0
VERTEX
  5
467
  8
DRILL__1_HINGE_MARK
 10
9.758591503546398
 20
2.459166988182719
 30
0.0
  0
VERTEX
  5
468
  8
DRILL__1_HINGE_MARK
 10
9.773665313227298
 20
2.465410762155845
 30
0.0
  0
VERTEX
  5
469
  8
DRILL__1_HINGE_MARK
 10
9.786609487051791
 20
2.475343172197238
 30
0.0
  0
VERTEX
  5
46A
  8
DRILL__1_HINGE_MARK
 10
9.796541900963767
 20
2.488287340976509
 30
0.0
  0
VERTEX
  5
46B
  8
DRILL__1_HINGE_MARK
 10
9.802785677370089
 20
2.503361144782875
 30
0.0
  0
VERTEX
  5
46C
  8
DRILL__1_HINGE_MARK
 10
9.80491531322722
 20
2.519537328797306
 30
0.0
  0
VERTEX
  5
46D
  8
DRILL__1_HINGE_MARK
 10
9.802785677370402
 20
2.535713512811892
 30
0.0
  0
VERTEX
  5
46E
  8
DRILL__1_HINGE_MARK
 10
9.796541900963831
 20
2.550787316618155
 30
0.0
  0
VERTEX
  5
46F
  8
DRILL__1_HINGE_MARK
 10
9.786609487051663
 20
2.563731485397714
 30
0.0
  0
SEQEND
  5
7A1
  8
DRILL__1_HINGE_MARK
  0
POLYLINE
  5
B6
  8
DRILL__1_HINGE_MARK
 66
     1
 10
0.0
 20
0.0
 30
0.0
 70
     1
  0
VERTEX
  5
470
  8
DRILL__1_HINGE_MARK
 10
8.482572793530391
 20
2.457035020704915
 30
0.0
  0
VERTEX
  5
471
  8
DRILL__1_HINGE_MARK
 10
8.498748983849111
 20
2.459164655731755
 30
0.0
  0
VERTEX
  5
472
  8
DRILL__1_HINGE_MARK
 10
8.513822793530352
 20
2.465408429704993
 30
0.0
  0
VERTEX
  5
473
  8
DRILL__1_HINGE_MARK
 10
8.526766967354646
 20
2.475340839746245
 30
0.0
  0
VERTEX
  5
474
  8
DRILL__1_HINGE_MARK
 10
8.53669938126702
 20
2.488285008525693
 30
0.0
  0
VERTEX
  5
475
  8
DRILL__1_HINGE_MARK
 10
8.542943157673456
 20
2.503358812332028
 30
0.0
  0
VERTEX
  5
476
  8
DRILL__1_HINGE_MARK
 10
8.545072793530188
 20
2.519534996346508
 30
0.0
  0
VERTEX
  5
477
  8
DRILL__1_HINGE_MARK
 10
8.542943157673655
 20
2.53571118036113
 30
0.0
  0
VERTEX
  5
478
  8
DRILL__1_HINGE_MARK
 10
8.536699381266715
 20
2.550784984167329
 30
0.0
  0
VERTEX
  5
479
  8
DRILL__1_HINGE_MARK
 10
8.526766967354515
 20
2.563729152946731
 30
0.0
  0
VERTEX
  5
47A
  8
DRILL__1_HINGE_MARK
 10
8.513822793530487
 20
2.573661562988097
 30
0.0
  0
VERTEX
  5
47B
  8
DRILL__1_HINGE_MARK
 10
8.498748983849325
 20
2.579905336961229
 30
0.0
  0
VERTEX
  5
47C
  8
DRILL__1_HINGE_MARK
 10
8.482572793530231
 20
2.58203497198814
 30
0.0
  0
VERTEX
  5
47D
  8
DRILL__1_HINGE_MARK
 10
8.466396603211088
 20
2.57990533696125
 30
0.0
  0
VERTEX
  5
47E
  8
DRILL__1_HINGE_MARK
 10
8.451322793530359
 20
2.573661562988089
 30
0.0
  0
VERTEX
  5
47F
  8
DRILL__1_HINGE_MARK
 10
8.438378619706008
 20
2.563729152946738
 30
0.0
  0
VERTEX
  5
480
  8
DRILL__1_HINGE_MARK
 10
8.428446205793971
 20
2.550784984167382
 30
0.0
  0
VERTEX
  5
481
  8
DRILL__1_HINGE_MARK
 10
8.422202429387312
 20
2.53571118036098
 30
0.0
  0
VERTEX
  5
482
  8
DRILL__1_HINGE_MARK
 10
8.420072793530323
 20
2.519534996346529
 30
0.0
  0
VERTEX
  5
483
  8
DRILL__1_HINGE_MARK
 10
8.422202429387308
 20
2.503358812332003
 30
0.0
  0
VERTEX
  5
484
  8
DRILL__1_HINGE_MARK
 10
8.428446205793854
 20
2.488285008525711
 30
0.0
  0
VERTEX
  5
485
  8
DRILL__1_HINGE_MARK
 10
8.438378619706224
 20
2.475340839746227
 30
0.0
  0
VERTEX
  5
486
  8
DRILL__1_HINGE_MARK
 10
8.451322793530618
 20
2.465408429704986
 30
0.0
  0
VERTEX
  5
487
  8
DRILL__1_HINGE_MARK
 10
8.466396603211386
 20
2.459164655731829
 30
0.0
  0
SEQEND
  5
7A2
  8
DRILL__1_HINGE_MARK
  0
POLYLINE
  5
B7
  8
DRILL__1_HINGE_MARK
 66
     1
 10
0.0
 20
0.0
 30
0.0
 70
     1
  0
VERTEX
  5
488
  8
DRILL__1_HINGE_MARK
 10
89.81186956364222
 20
23.15259816870591
 30
0.0
  0
VERTEX
  5
489
  8
DRILL__1_HINGE_MARK
 10
89.80973993315277
 20
23.16877432756975
 30
0.0
  0
VERTEX
  5
48A
  8
DRILL__1_HINGE_MARK
 10
89.80349617170674
 20
23.18384810806661
 30
0.0
  0
VERTEX
  5
48B
  8
DRILL__1_HINGE_MARK
 10
89.79356378132843
 20
23.19679225696587
 30
0.0
  0
VERTEX
  5
48C
  8
DRILL__1_HINGE_MARK
 10
89.78061963800802
 20
23.20672465191129
 30
0.0
  0
VERTEX
  5
48D
  8
DRILL__1_HINGE_MARK
 10
89.76554586372161
 20
23.21296841660117
 30
0.0
  0
VERTEX
  5
48E
  8
DRILL__1_HINGE_MARK
 10
89.74936971127619
 20
23.2150980487909
 30
0.0
  0
VERTEX
  5
48F
  8
DRILL__1_HINGE_MARK
 10
89.73319355872859
 20
23.21296841756516
 30
0.0
  0
VERTEX
  5
490
  8
DRILL__1_HINGE_MARK
 10
89.71811978414262
 20
23.20672465377386
 30
0.0
  0
VERTEX
  5
491
  8
DRILL__1_HINGE_MARK
 10
89.70517564034563
 20
23.19679225959985
 30
0.0
  0
VERTEX
  5
492
  8
DRILL__1_HINGE_MARK
 10
89.69524324934622
 20
23.18384811129283
 30
0.0
  0
VERTEX
  5
493
  8
DRILL__1_HINGE_MARK
 10
89.68899948717697
 20
23.16877433116773
 30
0.0
  0
VERTEX
  5
494
  8
DRILL__1_HINGE_MARK
 10
89.68686985591135
 20
23.15259817243134
 30
0.0
  0
VERTEX
  5
495
  8
DRILL__1_HINGE_MARK
 10
89.68899948640079
 20
23.13642201356666
 30
0.0
  0
VERTEX
  5
496
  8
DRILL__1_HINGE_MARK
 10
89.6952432478467
 20
23.12134823307042
 30
0.0
  0
VERTEX
  5
497
  8
DRILL__1_HINGE_MARK
 10
89.70517563822514
 20
23.10840408417105
 30
0.0
  0
VERTEX
  5
498
  8
DRILL__1_HINGE_MARK
 10
89.71811978154554
 20
23.09847168922586
 30
0.0
  0
VERTEX
  5
499
  8
DRILL__1_HINGE_MARK
 10
89.73319355583197
 20
23.09222792453529
 30
0.0
  0
VERTEX
  5
49A
  8
DRILL__1_HINGE_MARK
 10
89.74936970827741
 20
23.09009829234619
 30
0.0
  0
VERTEX
  5
49B
  8
DRILL__1_HINGE_MARK
 10
89.76554586082494
 20
23.0922279235713
 30
0.0
  0
VERTEX
  5
49C
  8
DRILL__1_HINGE_MARK
 10
89.78061963541097
 20
23.09847168736323
 30
0.0
  0
VERTEX
  5
49D
  8
DRILL__1_HINGE_MARK
 10
89.79356377920797
 20
23.10840408153706
 30
0.0
  0
VERTEX
  5
49E
  8
DRILL__1_HINGE_MARK
 10
89.80349617020734
 20
23.12134822984425
 30
0.0
  0
VERTEX
  5
49F
  8
DRILL__1_HINGE_MARK
 10
89.80973993237662
 20
23.13642200996862
 30
0.0
  0
SEQEND
  5
7A3
  8
DRILL__1_HINGE_MARK
  0
POLYLINE
  5
B8
  8
DRILL__1_HINGE_MARK
 66
     1
 10
0.0
 20
0.0
 30
0.0
 70
     1
  0
VERTEX
  5
4A0
  8
DRILL__1_HINGE_MARK
 10
89.68686972693203
 20
21.38094462916246
 30
0.0
  0
VERTEX
  5
4A1
  8
DRILL__1_HINGE_MARK
 10
89.68899936036807
 20
21.36476844791619
 30
0.0
  0
VERTEX
  5
4A2
  8
DRILL__1_HINGE_MARK
 10
89.69524313045314
 20
21.34969464656353
 30
0.0
  0
VERTEX
  5
4A3
  8
DRILL__1_HINGE_MARK
 10
89.70517553457408
 20
21.33675047975422
 30
0.0
  0
VERTEX
  5
4A4
  8
DRILL__1_HINGE_MARK
 10
89.71811969580453
 20
21.32681807106628
 30
0.0
  0
VERTEX
  5
4A5
  8
DRILL__1_HINGE_MARK
 10
89.73319349094739
 20
21.32057429773677
 30
0.0
  0
VERTEX
  5
4A6
  8
DRILL__1_HINGE_MARK
 10
89.74936966577455
 20
21.31844466260096
 30
0.0
  0
VERTEX
  5
4A7
  8
DRILL__1_HINGE_MARK
 10
89.7655458407039
 20
21.32057429677277
 30
0.0
  0
VERTEX
  5
4A8
  8
DRILL__1_HINGE_MARK
 10
89.78061963614634
 20
21.32681806920371
 30
0.0
  0
VERTEX
  5
4A9
  8
DRILL__1_HINGE_MARK
 10
89.79356379785322
 20
21.33675047711995
 30
0.0
  0
VERTEX
  5
4AA
  8
DRILL__1_HINGE_MARK
 10
89.80349620259535
 20
21.34969464333731
 30
0.0
  0
VERTEX
  5
4AB
  8
DRILL__1_HINGE_MARK
 10
89.80973997340352
 20
21.36476844431815
 30
0.0
  0
VERTEX
  5
4AC
  8
DRILL__1_HINGE_MARK
 10
89.81186960761573
 20
21.3809446254372
 30
0.0
  0
VERTEX
  5
4AD
  8
DRILL__1_HINGE_MARK
 10
89.80973997417979
 20
21.39712080668279
 30
0.0
  0
VERTEX
  5
4AE
  8
DRILL__1_HINGE_MARK
 10
89.80349620409476
 20
21.41219460803618
 30
0.0
  0
VERTEX
  5
4AF
  8
DRILL__1_HINGE_MARK
 10
89.79356379997357
 20
21.42513877484492
 30
0.0
  0
VERTEX
  5
4B0
  8
DRILL__1_HINGE_MARK
 10
89.78061963874346
 20
21.43507118353343
 30
0.0
  0
VERTEX
  5
4B1
  8
DRILL__1_HINGE_MARK
 10
89.7655458436004
 20
21.44131495686238
 30
0.0
  0
VERTEX
  5
4B2
  8
DRILL__1_HINGE_MARK
 10
89.74936966877335
 20
21.44344459199876
 30
0.0
  0
VERTEX
  5
4B3
  8
DRILL__1_HINGE_MARK
 10
89.7331934938439
 20
21.44131495782638
 30
0.0
  0
VERTEX
  5
4B4
  8
DRILL__1_HINGE_MARK
 10
89.71811969840154
 20
21.43507118539601
 30
0.0
  0
VERTEX
  5
4B5
  8
DRILL__1_HINGE_MARK
 10
89.70517553669454
 20
21.42513877747925
 30
0.0
  0
VERTEX
  5
4B6
  8
DRILL__1_HINGE_MARK
 10
89.69524313195265
 20
21.41219461126241
 30
0.0
  0
VERTEX
  5
4B7
  8
DRILL__1_HINGE_MARK
 10
89.68899936114414
 20
21.39712081028082
 30
0.0
  0
SEQEND
  5
7A4
  8
DRILL__1_HINGE_MARK
  0
POLYLINE
  5
B9
  8
DRILL__1_HINGE_MARK
 66
     1
 10
0.0
 20
0.0
 30
0.0
 70
     1
  0
VERTEX
  5
4B8
  8
DRILL__1_HINGE_MARK
 10
89.68655331802874
 20
3.370593393225601
 30
0.0
  0
VERTEX
  5
4B9
  8
DRILL__1_HINGE_MARK
 10
89.68868295146484
 20
3.354417211979762
 30
0.0
  0
VERTEX
  5
4BA
  8
DRILL__1_HINGE_MARK
 10
89.69492672154993
 20
3.339343410626736
 30
0.0
  0
VERTEX
  5
4BB
  8
DRILL__1_HINGE_MARK
 10
89.70485912567096
 20
3.326399243817335
 30
0.0
  0
VERTEX
  5
4BC
  8
DRILL__1_HINGE_MARK
 10
89.71780328690123
 20
3.316466835129422
 30
0.0
  0
VERTEX
  5
4BD
  8
DRILL__1_HINGE_MARK
 10
89.73287708204408
 20
3.310223061800365
 30
0.0
  0
VERTEX
  5
4BE
  8
DRILL__1_HINGE_MARK
 10
89.74905325687135
 20
3.30809342666404
 30
0.0
  0
VERTEX
  5
4BF
  8
DRILL__1_HINGE_MARK
 10
89.76522943180059
 20
3.310223060836027
 30
0.0
  0
VERTEX
  5
4C0
  8
DRILL__1_HINGE_MARK
 10
89.78030322724315
 20
3.316466833266908
 30
0.0
  0
VERTEX
  5
4C1
  8
DRILL__1_HINGE_MARK
 10
89.79324738894991
 20
3.326399241183179
 30
0.0
  0
VERTEX
  5
4C2
  8
DRILL__1_HINGE_MARK
 10
89.80317979369215
 20
3.339343407400396
 30
0.0
  0
VERTEX
  5
4C3
  8
DRILL__1_HINGE_MARK
 10
89.8094235645004
 20
3.354417208381268
 30
0.0
  0
VERTEX
  5
4C4
  8
DRILL__1_HINGE_MARK
 10
89.81155319871262
 20
3.370593389500456
 30
0.0
  0
VERTEX
  5
4C5
  8
DRILL__1_HINGE_MARK
 10
89.80942356527662
 20
3.386769570745901
 30
0.0
  0
VERTEX
  5
4C6
  8
DRILL__1_HINGE_MARK
 10
89.80317979519153
 20
3.401843372099325
 30
0.0
  0
VERTEX
  5
4C7
  8
DRILL__1_HINGE_MARK
 10
89.79324739107041
 20
3.414787538908154
 30
0.0
  0
VERTEX
  5
4C8
  8
DRILL__1_HINGE_MARK
 10
89.78030322984023
 20
3.424719947596635
 30
0.0
  0
VERTEX
  5
4C9
  8
DRILL__1_HINGE_MARK
 10
89.76522943469735
 20
3.430963720925693
 30
0.0
  0
VERTEX
  5
4CA
  8
DRILL__1_HINGE_MARK
 10
89.74905325987015
 20
3.433093356061843
 30
0.0
  0
VERTEX
  5
4CB
  8
DRILL__1_HINGE_MARK
 10
89.73287708494081
 20
3.430963721889974
 30
0.0
  0
VERTEX
  5
4CC
  8
DRILL__1_HINGE_MARK
 10
89.7178032894983
 20
3.424719949459149
 30
0.0
  0
VERTEX
  5
4CD
  8
DRILL__1_HINGE_MARK
 10
89.7048591277915
 20
3.414787541542367
 30
0.0
  0
VERTEX
  5
4CE
  8
DRILL__1_HINGE_MARK
 10
89.69492672304933
 20
3.401843375325608
 30
0.0
  0
VERTEX
  5
4CF
  8
DRILL__1_HINGE_MARK
 10
89.68868295224108
 20
3.386769574344338
 30
0.0
  0
SEQEND
  5
7A5
  8
DRILL__1_HINGE_MARK
  0
POLYLINE
  5
BA
  8
DRILL__1_HINGE_MARK
 66
     1
 10
0.0
 20
0.0
 30
0.0
 70
     1
  0
VERTEX
  5
4D0
  8
DRILL__1_HINGE_MARK
 10
89.68868307827387
 20
5.158423095231292
 30
0.0
  0
VERTEX
  5
4D1
  8
DRILL__1_HINGE_MARK
 10
89.68655344700821
 20
5.142246936494256
 30
0.0
  0
VERTEX
  5
4D2
  8
DRILL__1_HINGE_MARK
 10
89.68868307749759
 20
5.126070777630225
 30
0.0
  0
VERTEX
  5
4D3
  8
DRILL__1_HINGE_MARK
 10
89.69492683894363
 20
5.110996997133675
 30
0.0
  0
VERTEX
  5
4D4
  8
DRILL__1_HINGE_MARK
 10
89.70485922932183
 20
5.098052848234161
 30
0.0
  0
VERTEX
  5
4D5
  8
DRILL__1_HINGE_MARK
 10
89.71780337264234
 20
5.088120453288941
 30
0.0
  0
VERTEX
  5
4D6
  8
DRILL__1_HINGE_MARK
 10
89.73287714692883
 20
5.081876688598946
 30
0.0
  0
VERTEX
  5
4D7
  8
DRILL__1_HINGE_MARK
 10
89.74905329937418
 20
5.079747056409271
 30
0.0
  0
VERTEX
  5
4D8
  8
DRILL__1_HINGE_MARK
 10
89.76522945192168
 20
5.081876687634608
 30
0.0
  0
VERTEX
  5
4D9
  8
DRILL__1_HINGE_MARK
 10
89.78030322650777
 20
5.088120451426427
 30
0.0
  0
VERTEX
  5
4DA
  8
DRILL__1_HINGE_MARK
 10
89.79324737030477
 20
5.098052845600119
 30
0.0
  0
VERTEX
  5
4DB
  8
DRILL__1_HINGE_MARK
 10
89.80317976130404
 20
5.110996993907339
 30
0.0
  0
VERTEX
  5
4DC
  8
DRILL__1_HINGE_MARK
 10
89.80942352347338
 20
5.126070774031934
 30
0.0
  0
VERTEX
  5
4DD
  8
DRILL__1_HINGE_MARK
 10
89.81155315473902
 20
5.142246932769115
 30
0.0
  0
VERTEX
  5
4DE
  8
DRILL__1_HINGE_MARK
 10
89.80942352424955
 20
5.158423091633001
 30
0.0
  0
VERTEX
  5
4DF
  8
DRILL__1_HINGE_MARK
 10
89.80317976280345
 20
5.17349687212975
 30
0.0
  0
VERTEX
  5
4E0
  8
DRILL__1_HINGE_MARK
 10
89.79324737242523
 20
5.186441021028809
 30
0.0
  0
VERTEX
  5
4E1
  8
DRILL__1_HINGE_MARK
 10
89.78030322910472
 20
5.196373415974485
 30
0.0
  0
VERTEX
  5
4E2
  8
DRILL__1_HINGE_MARK
 10
89.76522945481842
 20
5.202617180664479
 30
0.0
  0
VERTEX
  5
4E3
  8
DRILL__1_HINGE_MARK
 10
89.74905330237287
 20
5.204746812854037
 30
0.0
  0
VERTEX
  5
4E4
  8
DRILL__1_HINGE_MARK
 10
89.7328771498254
 20
5.20261718162876
 30
0.0
  0
VERTEX
  5
4E5
  8
DRILL__1_HINGE_MARK
 10
89.71780337523931
 20
5.196373417836998
 30
0.0
  0
VERTEX
  5
4E6
  8
DRILL__1_HINGE_MARK
 10
89.70485923144243
 20
5.186441023662908
 30
0.0
  0
VERTEX
  5
4E7
  8
DRILL__1_HINGE_MARK
 10
89.69492684044302
 20
5.173496875356086
 30
0.0
  0
SEQEND
  5
7A6
  8
DRILL__1_HINGE_MARK
  0
POLYLINE
  5
BB
  8
DRILL__1_HINGE_MARK
 66
     1
 10
0.0
 20
0.0
 30
0.0
 70
     1
  0
VERTEX
  5
4E8
  8
DRILL__1_HINGE_MARK
 10
63.54708976638297
 20
23.12589864758845
 30
0.0
  0
VERTEX
  5
4E9
  8
DRILL__1_HINGE_MARK
 10
63.54921939711345
 20
23.14207480642055
 30
0.0
  0
VERTEX
  5
4EA
  8
DRILL__1_HINGE_MARK
 10
63.55546315878409
 20
23.15714858682437
 30
0.0
  0
VERTEX
  5
4EB
  8
DRILL__1_HINGE_MARK
 10
63.56539554935529
 20
23.17009273557563
 30
0.0
  0
VERTEX
  5
4EC
  8
DRILL__1_HINGE_MARK
 10
63.57833969282369
 20
23.18002513032816
 30
0.0
  0
VERTEX
  5
4ED
  8
DRILL__1_HINGE_MARK
 10
63.59341346720313
 20
23.18626889479343
 30
0.0
  0
VERTEX
  5
4EE
  8
DRILL__1_HINGE_MARK
 10
63.60958961968031
 20
23.18839852674212
 30
0.0
  0
VERTEX
  5
4EF
  8
DRILL__1_HINGE_MARK
 10
63.62576577219616
 20
23.18626889527534
 30
0.0
  0
VERTEX
  5
4F0
  8
DRILL__1_HINGE_MARK
 10
63.64083954668909
 20
23.18002513125942
 30
0.0
  0
VERTEX
  5
4F1
  8
DRILL__1_HINGE_MARK
 10
63.65378369033809
 20
23.17009273689253
 30
0.0
  0
VERTEX
  5
4F2
  8
DRILL__1_HINGE_MARK
 10
63.66371608114461
 20
23.15714858843751
 30
0.0
  0
VERTEX
  5
4F3
  8
DRILL__1_HINGE_MARK
 10
63.66995984308925
 20
23.14207480821937
 30
0.0
  0
VERTEX
  5
4F4
  8
DRILL__1_HINGE_MARK
 10
63.67208947411383
 20
23.12589864945125
 30
0.0
  0
VERTEX
  5
4F5
  8
DRILL__1_HINGE_MARK
 10
63.66995984338335
 20
23.1097224906183
 30
0.0
  0
VERTEX
  5
4F6
  8
DRILL__1_HINGE_MARK
 10
63.66371608171282
 20
23.0946487102151
 30
0.0
  0
VERTEX
  5
4F7
  8
DRILL__1_HINGE_MARK
 10
63.6537836911415
 20
23.08170456146373
 30
0.0
  0
VERTEX
  5
4F8
  8
DRILL__1_HINGE_MARK
 10
63.6408395476731
 20
23.07177216671142
 30
0.0
  0
VERTEX
  5
4F9
  8
DRILL__1_HINGE_MARK
 10
63.62576577329362
 20
23.06552840224547
 30
0.0
  0
VERTEX
  5
4FA
  8
DRILL__1_HINGE_MARK
 10
63.60958962081645
 20
23.06339877029741
 30
0.0
  0
VERTEX
  5
4FB
  8
DRILL__1_HINGE_MARK
 10
63.59341346830065
 20
23.06552840176356
 30
0.0
  0
VERTEX
  5
4FC
  8
DRILL__1_HINGE_MARK
 10
63.57833969380766
 20
23.0717721657801
 30
0.0
  0
VERTEX
  5
4FD
  8
DRILL__1_HINGE_MARK
 10
63.56539555015867
 20
23.08170456014682
 30
0.0
  0
VERTEX
  5
4FE
  8
DRILL__1_HINGE_MARK
 10
63.55546315935219
 20
23.09464870860202
 30
0.0
  0
VERTEX
  5
4FF
  8
DRILL__1_HINGE_MARK
 10
63.54921939740753
 20
23.10972248881942
 30
0.0
  0
SEQEND
  5
7A7
  8
DRILL__1_HINGE_MARK
  0
POLYLINE
  5
BC
  8
DRILL__1_HINGE_MARK
 66
     1
 10
0.0
 20
0.0
 30
0.0
 70
     1
  0
VERTEX
  5
500
  8
DRILL__1_HINGE_MARK
 10
63.67208957669368
 20
21.35424510618237
 30
0.0
  0
VERTEX
  5
501
  8
DRILL__1_HINGE_MARK
 10
63.66995994301661
 20
21.33806892496783
 30
0.0
  0
VERTEX
  5
502
  8
DRILL__1_HINGE_MARK
 10
63.66371617270691
 20
21.32299512370821
 30
0.0
  0
VERTEX
  5
503
  8
DRILL__1_HINGE_MARK
 10
63.65378376839308
 20
21.3100509570469
 30
0.0
  0
VERTEX
  5
504
  8
DRILL__1_HINGE_MARK
 10
63.64083960701463
 20
21.30011854855184
 30
0.0
  0
VERTEX
  5
505
  8
DRILL__1_HINGE_MARK
 10
63.62576581177873
 20
21.29387477544695
 30
0.0
  0
VERTEX
  5
506
  8
DRILL__1_HINGE_MARK
 10
63.60958963691984
 20
21.29174514055218
 30
0.0
  0
VERTEX
  5
507
  8
DRILL__1_HINGE_MARK
 10
63.59341346202223
 20
21.29387477496503
 30
0.0
  0
VERTEX
  5
508
  8
DRILL__1_HINGE_MARK
 10
63.57833966667282
 20
21.30011854762058
 30
0.0
  0
VERTEX
  5
509
  8
DRILL__1_HINGE_MARK
 10
63.56539550511394
 20
21.31005095572971
 30
0.0
  0
VERTEX
  5
50A
  8
DRILL__1_HINGE_MARK
 10
63.55546310056469
 20
21.32299512209507
 30
0.0
  0
VERTEX
  5
50B
  8
DRILL__1_HINGE_MARK
 10
63.54921932998116
 20
21.33806892316895
 30
0.0
  0
VERTEX
  5
50C
  8
DRILL__1_HINGE_MARK
 10
63.54708969600998
 20
21.35424510431973
 30
0.0
  0
VERTEX
  5
50D
  8
DRILL__1_HINGE_MARK
 10
63.54921932968696
 20
21.37042128553358
 30
0.0
  0
VERTEX
  5
50E
  8
DRILL__1_HINGE_MARK
 10
63.55546309999662
 20
21.38549508679394
 30
0.0
  0
VERTEX
  5
50F
  8
DRILL__1_HINGE_MARK
 10
63.56539550431067
 20
21.39843925345469
 30
0.0
  0
VERTEX
  5
510
  8
DRILL__1_HINGE_MARK
 10
63.57833966568879
 20
21.40837166195031
 30
0.0
  0
VERTEX
  5
511
  8
DRILL__1_HINGE_MARK
 10
63.59341346092488
 20
21.41461543505464
 30
0.0
  0
VERTEX
  5
512
  8
DRILL__1_HINGE_MARK
 10
63.60958963578366
 20
21.41674506994998
 30
0.0
  0
VERTEX
  5
513
  8
DRILL__1_HINGE_MARK
 10
63.62576581068139
 20
21.41461543553656
 30
0.0
  0
VERTEX
  5
514
  8
DRILL__1_HINGE_MARK
 10
63.64083960603071
 20
21.40837166288157
 30
0.0
  0
VERTEX
  5
515
  8
DRILL__1_HINGE_MARK
 10
63.6537837675897
 20
21.39843925477194
 30
0.0
  0
VERTEX
  5
516
  8
DRILL__1_HINGE_MARK
 10
63.66371617213872
 20
21.38549508840709
 30
0.0
  0
VERTEX
  5
517
  8
DRILL__1_HINGE_MARK
 10
63.66995994272261
 20
21.37042128733247
 30
0.0
  0
SEQEND
  5
7A8
  8
DRILL__1_HINGE_MARK
  0
POLYLINE
  5
BD
  8
DRILL__1_HINGE_MARK
 66
     1
 10
0.0
 20
0.0
 30
0.0
 70
     1
  0
VERTEX
  5
518
  8
DRILL__1_HINGE_MARK
 10
63.67240571722409
 20
3.343893870240798
 30
0.0
  0
VERTEX
  5
519
  8
DRILL__1_HINGE_MARK
 10
63.67027608354697
 20
3.327717689026688
 30
0.0
  0
VERTEX
  5
51A
  8
DRILL__1_HINGE_MARK
 10
63.66403231323726
 20
3.312643887766701
 30
0.0
  0
VERTEX
  5
51B
  8
DRILL__1_HINGE_MARK
 10
63.65409990892334
 20
3.299699721105306
 30
0.0
  0
VERTEX
  5
51C
  8
DRILL__1_HINGE_MARK
 10
63.64115574754508
 20
3.289767312610277
 30
0.0
  0
VERTEX
  5
51D
  8
DRILL__1_HINGE_MARK
 10
63.62608195230919
 20
3.283523539505833
 30
0.0
  0
VERTEX
  5
51E
  8
DRILL__1_HINGE_MARK
 10
63.60990577745018
 20
3.28139390461055
 30
0.0
  0
VERTEX
  5
51F
  8
DRILL__1_HINGE_MARK
 10
63.59372960255268
 20
3.283523539023577
 30
0.0
  0
VERTEX
  5
520
  8
DRILL__1_HINGE_MARK
 10
63.57865580720316
 20
3.289767311679071
 30
0.0
  0
VERTEX
  5
521
  8
DRILL__1_HINGE_MARK
 10
63.5657116456444
 20
3.299699719788226
 30
0.0
  0
VERTEX
  5
522
  8
DRILL__1_HINGE_MARK
 10
63.55577924109504
 20
3.312643886153442
 30
0.0
  0
VERTEX
  5
523
  8
DRILL__1_HINGE_MARK
 10
63.5495354705114
 20
3.327717687227352
 30
0.0
  0
VERTEX
  5
524
  8
DRILL__1_HINGE_MARK
 10
63.54740583654022
 20
3.343893868378277
 30
0.0
  0
VERTEX
  5
525
  8
DRILL__1_HINGE_MARK
 10
63.54953547021728
 20
3.360070049591986
 30
0.0
  0
VERTEX
  5
526
  8
DRILL__1_HINGE_MARK
 10
63.55577924052699
 20
3.375143850852371
 30
0.0
  0
VERTEX
  5
527
  8
DRILL__1_HINGE_MARK
 10
63.56571164484099
 20
3.388088017513201
 30
0.0
  0
VERTEX
  5
528
  8
DRILL__1_HINGE_MARK
 10
63.57865580621916
 20
3.398020426008802
 30
0.0
  0
VERTEX
  5
529
  8
DRILL__1_HINGE_MARK
 10
63.59372960145508
 20
3.404264199113243
 30
0.0
  0
VERTEX
  5
52A
  8
DRILL__1_HINGE_MARK
 10
63.60990577631401
 20
3.406393834008352
 30
0.0
  0
VERTEX
  5
52B
  8
DRILL__1_HINGE_MARK
 10
63.62608195121162
 20
3.404264199595442
 30
0.0
  0
VERTEX
  5
52C
  8
DRILL__1_HINGE_MARK
 10
63.64115574656108
 20
3.398020426940004
 30
0.0
  0
VERTEX
  5
52D
  8
DRILL__1_HINGE_MARK
 10
63.6540999081199
 20
3.388088018830338
 30
0.0
  0
VERTEX
  5
52E
  8
DRILL__1_HINGE_MARK
 10
63.66403231266918
 20
3.375143852465573
 30
0.0
  0
VERTEX
  5
52F
  8
DRILL__1_HINGE_MARK
 10
63.67027608325282
 20
3.360070051391265
 30
0.0
  0
SEQEND
  5
7A9
  8
DRILL__1_HINGE_MARK
  0
POLYLINE
  5
BE
  8
DRILL__1_HINGE_MARK
 66
     1
 10
0.0
 20
0.0
 30
0.0
 70
     1
  0
VERTEX
  5
530
  8
DRILL__1_HINGE_MARK
 10
63.6702759836195
 20
5.131723572278222
 30
0.0
  0
VERTEX
  5
531
  8
DRILL__1_HINGE_MARK
 10
63.67240561464412
 20
5.11554741350945
 30
0.0
  0
VERTEX
  5
532
  8
DRILL__1_HINGE_MARK
 10
63.67027598391368
 20
5.099371254677155
 30
0.0
  0
VERTEX
  5
533
  8
DRILL__1_HINGE_MARK
 10
63.66403222224304
 20
5.084297474273644
 30
0.0
  0
VERTEX
  5
534
  8
DRILL__1_HINGE_MARK
 10
63.65409983167196
 20
5.071353325522132
 30
0.0
  0
VERTEX
  5
535
  8
DRILL__1_HINGE_MARK
 10
63.64115568820344
 20
5.061420930769795
 30
0.0
  0
VERTEX
  5
536
  8
DRILL__1_HINGE_MARK
 10
63.62608191382391
 20
5.055177166304414
 30
0.0
  0
VERTEX
  5
537
  8
DRILL__1_HINGE_MARK
 10
63.60990576134682
 20
5.05304753435578
 30
0.0
  0
VERTEX
  5
538
  8
DRILL__1_HINGE_MARK
 10
63.59372960883105
 20
5.055177165822158
 30
0.0
  0
VERTEX
  5
539
  8
DRILL__1_HINGE_MARK
 10
63.57865583433801
 20
5.061420929838594
 30
0.0
  0
VERTEX
  5
53A
  8
DRILL__1_HINGE_MARK
 10
63.56571169068901
 20
5.071353324205166
 30
0.0
  0
VERTEX
  5
53B
  8
DRILL__1_HINGE_MARK
 10
63.55577929988263
 20
5.084297472660388
 30
0.0
  0
VERTEX
  5
53C
  8
DRILL__1_HINGE_MARK
 10
63.54953553793789
 20
5.099371252878022
 30
0.0
  0
VERTEX
  5
53D
  8
DRILL__1_HINGE_MARK
 10
63.54740590691331
 20
5.115547411646933
 30
0.0
  0
VERTEX
  5
53E
  8
DRILL__1_HINGE_MARK
 10
63.54953553764382
 20
5.131723570479089
 30
0.0
  0
VERTEX
  5
53F
  8
DRILL__1_HINGE_MARK
 10
63.55577929931452
 20
5.1467973508828
 30
0.0
  0
VERTEX
  5
540
  8
DRILL__1_HINGE_MARK
 10
63.56571168988563
 20
5.159741499633856
 30
0.0
  0
VERTEX
  5
541
  8
DRILL__1_HINGE_MARK
 10
63.57865583335415
 20
5.169673894386651
 30
0.0
  0
VERTEX
  5
542
  8
DRILL__1_HINGE_MARK
 10
63.59372960773348
 20
5.175917658852029
 30
0.0
  0
VERTEX
  5
543
  8
DRILL__1_HINGE_MARK
 10
63.60990576021076
 20
5.178047290800546
 30
0.0
  0
VERTEX
  5
544
  8
DRILL__1_HINGE_MARK
 10
63.62608191272651
 20
5.175917659334228
 30
0.0
  0
VERTEX
  5
545
  8
DRILL__1_HINGE_MARK
 10
63.64115568721955
 20
5.169673895317853
 30
0.0
  0
VERTEX
  5
546
  8
DRILL__1_HINGE_MARK
 10
63.65409983086843
 20
5.159741500950879
 30
0.0
  0
VERTEX
  5
547
  8
DRILL__1_HINGE_MARK
 10
63.66403222167496
 20
5.146797352496055
 30
0.0
  0
SEQEND
  5
7AA
  8
DRILL__1_HINGE_MARK
  0
POLYLINE
  5
C0
  8
INSIDE_LEG_HOLES__725
 66
     1
 10
0.0
 20
0.0
 30
0.0
 70
     1
  0
VERTEX
  5
548
  8
INSIDE_LEG_HOLES__725
 10
2.462536995976187
 20
44.86966952507811
 30
0.0
  0
VERTEX
  5
549
  8
INSIDE_LEG_HOLES__725
 10
2.510773186955667
 20
44.84968944057729
 30
0.0
  0
VERTEX
  5
54A
  8
INSIDE_LEG_HOLES__725
 10
2.552194543193131
 20
44.81790571605761
 30
0.0
  0
VERTEX
  5
54B
  8
INSIDE_LEG_HOLES__725
 10
2.583978267712631
 20
44.77648435982024
 30
0.0
  0
VERTEX
  5
54C
  8
INSIDE_LEG_HOLES__725
 10
2.60395835221356
 20
44.72824816884078
 30
0.0
  0
VERTEX
  5
54D
  8
INSIDE_LEG_HOLES__725
 10
2.610773186955747
 20
44.67648435982026
 30
0.0
  0
VERTEX
  5
54E
  8
INSIDE_LEG_HOLES__725
 10
2.60395835221356
 20
44.62472055079976
 30
0.0
  0
VERTEX
  5
54F
  8
INSIDE_LEG_HOLES__725
 10
2.583978267712631
 20
44.57648435982026
 30
0.0
  0
VERTEX
  5
550
  8
INSIDE_LEG_HOLES__725
 10
2.552194543193018
 20
44.53506300358299
 30
0.0
  0
VERTEX
  5
551
  8
INSIDE_LEG_HOLES__725
 10
2.510773186955724
 20
44.50327927906352
 30
0.0
  0
VERTEX
  5
552
  8
INSIDE_LEG_HOLES__725
 10
2.462536995976215
 20
44.48329919456248
 30
0.0
  0
VERTEX
  5
553
  8
INSIDE_LEG_HOLES__725
 10
2.41077318695573
 20
44.47648435982025
 30
0.0
  0
VERTEX
  5
554
  8
INSIDE_LEG_HOLES__725
 10
2.359009377935244
 20
44.48329919456246
 30
0.0
  0
VERTEX
  5
555
  8
INSIDE_LEG_HOLES__725
 10
2.310773186955736
 20
44.50327927906339
 30
0.0
  0
VERTEX
  5
556
  8
INSIDE_LEG_HOLES__725
 10
2.269351830718442
 20
44.53506300358296
 30
0.0
  0
VERTEX
  5
557
  8
INSIDE_LEG_HOLES__725
 10
2.237568106198857
 20
44.57648435982024
 30
0.0
  0
VERTEX
  5
558
  8
INSIDE_LEG_HOLES__725
 10
2.217588021697928
 20
44.62472055079979
 30
0.0
  0
VERTEX
  5
559
  8
INSIDE_LEG_HOLES__725
 10
2.210773186955741
 20
44.67648435982029
 30
0.0
  0
VERTEX
  5
55A
  8
INSIDE_LEG_HOLES__725
 10
2.217588021697928
 20
44.72824816884081
 30
0.0
  0
VERTEX
  5
55B
  8
INSIDE_LEG_HOLES__725
 10
2.237568106198857
 20
44.77648435982024
 30
0.0
  0
VERTEX
  5
55C
  8
INSIDE_LEG_HOLES__725
 10
2.269351830718499
 20
44.81790571605758
 30
0.0
  0
VERTEX
  5
55D
  8
INSIDE_LEG_HOLES__725
 10
2.310773186955679
 20
44.84968944057717
 30
0.0
  0
VERTEX
  5
55E
  8
INSIDE_LEG_HOLES__725
 10
2.359009377935159
 20
44.86966952507809
 30
0.0
  0
VERTEX
  5
55F
  8
INSIDE_LEG_HOLES__725
 10
2.410773186955645
 20
44.87648435982025
 30
0.0
  0
SEQEND
  5
7AB
  8
INSIDE_LEG_HOLES__725
  0
POLYLINE
  5
C1
  8
INSIDE_LEG_HOLES__725
 66
     1
 10
0.0
 20
0.0
 30
0.0
 70
     1
  0
VERTEX
  5
560
  8
INSIDE_LEG_HOLES__725
 10
27.96077318695426
 20
28.87648436017437
 30
0.0
 42
0.4142135623730951
  0
VERTEX
  5
561
  8
INSIDE_LEG_HOLES__725
 10
27.76077318695236
 20
28.67648436017247
 30
0.0
 42
0.4142135623730951
  0
VERTEX
  5
562
  8
INSIDE_LEG_HOLES__725
 10
27.96077318695426
 20
28.47648436017057
 30
0.0
 42
0.4142135623730951
  0
VERTEX
  5
563
  8
INSIDE_LEG_HOLES__725
 10
28.16077318695616
 20
28.67648436017247
 30
0.0
 42
0.4142135623730951
  0
SEQEND
  5
7AC
  8
INSIDE_LEG_HOLES__725
  0
POLYLINE
  5
C2
  8
INSIDE_LEG_HOLES__725
 66
     1
 10
0.0
 20
0.0
 30
0.0
 70
     1
  0
VERTEX
  5
564
  8
INSIDE_LEG_HOLES__725
 10
2.462536995976244
 20
28.86966952508207
 30
0.0
  0
VERTEX
  5
565
  8
INSIDE_LEG_HOLES__725
 10
2.510773186955724
 20
28.84968944058097
 30
0.0
  0
VERTEX
  5
566
  8
INSIDE_LEG_HOLES__725
 10
2.552194543193046
 20
28.81790571606114
 30
0.0
  0
VERTEX
  5
567
  8
INSIDE_LEG_HOLES__725
 10
2.583978267712631
 20
28.77648435982345
 30
0.0
  0
VERTEX
  5
568
  8
INSIDE_LEG_HOLES__725
 10
2.60395835221356
 20
28.7282481688436
 30
0.0
  0
VERTEX
  5
569
  8
INSIDE_LEG_HOLES__725
 10
2.610773186955747
 20
28.67648435982268
 30
0.0
  0
VERTEX
  5
56A
  8
INSIDE_LEG_HOLES__725
 10
2.603958352213532
 20
28.62472055080177
 30
0.0
  0
VERTEX
  5
56B
  8
INSIDE_LEG_HOLES__725
 10
2.583978267712631
 20
28.57648435982186
 30
0.0
  0
VERTEX
  5
56C
  8
INSIDE_LEG_HOLES__725
 10
2.552194543193018
 20
28.53506300358425
 30
0.0
  0
VERTEX
  5
56D
  8
INSIDE_LEG_HOLES__725
 10
2.510773186955838
 20
28.50327927906441
 30
0.0
  0
VERTEX
  5
56E
  8
INSIDE_LEG_HOLES__725
 10
2.462536995976329
 20
28.48329919456334
 30
0.0
  0
VERTEX
  5
56F
  8
INSIDE_LEG_HOLES__725
 10
2.410773186955844
 20
28.47648435982105
 30
0.0
  0
VERTEX
  5
570
  8
INSIDE_LEG_HOLES__725
 10
2.35900937793533
 20
28.48329919456334
 30
0.0
  0
VERTEX
  5
571
  8
INSIDE_LEG_HOLES__725
 10
2.310773186955849
 20
28.50327927906443
 30
0.0
  0
VERTEX
  5
572
  8
INSIDE_LEG_HOLES__725
 10
2.269351830718414
 20
28.53506300358424
 30
0.0
  0
VERTEX
  5
573
  8
INSIDE_LEG_HOLES__725
 10
2.237568106198829
 20
28.57648435982189
 30
0.0
  0
VERTEX
  5
574
  8
INSIDE_LEG_HOLES__725
 10
2.217588021697928
 20
28.62472055080178
 30
0.0
  0
VERTEX
  5
575
  8
INSIDE_LEG_HOLES__725
 10
2.210773186955741
 20
28.67648435982269
 30
0.0
  0
VERTEX
  5
576
  8
INSIDE_LEG_HOLES__725
 10
2.217588021697928
 20
28.72824816884362
 30
0.0
  0
VERTEX
  5
577
  8
INSIDE_LEG_HOLES__725
 10
2.237568106198857
 20
28.7764843598235
 30
0.0
  0
VERTEX
  5
578
  8
INSIDE_LEG_HOLES__725
 10
2.269351830718442
 20
28.81790571606113
 30
0.0
  0
VERTEX
  5
579
  8
INSIDE_LEG_HOLES__725
 10
2.310773186955736
 20
28.84968944058098
 30
0.0
  0
VERTEX
  5
57A
  8
INSIDE_LEG_HOLES__725
 10
2.359009377935244
 20
28.86966952508207
 30
0.0
  0
VERTEX
  5
57B
  8
INSIDE_LEG_HOLES__725
 10
2.41077318695573
 20
28.87648435982427
 30
0.0
  0
SEQEND
  5
7AD
  8
INSIDE_LEG_HOLES__725
  0
POLYLINE
  5
C3
  8
INSIDE_LEG_HOLES__725
 66
     1
 10
0.0
 20
0.0
 30
0.0
 70
     1
  0
VERTEX
  5
57C
  8
INSIDE_LEG_HOLES__725
 10
28.01253699597577
 20
44.86966952549761
 30
0.0
  0
VERTEX
  5
57D
  8
INSIDE_LEG_HOLES__725
 10
28.0607731869552
 20
44.84968944099656
 30
0.0
  0
VERTEX
  5
57E
  8
INSIDE_LEG_HOLES__725
 10
28.10219454319252
 20
44.8179057164767
 30
0.0
  0
VERTEX
  5
57F
  8
INSIDE_LEG_HOLES__725
 10
28.1339782677121
 20
44.77648436023905
 30
0.0
  0
VERTEX
  5
580
  8
INSIDE_LEG_HOLES__725
 10
28.153958352213
 20
44.72824816925917
 30
0.0
  0
VERTEX
  5
581
  8
INSIDE_LEG_HOLES__725
 10
28.16077318695522
 20
44.67648436023825
 30
0.0
  0
VERTEX
  5
582
  8
INSIDE_LEG_HOLES__725
 10
28.153958352213
 20
44.62472055121734
 30
0.0
  0
VERTEX
  5
583
  8
INSIDE_LEG_HOLES__725
 10
28.1339782677121
 20
44.57648436023744
 30
0.0
  0
VERTEX
  5
584
  8
INSIDE_LEG_HOLES__725
 10
28.10219454319252
 20
44.5350630039998
 30
0.0
  0
VERTEX
  5
585
  8
INSIDE_LEG_HOLES__725
 10
28.06077318695502
 20
44.50327927948
 30
0.0
  0
VERTEX
  5
586
  8
INSIDE_LEG_HOLES__725
 10
28.01253699597554
 20
44.48329919497888
 30
0.0
  0
VERTEX
  5
587
  8
INSIDE_LEG_HOLES__725
 10
27.96077318695506
 20
44.47648436023663
 30
0.0
  0
VERTEX
  5
588
  8
INSIDE_LEG_HOLES__725
 10
27.90900937793452
 20
44.48329919497885
 30
0.0
  0
VERTEX
  5
589
  8
INSIDE_LEG_HOLES__725
 10
27.86077318695509
 20
44.50327927947997
 30
0.0
  0
VERTEX
  5
58A
  8
INSIDE_LEG_HOLES__725
 10
27.81935183071788
 20
44.53506300399981
 30
0.0
  0
VERTEX
  5
58B
  8
INSIDE_LEG_HOLES__725
 10
27.7875681061983
 20
44.57648436023743
 30
0.0
  0
VERTEX
  5
58C
  8
INSIDE_LEG_HOLES__725
 10
27.7675880216974
 20
44.62472055121734
 30
0.0
  0
VERTEX
  5
58D
  8
INSIDE_LEG_HOLES__725
 10
27.76077318695518
 20
44.67648436023825
 30
0.0
  0
VERTEX
  5
58E
  8
INSIDE_LEG_HOLES__725
 10
27.7675880216974
 20
44.72824816925917
 30
0.0
  0
VERTEX
  5
58F
  8
INSIDE_LEG_HOLES__725
 10
27.7875681061983
 20
44.77648436023905
 30
0.0
  0
VERTEX
  5
590
  8
INSIDE_LEG_HOLES__725
 10
27.81935183071788
 20
44.8179057164767
 30
0.0
  0
VERTEX
  5
591
  8
INSIDE_LEG_HOLES__725
 10
27.86077318695521
 20
44.84968944099653
 30
0.0
  0
VERTEX
  5
592
  8
INSIDE_LEG_HOLES__725
 10
27.9090093779348
 20
44.86966952549759
 30
0.0
  0
VERTEX
  5
593
  8
INSIDE_LEG_HOLES__725
 10
27.96077318695529
 20
44.87648436023984
 30
0.0
  0
SEQEND
  5
7AE
  8
INSIDE_LEG_HOLES__725
  0
POLYLINE
  5
C5
  8
PS_PROFILE
 66
     1
 10
0.0
 20
0.0
 30
0.0
  0
VERTEX
  5
594
  8
PS_PROFILE
 10
28.82854743989054
 20
25.94538200549291
 30
0.0
  0
VERTEX
  5
595
  8
PS_PROFILE
 10
27.2285474398906
 20
25.94538200549289
 30
0.0
  0
SEQEND
  5
7AF
  8
PS_PROFILE
  0
POLYLINE
  5
C6
  8
PS_PROFILE
 66
     1
 10
0.0
 20
0.0
 30
0.0
  0
VERTEX
  5
596
  8
PS_PROFILE
 10
28.7481626821606
 20
25.94538200549275
 30
0.0
  0
VERTEX
  5
597
  8
PS_PROFILE
 10
27.2285474398906
 20
25.94538200549289
 30
0.0
  0
SEQEND
  5
7B0
  8
PS_PROFILE
  0
POLYLINE
  5
C7
  8
PS_PROFILE
 66
     1
 10
0.0
 20
0.0
 30
0.0
  0
VERTEX
  5
598
  8
PS_PROFILE
 10
28.74816268216057
 20
25.54538200549273
 30
0.0
  0
VERTEX
  5
599
  8
PS_PROFILE
 10
27.22854743989063
 20
25.54538200549289
 30
0.0
  0
SEQEND
  5
7B1
  8
PS_PROFILE
  0
POLYLINE
  5
C8
  8
PS_PROFILE
 66
     1
 10
0.0
 20
0.0
 30
0.0
  0
VERTEX
  5
59A
  8
PS_PROFILE
 10
27.2285474398906
 20
25.94538200549289
 30
0.0
  0
VERTEX
  5
59B
  8
PS_PROFILE
 10
27.22854743989063
 20
25.54538200549289
 30
0.0
  0
SEQEND
  5
7B2
  8
PS_PROFILE
  0
POLYLINE
  5
C9
  8
PS_PROFILE
 66
     1
 10
0.0
 20
0.0
 30
0.0
  0
VERTEX
  5
59C
  8
PS_PROFILE
 10
28.7481626821606
 20
25.94538200549275
 30
0.0
  0
VERTEX
  5
59D
  8
PS_PROFILE
 10
28.82854743989054
 20
25.94538200549291
 30
0.0
  0
SEQEND
  5
7B3
  8
PS_PROFILE
  0
POLYLINE
  5
CA
  8
PS_PROFILE
 66
     1
 10
0.0
 20
0.0
 30
0.0
  0
VERTEX
  5
59E
  8
PS_PROFILE
 10
28.7481626821606
 20
25.94538200549275
 30
0.0
  0
VERTEX
  5
59F
  8
PS_PROFILE
 10
28.74816268216057
 20
25.54538200549273
 30
0.0
  0
SEQEND
  5
7B4
  8
PS_PROFILE
  0
POLYLINE
  5
CB
  8
PS_PROFILE
 66
     1
 10
0.0
 20
0.0
 30
0.0
  0
VERTEX
  5
5A0
  8
PS_PROFILE
 10
28.82854743989051
 20
25.54538200549294
 30
0.0
  0
VERTEX
  5
5A1
  8
PS_PROFILE
 10
27.22854743989063
 20
25.54538200549289
 30
0.0
  0
SEQEND
  5
7B5
  8
PS_PROFILE
  0
POLYLINE
  5
CC
  8
PS_PROFILE
 66
     1
 10
0.0
 20
0.0
 30
0.0
  0
VERTEX
  5
5A2
  8
PS_PROFILE
 10
28.74816268216057
 20
25.54538200549273
 30
0.0
  0
VERTEX
  5
5A3
  8
PS_PROFILE
 10
28.82854743989051
 20
25.54538200549294
 30
0.0
  0
SEQEND
  5
7B6
  8
PS_PROFILE
  0
POLYLINE
  5
CD
  8
PS_PROFILE
 66
     1
 10
0.0
 20
0.0
 30
0.0
  0
VERTEX
  5
5A4
  8
PS_PROFILE
 10
28.82854743989051
 20
25.54538200549294
 30
0.0
  0
VERTEX
  5
5A5
  8
PS_PROFILE
 10
28.82854743989054
 20
25.94538200549291
 30
0.0
  0
SEQEND
  5
7B7
  8
PS_PROFILE
  0
POLYLINE
  5
CE
  8
PS_PROFILE
 66
     1
 10
0.0
 20
0.0
 30
0.0
  0
VERTEX
  5
5A6
  8
PS_PROFILE
 10
28.82854743989117
 20
46.2203820061426
 30
0.0
  0
VERTEX
  5
5A7
  8
PS_PROFILE
 10
27.22854743989123
 20
46.22038200614259
 30
0.0
  0
SEQEND
  5
7B8
  8
PS_PROFILE
  0
POLYLINE
  5
CF
  8
PS_PROFILE
 66
     1
 10
0.0
 20
0.0
 30
0.0
  0
VERTEX
  5
5A8
  8
PS_PROFILE
 10
28.74816268216122
 20
46.22038200614244
 30
0.0
  0
VERTEX
  5
5A9
  8
PS_PROFILE
 10
27.22854743989123
 20
46.22038200614259
 30
0.0
  0
SEQEND
  5
7B9
  8
PS_PROFILE
  0
POLYLINE
  5
D0
  8
PS_PROFILE
 66
     1
 10
0.0
 20
0.0
 30
0.0
  0
VERTEX
  5
5AA
  8
PS_PROFILE
 10
28.74816268216119
 20
45.82038200614242
 30
0.0
  0
VERTEX
  5
5AB
  8
PS_PROFILE
 10
27.22854743989126
 20
45.82038200614258
 30
0.0
  0
SEQEND
  5
7BA
  8
PS_PROFILE
  0
POLYLINE
  5
D1
  8
PS_PROFILE
 66
     1
 10
0.0
 20
0.0
 30
0.0
  0
VERTEX
  5
5AC
  8
PS_PROFILE
 10
27.22854743989123
 20
46.22038200614259
 30
0.0
  0
VERTEX
  5
5AD
  8
PS_PROFILE
 10
27.22854743989126
 20
45.82038200614258
 30
0.0
  0
SEQEND
  5
7BB
  8
PS_PROFILE
  0
POLYLINE
  5
D2
  8
PS_PROFILE
 66
     1
 10
0.0
 20
0.0
 30
0.0
  0
VERTEX
  5
5AE
  8
PS_PROFILE
 10
28.74816268216122
 20
46.22038200614244
 30
0.0
  0
VERTEX
  5
5AF
  8
PS_PROFILE
 10
28.82854743989117
 20
46.2203820061426
 30
0.0
  0
SEQEND
  5
7BC
  8
PS_PROFILE
  0
POLYLINE
  5
D3
  8
PS_PROFILE
 66
     1
 10
0.0
 20
0.0
 30
0.0
  0
VERTEX
  5
5B0
  8
PS_PROFILE
 10
28.74816268216122
 20
46.22038200614244
 30
0.0
  0
VERTEX
  5
5B1
  8
PS_PROFILE
 10
28.74816268216119
 20
45.82038200614242
 30
0.0
  0
SEQEND
  5
7BD
  8
PS_PROFILE
  0
POLYLINE
  5
D4
  8
PS_PROFILE
 66
     1
 10
0.0
 20
0.0
 30
0.0
  0
VERTEX
  5
5B2
  8
PS_PROFILE
 10
28.82854743989114
 20
45.82038200614264
 30
0.0
  0
VERTEX
  5
5B3
  8
PS_PROFILE
 10
27.22854743989126
 20
45.82038200614258
 30
0.0
  0
SEQEND
  5
7BE
  8
PS_PROFILE
  0
POLYLINE
  5
D5
  8
PS_PROFILE
 66
     1
 10
0.0
 20
0.0
 30
0.0
  0
VERTEX
  5
5B4
  8
PS_PROFILE
 10
28.74816268216119
 20
45.82038200614242
 30
0.0
  0
VERTEX
  5
5B5
  8
PS_PROFILE
 10
28.82854743989114
 20
45.82038200614264
 30
0.0
  0
SEQEND
  5
7BF
  8
PS_PROFILE
  0
POLYLINE
  5
D6
  8
PS_PROFILE
 66
     1
 10
0.0
 20
0.0
 30
0.0
  0
VERTEX
  5
5B6
  8
PS_PROFILE
 10
28.82854743989114
 20
45.82038200614264
 30
0.0
  0
VERTEX
  5
5B7
  8
PS_PROFILE
 10
28.82854743989117
 20
46.2203820061426
 30
0.0
  0
SEQEND
  5
7C0
  8
PS_PROFILE
  0
POLYLINE
  5
D7
  8
PS_PROFILE
 66
     1
 10
0.0
 20
0.0
 30
0.0
  0
VERTEX
  5
5B8
  8
PS_PROFILE
 10
1.542998934018684
 20
26.29538936756209
 30
0.0
  0
VERTEX
  5
5B9
  8
PS_PROFILE
 10
3.142998934018621
 20
26.29538936756211
 30
0.0
  0
SEQEND
  5
7C1
  8
PS_PROFILE
  0
POLYLINE
  5
D8
  8
PS_PROFILE
 66
     1
 10
0.0
 20
0.0
 30
0.0
  0
VERTEX
  5
5BA
  8
PS_PROFILE
 10
1.623383691748629
 20
26.29538936756225
 30
0.0
  0
VERTEX
  5
5BB
  8
PS_PROFILE
 10
3.142998934018621
 20
26.29538936756211
 30
0.0
  0
SEQEND
  5
7C2
  8
PS_PROFILE
  0
POLYLINE
  5
D9
  8
PS_PROFILE
 66
     1
 10
0.0
 20
0.0
 30
0.0
  0
VERTEX
  5
5BC
  8
PS_PROFILE
 10
1.623383691748657
 20
26.69538936756227
 30
0.0
  0
VERTEX
  5
5BD
  8
PS_PROFILE
 10
3.142998934018593
 20
26.69538936756211
 30
0.0
  0
SEQEND
  5
7C3
  8
PS_PROFILE
  0
POLYLINE
  5
DA
  8
PS_PROFILE
 66
     1
 10
0.0
 20
0.0
 30
0.0
  0
VERTEX
  5
5BE
  8
PS_PROFILE
 10
3.142998934018621
 20
26.29538936756211
 30
0.0
  0
VERTEX
  5
5BF
  8
PS_PROFILE
 10
3.142998934018593
 20
26.69538936756211
 30
0.0
  0
SEQEND
  5
7C4
  8
PS_PROFILE
  0
POLYLINE
  5
DB
  8
PS_PROFILE
 66
     1
 10
0.0
 20
0.0
 30
0.0
  0
VERTEX
  5
5C0
  8
PS_PROFILE
 10
1.623383691748629
 20
26.29538936756225
 30
0.0
  0
VERTEX
  5
5C1
  8
PS_PROFILE
 10
1.542998934018684
 20
26.29538936756209
 30
0.0
  0
SEQEND
  5
7C5
  8
PS_PROFILE
  0
POLYLINE
  5
DC
  8
PS_PROFILE
 66
     1
 10
0.0
 20
0.0
 30
0.0
  0
VERTEX
  5
5C2
  8
PS_PROFILE
 10
1.623383691748629
 20
26.29538936756225
 30
0.0
  0
VERTEX
  5
5C3
  8
PS_PROFILE
 10
1.623383691748657
 20
26.69538936756227
 30
0.0
  0
SEQEND
  5
7C6
  8
PS_PROFILE
  0
POLYLINE
  5
DD
  8
PS_PROFILE
 66
     1
 10
0.0
 20
0.0
 30
0.0
  0
VERTEX
  5
5C4
  8
PS_PROFILE
 10
1.542998934018712
 20
26.69538936756205
 30
0.0
  0
VERTEX
  5
5C5
  8
PS_PROFILE
 10
3.142998934018593
 20
26.69538936756211
 30
0.0
  0
SEQEND
  5
7C7
  8
PS_PROFILE
  0
POLYLINE
  5
DE
  8
PS_PROFILE
 66
     1
 10
0.0
 20
0.0
 30
0.0
  0
VERTEX
  5
5C6
  8
PS_PROFILE
 10
1.623383691748657
 20
26.69538936756227
 30
0.0
  0
VERTEX
  5
5C7
  8
PS_PROFILE
 10
1.542998934018712
 20
26.69538936756205
 30
0.0
  0
SEQEND
  5
7C8
  8
PS_PROFILE
  0
POLYLINE
  5
DF
  8
PS_PROFILE
 66
     1
 10
0.0
 20
0.0
 30
0.0
  0
VERTEX
  5
5C8
  8
PS_PROFILE
 10
1.542998934018712
 20
26.69538936756205
 30
0.0
  0
VERTEX
  5
5C9
  8
PS_PROFILE
 10
1.542998934018684
 20
26.29538936756209
 30
0.0
  0
SEQEND
  5
7C9
  8
PS_PROFILE
  0
POLYLINE
  5
E0
  8
PS_PROFILE
 66
     1
 10
0.0
 20
0.0
 30
0.0
  0
VERTEX
  5
5CA
  8
PS_PROFILE
 10
1.542998934019593
 20
45.97038200587296
 30
0.0
  0
VERTEX
  5
5CB
  8
PS_PROFILE
 10
3.142998934019531
 20
45.97038200587295
 30
0.0
  0
SEQEND
  5
7CA
  8
PS_PROFILE
  0
POLYLINE
  5
E1
  8
PS_PROFILE
 66
     1
 10
0.0
 20
0.0
 30
0.0
  0
VERTEX
  5
5CC
  8
PS_PROFILE
 10
1.623383691749538
 20
45.97038200587281
 30
0.0
  0
VERTEX
  5
5CD
  8
PS_PROFILE
 10
3.142998934019531
 20
45.97038200587295
 30
0.0
  0
SEQEND
  5
7CB
  8
PS_PROFILE
  0
POLYLINE
  5
E2
  8
PS_PROFILE
 66
     1
 10
0.0
 20
0.0
 30
0.0
  0
VERTEX
  5
5CE
  8
PS_PROFILE
 10
1.623383691749567
 20
45.57038200587279
 30
0.0
  0
VERTEX
  5
5CF
  8
PS_PROFILE
 10
3.142998934019502
 20
45.57038200587294
 30
0.0
  0
SEQEND
  5
7CC
  8
PS_PROFILE
  0
POLYLINE
  5
E3
  8
PS_PROFILE
 66
     1
 10
0.0
 20
0.0
 30
0.0
  0
VERTEX
  5
5D0
  8
PS_PROFILE
 10
3.142998934019531
 20
45.97038200587295
 30
0.0
  0
VERTEX
  5
5D1
  8
PS_PROFILE
 10
3.142998934019502
 20
45.57038200587294
 30
0.0
  0
SEQEND
  5
7CD
  8
PS_PROFILE
  0
POLYLINE
  5
E4
  8
PS_PROFILE
 66
     1
 10
0.0
 20
0.0
 30
0.0
  0
VERTEX
  5
5D2
  8
PS_PROFILE
 10
1.623383691749538
 20
45.97038200587281
 30
0.0
  0
VERTEX
  5
5D3
  8
PS_PROFILE
 10
1.542998934019593
 20
45.97038200587296
 30
0.0
  0
SEQEND
  5
7CE
  8
PS_PROFILE
  0
POLYLINE
  5
E5
  8
PS_PROFILE
 66
     1
 10
0.0
 20
0.0
 30
0.0
  0
VERTEX
  5
5D4
  8
PS_PROFILE
 10
1.623383691749538
 20
45.97038200587281
 30
0.0
  0
VERTEX
  5
5D5
  8
PS_PROFILE
 10
1.623383691749567
 20
45.57038200587279
 30
0.0
  0
SEQEND
  5
7CF
  8
PS_PROFILE
  0
POLYLINE
  5
E6
  8
PS_PROFILE
 66
     1
 10
0.0
 20
0.0
 30
0.0
  0
VERTEX
  5
5D6
  8
PS_PROFILE
 10
1.542998934019622
 20
45.570382005873
 30
0.0
  0
VERTEX
  5
5D7
  8
PS_PROFILE
 10
3.142998934019502
 20
45.57038200587294
 30
0.0
  0
SEQEND
  5
7D0
  8
PS_PROFILE
  0
POLYLINE
  5
E7
  8
PS_PROFILE
 66
     1
 10
0.0
 20
0.0
 30
0.0
  0
VERTEX
  5
5D8
  8
PS_PROFILE
 10
1.623383691749567
 20
45.57038200587279
 30
0.0
  0
VERTEX
  5
5D9
  8
PS_PROFILE
 10
1.542998934019622
 20
45.570382005873
 30
0.0
  0
SEQEND
  5
7D1
  8
PS_PROFILE
  0
POLYLINE
  5
E8
  8
PS_PROFILE
 66
     1
 10
0.0
 20
0.0
 30
0.0
  0
VERTEX
  5
5DA
  8
PS_PROFILE
 10
1.542998934019622
 20
45.570382005873
 30
0.0
  0
VERTEX
  5
5DB
  8
PS_PROFILE
 10
1.542998934019593
 20
45.97038200587296
 30
0.0
  0
SEQEND
  5
7D2
  8
PS_PROFILE
  0
POLYLINE
  5
E9
  8
PS_PROFILE
 66
     1
 10
0.0
 20
0.0
 30
0.0
  0
VERTEX
  5
5DC
  8
PS_PROFILE
 10
21.73577318695223
 20
46.1281562667578
 30
0.0
  0
VERTEX
  5
5DD
  8
PS_PROFILE
 10
21.73577318694698
 20
44.5281562668427
 30
0.0
  0
SEQEND
  5
7D3
  8
PS_PROFILE
  0
POLYLINE
  5
EA
  8
PS_PROFILE
 66
     1
 10
0.0
 20
0.0
 30
0.0
  0
VERTEX
  5
5DE
  8
PS_PROFILE
 10
21.73577328156072
 20
46.04776841954497
 30
0.0
  0
VERTEX
  5
5DF
  8
PS_PROFILE
 10
21.73577318694698
 20
44.5281562668427
 30
0.0
  0
SEQEND
  5
7D4
  8
PS_PROFILE
  0
POLYLINE
  5
EB
  8
PS_PROFILE
 66
     1
 10
0.0
 20
0.0
 30
0.0
  0
VERTEX
  5
5E0
  8
PS_PROFILE
 10
22.13577328156072
 20
46.04776841954492
 30
0.0
  0
VERTEX
  5
5E1
  8
PS_PROFILE
 10
22.13577318694696
 20
44.52815626684271
 30
0.0
  0
SEQEND
  5
7D5
  8
PS_PROFILE
  0
POLYLINE
  5
EC
  8
PS_PROFILE
 66
     1
 10
0.0
 20
0.0
 30
0.0
  0
VERTEX
  5
5E2
  8
PS_PROFILE
 10
21.73577318694698
 20
44.5281562668427
 30
0.0
  0
VERTEX
  5
5E3
  8
PS_PROFILE
 10
22.13577318694696
 20
44.52815626684271
 30
0.0
  0
SEQEND
  5
7D6
  8
PS_PROFILE
  0
POLYLINE
  5
ED
  8
PS_PROFILE
 66
     1
 10
0.0
 20
0.0
 30
0.0
  0
VERTEX
  5
5E4
  8
PS_PROFILE
 10
21.73577328156072
 20
46.04776841954497
 30
0.0
  0
VERTEX
  5
5E5
  8
PS_PROFILE
 10
21.73577318695223
 20
46.1281562667578
 30
0.0
  0
SEQEND
  5
7D7
  8
PS_PROFILE
  0
POLYLINE
  5
EE
  8
PS_PROFILE
 66
     1
 10
0.0
 20
0.0
 30
0.0
  0
VERTEX
  5
5E6
  8
PS_PROFILE
 10
21.73577328156072
 20
46.04776841954497
 30
0.0
  0
VERTEX
  5
5E7
  8
PS_PROFILE
 10
22.13577328156072
 20
46.04776841954492
 30
0.0
  0
SEQEND
  5
7D8
  8
PS_PROFILE
  0
POLYLINE
  5
EF
  8
PS_PROFILE
 66
     1
 10
0.0
 20
0.0
 30
0.0
  0
VERTEX
  5
5E8
  8
PS_PROFILE
 10
22.13577318695217
 20
46.12815626675776
 30
0.0
  0
VERTEX
  5
5E9
  8
PS_PROFILE
 10
22.13577318694696
 20
44.52815626684271
 30
0.0
  0
SEQEND
  5
7D9
  8
PS_PROFILE
  0
POLYLINE
  5
F0
  8
PS_PROFILE
 66
     1
 10
0.0
 20
0.0
 30
0.0
  0
VERTEX
  5
5EA
  8
PS_PROFILE
 10
22.13577328156072
 20
46.04776841954492
 30
0.0
  0
VERTEX
  5
5EB
  8
PS_PROFILE
 10
22.13577318695217
 20
46.12815626675776
 30
0.0
  0
SEQEND
  5
7DA
  8
PS_PROFILE
  0
POLYLINE
  5
F1
  8
PS_PROFILE
 66
     1
 10
0.0
 20
0.0
 30
0.0
  0
VERTEX
  5
5EC
  8
PS_PROFILE
 10
22.13577318695217
 20
46.12815626675776
 30
0.0
  0
VERTEX
  5
5ED
  8
PS_PROFILE
 10
21.73577318695223
 20
46.1281562667578
 30
0.0
  0
SEQEND
  5
7DB
  8
PS_PROFILE
  0
POLYLINE
  5
F2
  8
PS_PROFILE
 66
     1
 10
0.0
 20
0.0
 30
0.0
  0
VERTEX
  5
5EE
  8
PS_PROFILE
 10
8.231513915045692
 20
46.1281562664542
 30
0.0
  0
VERTEX
  5
5EF
  8
PS_PROFILE
 10
8.231513915045639
 20
44.52815626645426
 30
0.0
  0
SEQEND
  5
7DC
  8
PS_PROFILE
  0
POLYLINE
  5
F3
  8
PS_PROFILE
 66
     1
 10
0.0
 20
0.0
 30
0.0
  0
VERTEX
  5
5F0
  8
PS_PROFILE
 10
8.23151087075363
 20
46.04777150872425
 30
0.0
  0
VERTEX
  5
5F1
  8
PS_PROFILE
 10
8.231513915045639
 20
44.52815626645426
 30
0.0
  0
SEQEND
  5
7DD
  8
PS_PROFILE
  0
POLYLINE
  5
F4
  8
PS_PROFILE
 66
     1
 10
0.0
 20
0.0
 30
0.0
  0
VERTEX
  5
5F2
  8
PS_PROFILE
 10
8.631510870733054
 20
46.04777150872421
 30
0.0
  0
VERTEX
  5
5F3
  8
PS_PROFILE
 10
8.63151391502505
 20
44.52815626645427
 30
0.0
  0
SEQEND
  5
7DE
  8
PS_PROFILE
  0
POLYLINE
  5
F5
  8
PS_PROFILE
 66
     1
 10
0.0
 20
0.0
 30
0.0
  0
VERTEX
  5
5F4
  8
PS_PROFILE
 10
8.231513915045639
 20
44.52815626645426
 30
0.0
  0
VERTEX
  5
5F5
  8
PS_PROFILE
 10
8.63151391502505
 20
44.52815626645427
 30
0.0
  0
SEQEND
  5
7DF
  8
PS_PROFILE
  0
POLYLINE
  5
F6
  8
PS_PROFILE
 66
     1
 10
0.0
 20
0.0
 30
0.0
  0
VERTEX
  5
5F6
  8
PS_PROFILE
 10
8.23151087075363
 20
46.04777150872425
 30
0.0
  0
VERTEX
  5
5F7
  8
PS_PROFILE
 10
8.231513915045692
 20
46.1281562664542
 30
0.0
  0
SEQEND
  5
7E0
  8
PS_PROFILE
  0
POLYLINE
  5
F7
  8
PS_PROFILE
 66
     1
 10
0.0
 20
0.0
 30
0.0
  0
VERTEX
  5
5F8
  8
PS_PROFILE
 10
8.23151087075363
 20
46.04777150872425
 30
0.0
  0
VERTEX
  5
5F9
  8
PS_PROFILE
 10
8.631510870733054
 20
46.04777150872421
 30
0.0
  0
SEQEND
  5
7E1
  8
PS_PROFILE
  0
POLYLINE
  5
F8
  8
PS_PROFILE
 66
     1
 10
0.0
 20
0.0
 30
0.0
  0
VERTEX
  5
5FA
  8
PS_PROFILE
 10
8.63151391502506
 20
46.12815626645416
 30
0.0
  0
VERTEX
  5
5FB
  8
PS_PROFILE
 10
8.63151391502505
 20
44.52815626645427
 30
0.0
  0
SEQEND
  5
7E2
  8
PS_PROFILE
  0
POLYLINE
  5
F9
  8
PS_PROFILE
 66
     1
 10
0.0
 20
0.0
 30
0.0
  0
VERTEX
  5
5FC
  8
PS_PROFILE
 10
8.631510870733054
 20
46.04777150872421
 30
0.0
  0
VERTEX
  5
5FD
  8
PS_PROFILE
 10
8.63151391502506
 20
46.12815626645416
 30
0.0
  0
SEQEND
  5
7E3
  8
PS_PROFILE
  0
POLYLINE
  5
FA
  8
PS_PROFILE
 66
     1
 10
0.0
 20
0.0
 30
0.0
  0
VERTEX
  5
5FE
  8
PS_PROFILE
 10
8.63151391502506
 20
46.12815626645416
 30
0.0
  0
VERTEX
  5
5FF
  8
PS_PROFILE
 10
8.231513915045692
 20
46.1281562664542
 30
0.0
  0
SEQEND
  5
7E4
  8
PS_PROFILE
  0
POLYLINE
  5
FB
  8
PS_PROFILE
 66
     1
 10
0.0
 20
0.0
 30
0.0
  0
VERTEX
  5
600
  8
PS_PROFILE
 10
30.89299893401889
 20
42.8479719145144
 30
0.0
  0
VERTEX
  5
601
  8
PS_PROFILE
 10
32.49299893401883
 20
42.84797191451439
 30
0.0
  0
SEQEND
  5
7E5
  8
PS_PROFILE
  0
POLYLINE
  5
FC
  8
PS_PROFILE
 66
     1
 10
0.0
 20
0.0
 30
0.0
  0
VERTEX
  5
602
  8
PS_PROFILE
 10
30.97338369174884
 20
42.84797191451425
 30
0.0
  0
VERTEX
  5
603
  8
PS_PROFILE
 10
32.49299893401883
 20
42.84797191451439
 30
0.0
  0
SEQEND
  5
7E6
  8
PS_PROFILE
  0
POLYLINE
  5
FD
  8
PS_PROFILE
 66
     1
 10
0.0
 20
0.0
 30
0.0
  0
VERTEX
  5
604
  8
PS_PROFILE
 10
30.97338369174886
 20
42.44797191451423
 30
0.0
  0
VERTEX
  5
605
  8
PS_PROFILE
 10
32.4929989340188
 20
42.44797191451438
 30
0.0
  0
SEQEND
  5
7E7
  8
PS_PROFILE
  0
POLYLINE
  5
FE
  8
PS_PROFILE
 66
     1
 10
0.0
 20
0.0
 30
0.0
  0
VERTEX
  5
606
  8
PS_PROFILE
 10
32.49299893401883
 20
42.84797191451439
 30
0.0
  0
VERTEX
  5
607
  8
PS_PROFILE
 10
32.4929989340188
 20
42.44797191451438
 30
0.0
  0
SEQEND
  5
7E8
  8
PS_PROFILE
  0
POLYLINE
  5
FF
  8
PS_PROFILE
 66
     1
 10
0.0
 20
0.0
 30
0.0
  0
VERTEX
  5
608
  8
PS_PROFILE
 10
30.97338369174884
 20
42.84797191451425
 30
0.0
  0
VERTEX
  5
609
  8
PS_PROFILE
 10
30.89299893401889
 20
42.8479719145144
 30
0.0
  0
SEQEND
  5
7E9
  8
PS_PROFILE
  0
POLYLINE
  5
100
  8
PS_PROFILE
 66
     1
 10
0.0
 20
0.0
 30
0.0
  0
VERTEX
  5
60A
  8
PS_PROFILE
 10
30.97338369174884
 20
42.84797191451425
 30
0.0
  0
VERTEX
  5
60B
  8
PS_PROFILE
 10
30.97338369174886
 20
42.44797191451423
 30
0.0
  0
SEQEND
  5
7EA
  8
PS_PROFILE
  0
POLYLINE
  5
101
  8
PS_PROFILE
 66
     1
 10
0.0
 20
0.0
 30
0.0
  0
VERTEX
  5
60C
  8
PS_PROFILE
 10
30.89299893401892
 20
42.44797191451444
 30
0.0
  0
VERTEX
  5
60D
  8
PS_PROFILE
 10
32.4929989340188
 20
42.44797191451438
 30
0.0
  0
SEQEND
  5
7EB
  8
PS_PROFILE
  0
POLYLINE
  5
102
  8
PS_PROFILE
 66
     1
 10
0.0
 20
0.0
 30
0.0
  0
VERTEX
  5
60E
  8
PS_PROFILE
 10
30.97338369174886
 20
42.44797191451423
 30
0.0
  0
VERTEX
  5
60F
  8
PS_PROFILE
 10
30.89299893401892
 20
42.44797191451444
 30
0.0
  0
SEQEND
  5
7EC
  8
PS_PROFILE
  0
POLYLINE
  5
103
  8
PS_PROFILE
 66
     1
 10
0.0
 20
0.0
 30
0.0
  0
VERTEX
  5
610
  8
PS_PROFILE
 10
30.89299893401892
 20
42.44797191451444
 30
0.0
  0
VERTEX
  5
611
  8
PS_PROFILE
 10
30.89299893401889
 20
42.8479719145144
 30
0.0
  0
SEQEND
  5
7ED
  8
PS_PROFILE
  0
POLYLINE
  5
104
  8
PS_PROFILE
 66
     1
 10
0.0
 20
0.0
 30
0.0
  0
VERTEX
  5
612
  8
PS_PROFILE
 10
30.89299893401888
 20
44.8804719145144
 30
0.0
  0
VERTEX
  5
613
  8
PS_PROFILE
 10
32.49299893401882
 20
44.88047191451439
 30
0.0
  0
SEQEND
  5
7EE
  8
PS_PROFILE
  0
POLYLINE
  5
105
  8
PS_PROFILE
 66
     1
 10
0.0
 20
0.0
 30
0.0
  0
VERTEX
  5
614
  8
PS_PROFILE
 10
30.97338369174883
 20
44.88047191451425
 30
0.0
  0
VERTEX
  5
615
  8
PS_PROFILE
 10
32.49299893401882
 20
44.88047191451439
 30
0.0
  0
SEQEND
  5
7EF
  8
PS_PROFILE
  0
POLYLINE
  5
106
  8
PS_PROFILE
 66
     1
 10
0.0
 20
0.0
 30
0.0
  0
VERTEX
  5
616
  8
PS_PROFILE
 10
30.97338369174886
 20
44.48047191451423
 30
0.0
  0
VERTEX
  5
617
  8
PS_PROFILE
 10
32.49299893401879
 20
44.48047191451438
 30
0.0
  0
SEQEND
  5
7F0
  8
PS_PROFILE
  0
POLYLINE
  5
107
  8
PS_PROFILE
 66
     1
 10
0.0
 20
0.0
 30
0.0
  0
VERTEX
  5
618
  8
PS_PROFILE
 10
32.49299893401882
 20
44.88047191451439
 30
0.0
  0
VERTEX
  5
619
  8
PS_PROFILE
 10
32.49299893401879
 20
44.48047191451438
 30
0.0
  0
SEQEND
  5
7F1
  8
PS_PROFILE
  0
POLYLINE
  5
108
  8
PS_PROFILE
 66
     1
 10
0.0
 20
0.0
 30
0.0
  0
VERTEX
  5
61A
  8
PS_PROFILE
 10
30.97338369174883
 20
44.88047191451425
 30
0.0
  0
VERTEX
  5
61B
  8
PS_PROFILE
 10
30.89299893401888
 20
44.8804719145144
 30
0.0
  0
SEQEND
  5
7F2
  8
PS_PROFILE
  0
POLYLINE
  5
109
  8
PS_PROFILE
 66
     1
 10
0.0
 20
0.0
 30
0.0
  0
VERTEX
  5
61C
  8
PS_PROFILE
 10
30.97338369174883
 20
44.88047191451425
 30
0.0
  0
VERTEX
  5
61D
  8
PS_PROFILE
 10
30.97338369174886
 20
44.48047191451423
 30
0.0
  0
SEQEND
  5
7F3
  8
PS_PROFILE
  0
POLYLINE
  5
10A
  8
PS_PROFILE
 66
     1
 10
0.0
 20
0.0
 30
0.0
  0
VERTEX
  5
61E
  8
PS_PROFILE
 10
30.89299893401891
 20
44.48047191451444
 30
0.0
  0
VERTEX
  5
61F
  8
PS_PROFILE
 10
32.49299893401879
 20
44.48047191451438
 30
0.0
  0
SEQEND
  5
7F4
  8
PS_PROFILE
  0
POLYLINE
  5
10B
  8
PS_PROFILE
 66
     1
 10
0.0
 20
0.0
 30
0.0
  0
VERTEX
  5
620
  8
PS_PROFILE
 10
30.97338369174886
 20
44.48047191451423
 30
0.0
  0
VERTEX
  5
621
  8
PS_PROFILE
 10
30.89299893401891
 20
44.48047191451444
 30
0.0
  0
SEQEND
  5
7F5
  8
PS_PROFILE
  0
POLYLINE
  5
10C
  8
PS_PROFILE
 66
     1
 10
0.0
 20
0.0
 30
0.0
  0
VERTEX
  5
622
  8
PS_PROFILE
 10
30.89299893401891
 20
44.48047191451444
 30
0.0
  0
VERTEX
  5
623
  8
PS_PROFILE
 10
30.89299893401888
 20
44.8804719145144
 30
0.0
  0
SEQEND
  5
7F6
  8
PS_PROFILE
  0
POLYLINE
  5
10D
  8
PS_PROFILE
 66
     1
 10
0.0
 20
0.0
 30
0.0
  0
VERTEX
  5
624
  8
PS_PROFILE
 10
58.17854743989139
 20
42.8479719145144
 30
0.0
  0
VERTEX
  5
625
  8
PS_PROFILE
 10
56.57854743989145
 20
42.84797191451439
 30
0.0
  0
SEQEND
  5
7F7
  8
PS_PROFILE
  0
POLYLINE
  5
10E
  8
PS_PROFILE
 66
     1
 10
0.0
 20
0.0
 30
0.0
  0
VERTEX
  5
626
  8
PS_PROFILE
 10
58.09816268216144
 20
42.84797191451425
 30
0.0
  0
VERTEX
  5
627
  8
PS_PROFILE
 10
56.57854743989145
 20
42.84797191451439
 30
0.0
  0
SEQEND
  5
7F8
  8
PS_PROFILE
  0
POLYLINE
  5
10F
  8
PS_PROFILE
 66
     1
 10
0.0
 20
0.0
 30
0.0
  0
VERTEX
  5
628
  8
PS_PROFILE
 10
58.09816268216142
 20
42.44797191451423
 30
0.0
  0
VERTEX
  5
629
  8
PS_PROFILE
 10
56.57854743989148
 20
42.44797191451438
 30
0.0
  0
SEQEND
  5
7F9
  8
PS_PROFILE
  0
POLYLINE
  5
110
  8
PS_PROFILE
 66
     1
 10
0.0
 20
0.0
 30
0.0
  0
VERTEX
  5
62A
  8
PS_PROFILE
 10
56.57854743989145
 20
42.84797191451439
 30
0.0
  0
VERTEX
  5
62B
  8
PS_PROFILE
 10
56.57854743989148
 20
42.44797191451438
 30
0.0
  0
SEQEND
  5
7FA
  8
PS_PROFILE
  0
POLYLINE
  5
111
  8
PS_PROFILE
 66
     1
 10
0.0
 20
0.0
 30
0.0
  0
VERTEX
  5
62C
  8
PS_PROFILE
 10
58.09816268216144
 20
42.84797191451425
 30
0.0
  0
VERTEX
  5
62D
  8
PS_PROFILE
 10
58.17854743989139
 20
42.8479719145144
 30
0.0
  0
SEQEND
  5
7FB
  8
PS_PROFILE
  0
POLYLINE
  5
112
  8
PS_PROFILE
 66
     1
 10
0.0
 20
0.0
 30
0.0
  0
VERTEX
  5
62E
  8
PS_PROFILE
 10
58.09816268216144
 20
42.84797191451425
 30
0.0
  0
VERTEX
  5
62F
  8
PS_PROFILE
 10
58.09816268216142
 20
42.44797191451423
 30
0.0
  0
SEQEND
  5
7FC
  8
PS_PROFILE
  0
POLYLINE
  5
113
  8
PS_PROFILE
 66
     1
 10
0.0
 20
0.0
 30
0.0
  0
VERTEX
  5
630
  8
PS_PROFILE
 10
58.17854743989136
 20
42.44797191451444
 30
0.0
  0
VERTEX
  5
631
  8
PS_PROFILE
 10
56.57854743989148
 20
42.44797191451438
 30
0.0
  0
SEQEND
  5
7FD
  8
PS_PROFILE
  0
POLYLINE
  5
114
  8
PS_PROFILE
 66
     1
 10
0.0
 20
0.0
 30
0.0
  0
VERTEX
  5
632
  8
PS_PROFILE
 10
58.09816268216142
 20
42.44797191451423
 30
0.0
  0
VERTEX
  5
633
  8
PS_PROFILE
 10
58.17854743989136
 20
42.44797191451444
 30
0.0
  0
SEQEND
  5
7FE
  8
PS_PROFILE
  0
POLYLINE
  5
115
  8
PS_PROFILE
 66
     1
 10
0.0
 20
0.0
 30
0.0
  0
VERTEX
  5
634
  8
PS_PROFILE
 10
58.17854743989136
 20
42.44797191451444
 30
0.0
  0
VERTEX
  5
635
  8
PS_PROFILE
 10
58.17854743989139
 20
42.8479719145144
 30
0.0
  0
SEQEND
  5
7FF
  8
PS_PROFILE
  0
POLYLINE
  5
116
  8
PS_PROFILE
 66
     1
 10
0.0
 20
0.0
 30
0.0
  0
VERTEX
  5
636
  8
PS_PROFILE
 10
58.17854743989139
 20
44.8804719145144
 30
0.0
  0
VERTEX
  5
637
  8
PS_PROFILE
 10
56.57854743989145
 20
44.88047191451439
 30
0.0
  0
SEQEND
  5
800
  8
PS_PROFILE
  0
POLYLINE
  5
117
  8
PS_PROFILE
 66
     1
 10
0.0
 20
0.0
 30
0.0
  0
VERTEX
  5
638
  8
PS_PROFILE
 10
58.09816268216144
 20
44.88047191451425
 30
0.0
  0
VERTEX
  5
639
  8
PS_PROFILE
 10
56.57854743989145
 20
44.88047191451439
 30
0.0
  0
SEQEND
  5
801
  8
PS_PROFILE
  0
POLYLINE
  5
118
  8
PS_PROFILE
 66
     1
 10
0.0
 20
0.0
 30
0.0
  0
VERTEX
  5
63A
  8
PS_PROFILE
 10
58.09816268216142
 20
44.48047191451423
 30
0.0
  0
VERTEX
  5
63B
  8
PS_PROFILE
 10
56.57854743989148
 20
44.48047191451438
 30
0.0
  0
SEQEND
  5
802
  8
PS_PROFILE
  0
POLYLINE
  5
119
  8
PS_PROFILE
 66
     1
 10
0.0
 20
0.0
 30
0.0
  0
VERTEX
  5
63C
  8
PS_PROFILE
 10
56.57854743989145
 20
44.88047191451439
 30
0.0
  0
VERTEX
  5
63D
  8
PS_PROFILE
 10
56.57854743989148
 20
44.48047191451438
 30
0.0
  0
SEQEND
  5
803
  8
PS_PROFILE
  0
POLYLINE
  5
11A
  8
PS_PROFILE
 66
     1
 10
0.0
 20
0.0
 30
0.0
  0
VERTEX
  5
63E
  8
PS_PROFILE
 10
58.09816268216144
 20
44.88047191451425
 30
0.0
  0
VERTEX
  5
63F
  8
PS_PROFILE
 10
58.17854743989139
 20
44.8804719145144
 30
0.0
  0
SEQEND
  5
804
  8
PS_PROFILE
  0
POLYLINE
  5
11B
  8
PS_PROFILE
 66
     1
 10
0.0
 20
0.0
 30
0.0
  0
VERTEX
  5
640
  8
PS_PROFILE
 10
58.09816268216144
 20
44.88047191451425
 30
0.0
  0
VERTEX
  5
641
  8
PS_PROFILE
 10
58.09816268216142
 20
44.48047191451423
 30
0.0
  0
SEQEND
  5
805
  8
PS_PROFILE
  0
POLYLINE
  5
11C
  8
PS_PROFILE
 66
     1
 10
0.0
 20
0.0
 30
0.0
  0
VERTEX
  5
642
  8
PS_PROFILE
 10
58.17854743989136
 20
44.48047191451444
 30
0.0
  0
VERTEX
  5
643
  8
PS_PROFILE
 10
56.57854743989148
 20
44.48047191451438
 30
0.0
  0
SEQEND
  5
806
  8
PS_PROFILE
  0
POLYLINE
  5
11D
  8
PS_PROFILE
 66
     1
 10
0.0
 20
0.0
 30
0.0
  0
VERTEX
  5
644
  8
PS_PROFILE
 10
58.09816268216142
 20
44.48047191451423
 30
0.0
  0
VERTEX
  5
645
  8
PS_PROFILE
 10
58.17854743989136
 20
44.48047191451444
 30
0.0
  0
SEQEND
  5
807
  8
PS_PROFILE
  0
POLYLINE
  5
11E
  8
PS_PROFILE
 66
     1
 10
0.0
 20
0.0
 30
0.0
  0
VERTEX
  5
646
  8
PS_PROFILE
 10
58.17854743989136
 20
44.48047191451444
 30
0.0
  0
VERTEX
  5
647
  8
PS_PROFILE
 10
58.17854743989139
 20
44.8804719145144
 30
0.0
  0
SEQEND
  5
808
  8
PS_PROFILE
  0
POLYLINE
  5
11F
  8
PS_PROFILE
 66
     1
 10
0.0
 20
0.0
 30
0.0
  0
VERTEX
  5
648
  8
PS_PROFILE
 10
93.15025762371924
 20
28.46734983831665
 30
0.0
  0
VERTEX
  5
649
  8
PS_PROFILE
 10
93.15025762371924
 20
26.86734983831672
 30
0.0
  0
SEQEND
  5
809
  8
PS_PROFILE
  0
POLYLINE
  5
120
  8
PS_PROFILE
 66
     1
 10
0.0
 20
0.0
 30
0.0
  0
VERTEX
  5
64A
  8
PS_PROFILE
 10
93.15025762371909
 20
28.38696508058671
 30
0.0
  0
VERTEX
  5
64B
  8
PS_PROFILE
 10
93.15025762371924
 20
26.86734983831672
 30
0.0
  0
SEQEND
  5
80A
  8
PS_PROFILE
  0
POLYLINE
  5
121
  8
PS_PROFILE
 66
     1
 10
0.0
 20
0.0
 30
0.0
  0
VERTEX
  5
64C
  8
PS_PROFILE
 10
92.75025762371907
 20
28.38696508058668
 30
0.0
  0
VERTEX
  5
64D
  8
PS_PROFILE
 10
92.75025762371924
 20
26.86734983831674
 30
0.0
  0
SEQEND
  5
80B
  8
PS_PROFILE
  0
POLYLINE
  5
122
  8
PS_PROFILE
 66
     1
 10
0.0
 20
0.0
 30
0.0
  0
VERTEX
  5
64E
  8
PS_PROFILE
 10
93.15025762371924
 20
26.86734983831672
 30
0.0
  0
VERTEX
  5
64F
  8
PS_PROFILE
 10
92.75025762371924
 20
26.86734983831674
 30
0.0
  0
SEQEND
  5
80C
  8
PS_PROFILE
  0
POLYLINE
  5
123
  8
PS_PROFILE
 66
     1
 10
0.0
 20
0.0
 30
0.0
  0
VERTEX
  5
650
  8
PS_PROFILE
 10
93.15025762371909
 20
28.38696508058671
 30
0.0
  0
VERTEX
  5
651
  8
PS_PROFILE
 10
93.15025762371924
 20
28.46734983831665
 30
0.0
  0
SEQEND
  5
80D
  8
PS_PROFILE
  0
POLYLINE
  5
124
  8
PS_PROFILE
 66
     1
 10
0.0
 20
0.0
 30
0.0
  0
VERTEX
  5
652
  8
PS_PROFILE
 10
93.15025762371909
 20
28.38696508058671
 30
0.0
  0
VERTEX
  5
653
  8
PS_PROFILE
 10
92.75025762371907
 20
28.38696508058668
 30
0.0
  0
SEQEND
  5
80E
  8
PS_PROFILE
  0
POLYLINE
  5
125
  8
PS_PROFILE
 66
     1
 10
0.0
 20
0.0
 30
0.0
  0
VERTEX
  5
654
  8
PS_PROFILE
 10
92.75025762371928
 20
28.46734983831663
 30
0.0
  0
VERTEX
  5
655
  8
PS_PROFILE
 10
92.75025762371924
 20
26.86734983831674
 30
0.0
  0
SEQEND
  5
80F
  8
PS_PROFILE
  0
POLYLINE
  5
126
  8
PS_PROFILE
 66
     1
 10
0.0
 20
0.0
 30
0.0
  0
VERTEX
  5
656
  8
PS_PROFILE
 10
92.75025762371907
 20
28.38696508058668
 30
0.0
  0
VERTEX
  5
657
  8
PS_PROFILE
 10
92.75025762371928
 20
28.46734983831663
 30
0.0
  0
SEQEND
  5
810
  8
PS_PROFILE
  0
POLYLINE
  5
127
  8
PS_PROFILE
 66
     1
 10
0.0
 20
0.0
 30
0.0
  0
VERTEX
  5
658
  8
PS_PROFILE
 10
92.75025762371928
 20
28.46734983831663
 30
0.0
  0
VERTEX
  5
659
  8
PS_PROFILE
 10
93.15025762371924
 20
28.46734983831665
 30
0.0
  0
SEQEND
  5
811
  8
PS_PROFILE
  0
POLYLINE
  5
128
  8
PS_PROFILE
 66
     1
 10
0.0
 20
0.0
 30
0.0
  0
VERTEX
  5
65A
  8
PS_PROFILE
 10
95.18275762371924
 20
28.46734983831667
 30
0.0
  0
VERTEX
  5
65B
  8
PS_PROFILE
 10
95.18275762371924
 20
26.86734983831673
 30
0.0
  0
SEQEND
  5
812
  8
PS_PROFILE
  0
POLYLINE
  5
129
  8
PS_PROFILE
 66
     1
 10
0.0
 20
0.0
 30
0.0
  0
VERTEX
  5
65C
  8
PS_PROFILE
 10
95.18275762371908
 20
28.38696508058672
 30
0.0
  0
VERTEX
  5
65D
  8
PS_PROFILE
 10
95.18275762371924
 20
26.86734983831673
 30
0.0
  0
SEQEND
  5
813
  8
PS_PROFILE
  0
POLYLINE
  5
12A
  8
PS_PROFILE
 66
     1
 10
0.0
 20
0.0
 30
0.0
  0
VERTEX
  5
65E
  8
PS_PROFILE
 10
94.78275762371906
 20
28.38696508058669
 30
0.0
  0
VERTEX
  5
65F
  8
PS_PROFILE
 10
94.78275762371923
 20
26.86734983831676
 30
0.0
  0
SEQEND
  5
814
  8
PS_PROFILE
  0
POLYLINE
  5
12B
  8
PS_PROFILE
 66
     1
 10
0.0
 20
0.0
 30
0.0
  0
VERTEX
  5
660
  8
PS_PROFILE
 10
95.18275762371924
 20
26.86734983831673
 30
0.0
  0
VERTEX
  5
661
  8
PS_PROFILE
 10
94.78275762371923
 20
26.86734983831676
 30
0.0
  0
SEQEND
  5
815
  8
PS_PROFILE
  0
POLYLINE
  5
12C
  8
PS_PROFILE
 66
     1
 10
0.0
 20
0.0
 30
0.0
  0
VERTEX
  5
662
  8
PS_PROFILE
 10
95.18275762371908
 20
28.38696508058672
 30
0.0
  0
VERTEX
  5
663
  8
PS_PROFILE
 10
95.18275762371924
 20
28.46734983831667
 30
0.0
  0
SEQEND
  5
816
  8
PS_PROFILE
  0
POLYLINE
  5
12D
  8
PS_PROFILE
 66
     1
 10
0.0
 20
0.0
 30
0.0
  0
VERTEX
  5
664
  8
PS_PROFILE
 10
95.18275762371908
 20
28.38696508058672
 30
0.0
  0
VERTEX
  5
665
  8
PS_PROFILE
 10
94.78275762371906
 20
28.38696508058669
 30
0.0
  0
SEQEND
  5
817
  8
PS_PROFILE
  0
POLYLINE
  5
12E
  8
PS_PROFILE
 66
     1
 10
0.0
 20
0.0
 30
0.0
  0
VERTEX
  5
666
  8
PS_PROFILE
 10
94.78275762371928
 20
28.46734983831664
 30
0.0
  0
VERTEX
  5
667
  8
PS_PROFILE
 10
94.78275762371923
 20
26.86734983831676
 30
0.0
  0
SEQEND
  5
818
  8
PS_PROFILE
  0
POLYLINE
  5
12F
  8
PS_PROFILE
 66
     1
 10
0.0
 20
0.0
 30
0.0
  0
VERTEX
  5
668
  8
PS_PROFILE
 10
94.78275762371906
 20
28.38696508058669
 30
0.0
  0
VERTEX
  5
669
  8
PS_PROFILE
 10
94.78275762371928
 20
28.46734983831664
 30
0.0
  0
SEQEND
  5
819
  8
PS_PROFILE
  0
POLYLINE
  5
130
  8
PS_PROFILE
 66
     1
 10
0.0
 20
0.0
 30
0.0
  0
VERTEX
  5
66A
  8
PS_PROFILE
 10
94.78275762371928
 20
28.46734983831664
 30
0.0
  0
VERTEX
  5
66B
  8
PS_PROFILE
 10
95.18275762371924
 20
28.46734983831667
 30
0.0
  0
SEQEND
  5
81A
  8
PS_PROFILE
  0
POLYLINE
  5
131
  8
PS_PROFILE
 66
     1
 10
0.0
 20
0.0
 30
0.0
  0
VERTEX
  5
66C
  8
PS_PROFILE
 10
93.15025762371941
 20
1.181801332444156
 30
0.0
  0
VERTEX
  5
66D
  8
PS_PROFILE
 10
93.15025762371938
 20
2.781801332444093
 30
0.0
  0
SEQEND
  5
81B
  8
PS_PROFILE
  0
POLYLINE
  5
132
  8
PS_PROFILE
 66
     1
 10
0.0
 20
0.0
 30
0.0
  0
VERTEX
  5
66E
  8
PS_PROFILE
 10
93.15025762371926
 20
1.262186090174101
 30
0.0
  0
VERTEX
  5
66F
  8
PS_PROFILE
 10
93.15025762371938
 20
2.781801332444093
 30
0.0
  0
SEQEND
  5
81C
  8
PS_PROFILE
  0
POLYLINE
  5
133
  8
PS_PROFILE
 66
     1
 10
0.0
 20
0.0
 30
0.0
  0
VERTEX
  5
670
  8
PS_PROFILE
 10
92.75025762371924
 20
1.262186090174126
 30
0.0
  0
VERTEX
  5
671
  8
PS_PROFILE
 10
92.75025762371938
 20
2.781801332444061
 30
0.0
  0
SEQEND
  5
81D
  8
PS_PROFILE
  0
POLYLINE
  5
134
  8
PS_PROFILE
 66
     1
 10
0.0
 20
0.0
 30
0.0
  0
VERTEX
  5
672
  8
PS_PROFILE
 10
93.15025762371938
 20
2.781801332444093
 30
0.0
  0
VERTEX
  5
673
  8
PS_PROFILE
 10
92.75025762371938
 20
2.781801332444061
 30
0.0
  0
SEQEND
  5
81E
  8
PS_PROFILE
  0
POLYLINE
  5
135
  8
PS_PROFILE
 66
     1
 10
0.0
 20
0.0
 30
0.0
  0
VERTEX
  5
674
  8
PS_PROFILE
 10
93.15025762371926
 20
1.262186090174101
 30
0.0
  0
VERTEX
  5
675
  8
PS_PROFILE
 10
93.15025762371941
 20
1.181801332444156
 30
0.0
  0
SEQEND
  5
81F
  8
PS_PROFILE
  0
POLYLINE
  5
136
  8
PS_PROFILE
 66
     1
 10
0.0
 20
0.0
 30
0.0
  0
VERTEX
  5
676
  8
PS_PROFILE
 10
93.15025762371926
 20
1.262186090174101
 30
0.0
  0
VERTEX
  5
677
  8
PS_PROFILE
 10
92.75025762371924
 20
1.262186090174126
 30
0.0
  0
SEQEND
  5
820
  8
PS_PROFILE
  0
POLYLINE
  5
137
  8
PS_PROFILE
 66
     1
 10
0.0
 20
0.0
 30
0.0
  0
VERTEX
  5
678
  8
PS_PROFILE
 10
92.75025762371945
 20
1.181801332444181
 30
0.0
  0
VERTEX
  5
679
  8
PS_PROFILE
 10
92.75025762371938
 20
2.781801332444061
 30
0.0
  0
SEQEND
  5
821
  8
PS_PROFILE
  0
POLYLINE
  5
138
  8
PS_PROFILE
 66
     1
 10
0.0
 20
0.0
 30
0.0
  0
VERTEX
  5
67A
  8
PS_PROFILE
 10
92.75025762371924
 20
1.262186090174126
 30
0.0
  0
VERTEX
  5
67B
  8
PS_PROFILE
 10
92.75025762371945
 20
1.181801332444181
 30
0.0
  0
SEQEND
  5
822
  8
PS_PROFILE
  0
POLYLINE
  5
139
  8
PS_PROFILE
 66
     1
 10
0.0
 20
0.0
 30
0.0
  0
VERTEX
  5
67C
  8
PS_PROFILE
 10
92.75025762371945
 20
1.181801332444181
 30
0.0
  0
VERTEX
  5
67D
  8
PS_PROFILE
 10
93.15025762371941
 20
1.181801332444156
 30
0.0
  0
SEQEND
  5
823
  8
PS_PROFILE
  0
POLYLINE
  5
13A
  8
PS_PROFILE
 66
     1
 10
0.0
 20
0.0
 30
0.0
  0
VERTEX
  5
67E
  8
PS_PROFILE
 10
95.18275762371941
 20
1.18180133244417
 30
0.0
  0
VERTEX
  5
67F
  8
PS_PROFILE
 10
95.18275762371938
 20
2.781801332444108
 30
0.0
  0
SEQEND
  5
824
  8
PS_PROFILE
  0
POLYLINE
  5
13B
  8
PS_PROFILE
 66
     1
 10
0.0
 20
0.0
 30
0.0
  0
VERTEX
  5
680
  8
PS_PROFILE
 10
95.18275762371925
 20
1.262186090174115
 30
0.0
  0
VERTEX
  5
681
  8
PS_PROFILE
 10
95.18275762371938
 20
2.781801332444108
 30
0.0
  0
SEQEND
  5
825
  8
PS_PROFILE
  0
POLYLINE
  5
13C
  8
PS_PROFILE
 66
     1
 10
0.0
 20
0.0
 30
0.0
  0
VERTEX
  5
682
  8
PS_PROFILE
 10
94.78275762371923
 20
1.26218609017414
 30
0.0
  0
VERTEX
  5
683
  8
PS_PROFILE
 10
94.78275762371938
 20
2.781801332444076
 30
0.0
  0
SEQEND
  5
826
  8
PS_PROFILE
  0
POLYLINE
  5
13D
  8
PS_PROFILE
 66
     1
 10
0.0
 20
0.0
 30
0.0
  0
VERTEX
  5
684
  8
PS_PROFILE
 10
95.18275762371938
 20
2.781801332444108
 30
0.0
  0
VERTEX
  5
685
  8
PS_PROFILE
 10
94.78275762371938
 20
2.781801332444076
 30
0.0
  0
SEQEND
  5
827
  8
PS_PROFILE
  0
POLYLINE
  5
13E
  8
PS_PROFILE
 66
     1
 10
0.0
 20
0.0
 30
0.0
  0
VERTEX
  5
686
  8
PS_PROFILE
 10
95.18275762371925
 20
1.262186090174115
 30
0.0
  0
VERTEX
  5
687
  8
PS_PROFILE
 10
95.18275762371941
 20
1.18180133244417
 30
0.0
  0
SEQEND
  5
828
  8
PS_PROFILE
  0
POLYLINE
  5
13F
  8
PS_PROFILE
 66
     1
 10
0.0
 20
0.0
 30
0.0
  0
VERTEX
  5
688
  8
PS_PROFILE
 10
95.18275762371925
 20
1.262186090174115
 30
0.0
  0
VERTEX
  5
689
  8
PS_PROFILE
 10
94.78275762371923
 20
1.26218609017414
 30
0.0
  0
SEQEND
  5
829
  8
PS_PROFILE
  0
POLYLINE
  5
140
  8
PS_PROFILE
 66
     1
 10
0.0
 20
0.0
 30
0.0
  0
VERTEX
  5
68A
  8
PS_PROFILE
 10
94.78275762371945
 20
1.181801332444195
 30
0.0
  0
VERTEX
  5
68B
  8
PS_PROFILE
 10
94.78275762371938
 20
2.781801332444076
 30
0.0
  0
SEQEND
  5
82A
  8
PS_PROFILE
  0
POLYLINE
  5
141
  8
PS_PROFILE
 66
     1
 10
0.0
 20
0.0
 30
0.0
  0
VERTEX
  5
68C
  8
PS_PROFILE
 10
94.78275762371923
 20
1.26218609017414
 30
0.0
  0
VERTEX
  5
68D
  8
PS_PROFILE
 10
94.78275762371945
 20
1.181801332444195
 30
0.0
  0
SEQEND
  5
82B
  8
PS_PROFILE
  0
POLYLINE
  5
142
  8
PS_PROFILE
 66
     1
 10
0.0
 20
0.0
 30
0.0
  0
VERTEX
  5
68E
  8
PS_PROFILE
 10
94.78275762371945
 20
1.181801332444195
 30
0.0
  0
VERTEX
  5
68F
  8
PS_PROFILE
 10
95.18275762371941
 20
1.18180133244417
 30
0.0
  0
SEQEND
  5
82C
  8
PS_PROFILE
  0
POLYLINE
  5
144
  8
FLUTE__4
 66
     1
 10
0.0
 20
0.0
 30
0.0
  0
VERTEX
  5
690
  8
FLUTE__4
 10
27.2285474398905
 20
25.67038200549285
 30
0.0
  0
VERTEX
  5
691
  8
FLUTE__4
 10
28.72136776291809
 20
25.67038200549283
 30
0.0
  0
SEQEND
  5
82D
  8
FLUTE__4
  0
POLYLINE
  5
145
  8
FLUTE__4
 66
     1
 10
0.0
 20
0.0
 30
0.0
  0
VERTEX
  5
692
  8
FLUTE__4
 10
27.22854743989055
 20
25.74538200549288
 30
0.0
  0
VERTEX
  5
693
  8
FLUTE__4
 10
28.72136776291809
 20
25.74538200549286
 30
0.0
  0
SEQEND
  5
82E
  8
FLUTE__4
  0
POLYLINE
  5
146
  8
FLUTE__4
 66
     1
 10
0.0
 20
0.0
 30
0.0
  0
VERTEX
  5
694
  8
FLUTE__4
 10
28.84854743989056
 20
25.74538200549286
 30
0.0
  0
VERTEX
  5
695
  8
FLUTE__4
 10
28.72136776291809
 20
25.74538200549286
 30
0.0
  0
SEQEND
  5
82F
  8
FLUTE__4
  0
POLYLINE
  5
147
  8
FLUTE__4
 66
     1
 10
0.0
 20
0.0
 30
0.0
  0
VERTEX
  5
696
  8
FLUTE__4
 10
28.82854743989058
 20
25.82038200549287
 30
0.0
  0
VERTEX
  5
697
  8
FLUTE__4
 10
28.72136776291809
 20
25.82038200549287
 30
0.0
  0
SEQEND
  5
830
  8
FLUTE__4
  0
POLYLINE
  5
148
  8
FLUTE__4
 66
     1
 10
0.0
 20
0.0
 30
0.0
  0
VERTEX
  5
698
  8
FLUTE__4
 10
28.82854743989055
 20
25.67038200549283
 30
0.0
  0
VERTEX
  5
699
  8
FLUTE__4
 10
28.72136776291809
 20
25.67038200549283
 30
0.0
  0
SEQEND
  5
831
  8
FLUTE__4
  0
POLYLINE
  5
149
  8
FLUTE__4
 66
     1
 10
0.0
 20
0.0
 30
0.0
  0
VERTEX
  5
69A
  8
FLUTE__4
 10
27.2285474398905
 20
25.82038200549287
 30
0.0
  0
VERTEX
  5
69B
  8
FLUTE__4
 10
28.72136776291809
 20
25.82038200549287
 30
0.0
  0
SEQEND
  5
832
  8
FLUTE__4
  0
POLYLINE
  5
14A
  8
FLUTE__4
 66
     1
 10
0.0
 20
0.0
 30
0.0
  0
VERTEX
  5
69C
  8
FLUTE__4
 10
27.22854743989113
 20
45.94538200614254
 30
0.0
  0
VERTEX
  5
69D
  8
FLUTE__4
 10
28.72136776291872
 20
45.94538200614252
 30
0.0
  0
SEQEND
  5
833
  8
FLUTE__4
  0
POLYLINE
  5
14B
  8
FLUTE__4
 66
     1
 10
0.0
 20
0.0
 30
0.0
  0
VERTEX
  5
69E
  8
FLUTE__4
 10
27.22854743989119
 20
46.02038200614257
 30
0.0
  0
VERTEX
  5
69F
  8
FLUTE__4
 10
28.72136776291872
 20
46.02038200614255
 30
0.0
  0
SEQEND
  5
834
  8
FLUTE__4
  0
POLYLINE
  5
14C
  8
FLUTE__4
 66
     1
 10
0.0
 20
0.0
 30
0.0
  0
VERTEX
  5
6A0
  8
FLUTE__4
 10
28.84854743989119
 20
46.02038200614255
 30
0.0
  0
VERTEX
  5
6A1
  8
FLUTE__4
 10
28.72136776291872
 20
46.02038200614255
 30
0.0
  0
SEQEND
  5
835
  8
FLUTE__4
  0
POLYLINE
  5
14D
  8
FLUTE__4
 66
     1
 10
0.0
 20
0.0
 30
0.0
  0
VERTEX
  5
6A2
  8
FLUTE__4
 10
28.82854743989121
 20
46.09538200614256
 30
0.0
  0
VERTEX
  5
6A3
  8
FLUTE__4
 10
28.72136776291872
 20
46.09538200614256
 30
0.0
  0
SEQEND
  5
836
  8
FLUTE__4
  0
POLYLINE
  5
14E
  8
FLUTE__4
 66
     1
 10
0.0
 20
0.0
 30
0.0
  0
VERTEX
  5
6A4
  8
FLUTE__4
 10
28.82854743989118
 20
45.94538200614252
 30
0.0
  0
VERTEX
  5
6A5
  8
FLUTE__4
 10
28.72136776291872
 20
45.94538200614252
 30
0.0
  0
SEQEND
  5
837
  8
FLUTE__4
  0
POLYLINE
  5
14F
  8
FLUTE__4
 66
     1
 10
0.0
 20
0.0
 30
0.0
  0
VERTEX
  5
6A6
  8
FLUTE__4
 10
27.22854743989113
 20
46.09538200614256
 30
0.0
  0
VERTEX
  5
6A7
  8
FLUTE__4
 10
28.72136776291872
 20
46.09538200614256
 30
0.0
  0
SEQEND
  5
838
  8
FLUTE__4
  0
POLYLINE
  5
150
  8
FLUTE__4
 66
     1
 10
0.0
 20
0.0
 30
0.0
  0
VERTEX
  5
6A8
  8
FLUTE__4
 10
3.142998934018735
 20
26.57038936756213
 30
0.0
  0
VERTEX
  5
6A9
  8
FLUTE__4
 10
1.650178610991148
 20
26.57038936756214
 30
0.0
  0
SEQEND
  5
839
  8
FLUTE__4
  0
POLYLINE
  5
151
  8
FLUTE__4
 66
     1
 10
0.0
 20
0.0
 30
0.0
  0
VERTEX
  5
6AA
  8
FLUTE__4
 10
3.142998934018678
 20
26.49538936756209
 30
0.0
  0
VERTEX
  5
6AB
  8
FLUTE__4
 10
1.650178610991148
 20
26.49538936756211
 30
0.0
  0
SEQEND
  5
83A
  8
FLUTE__4
  0
POLYLINE
  5
152
  8
FLUTE__4
 66
     1
 10
0.0
 20
0.0
 30
0.0
  0
VERTEX
  5
6AC
  8
FLUTE__4
 10
1.522998934018673
 20
26.49538936756211
 30
0.0
  0
VERTEX
  5
6AD
  8
FLUTE__4
 10
1.650178610991148
 20
26.49538936756211
 30
0.0
  0
SEQEND
  5
83B
  8
FLUTE__4
  0
POLYLINE
  5
153
  8
FLUTE__4
 66
     1
 10
0.0
 20
0.0
 30
0.0
  0
VERTEX
  5
6AE
  8
FLUTE__4
 10
1.542998934018655
 20
26.42038936756211
 30
0.0
  0
VERTEX
  5
6AF
  8
FLUTE__4
 10
1.650178610991148
 20
26.42038936756211
 30
0.0
  0
SEQEND
  5
83C
  8
FLUTE__4
  0
POLYLINE
  5
154
  8
FLUTE__4
 66
     1
 10
0.0
 20
0.0
 30
0.0
  0
VERTEX
  5
6B0
  8
FLUTE__4
 10
1.542998934018684
 20
26.57038936756214
 30
0.0
  0
VERTEX
  5
6B1
  8
FLUTE__4
 10
1.650178610991148
 20
26.57038936756214
 30
0.0
  0
SEQEND
  5
83D
  8
FLUTE__4
  0
POLYLINE
  5
155
  8
FLUTE__4
 66
     1
 10
0.0
 20
0.0
 30
0.0
  0
VERTEX
  5
6B2
  8
FLUTE__4
 10
3.142998934018735
 20
26.42038936756211
 30
0.0
  0
VERTEX
  5
6B3
  8
FLUTE__4
 10
1.650178610991148
 20
26.42038936756211
 30
0.0
  0
SEQEND
  5
83E
  8
FLUTE__4
  0
POLYLINE
  5
156
  8
FLUTE__4
 66
     1
 10
0.0
 20
0.0
 30
0.0
  0
VERTEX
  5
6B4
  8
FLUTE__4
 10
3.142998934019644
 20
45.6953820058729
 30
0.0
  0
VERTEX
  5
6B5
  8
FLUTE__4
 10
1.650178610992057
 20
45.69538200587289
 30
0.0
  0
SEQEND
  5
83F
  8
FLUTE__4
  0
POLYLINE
  5
157
  8
FLUTE__4
 66
     1
 10
0.0
 20
0.0
 30
0.0
  0
VERTEX
  5
6B6
  8
FLUTE__4
 10
3.142998934019587
 20
45.77038200587293
 30
0.0
  0
VERTEX
  5
6B7
  8
FLUTE__4
 10
1.650178610992057
 20
45.77038200587292
 30
0.0
  0
SEQEND
  5
840
  8
FLUTE__4
  0
POLYLINE
  5
158
  8
FLUTE__4
 66
     1
 10
0.0
 20
0.0
 30
0.0
  0
VERTEX
  5
6B8
  8
FLUTE__4
 10
1.522998934019583
 20
45.77038200587292
 30
0.0
  0
VERTEX
  5
6B9
  8
FLUTE__4
 10
1.650178610992057
 20
45.77038200587292
 30
0.0
  0
SEQEND
  5
841
  8
FLUTE__4
  0
POLYLINE
  5
159
  8
FLUTE__4
 66
     1
 10
0.0
 20
0.0
 30
0.0
  0
VERTEX
  5
6BA
  8
FLUTE__4
 10
1.542998934019565
 20
45.84538200587292
 30
0.0
  0
VERTEX
  5
6BB
  8
FLUTE__4
 10
1.650178610992057
 20
45.84538200587292
 30
0.0
  0
SEQEND
  5
842
  8
FLUTE__4
  0
POLYLINE
  5
15A
  8
FLUTE__4
 66
     1
 10
0.0
 20
0.0
 30
0.0
  0
VERTEX
  5
6BC
  8
FLUTE__4
 10
1.542998934019593
 20
45.69538200587289
 30
0.0
  0
VERTEX
  5
6BD
  8
FLUTE__4
 10
1.650178610992057
 20
45.69538200587289
 30
0.0
  0
SEQEND
  5
843
  8
FLUTE__4
  0
POLYLINE
  5
15B
  8
FLUTE__4
 66
     1
 10
0.0
 20
0.0
 30
0.0
  0
VERTEX
  5
6BE
  8
FLUTE__4
 10
3.142998934019644
 20
45.84538200587292
 30
0.0
  0
VERTEX
  5
6BF
  8
FLUTE__4
 10
1.650178610992057
 20
45.84538200587292
 30
0.0
  0
SEQEND
  5
844
  8
FLUTE__4
  0
POLYLINE
  5
15C
  8
FLUTE__4
 66
     1
 10
0.0
 20
0.0
 30
0.0
  0
VERTEX
  5
6C0
  8
FLUTE__4
 10
22.01077318694701
 20
44.52815626684257
 30
0.0
  0
VERTEX
  5
6C1
  8
FLUTE__4
 10
22.01077318695194
 20
46.02097658979099
 30
0.0
  0
SEQEND
  5
845
  8
FLUTE__4
  0
POLYLINE
  5
15D
  8
FLUTE__4
 66
     1
 10
0.0
 20
0.0
 30
0.0
  0
VERTEX
  5
6C2
  8
FLUTE__4
 10
21.93577318694698
 20
44.52815626684263
 30
0.0
  0
VERTEX
  5
6C3
  8
FLUTE__4
 10
21.93577318695191
 20
46.020976589791
 30
0.0
  0
SEQEND
  5
846
  8
FLUTE__4
  0
POLYLINE
  5
15E
  8
FLUTE__4
 66
     1
 10
0.0
 20
0.0
 30
0.0
  0
VERTEX
  5
6C4
  8
FLUTE__4
 10
21.93577318695233
 20
46.14815626675673
 30
0.0
  0
VERTEX
  5
6C5
  8
FLUTE__4
 10
21.93577318695191
 20
46.020976589791
 30
0.0
  0
SEQEND
  5
847
  8
FLUTE__4
  0
POLYLINE
  5
15F
  8
FLUTE__4
 66
     1
 10
0.0
 20
0.0
 30
0.0
  0
VERTEX
  5
6C6
  8
FLUTE__4
 10
21.86077318695226
 20
46.12815626675781
 30
0.0
  0
VERTEX
  5
6C7
  8
FLUTE__4
 10
21.86077318695191
 20
46.020976589791
 30
0.0
  0
SEQEND
  5
848
  8
FLUTE__4
  0
POLYLINE
  5
160
  8
FLUTE__4
 66
     1
 10
0.0
 20
0.0
 30
0.0
  0
VERTEX
  5
6C8
  8
FLUTE__4
 10
22.01077318695229
 20
46.12815626675778
 30
0.0
  0
VERTEX
  5
6C9
  8
FLUTE__4
 10
22.01077318695194
 20
46.02097658979099
 30
0.0
  0
SEQEND
  5
849
  8
FLUTE__4
  0
POLYLINE
  5
161
  8
FLUTE__4
 66
     1
 10
0.0
 20
0.0
 30
0.0
  0
VERTEX
  5
6CA
  8
FLUTE__4
 10
21.860773186947
 20
44.52815626684257
 30
0.0
  0
VERTEX
  5
6CB
  8
FLUTE__4
 10
21.86077318695191
 20
46.020976589791
 30
0.0
  0
SEQEND
  5
84A
  8
FLUTE__4
  0
POLYLINE
  5
162
  8
FLUTE__4
 66
     1
 10
0.0
 20
0.0
 30
0.0
  0
VERTEX
  5
6CC
  8
FLUTE__4
 10
8.50651391503154
 20
44.52815626645413
 30
0.0
  0
VERTEX
  5
6CD
  8
FLUTE__4
 10
8.506513915031618
 20
46.02097658948172
 30
0.0
  0
SEQEND
  5
84B
  8
FLUTE__4
  0
POLYLINE
  5
163
  8
FLUTE__4
 66
     1
 10
0.0
 20
0.0
 30
0.0
  0
VERTEX
  5
6CE
  8
FLUTE__4
 10
8.43151391503537
 20
44.52815626645419
 30
0.0
  0
VERTEX
  5
6CF
  8
FLUTE__4
 10
8.431513915035447
 20
46.02097658948172
 30
0.0
  0
SEQEND
  5
84C
  8
FLUTE__4
  0
POLYLINE
  5
164
  8
FLUTE__4
 66
     1
 10
0.0
 20
0.0
 30
0.0
  0
VERTEX
  5
6D0
  8
FLUTE__4
 10
8.431513915035453
 20
46.14815626645419
 30
0.0
  0
VERTEX
  5
6D1
  8
FLUTE__4
 10
8.431513915035447
 20
46.02097658948172
 30
0.0
  0
SEQEND
  5
84D
  8
FLUTE__4
  0
POLYLINE
  5
165
  8
FLUTE__4
 66
     1
 10
0.0
 20
0.0
 30
0.0
  0
VERTEX
  5
6D2
  8
FLUTE__4
 10
8.356513915039312
 20
46.12815626645421
 30
0.0
  0
VERTEX
  5
6D3
  8
FLUTE__4
 10
8.356513915039306
 20
46.02097658948172
 30
0.0
  0
SEQEND
  5
84E
  8
FLUTE__4
  0
POLYLINE
  5
166
  8
FLUTE__4
 66
     1
 10
0.0
 20
0.0
 30
0.0
  0
VERTEX
  5
6D4
  8
FLUTE__4
 10
8.506513915031622
 20
46.12815626645418
 30
0.0
  0
VERTEX
  5
6D5
  8
FLUTE__4
 10
8.506513915031618
 20
46.02097658948172
 30
0.0
  0
SEQEND
  5
84F
  8
FLUTE__4
  0
POLYLINE
  5
167
  8
FLUTE__4
 66
     1
 10
0.0
 20
0.0
 30
0.0
  0
VERTEX
  5
6D6
  8
FLUTE__4
 10
8.356513915039244
 20
44.52815626645413
 30
0.0
  0
VERTEX
  5
6D7
  8
FLUTE__4
 10
8.356513915039306
 20
46.02097658948172
 30
0.0
  0
SEQEND
  5
850
  8
FLUTE__4
  0
POLYLINE
  5
168
  8
FLUTE__4
 66
     1
 10
0.0
 20
0.0
 30
0.0
  0
VERTEX
  5
6D8
  8
FLUTE__4
 10
32.49299893401894
 20
42.57297191451434
 30
0.0
  0
VERTEX
  5
6D9
  8
FLUTE__4
 10
31.00017861099135
 20
42.57297191451433
 30
0.0
  0
SEQEND
  5
851
  8
FLUTE__4
  0
POLYLINE
  5
169
  8
FLUTE__4
 66
     1
 10
0.0
 20
0.0
 30
0.0
  0
VERTEX
  5
6DA
  8
FLUTE__4
 10
32.49299893401888
 20
42.64797191451437
 30
0.0
  0
VERTEX
  5
6DB
  8
FLUTE__4
 10
31.00017861099135
 20
42.64797191451436
 30
0.0
  0
SEQEND
  5
852
  8
FLUTE__4
  0
POLYLINE
  5
16A
  8
FLUTE__4
 66
     1
 10
0.0
 20
0.0
 30
0.0
  0
VERTEX
  5
6DC
  8
FLUTE__4
 10
30.87299893401887
 20
42.64797191451436
 30
0.0
  0
VERTEX
  5
6DD
  8
FLUTE__4
 10
31.00017861099135
 20
42.64797191451436
 30
0.0
  0
SEQEND
  5
853
  8
FLUTE__4
  0
POLYLINE
  5
16B
  8
FLUTE__4
 66
     1
 10
0.0
 20
0.0
 30
0.0
  0
VERTEX
  5
6DE
  8
FLUTE__4
 10
30.89299893401886
 20
42.72297191451436
 30
0.0
  0
VERTEX
  5
6DF
  8
FLUTE__4
 10
31.00017861099135
 20
42.72297191451436
 30
0.0
  0
SEQEND
  5
854
  8
FLUTE__4
  0
POLYLINE
  5
16C
  8
FLUTE__4
 66
     1
 10
0.0
 20
0.0
 30
0.0
  0
VERTEX
  5
6E0
  8
FLUTE__4
 10
30.89299893401888
 20
42.57297191451433
 30
0.0
  0
VERTEX
  5
6E1
  8
FLUTE__4
 10
31.00017861099135
 20
42.57297191451433
 30
0.0
  0
SEQEND
  5
855
  8
FLUTE__4
  0
POLYLINE
  5
16D
  8
FLUTE__4
 66
     1
 10
0.0
 20
0.0
 30
0.0
  0
VERTEX
  5
6E2
  8
FLUTE__4
 10
32.49299893401894
 20
42.72297191451436
 30
0.0
  0
VERTEX
  5
6E3
  8
FLUTE__4
 10
31.00017861099135
 20
42.72297191451436
 30
0.0
  0
SEQEND
  5
856
  8
FLUTE__4
  0
POLYLINE
  5
16E
  8
FLUTE__4
 66
     1
 10
0.0
 20
0.0
 30
0.0
  0
VERTEX
  5
6E4
  8
FLUTE__4
 10
32.49299893401894
 20
44.60547191451434
 30
0.0
  0
VERTEX
  5
6E5
  8
FLUTE__4
 10
31.00017861099135
 20
44.60547191451433
 30
0.0
  0
SEQEND
  5
857
  8
FLUTE__4
  0
POLYLINE
  5
16F
  8
FLUTE__4
 66
     1
 10
0.0
 20
0.0
 30
0.0
  0
VERTEX
  5
6E6
  8
FLUTE__4
 10
32.49299893401888
 20
44.68047191451437
 30
0.0
  0
VERTEX
  5
6E7
  8
FLUTE__4
 10
31.00017861099135
 20
44.68047191451436
 30
0.0
  0
SEQEND
  5
858
  8
FLUTE__4
  0
POLYLINE
  5
170
  8
FLUTE__4
 66
     1
 10
0.0
 20
0.0
 30
0.0
  0
VERTEX
  5
6E8
  8
FLUTE__4
 10
30.87299893401887
 20
44.68047191451436
 30
0.0
  0
VERTEX
  5
6E9
  8
FLUTE__4
 10
31.00017861099135
 20
44.68047191451436
 30
0.0
  0
SEQEND
  5
859
  8
FLUTE__4
  0
POLYLINE
  5
171
  8
FLUTE__4
 66
     1
 10
0.0
 20
0.0
 30
0.0
  0
VERTEX
  5
6EA
  8
FLUTE__4
 10
30.89299893401886
 20
44.75547191451436
 30
0.0
  0
VERTEX
  5
6EB
  8
FLUTE__4
 10
31.00017861099135
 20
44.75547191451436
 30
0.0
  0
SEQEND
  5
85A
  8
FLUTE__4
  0
POLYLINE
  5
172
  8
FLUTE__4
 66
     1
 10
0.0
 20
0.0
 30
0.0
  0
VERTEX
  5
6EC
  8
FLUTE__4
 10
30.89299893401888
 20
44.60547191451433
 30
0.0
  0
VERTEX
  5
6ED
  8
FLUTE__4
 10
31.00017861099135
 20
44.60547191451433
 30
0.0
  0
SEQEND
  5
85B
  8
FLUTE__4
  0
POLYLINE
  5
173
  8
FLUTE__4
 66
     1
 10
0.0
 20
0.0
 30
0.0
  0
VERTEX
  5
6EE
  8
FLUTE__4
 10
32.49299893401894
 20
44.75547191451436
 30
0.0
  0
VERTEX
  5
6EF
  8
FLUTE__4
 10
31.00017861099135
 20
44.75547191451436
 30
0.0
  0
SEQEND
  5
85C
  8
FLUTE__4
  0
POLYLINE
  5
174
  8
FLUTE__4
 66
     1
 10
0.0
 20
0.0
 30
0.0
  0
VERTEX
  5
6F0
  8
FLUTE__4
 10
56.57854743989134
 20
42.57297191451434
 30
0.0
  0
VERTEX
  5
6F1
  8
FLUTE__4
 10
58.07136776291892
 20
42.57297191451433
 30
0.0
  0
SEQEND
  5
85D
  8
FLUTE__4
  0
POLYLINE
  5
175
  8
FLUTE__4
 66
     1
 10
0.0
 20
0.0
 30
0.0
  0
VERTEX
  5
6F2
  8
FLUTE__4
 10
56.57854743989139
 20
42.64797191451437
 30
0.0
  0
VERTEX
  5
6F3
  8
FLUTE__4
 10
58.07136776291892
 20
42.64797191451436
 30
0.0
  0
SEQEND
  5
85E
  8
FLUTE__4
  0
POLYLINE
  5
176
  8
FLUTE__4
 66
     1
 10
0.0
 20
0.0
 30
0.0
  0
VERTEX
  5
6F4
  8
FLUTE__4
 10
58.1985474398914
 20
42.64797191451436
 30
0.0
  0
VERTEX
  5
6F5
  8
FLUTE__4
 10
58.07136776291892
 20
42.64797191451436
 30
0.0
  0
SEQEND
  5
85F
  8
FLUTE__4
  0
POLYLINE
  5
177
  8
FLUTE__4
 66
     1
 10
0.0
 20
0.0
 30
0.0
  0
VERTEX
  5
6F6
  8
FLUTE__4
 10
58.17854743989142
 20
42.72297191451436
 30
0.0
  0
VERTEX
  5
6F7
  8
FLUTE__4
 10
58.07136776291892
 20
42.72297191451436
 30
0.0
  0
SEQEND
  5
860
  8
FLUTE__4
  0
POLYLINE
  5
178
  8
FLUTE__4
 66
     1
 10
0.0
 20
0.0
 30
0.0
  0
VERTEX
  5
6F8
  8
FLUTE__4
 10
58.17854743989139
 20
42.57297191451433
 30
0.0
  0
VERTEX
  5
6F9
  8
FLUTE__4
 10
58.07136776291892
 20
42.57297191451433
 30
0.0
  0
SEQEND
  5
861
  8
FLUTE__4
  0
POLYLINE
  5
179
  8
FLUTE__4
 66
     1
 10
0.0
 20
0.0
 30
0.0
  0
VERTEX
  5
6FA
  8
FLUTE__4
 10
56.57854743989134
 20
42.72297191451436
 30
0.0
  0
VERTEX
  5
6FB
  8
FLUTE__4
 10
58.07136776291892
 20
42.72297191451436
 30
0.0
  0
SEQEND
  5
862
  8
FLUTE__4
  0
POLYLINE
  5
17A
  8
FLUTE__4
 66
     1
 10
0.0
 20
0.0
 30
0.0
  0
VERTEX
  5
6FC
  8
FLUTE__4
 10
56.57854743989134
 20
44.60547191451435
 30
0.0
  0
VERTEX
  5
6FD
  8
FLUTE__4
 10
58.07136776291892
 20
44.60547191451434
 30
0.0
  0
SEQEND
  5
863
  8
FLUTE__4
  0
POLYLINE
  5
17B
  8
FLUTE__4
 66
     1
 10
0.0
 20
0.0
 30
0.0
  0
VERTEX
  5
6FE
  8
FLUTE__4
 10
56.57854743989139
 20
44.68047191451438
 30
0.0
  0
VERTEX
  5
6FF
  8
FLUTE__4
 10
58.07136776291892
 20
44.68047191451437
 30
0.0
  0
SEQEND
  5
864
  8
FLUTE__4
  0
POLYLINE
  5
17C
  8
FLUTE__4
 66
     1
 10
0.0
 20
0.0
 30
0.0
  0
VERTEX
  5
700
  8
FLUTE__4
 10
58.1985474398914
 20
44.68047191451437
 30
0.0
  0
VERTEX
  5
701
  8
FLUTE__4
 10
58.07136776291892
 20
44.68047191451437
 30
0.0
  0
SEQEND
  5
865
  8
FLUTE__4
  0
POLYLINE
  5
17D
  8
FLUTE__4
 66
     1
 10
0.0
 20
0.0
 30
0.0
  0
VERTEX
  5
702
  8
FLUTE__4
 10
58.17854743989142
 20
44.75547191451437
 30
0.0
  0
VERTEX
  5
703
  8
FLUTE__4
 10
58.07136776291892
 20
44.75547191451437
 30
0.0
  0
SEQEND
  5
866
  8
FLUTE__4
  0
POLYLINE
  5
17E
  8
FLUTE__4
 66
     1
 10
0.0
 20
0.0
 30
0.0
  0
VERTEX
  5
704
  8
FLUTE__4
 10
58.17854743989139
 20
44.60547191451434
 30
0.0
  0
VERTEX
  5
705
  8
FLUTE__4
 10
58.07136776291892
 20
44.60547191451434
 30
0.0
  0
SEQEND
  5
867
  8
FLUTE__4
  0
POLYLINE
  5
17F
  8
FLUTE__4
 66
     1
 10
0.0
 20
0.0
 30
0.0
  0
VERTEX
  5
706
  8
FLUTE__4
 10
56.57854743989134
 20
44.75547191451437
 30
0.0
  0
VERTEX
  5
707
  8
FLUTE__4
 10
58.07136776291892
 20
44.75547191451437
 30
0.0
  0
SEQEND
  5
868
  8
FLUTE__4
  0
POLYLINE
  5
180
  8
FLUTE__4
 66
     1
 10
0.0
 20
0.0
 30
0.0
  0
VERTEX
  5
708
  8
FLUTE__4
 10
92.8752576237192
 20
26.8673498383166
 30
0.0
  0
VERTEX
  5
709
  8
FLUTE__4
 10
92.87525762371916
 20
28.36017016134419
 30
0.0
  0
SEQEND
  5
869
  8
FLUTE__4
  0
POLYLINE
  5
181
  8
FLUTE__4
 66
     1
 10
0.0
 20
0.0
 30
0.0
  0
VERTEX
  5
70A
  8
FLUTE__4
 10
92.95025762371922
 20
26.86734983831666
 30
0.0
  0
VERTEX
  5
70B
  8
FLUTE__4
 10
92.9502576237192
 20
28.36017016134419
 30
0.0
  0
SEQEND
  5
86A
  8
FLUTE__4
  0
POLYLINE
  5
182
  8
FLUTE__4
 66
     1
 10
0.0
 20
0.0
 30
0.0
  0
VERTEX
  5
70C
  8
FLUTE__4
 10
92.9502576237192
 20
28.48734983831666
 30
0.0
  0
VERTEX
  5
70D
  8
FLUTE__4
 10
92.9502576237192
 20
28.36017016134419
 30
0.0
  0
SEQEND
  5
86B
  8
FLUTE__4
  0
POLYLINE
  5
183
  8
FLUTE__4
 66
     1
 10
0.0
 20
0.0
 30
0.0
  0
VERTEX
  5
70E
  8
FLUTE__4
 10
93.0252576237192
 20
28.46734983831668
 30
0.0
  0
VERTEX
  5
70F
  8
FLUTE__4
 10
93.0252576237192
 20
28.36017016134419
 30
0.0
  0
SEQEND
  5
86C
  8
FLUTE__4
  0
POLYLINE
  5
184
  8
FLUTE__4
 66
     1
 10
0.0
 20
0.0
 30
0.0
  0
VERTEX
  5
710
  8
FLUTE__4
 10
92.87525762371916
 20
28.46734983831665
 30
0.0
  0
VERTEX
  5
711
  8
FLUTE__4
 10
92.87525762371916
 20
28.36017016134419
 30
0.0
  0
SEQEND
  5
86D
  8
FLUTE__4
  0
POLYLINE
  5
185
  8
FLUTE__4
 66
     1
 10
0.0
 20
0.0
 30
0.0
  0
VERTEX
  5
712
  8
FLUTE__4
 10
93.02525762371921
 20
26.8673498383166
 30
0.0
  0
VERTEX
  5
713
  8
FLUTE__4
 10
93.0252576237192
 20
28.36017016134419
 30
0.0
  0
SEQEND
  5
86E
  8
FLUTE__4
  0
POLYLINE
  5
186
  8
FLUTE__4
 66
     1
 10
0.0
 20
0.0
 30
0.0
  0
VERTEX
  5
714
  8
FLUTE__4
 10
94.90775762371919
 20
26.86734983831662
 30
0.0
  0
VERTEX
  5
715
  8
FLUTE__4
 10
94.90775762371916
 20
28.3601701613442
 30
0.0
  0
SEQEND
  5
86F
  8
FLUTE__4
  0
POLYLINE
  5
187
  8
FLUTE__4
 66
     1
 10
0.0
 20
0.0
 30
0.0
  0
VERTEX
  5
716
  8
FLUTE__4
 10
94.98275762371922
 20
26.86734983831667
 30
0.0
  0
VERTEX
  5
717
  8
FLUTE__4
 10
94.9827576237192
 20
28.3601701613442
 30
0.0
  0
SEQEND
  5
870
  8
FLUTE__4
  0
POLYLINE
  5
188
  8
FLUTE__4
 66
     1
 10
0.0
 20
0.0
 30
0.0
  0
VERTEX
  5
718
  8
FLUTE__4
 10
94.9827576237192
 20
28.48734983831668
 30
0.0
  0
VERTEX
  5
719
  8
FLUTE__4
 10
94.9827576237192
 20
28.3601701613442
 30
0.0
  0
SEQEND
  5
871
  8
FLUTE__4
  0
POLYLINE
  5
189
  8
FLUTE__4
 66
     1
 10
0.0
 20
0.0
 30
0.0
  0
VERTEX
  5
71A
  8
FLUTE__4
 10
95.0577576237192
 20
28.4673498383167
 30
0.0
  0
VERTEX
  5
71B
  8
FLUTE__4
 10
95.0577576237192
 20
28.3601701613442
 30
0.0
  0
SEQEND
  5
872
  8
FLUTE__4
  0
POLYLINE
  5
18A
  8
FLUTE__4
 66
     1
 10
0.0
 20
0.0
 30
0.0
  0
VERTEX
  5
71C
  8
FLUTE__4
 10
94.90775762371916
 20
28.46734983831667
 30
0.0
  0
VERTEX
  5
71D
  8
FLUTE__4
 10
94.90775762371916
 20
28.3601701613442
 30
0.0
  0
SEQEND
  5
873
  8
FLUTE__4
  0
POLYLINE
  5
18B
  8
FLUTE__4
 66
     1
 10
0.0
 20
0.0
 30
0.0
  0
VERTEX
  5
71E
  8
FLUTE__4
 10
95.05775762371921
 20
26.86734983831662
 30
0.0
  0
VERTEX
  5
71F
  8
FLUTE__4
 10
95.0577576237192
 20
28.3601701613442
 30
0.0
  0
SEQEND
  5
874
  8
FLUTE__4
  0
POLYLINE
  5
18C
  8
FLUTE__4
 66
     1
 10
0.0
 20
0.0
 30
0.0
  0
VERTEX
  5
720
  8
FLUTE__4
 10
92.87525762371934
 20
2.7818013324442
 30
0.0
  0
VERTEX
  5
721
  8
FLUTE__4
 10
92.87525762371934
 20
1.288981009416613
 30
0.0
  0
SEQEND
  5
875
  8
FLUTE__4
  0
POLYLINE
  5
18D
  8
FLUTE__4
 66
     1
 10
0.0
 20
0.0
 30
0.0
  0
VERTEX
  5
722
  8
FLUTE__4
 10
92.95025762371937
 20
2.781801332444143
 30
0.0
  0
VERTEX
  5
723
  8
FLUTE__4
 10
92.95025762371937
 20
1.288981009416613
 30
0.0
  0
SEQEND
  5
876
  8
FLUTE__4
  0
POLYLINE
  5
18E
  8
FLUTE__4
 66
     1
 10
0.0
 20
0.0
 30
0.0
  0
VERTEX
  5
724
  8
FLUTE__4
 10
92.95025762371937
 20
1.161801332444139
 30
0.0
  0
VERTEX
  5
725
  8
FLUTE__4
 10
92.95025762371937
 20
1.288981009416613
 30
0.0
  0
SEQEND
  5
877
  8
FLUTE__4
  0
POLYLINE
  5
18F
  8
FLUTE__4
 66
     1
 10
0.0
 20
0.0
 30
0.0
  0
VERTEX
  5
726
  8
FLUTE__4
 10
93.02525762371937
 20
1.18180133244412
 30
0.0
  0
VERTEX
  5
727
  8
FLUTE__4
 10
93.02525762371937
 20
1.288981009416613
 30
0.0
  0
SEQEND
  5
878
  8
FLUTE__4
  0
POLYLINE
  5
190
  8
FLUTE__4
 66
     1
 10
0.0
 20
0.0
 30
0.0
  0
VERTEX
  5
728
  8
FLUTE__4
 10
92.87525762371934
 20
1.181801332444149
 30
0.0
  0
VERTEX
  5
729
  8
FLUTE__4
 10
92.87525762371934
 20
1.288981009416613
 30
0.0
  0
SEQEND
  5
879
  8
FLUTE__4
  0
POLYLINE
  5
191
  8
FLUTE__4
 66
     1
 10
0.0
 20
0.0
 30
0.0
  0
VERTEX
  5
72A
  8
FLUTE__4
 10
93.02525762371936
 20
2.7818013324442
 30
0.0
  0
VERTEX
  5
72B
  8
FLUTE__4
 10
93.02525762371937
 20
1.288981009416613
 30
0.0
  0
SEQEND
  5
87A
  8
FLUTE__4
  0
POLYLINE
  5
192
  8
FLUTE__4
 66
     1
 10
0.0
 20
0.0
 30
0.0
  0
VERTEX
  5
72C
  8
FLUTE__4
 10
94.90775762371933
 20
2.781801332444218
 30
0.0
  0
VERTEX
  5
72D
  8
FLUTE__4
 10
94.90775762371933
 20
1.288981009416631
 30
0.0
  0
SEQEND
  5
87B
  8
FLUTE__4
  0
POLYLINE
  5
193
  8
FLUTE__4
 66
     1
 10
0.0
 20
0.0
 30
0.0
  0
VERTEX
  5
72E
  8
FLUTE__4
 10
94.98275762371937
 20
2.781801332444161
 30
0.0
  0
VERTEX
  5
72F
  8
FLUTE__4
 10
94.98275762371937
 20
1.288981009416631
 30
0.0
  0
SEQEND
  5
87C
  8
FLUTE__4
  0
POLYLINE
  5
194
  8
FLUTE__4
 66
     1
 10
0.0
 20
0.0
 30
0.0
  0
VERTEX
  5
730
  8
FLUTE__4
 10
94.98275762371937
 20
1.161801332444156
 30
0.0
  0
VERTEX
  5
731
  8
FLUTE__4
 10
94.98275762371937
 20
1.288981009416631
 30
0.0
  0
SEQEND
  5
87D
  8
FLUTE__4
  0
POLYLINE
  5
195
  8
FLUTE__4
 66
     1
 10
0.0
 20
0.0
 30
0.0
  0
VERTEX
  5
732
  8
FLUTE__4
 10
95.05775762371937
 20
1.181801332444138
 30
0.0
  0
VERTEX
  5
733
  8
FLUTE__4
 10
95.05775762371937
 20
1.288981009416631
 30
0.0
  0
SEQEND
  5
87E
  8
FLUTE__4
  0
POLYLINE
  5
196
  8
FLUTE__4
 66
     1
 10
0.0
 20
0.0
 30
0.0
  0
VERTEX
  5
734
  8
FLUTE__4
 10
94.90775762371933
 20
1.181801332444167
 30
0.0
  0
VERTEX
  5
735
  8
FLUTE__4
 10
94.90775762371933
 20
1.288981009416631
 30
0.0
  0
SEQEND
  5
87F
  8
FLUTE__4
  0
POLYLINE
  5
197
  8
FLUTE__4
 66
     1
 10
0.0
 20
0.0
 30
0.0
  0
VERTEX
  5
736
  8
FLUTE__4
 10
95.05775762371935
 20
2.781801332444218
 30
0.0
  0
VERTEX
  5
737
  8
FLUTE__4
 10
95.05775762371937
 20
1.288981009416631
 30
0.0
  0
SEQEND
  5
880
  8
FLUTE__4
  0
POLYLINE
  5
199
  8
DRILL_DRAWER_SLIDE_MARKER
 66
     1
 10
0.0
 20
0.0
 30
0.0
 70
     1
  0
VERTEX
  5
738
  8
DRILL_DRAWER_SLIDE_MARKER
 10
56.82818717543859
 20
15.07944429078002
 30
0.0
 42
0.4142135623730951
  0
VERTEX
  5
739
  8
DRILL_DRAWER_SLIDE_MARKER
 10
56.76568717543859
 20
15.01694429078002
 30
0.0
 42
0.4142135623730951
  0
VERTEX
  5
73A
  8
DRILL_DRAWER_SLIDE_MARKER
 10
56.82818717543859
 20
14.95444429078002
 30
0.0
 42
0.4142135623730951
  0
VERTEX
  5
73B
  8
DRILL_DRAWER_SLIDE_MARKER
 10
56.89068717543859
 20
15.01694429078002
 30
0.0
 42
0.4142135623730951
  0
SEQEND
  5
881
  8
DRILL_DRAWER_SLIDE_MARKER
  0
POLYLINE
  5
19A
  8
DRILL_DRAWER_SLIDE_MARKER
 66
     1
 10
0.0
 20
0.0
 30
0.0
 70
     1
  0
VERTEX
  5
73C
  8
DRILL_DRAWER_SLIDE_MARKER
 10
56.81448463820544
 20
1.418026505175408
 30
0.0
 42
0.4142135623730951
  0
VERTEX
  5
73D
  8
DRILL_DRAWER_SLIDE_MARKER
 10
56.75198463820544
 20
1.355526505175408
 30
0.0
 42
0.4142135623730951
  0
VERTEX
  5
73E
  8
DRILL_DRAWER_SLIDE_MARKER
 10
56.81448463820544
 20
1.293026505175408
 30
0.0
 42
0.4142135623730951
  0
VERTEX
  5
73F
  8
DRILL_DRAWER_SLIDE_MARKER
 10
56.87698463820544
 20
1.355526505175408
 30
0.0
 42
0.4142135623730951
  0
SEQEND
  5
882
  8
DRILL_DRAWER_SLIDE_MARKER
  0
POLYLINE
  5
19B
  8
DRILL_DRAWER_SLIDE_MARKER
 66
     1
 10
0.0
 20
0.0
 30
0.0
 70
     1
  0
VERTEX
  5
740
  8
DRILL_DRAWER_SLIDE_MARKER
 10
56.8145083160631
 20
3.740850340020497
 30
0.0
 42
0.4142135623730951
  0
VERTEX
  5
741
  8
DRILL_DRAWER_SLIDE_MARKER
 10
56.7520083160631
 20
3.678350340020497
 30
0.0
 42
0.4142135623730951
  0
VERTEX
  5
742
  8
DRILL_DRAWER_SLIDE_MARKER
 10
56.8145083160631
 20
3.615850340020497
 30
0.0
 42
0.4142135623730951
  0
VERTEX
  5
743
  8
DRILL_DRAWER_SLIDE_MARKER
 10
56.8770083160631
 20
3.678350340020497
 30
0.0
 42
0.4142135623730951
  0
SEQEND
  5
883
  8
DRILL_DRAWER_SLIDE_MARKER
  0
POLYLINE
  5
19C
  8
DRILL_DRAWER_SLIDE_MARKER
 66
     1
 10
0.0
 20
0.0
 30
0.0
 70
     1
  0
VERTEX
  5
744
  8
DRILL_DRAWER_SLIDE_MARKER
 10
56.82635530765614
 20
7.520389172669777
 30
0.0
 42
0.4142135623730951
  0
VERTEX
  5
745
  8
DRILL_DRAWER_SLIDE_MARKER
 10
56.76385530765614
 20
7.457889172669777
 30
0.0
 42
0.4142135623730951
  0
VERTEX
  5
746
  8
DRILL_DRAWER_SLIDE_MARKER
 10
56.82635530765614
 20
7.395389172669777
 30
0.0
 42
0.4142135623730951
  0
VERTEX
  5
747
  8
DRILL_DRAWER_SLIDE_MARKER
 10
56.88885530765614
 20
7.457889172669777
 30
0.0
 42
0.4142135623730951
  0
SEQEND
  5
884
  8
DRILL_DRAWER_SLIDE_MARKER
  0
POLYLINE
  5
19D
  8
DRILL_DRAWER_SLIDE_MARKER
 66
     1
 10
0.0
 20
0.0
 30
0.0
 70
     1
  0
VERTEX
  5
748
  8
DRILL_DRAWER_SLIDE_MARKER
 10
56.81448463820544
 20
2.481019930372259
 30
0.0
 42
0.4142135623730951
  0
VERTEX
  5
749
  8
DRILL_DRAWER_SLIDE_MARKER
 10
56.75198463820544
 20
2.418519930372259
 30
0.0
 42
0.4142135623730951
  0
VERTEX
  5
74A
  8
DRILL_DRAWER_SLIDE_MARKER
 10
56.81448463820544
 20
2.356019930372259
 30
0.0
 42
0.4142135623730951
  0
VERTEX
  5
74B
  8
DRILL_DRAWER_SLIDE_MARKER
 10
56.87698463820544
 20
2.418519930372259
 30
0.0
 42
0.4142135623730951
  0
SEQEND
  5
885
  8
DRILL_DRAWER_SLIDE_MARKER
  0
POLYLINE
  5
19E
  8
DRILL_DRAWER_SLIDE_MARKER
 66
     1
 10
0.0
 20
0.0
 30
0.0
 70
     1
  0
VERTEX
  5
74C
  8
DRILL_DRAWER_SLIDE_MARKER
 10
5.842719307901589
 20
15.07944429078001
 30
0.0
 42
0.4142135623730951
  0
VERTEX
  5
74D
  8
DRILL_DRAWER_SLIDE_MARKER
 10
5.780219307901589
 20
15.01694429078001
 30
0.0
 42
0.4142135623730951
  0
VERTEX
  5
74E
  8
DRILL_DRAWER_SLIDE_MARKER
 10
5.842719307901589
 20
14.95444429078001
 30
0.0
 42
0.4142135623730951
  0
VERTEX
  5
74F
  8
DRILL_DRAWER_SLIDE_MARKER
 10
5.905219307901589
 20
15.01694429078001
 30
0.0
 42
0.4142135623730951
  0
SEQEND
  5
886
  8
DRILL_DRAWER_SLIDE_MARKER
  0
POLYLINE
  5
19F
  8
DRILL_DRAWER_SLIDE_MARKER
 66
     1
 10
0.0
 20
0.0
 30
0.0
 70
     1
  0
VERTEX
  5
750
  8
DRILL_DRAWER_SLIDE_MARKER
 10
5.856421845134733
 20
1.418026505175401
 30
0.0
 42
0.4142135623730951
  0
VERTEX
  5
751
  8
DRILL_DRAWER_SLIDE_MARKER
 10
5.793921845134733
 20
1.355526505175401
 30
0.0
 42
0.4142135623730951
  0
VERTEX
  5
752
  8
DRILL_DRAWER_SLIDE_MARKER
 10
5.856421845134733
 20
1.293026505175401
 30
0.0
 42
0.4142135623730951
  0
VERTEX
  5
753
  8
DRILL_DRAWER_SLIDE_MARKER
 10
5.918921845134733
 20
1.355526505175401
 30
0.0
 42
0.4142135623730951
  0
SEQEND
  5
887
  8
DRILL_DRAWER_SLIDE_MARKER
  0
POLYLINE
  5
1A0
  8
DRILL_DRAWER_SLIDE_MARKER
 66
     1
 10
0.0
 20
0.0
 30
0.0
 70
     1
  0
VERTEX
  5
754
  8
DRILL_DRAWER_SLIDE_MARKER
 10
5.856398167277078
 20
3.74085034002049
 30
0.0
 42
0.4142135623730951
  0
VERTEX
  5
755
  8
DRILL_DRAWER_SLIDE_MARKER
 10
5.793898167277078
 20
3.67835034002049
 30
0.0
 42
0.4142135623730951
  0
VERTEX
  5
756
  8
DRILL_DRAWER_SLIDE_MARKER
 10
5.856398167277078
 20
3.61585034002049
 30
0.0
 42
0.4142135623730951
  0
VERTEX
  5
757
  8
DRILL_DRAWER_SLIDE_MARKER
 10
5.918898167277078
 20
3.67835034002049
 30
0.0
 42
0.4142135623730951
  0
SEQEND
  5
888
  8
DRILL_DRAWER_SLIDE_MARKER
  0
POLYLINE
  5
1A1
  8
DRILL_DRAWER_SLIDE_MARKER
 66
     1
 10
0.0
 20
0.0
 30
0.0
 70
     1
  0
VERTEX
  5
758
  8
DRILL_DRAWER_SLIDE_MARKER
 10
5.844551175684032
 20
7.52038917266977
 30
0.0
 42
0.4142135623730951
  0
VERTEX
  5
759
  8
DRILL_DRAWER_SLIDE_MARKER
 10
5.782051175684032
 20
7.45788917266977
 30
0.0
 42
0.4142135623730951
  0
VERTEX
  5
75A
  8
DRILL_DRAWER_SLIDE_MARKER
 10
5.844551175684032
 20
7.39538917266977
 30
0.0
 42
0.4142135623730951
  0
VERTEX
  5
75B
  8
DRILL_DRAWER_SLIDE_MARKER
 10
5.907051175684032
 20
7.45788917266977
 30
0.0
 42
0.4142135623730951
  0
SEQEND
  5
889
  8
DRILL_DRAWER_SLIDE_MARKER
  0
POLYLINE
  5
1A2
  8
DRILL_DRAWER_SLIDE_MARKER
 66
     1
 10
0.0
 20
0.0
 30
0.0
 70
     1
  0
VERTEX
  5
75C
  8
DRILL_DRAWER_SLIDE_MARKER
 10
5.856421845134733
 20
2.481019930372252
 30
0.0
 42
0.4142135623730951
  0
VERTEX
  5
75D
  8
DRILL_DRAWER_SLIDE_MARKER
 10
5.793921845134733
 20
2.418519930372252
 30
0.0
 42
0.4142135623730951
  0
VERTEX
  5
75E
  8
DRILL_DRAWER_SLIDE_MARKER
 10
5.856421845134733
 20
2.356019930372252
 30
0.0
 42
0.4142135623730951
  0
VERTEX
  5
75F
  8
DRILL_DRAWER_SLIDE_MARKER
 10
5.918921845134733
 20
2.418519930372252
 30
0.0
 42
0.4142135623730951
  0
SEQEND
  5
88A
  8
DRILL_DRAWER_SLIDE_MARKER
  0
ENDSEC
  0
EOF
